<svg width="107" height="25" viewBox="0 0 107 25" fill="none" xmlns="http://www.w3.org/2000/svg">
<path d="M0.88 24V0.639999H5.328V24H0.88ZM4.688 24V20.16H15.28V24H4.688ZM4.688 14.048V10.208H14.448V14.048H4.688ZM4.688 4.48V0.639999H15.024V4.48H4.688ZM22.9223 24L17.4823 6.624H22.0583L27.2743 24H22.9223ZM24.2343 24V20.352H28.9383V24H24.2343ZM25.9943 24L30.4743 6.624H34.7623L30.0583 24H25.9943ZM45.5228 24.608C44.0294 24.608 42.7174 24.352 41.5868 23.84C40.4774 23.328 39.5494 22.6453 38.8028 21.792C38.0774 20.9173 37.5228 19.9467 37.1388 18.88C36.7761 17.8133 36.5948 16.7253 36.5948 15.616V15.008C36.5948 13.856 36.7761 12.7467 37.1388 11.68C37.5228 10.592 38.0774 9.632 38.8028 8.8C39.5494 7.94667 40.4668 7.27467 41.5548 6.784C42.6428 6.272 43.9014 6.016 45.3308 6.016C47.2081 6.016 48.7761 6.432 50.0348 7.264C51.3148 8.07467 52.2748 9.152 52.9148 10.496C53.5548 11.8187 53.8748 13.248 53.8748 14.784V16.384H38.4828V13.664H51.0908L49.7148 15.008C49.7148 13.8987 49.5548 12.9493 49.2348 12.16C48.9148 11.3707 48.4241 10.7627 47.7628 10.336C47.1228 9.90933 46.3121 9.696 45.3308 9.696C44.3494 9.696 43.5174 9.92 42.8348 10.368C42.1521 10.816 41.6294 11.4667 41.2668 12.32C40.9254 13.152 40.7548 14.1547 40.7548 15.328C40.7548 16.416 40.9254 17.3867 41.2668 18.24C41.6081 19.072 42.1308 19.7333 42.8348 20.224C43.5388 20.6933 44.4348 20.928 45.5228 20.928C46.6108 20.928 47.4961 20.7147 48.1788 20.288C48.8614 19.84 49.2988 19.296 49.4908 18.656H53.5868C53.3308 19.8507 52.8401 20.896 52.1147 21.792C51.3894 22.688 50.4614 23.3813 49.3308 23.872C48.2214 24.3627 46.9521 24.608 45.5228 24.608ZM57.5905 24V6.624H61.1105V14.08H60.7905C60.7905 12.3093 61.0252 10.8373 61.4945 9.664C61.9638 8.46933 62.6572 7.57333 63.5745 6.976C64.5132 6.37867 65.6758 6.08 67.0625 6.08H67.2545C69.3238 6.08 70.8918 6.752 71.9585 8.096C73.0252 9.41867 73.5585 11.4027 73.5585 14.048V24H69.1105V13.664C69.1105 12.5973 68.8012 11.7333 68.1825 11.072C67.5852 10.4107 66.7532 10.08 65.6865 10.08C64.5985 10.08 63.7132 10.4213 63.0305 11.104C62.3692 11.7653 62.0385 12.6613 62.0385 13.792V24H57.5905ZM85.8925 24.224C84.2925 24.224 82.9698 24.0213 81.9245 23.616C80.9005 23.1893 80.1325 22.4853 79.6205 21.504C79.1085 20.5013 78.8525 19.1573 78.8525 17.472L78.8845 1.728H83.0445L83.0125 17.76C83.0125 18.6133 83.2365 19.2747 83.6845 19.744C84.1538 20.192 84.8152 20.416 85.6685 20.416H88.3885V24.224H85.8925ZM76.1005 9.888V6.624H88.3885V9.888H76.1005ZM102.42 24V3.456L103.828 4.544H97.652V0.639999H106.932V24H102.42Z" fill="white"/>
</svg>
