<svg width="179" height="19" viewBox="0 0 179 19" fill="none" xmlns="http://www.w3.org/2000/svg">
<path d="M5.86 15.36C4.64667 15.36 3.61333 15.16 2.76 14.76C1.90667 14.36 1.25333 13.8067 0.8 13.1C0.346667 12.3933 0.12 11.5933 0.12 10.7H2.08C2.08 11.14 2.19333 11.58 2.42 12.02C2.66 12.46 3.05333 12.8267 3.6 13.12C4.16 13.4133 4.91333 13.56 5.86 13.56C6.74 13.56 7.46 13.4333 8.02 13.18C8.58 12.9133 8.99333 12.5733 9.26 12.16C9.52667 11.7333 9.66 11.2733 9.66 10.78C9.66 10.18 9.4 9.68667 8.88 9.3C8.36 8.9 7.6 8.65333 6.6 8.56L4.98 8.42C3.68667 8.31333 2.65333 7.91333 1.88 7.22C1.10667 6.52667 0.72 5.61333 0.72 4.48C0.72 3.58667 0.933333 2.80667 1.36 2.14C1.8 1.47333 2.40667 0.953333 3.18 0.58C3.95333 0.193332 4.85333 -1.19209e-06 5.88 -1.19209e-06C6.89333 -1.19209e-06 7.78667 0.186665 8.56 0.559999C9.33333 0.933333 9.93333 1.46 10.36 2.14C10.8 2.80667 11.02 3.60667 11.02 4.54H9.06C9.06 4.07333 8.94667 3.63333 8.72 3.22C8.50667 2.80667 8.16667 2.46667 7.7 2.2C7.23333 1.93333 6.62667 1.8 5.88 1.8C5.16 1.8 4.56 1.92667 4.08 2.18C3.61333 2.43333 3.26 2.76667 3.02 3.18C2.79333 3.58 2.68 4.01333 2.68 4.48C2.68 5.01333 2.88667 5.48667 3.3 5.9C3.71333 6.31333 4.32667 6.55333 5.14 6.62L6.76 6.76C7.76 6.84 8.62 7.05333 9.34 7.4C10.0733 7.73333 10.6333 8.18667 11.02 8.76C11.42 9.32 11.62 9.99333 11.62 10.78C11.62 11.6733 11.38 12.4667 10.9 13.16C10.42 13.8533 9.74667 14.3933 8.88 14.78C8.01333 15.1667 7.00667 15.36 5.86 15.36ZM14.6291 15V4.32H16.1491V8.9H15.9091C15.9091 7.86 16.0424 6.98 16.3091 6.26C16.5891 5.52667 17.0024 4.96667 17.5491 4.58C18.0957 4.19333 18.7891 4 19.6291 4H19.7091C20.5491 4 21.2424 4.19333 21.7891 4.58C22.3491 4.96667 22.7624 5.52667 23.0291 6.26C23.2957 6.98 23.4291 7.86 23.4291 8.9H22.8691C22.8691 7.86 23.0091 6.98 23.2891 6.26C23.5691 5.52667 23.9824 4.96667 24.5291 4.58C25.0891 4.19333 25.7891 4 26.6291 4H26.7091C27.5491 4 28.2491 4.19333 28.8091 4.58C29.3691 4.96667 29.7824 5.52667 30.0491 6.26C30.3291 6.98 30.4691 7.86 30.4691 8.9V15H28.5491V8.48C28.5491 7.61333 28.3357 6.94667 27.9091 6.48C27.4824 6 26.8891 5.76 26.1291 5.76C25.3424 5.76 24.7091 6.01333 24.2291 6.52C23.7491 7.01333 23.5091 7.70667 23.5091 8.6V15H21.5891V8.48C21.5891 7.61333 21.3757 6.94667 20.9491 6.48C20.5224 6 19.9291 5.76 19.1691 5.76C18.3824 5.76 17.7491 6.01333 17.2691 6.52C16.7891 7.01333 16.5491 7.70667 16.5491 8.6V15H14.6291ZM40.4445 15V11.8H40.1245V8.1C40.1245 7.36667 39.9312 6.81333 39.5445 6.44C39.1712 6.06667 38.6179 5.88 37.8845 5.88C37.4712 5.88 37.0445 5.88667 36.6045 5.9C36.1645 5.91333 35.7445 5.92667 35.3445 5.94C34.9445 5.95333 34.5979 5.97333 34.3045 6V4.32C34.5979 4.29333 34.9045 4.27333 35.2245 4.26C35.5579 4.23333 35.8979 4.22 36.2445 4.22C36.5912 4.20667 36.9245 4.2 37.2445 4.2C38.3379 4.2 39.2312 4.33333 39.9245 4.6C40.6179 4.85333 41.1312 5.27333 41.4645 5.86C41.7979 6.44667 41.9645 7.24 41.9645 8.24V15H40.4445ZM36.9445 15.28C36.1445 15.28 35.4512 15.1467 34.8645 14.88C34.2912 14.6 33.8445 14.2 33.5245 13.68C33.2179 13.16 33.0645 12.5333 33.0645 11.8C33.0645 11.04 33.2312 10.4067 33.5645 9.9C33.9112 9.39333 34.4112 9.01333 35.0645 8.76C35.7179 8.49333 36.5045 8.36 37.4245 8.36H40.3245V9.8H37.3445C36.5712 9.8 35.9779 9.98667 35.5645 10.36C35.1512 10.7333 34.9445 11.2133 34.9445 11.8C34.9445 12.3867 35.1512 12.86 35.5645 13.22C35.9779 13.58 36.5712 13.76 37.3445 13.76C37.7979 13.76 38.2312 13.68 38.6445 13.52C39.0579 13.3467 39.3979 13.0667 39.6645 12.68C39.9445 12.28 40.0979 11.7333 40.1245 11.04L40.6445 11.8C40.5779 12.56 40.3912 13.2 40.0845 13.72C39.7912 14.2267 39.3779 14.6133 38.8445 14.88C38.3245 15.1467 37.6912 15.28 36.9445 15.28ZM45.6084 15V0.4H47.5284V15H45.6084ZM44.1284 1.92V0.4H47.5284V1.92H44.1284ZM51.3311 15V0.4H53.2511V15H51.3311ZM49.8511 1.92V0.4H53.2511V1.92H49.8511ZM63.3245 15.08V13.28H66.9645C67.8445 13.28 68.6245 13.14 69.3045 12.86C69.9979 12.5667 70.5845 12.1667 71.0645 11.66C71.5579 11.1533 71.9312 10.56 72.1845 9.88C72.4379 9.2 72.5645 8.46667 72.5645 7.68C72.5645 6.85333 72.4379 6.10667 72.1845 5.44C71.9312 4.76 71.5579 4.17333 71.0645 3.68C70.5845 3.17333 69.9979 2.78667 69.3045 2.52C68.6245 2.25333 67.8445 2.12 66.9645 2.12H63.3245V0.319999H66.7645C68.0845 0.319999 69.2312 0.526666 70.2045 0.94C71.1779 1.34 71.9845 1.88667 72.6245 2.58C73.2779 3.26 73.7645 4.02667 74.0845 4.88C74.4045 5.72 74.5645 6.58 74.5645 7.46V7.9C74.5645 8.75333 74.4045 9.60667 74.0845 10.46C73.7645 11.3133 73.2779 12.0867 72.6245 12.78C71.9845 13.4733 71.1779 14.0333 70.2045 14.46C69.2312 14.8733 68.0845 15.08 66.7645 15.08H63.3245ZM61.7645 15.08V0.319999H63.7245V15.08H61.7645ZM81.8448 15.36C80.9115 15.36 80.1048 15.2 79.4248 14.88C78.7448 14.56 78.1915 14.14 77.7648 13.62C77.3382 13.0867 77.0182 12.4933 76.8048 11.84C76.6048 11.1867 76.5048 10.52 76.5048 9.84V9.48C76.5048 8.78667 76.6048 8.11333 76.8048 7.46C77.0182 6.80667 77.3382 6.22 77.7648 5.7C78.1915 5.16667 78.7315 4.74667 79.3848 4.44C80.0515 4.12 80.8315 3.96 81.7248 3.96C82.8848 3.96 83.8382 4.21333 84.5848 4.72C85.3448 5.21333 85.9048 5.85333 86.2648 6.64C86.6382 7.42667 86.8248 8.26667 86.8248 9.16V10.02H77.3448V8.58H85.4248L84.9848 9.36C84.9848 8.6 84.8648 7.94667 84.6248 7.4C84.3848 6.84 84.0248 6.40667 83.5448 6.1C83.0648 5.79333 82.4582 5.64 81.7248 5.64C80.9648 5.64 80.3315 5.81333 79.8248 6.16C79.3315 6.50667 78.9582 6.98 78.7048 7.58C78.4648 8.18 78.3448 8.87333 78.3448 9.66C78.3448 10.42 78.4648 11.1067 78.7048 11.72C78.9582 12.32 79.3448 12.8 79.8648 13.16C80.3848 13.5067 81.0448 13.68 81.8448 13.68C82.6848 13.68 83.3648 13.4933 83.8848 13.12C84.4182 12.7467 84.7382 12.3133 84.8448 11.82H86.6448C86.4982 12.5533 86.2048 13.1867 85.7648 13.72C85.3248 14.2533 84.7715 14.66 84.1048 14.94C83.4382 15.22 82.6848 15.36 81.8448 15.36ZM93.0509 15.32C91.6509 15.32 90.5643 15.02 89.7909 14.42C89.0309 13.82 88.6376 13 88.6109 11.96H90.4109C90.4376 12.3733 90.6443 12.7667 91.0309 13.14C91.4309 13.5 92.1043 13.68 93.0509 13.68C93.9043 13.68 94.5576 13.5133 95.0109 13.18C95.4643 12.8333 95.6909 12.4133 95.6909 11.92C95.6909 11.48 95.5243 11.14 95.1909 10.9C94.8576 10.6467 94.3176 10.48 93.5709 10.4L92.4109 10.28C91.3976 10.1733 90.5709 9.87333 89.9309 9.38C89.2909 8.87333 88.9709 8.16667 88.9709 7.26C88.9709 6.58 89.1443 6 89.4909 5.52C89.8376 5.02667 90.3176 4.65333 90.9309 4.4C91.5443 4.13333 92.2509 4 93.0509 4C94.2509 4 95.2243 4.26667 95.9709 4.8C96.7176 5.33333 97.1043 6.12667 97.1309 7.18H95.3309C95.3176 6.75333 95.1176 6.39333 94.7309 6.1C94.3576 5.79333 93.7976 5.64 93.0509 5.64C92.3043 5.64 91.7376 5.79333 91.3509 6.1C90.9643 6.40667 90.7709 6.79333 90.7709 7.26C90.7709 7.66 90.9043 7.98 91.1709 8.22C91.4509 8.46 91.9043 8.61333 92.5309 8.68L93.6909 8.8C94.8376 8.92 95.7576 9.24 96.4509 9.76C97.1443 10.2667 97.4909 10.9867 97.4909 11.92C97.4909 12.5867 97.2976 13.18 96.9109 13.7C96.5376 14.2067 96.0176 14.6067 95.3509 14.9C94.6843 15.18 93.9176 15.32 93.0509 15.32ZM104.854 15.36C103.934 15.36 103.134 15.2 102.454 14.88C101.787 14.56 101.234 14.1333 100.794 13.6C100.354 13.0533 100.02 12.4533 99.7936 11.8C99.5803 11.1467 99.4736 10.4933 99.4736 9.84V9.48C99.4736 8.8 99.5803 8.13333 99.7936 7.48C100.02 6.82667 100.354 6.24 100.794 5.72C101.247 5.18667 101.807 4.76 102.474 4.44C103.14 4.12 103.92 3.96 104.814 3.96C105.707 3.96 106.507 4.12667 107.214 4.46C107.934 4.79333 108.507 5.26667 108.934 5.88C109.374 6.48 109.62 7.19333 109.674 8.02H107.834C107.74 7.35333 107.434 6.8 106.914 6.36C106.394 5.90667 105.694 5.68 104.814 5.68C104.054 5.68 103.42 5.85333 102.914 6.2C102.407 6.54667 102.027 7.02 101.774 7.62C101.52 8.22 101.394 8.9 101.394 9.66C101.394 10.3933 101.52 11.0667 101.774 11.68C102.027 12.28 102.407 12.76 102.914 13.12C103.434 13.4667 104.08 13.64 104.854 13.64C105.454 13.64 105.974 13.5333 106.414 13.32C106.854 13.1067 107.207 12.82 107.474 12.46C107.74 12.1 107.9 11.6933 107.954 11.24H109.794C109.754 12.08 109.507 12.8067 109.054 13.42C108.614 14.0333 108.027 14.5133 107.294 14.86C106.574 15.1933 105.76 15.36 104.854 15.36ZM112.403 15V4.32H113.923V8.72H113.843C113.843 7.16 114.183 6.02 114.863 5.3C115.556 4.56667 116.589 4.2 117.963 4.2H118.323V5.92H117.643C116.576 5.92 115.756 6.20667 115.183 6.78C114.609 7.34 114.323 8.15333 114.323 9.22V15H112.403ZM121.126 15V4.32H123.046V15H121.126ZM119.486 5.84V4.32H123.046V5.84H119.486ZM121.666 2.6C121.239 2.6 120.919 2.48667 120.706 2.26C120.506 2.03333 120.406 1.74667 120.406 1.4C120.406 1.05333 120.506 0.766666 120.706 0.539999C120.919 0.313333 121.239 0.2 121.666 0.2C122.092 0.2 122.406 0.313333 122.606 0.539999C122.819 0.766666 122.926 1.05333 122.926 1.4C122.926 1.74667 122.819 2.03333 122.606 2.26C122.406 2.48667 122.092 2.6 121.666 2.6ZM126.758 19V4.32H128.278V8.94L127.918 8.9C127.985 7.75333 128.225 6.82 128.638 6.1C129.065 5.36667 129.618 4.82667 130.298 4.48C130.978 4.13333 131.718 3.96 132.518 3.96C133.291 3.96 133.991 4.10667 134.618 4.4C135.258 4.69333 135.805 5.09333 136.258 5.6C136.711 6.10667 137.058 6.69333 137.298 7.36C137.538 8.02667 137.658 8.73333 137.658 9.48V9.84C137.658 10.5867 137.531 11.2933 137.278 11.96C137.025 12.6267 136.665 13.2133 136.198 13.72C135.745 14.2267 135.198 14.6267 134.558 14.92C133.931 15.2133 133.238 15.36 132.478 15.36C131.718 15.36 130.991 15.1933 130.298 14.86C129.605 14.5267 129.031 13.9867 128.578 13.24C128.125 12.4933 127.865 11.5133 127.798 10.3L128.678 11.9V19H126.758ZM132.178 13.68C132.898 13.68 133.525 13.5133 134.058 13.18C134.591 12.8333 135.005 12.36 135.298 11.76C135.591 11.1467 135.738 10.4467 135.738 9.66C135.738 8.86 135.591 8.16 135.298 7.56C135.005 6.96 134.591 6.49333 134.058 6.16C133.525 5.81333 132.898 5.64 132.178 5.64C131.538 5.64 130.945 5.78667 130.398 6.08C129.851 6.36 129.411 6.77333 129.078 7.32C128.758 7.85333 128.598 8.5 128.598 9.26V10.18C128.598 10.9133 128.765 11.54 129.098 12.06C129.431 12.58 129.871 12.98 130.418 13.26C130.965 13.54 131.551 13.68 132.178 13.68ZM144.707 15.12C143.907 15.12 143.214 15.0067 142.627 14.78C142.054 14.5533 141.607 14.1667 141.287 13.62C140.98 13.06 140.827 12.3067 140.827 11.36V1.08H142.667V11.6C142.667 12.1733 142.82 12.62 143.127 12.94C143.447 13.2467 143.894 13.4 144.467 13.4H146.347V15.12H144.707ZM138.987 5.76V4.32H146.347V5.76H138.987ZM149.583 15V4.32H151.503V15H149.583ZM147.943 5.84V4.32H151.503V5.84H147.943ZM150.123 2.6C149.696 2.6 149.376 2.48667 149.163 2.26C148.963 2.03333 148.863 1.74667 148.863 1.4C148.863 1.05333 148.963 0.766666 149.163 0.539999C149.376 0.313333 149.696 0.2 150.123 0.2C150.549 0.2 150.863 0.313333 151.063 0.539999C151.276 0.766666 151.383 1.05333 151.383 1.4C151.383 1.74667 151.276 2.03333 151.063 2.26C150.863 2.48667 150.549 2.6 150.123 2.6ZM160.135 15.36C159.202 15.36 158.382 15.2 157.675 14.88C156.968 14.56 156.368 14.14 155.875 13.62C155.395 13.0867 155.028 12.4933 154.775 11.84C154.535 11.1867 154.415 10.52 154.415 9.84V9.48C154.415 8.8 154.542 8.13333 154.795 7.48C155.048 6.81333 155.422 6.22 155.915 5.7C156.408 5.16667 157.008 4.74667 157.715 4.44C158.422 4.12 159.228 3.96 160.135 3.96C161.042 3.96 161.848 4.12 162.555 4.44C163.262 4.74667 163.862 5.16667 164.355 5.7C164.848 6.22 165.222 6.81333 165.475 7.48C165.728 8.13333 165.855 8.8 165.855 9.48V9.84C165.855 10.52 165.728 11.1867 165.475 11.84C165.235 12.4933 164.868 13.0867 164.375 13.62C163.895 14.14 163.302 14.56 162.595 14.88C161.888 15.2 161.068 15.36 160.135 15.36ZM160.135 13.64C160.935 13.64 161.615 13.4667 162.175 13.12C162.748 12.76 163.182 12.28 163.475 11.68C163.782 11.08 163.935 10.4067 163.935 9.66C163.935 8.9 163.782 8.22 163.475 7.62C163.168 7.02 162.728 6.54667 162.155 6.2C161.595 5.85333 160.922 5.68 160.135 5.68C159.362 5.68 158.688 5.85333 158.115 6.2C157.542 6.54667 157.102 7.02 156.795 7.62C156.488 8.22 156.335 8.9 156.335 9.66C156.335 10.4067 156.482 11.08 156.775 11.68C157.082 12.28 157.515 12.76 158.075 13.12C158.648 13.4667 159.335 13.64 160.135 13.64ZM168.731 15V4.32H170.251V8.9H170.011C170.011 7.84667 170.151 6.96 170.431 6.24C170.724 5.50667 171.164 4.95333 171.751 4.58C172.337 4.19333 173.077 4 173.971 4H174.051C175.397 4 176.391 4.42 177.031 5.26C177.684 6.1 178.011 7.31333 178.011 8.9V15H176.091V8.5C176.091 7.67333 175.857 7.01333 175.391 6.52C174.924 6.01333 174.284 5.76 173.471 5.76C172.631 5.76 171.951 6.02 171.431 6.54C170.911 7.06 170.651 7.75333 170.651 8.62V15H168.731Z" fill="#CAC6DD"/>
</svg>
