<svg width="510" height="40" viewBox="0 0 510 40" fill="none" xmlns="http://www.w3.org/2000/svg">
<path d="M10.9844 31.76C8.87771 31.76 7.02438 31.3467 5.42438 30.52C3.82438 29.6933 2.58438 28.48 1.70438 26.88C0.824375 25.28 0.384375 23.32 0.384375 21V19.72H6.02438V21.48C6.02438 23.0267 6.47771 24.2533 7.38438 25.16C8.29104 26.04 9.47771 26.48 10.9444 26.48C12.4377 26.48 13.6244 26.04 14.5044 25.16C15.411 24.2533 15.8644 23.0267 15.8644 21.48V6H21.5444V21C21.5444 23.32 21.1044 25.28 20.2244 26.88C19.3444 28.48 18.1177 29.6933 16.5444 30.52C14.971 31.3467 13.1177 31.76 10.9844 31.76ZM3.94438 6.8V1.8H21.5444V6.8H3.94438ZM38.2484 31.76C36.3284 31.76 34.6351 31.4533 33.1684 30.84C31.7018 30.2267 30.4618 29.4 29.4484 28.36C28.4351 27.2933 27.6618 26.0933 27.1284 24.76C26.6218 23.4267 26.3684 22.04 26.3684 20.6V19.76C26.3684 18.2667 26.6351 16.8533 27.1684 15.52C27.7284 14.16 28.5151 12.96 29.5284 11.92C30.5684 10.8533 31.8218 10.0267 33.2884 9.44C34.7551 8.82667 36.4084 8.52 38.2484 8.52C40.0884 8.52 41.7418 8.82667 43.2084 9.44C44.6751 10.0267 45.9151 10.8533 46.9284 11.92C47.9684 12.96 48.7551 14.16 49.2884 15.52C49.8218 16.8533 50.0884 18.2667 50.0884 19.76V20.6C50.0884 22.04 49.8218 23.4267 49.2884 24.76C48.7818 26.0933 48.0218 27.2933 47.0084 28.36C45.9951 29.4 44.7551 30.2267 43.2884 30.84C41.8218 31.4533 40.1418 31.76 38.2484 31.76ZM38.2484 27C39.6084 27 40.7551 26.7067 41.6884 26.12C42.6218 25.5067 43.3284 24.6933 43.8084 23.68C44.2884 22.64 44.5284 21.4667 44.5284 20.16C44.5284 18.8267 44.2751 17.6533 43.7684 16.64C43.2884 15.6 42.5684 14.7867 41.6084 14.2C40.6751 13.5867 39.5551 13.28 38.2484 13.28C36.9418 13.28 35.8084 13.5867 34.8484 14.2C33.9151 14.7867 33.1951 15.6 32.6884 16.64C32.1818 17.6533 31.9284 18.8267 31.9284 20.16C31.9284 21.4667 32.1684 22.64 32.6484 23.68C33.1551 24.6933 33.8751 25.5067 34.8084 26.12C35.7418 26.7067 36.8884 27 38.2484 27ZM55.9969 31V9.28H61.5569V31H55.9969ZM52.9569 13.44V9.28H61.5569V13.44H52.9569ZM58.0369 6.68C56.9435 6.68 56.1302 6.4 55.5969 5.84C55.0902 5.25333 54.8369 4.53333 54.8369 3.68C54.8369 2.77333 55.0902 2.04 55.5969 1.48C56.1302 0.919998 56.9435 0.639997 58.0369 0.639997C59.1302 0.639997 59.9302 0.919998 60.4369 1.48C60.9435 2.04 61.1969 2.77333 61.1969 3.68C61.1969 4.53333 60.9435 5.25333 60.4369 5.84C59.9302 6.4 59.1302 6.68 58.0369 6.68ZM67.9647 31V9.28H72.3647V18.6H71.9647C71.9647 16.3867 72.258 14.5467 72.8447 13.08C73.4314 11.5867 74.298 10.4667 75.4447 9.72C76.618 8.97333 78.0714 8.6 79.8047 8.6H80.0447C82.6314 8.6 84.5914 9.44 85.9247 11.12C87.258 12.7733 87.9247 15.2533 87.9247 18.56V31H82.3647V18.08C82.3647 16.7467 81.978 15.6667 81.2047 14.84C80.458 14.0133 79.418 13.6 78.0847 13.6C76.7247 13.6 75.618 14.0267 74.7647 14.88C73.938 15.7067 73.5247 16.8267 73.5247 18.24V31H67.9647ZM116.695 31.76C114.055 31.76 111.762 31.2933 109.815 30.36C107.895 29.4267 106.295 28.2133 105.015 26.72C103.762 25.2 102.815 23.5733 102.175 21.84C101.562 20.08 101.255 18.3867 101.255 16.76V15.88C101.255 14.0933 101.575 12.32 102.215 10.56C102.855 8.77333 103.815 7.16 105.095 5.72C106.402 4.28 108.015 3.13333 109.935 2.28C111.855 1.4 114.108 0.959998 116.695 0.959998C119.255 0.959998 121.495 1.4 123.415 2.28C125.335 3.13333 126.935 4.28 128.215 5.72C129.522 7.16 130.495 8.77333 131.135 10.56C131.775 12.32 132.095 14.0933 132.095 15.88V16.76C132.095 18.3867 131.775 20.08 131.135 21.84C130.522 23.5733 129.575 25.2 128.295 26.72C127.042 28.2133 125.442 29.4267 123.495 30.36C121.575 31.2933 119.308 31.76 116.695 31.76ZM116.695 26.48C118.188 26.48 119.522 26.2133 120.695 25.68C121.895 25.1467 122.908 24.4133 123.735 23.48C124.588 22.52 125.228 21.44 125.655 20.24C126.108 19.0133 126.335 17.72 126.335 16.36C126.335 14.8933 126.108 13.5467 125.655 12.32C125.228 11.0933 124.588 10.0267 123.735 9.12C122.908 8.21333 121.895 7.50667 120.695 7C119.495 6.49333 118.162 6.24 116.695 6.24C115.202 6.24 113.855 6.49333 112.655 7C111.455 7.50667 110.428 8.21333 109.575 9.12C108.748 10.0267 108.108 11.0933 107.655 12.32C107.228 13.5467 107.015 14.8933 107.015 16.36C107.015 17.72 107.228 19.0133 107.655 20.24C108.108 21.44 108.748 22.52 109.575 23.48C110.428 24.4133 111.455 25.1467 112.655 25.68C113.855 26.2133 115.202 26.48 116.695 26.48ZM144.544 31.68C142.038 31.68 140.091 30.8533 138.704 29.2C137.344 27.5467 136.664 25.0933 136.664 21.84V9.24H142.224V22.32C142.224 23.6533 142.598 24.72 143.344 25.52C144.091 26.2933 145.104 26.68 146.384 26.68C147.664 26.68 148.704 26.2667 149.504 25.44C150.331 24.6133 150.744 23.4933 150.744 22.08V9.24H156.304V31H151.904V21.76H152.344C152.344 23.9467 152.064 25.7733 151.504 27.24C150.944 28.7067 150.104 29.8133 148.984 30.56C147.864 31.3067 146.464 31.68 144.784 31.68H144.544ZM162.691 31V9.28H167.091V18.48H166.971C166.971 15.36 167.638 13 168.971 11.4C170.305 9.8 172.265 9 174.851 9H175.651V13.84H174.131C172.265 13.84 170.811 14.3467 169.771 15.36C168.758 16.3467 168.251 17.7867 168.251 19.68V31H162.691ZM202.164 31.76C199.524 31.76 197.23 31.2933 195.284 30.36C193.364 29.4267 191.764 28.2133 190.484 26.72C189.23 25.2 188.284 23.5733 187.644 21.84C187.03 20.08 186.724 18.3867 186.724 16.76V15.88C186.724 14.0933 187.044 12.32 187.684 10.56C188.324 8.77333 189.284 7.16 190.564 5.72C191.87 4.28 193.484 3.13333 195.404 2.28C197.324 1.4 199.577 0.959998 202.164 0.959998C204.724 0.959998 206.964 1.4 208.884 2.28C210.804 3.13333 212.404 4.28 213.684 5.72C214.99 7.16 215.964 8.77333 216.604 10.56C217.244 12.32 217.564 14.0933 217.564 15.88V16.76C217.564 18.3867 217.244 20.08 216.604 21.84C215.99 23.5733 215.044 25.2 213.764 26.72C212.51 28.2133 210.91 29.4267 208.964 30.36C207.044 31.2933 204.777 31.76 202.164 31.76ZM202.164 26.48C203.657 26.48 204.99 26.2133 206.164 25.68C207.364 25.1467 208.377 24.4133 209.204 23.48C210.057 22.52 210.697 21.44 211.124 20.24C211.577 19.0133 211.804 17.72 211.804 16.36C211.804 14.8933 211.577 13.5467 211.124 12.32C210.697 11.0933 210.057 10.0267 209.204 9.12C208.377 8.21333 207.364 7.50667 206.164 7C204.964 6.49333 203.63 6.24 202.164 6.24C200.67 6.24 199.324 6.49333 198.124 7C196.924 7.50667 195.897 8.21333 195.044 9.12C194.217 10.0267 193.577 11.0933 193.124 12.32C192.697 13.5467 192.484 14.8933 192.484 16.36C192.484 17.72 192.697 19.0133 193.124 20.24C193.577 21.44 194.217 22.52 195.044 23.48C195.897 24.4133 196.924 25.1467 198.124 25.68C199.324 26.2133 200.67 26.48 202.164 26.48ZM222.613 31V9.28H227.013V18.6H226.613C226.613 16.3867 226.906 14.5467 227.493 13.08C228.08 11.5867 228.946 10.4667 230.093 9.72C231.266 8.97333 232.72 8.6 234.453 8.6H234.693C237.28 8.6 239.24 9.44 240.573 11.12C241.906 12.7733 242.573 15.2533 242.573 18.56V31H237.013V18.08C237.013 16.7467 236.626 15.6667 235.853 14.84C235.106 14.0133 234.066 13.6 232.733 13.6C231.373 13.6 230.266 14.0267 229.413 14.88C228.586 15.7067 228.173 16.8267 228.173 18.24V31H222.613ZM257.031 39.56C255.991 39.56 254.924 39.52 253.831 39.44C252.764 39.36 251.764 39.2533 250.831 39.12V34.48C251.791 34.5867 252.817 34.68 253.911 34.76C255.004 34.8667 256.031 34.92 256.991 34.92C258.777 34.92 260.217 34.7067 261.311 34.28C262.431 33.8533 263.244 33.1733 263.751 32.24C264.284 31.3333 264.551 30.1733 264.551 28.76V24.48L265.751 21.76C265.671 23.76 265.257 25.4667 264.511 26.88C263.764 28.2667 262.751 29.3333 261.471 30.08C260.191 30.8 258.711 31.16 257.031 31.16C255.537 31.16 254.177 30.88 252.951 30.32C251.751 29.76 250.711 28.9867 249.831 28C248.977 27.0133 248.311 25.8533 247.831 24.52C247.351 23.1867 247.111 21.76 247.111 20.24V19.4C247.111 17.88 247.351 16.4667 247.831 15.16C248.337 13.8267 249.044 12.6667 249.951 11.68C250.857 10.6933 251.937 9.93333 253.191 9.4C254.444 8.86667 255.831 8.6 257.351 8.6C259.137 8.6 260.684 8.98667 261.991 9.76C263.324 10.5333 264.364 11.6533 265.111 13.12C265.857 14.5867 266.271 16.3867 266.351 18.52L265.391 18.68V9.28H269.791V28.44C269.791 31.08 269.337 33.2133 268.431 34.84C267.524 36.4667 266.124 37.6533 264.231 38.4C262.364 39.1733 259.964 39.56 257.031 39.56ZM258.631 26.4C259.697 26.4 260.671 26.16 261.551 25.68C262.431 25.2 263.137 24.5067 263.671 23.6C264.204 22.6933 264.471 21.6 264.471 20.32V18.92C264.471 17.6933 264.191 16.6533 263.631 15.8C263.097 14.9467 262.391 14.3067 261.511 13.88C260.631 13.4267 259.671 13.2 258.631 13.2C257.457 13.2 256.417 13.48 255.511 14.04C254.631 14.5733 253.937 15.3333 253.431 16.32C252.924 17.3067 252.671 18.48 252.671 19.84C252.671 21.1733 252.924 22.3333 253.431 23.32C253.937 24.3067 254.631 25.0667 255.511 25.6C256.417 26.1333 257.457 26.4 258.631 26.4ZM286.295 31.76C284.375 31.76 282.682 31.4533 281.215 30.84C279.749 30.2267 278.509 29.4 277.495 28.36C276.482 27.2933 275.709 26.0933 275.175 24.76C274.669 23.4267 274.415 22.04 274.415 20.6V19.76C274.415 18.2667 274.682 16.8533 275.215 15.52C275.775 14.16 276.562 12.96 277.575 11.92C278.615 10.8533 279.869 10.0267 281.335 9.44C282.802 8.82667 284.455 8.52 286.295 8.52C288.135 8.52 289.789 8.82667 291.255 9.44C292.722 10.0267 293.962 10.8533 294.975 11.92C296.015 12.96 296.802 14.16 297.335 15.52C297.869 16.8533 298.135 18.2667 298.135 19.76V20.6C298.135 22.04 297.869 23.4267 297.335 24.76C296.829 26.0933 296.069 27.2933 295.055 28.36C294.042 29.4 292.802 30.2267 291.335 30.84C289.869 31.4533 288.189 31.76 286.295 31.76ZM286.295 27C287.655 27 288.802 26.7067 289.735 26.12C290.669 25.5067 291.375 24.6933 291.855 23.68C292.335 22.64 292.575 21.4667 292.575 20.16C292.575 18.8267 292.322 17.6533 291.815 16.64C291.335 15.6 290.615 14.7867 289.655 14.2C288.722 13.5867 287.602 13.28 286.295 13.28C284.989 13.28 283.855 13.5867 282.895 14.2C281.962 14.7867 281.242 15.6 280.735 16.64C280.229 17.6533 279.975 18.8267 279.975 20.16C279.975 21.4667 280.215 22.64 280.695 23.68C281.202 24.6933 281.922 25.5067 282.855 26.12C283.789 26.7067 284.935 27 286.295 27ZM304.044 31V9.28H309.604V31H304.044ZM301.004 13.44V9.28H309.604V13.44H301.004ZM306.084 6.68C304.99 6.68 304.177 6.4 303.644 5.84C303.137 5.25333 302.884 4.53333 302.884 3.68C302.884 2.77333 303.137 2.04 303.644 1.48C304.177 0.919998 304.99 0.639997 306.084 0.639997C307.177 0.639997 307.977 0.919998 308.484 1.48C308.99 2.04 309.244 2.77333 309.244 3.68C309.244 4.53333 308.99 5.25333 308.484 5.84C307.977 6.4 307.177 6.68 306.084 6.68ZM316.012 31V9.28H320.412V18.6H320.012C320.012 16.3867 320.305 14.5467 320.892 13.08C321.478 11.5867 322.345 10.4667 323.492 9.72C324.665 8.97333 326.118 8.6 327.852 8.6H328.092C330.678 8.6 332.638 9.44 333.972 11.12C335.305 12.7733 335.972 15.2533 335.972 18.56V31H330.412V18.08C330.412 16.7467 330.025 15.6667 329.252 14.84C328.505 14.0133 327.465 13.6 326.132 13.6C324.772 13.6 323.665 14.0267 322.812 14.88C321.985 15.7067 321.572 16.8267 321.572 18.24V31H316.012ZM350.429 39.56C349.389 39.56 348.322 39.52 347.229 39.44C346.162 39.36 345.162 39.2533 344.229 39.12V34.48C345.189 34.5867 346.216 34.68 347.309 34.76C348.402 34.8667 349.429 34.92 350.389 34.92C352.176 34.92 353.616 34.7067 354.709 34.28C355.829 33.8533 356.642 33.1733 357.149 32.24C357.682 31.3333 357.949 30.1733 357.949 28.76V24.48L359.149 21.76C359.069 23.76 358.656 25.4667 357.909 26.88C357.162 28.2667 356.149 29.3333 354.869 30.08C353.589 30.8 352.109 31.16 350.429 31.16C348.936 31.16 347.576 30.88 346.349 30.32C345.149 29.76 344.109 28.9867 343.229 28C342.376 27.0133 341.709 25.8533 341.229 24.52C340.749 23.1867 340.509 21.76 340.509 20.24V19.4C340.509 17.88 340.749 16.4667 341.229 15.16C341.736 13.8267 342.442 12.6667 343.349 11.68C344.256 10.6933 345.336 9.93333 346.589 9.4C347.842 8.86667 349.229 8.6 350.749 8.6C352.536 8.6 354.082 8.98667 355.389 9.76C356.722 10.5333 357.762 11.6533 358.509 13.12C359.256 14.5867 359.669 16.3867 359.749 18.52L358.789 18.68V9.28H363.189V28.44C363.189 31.08 362.736 33.2133 361.829 34.84C360.922 36.4667 359.522 37.6533 357.629 38.4C355.762 39.1733 353.362 39.56 350.429 39.56ZM352.029 26.4C353.096 26.4 354.069 26.16 354.949 25.68C355.829 25.2 356.536 24.5067 357.069 23.6C357.602 22.6933 357.869 21.6 357.869 20.32V18.92C357.869 17.6933 357.589 16.6533 357.029 15.8C356.496 14.9467 355.789 14.3067 354.909 13.88C354.029 13.4267 353.069 13.2 352.029 13.2C350.856 13.2 349.816 13.48 348.909 14.04C348.029 14.5733 347.336 15.3333 346.829 16.32C346.322 17.3067 346.069 18.48 346.069 19.84C346.069 21.1733 346.322 22.3333 346.829 23.32C347.336 24.3067 348.029 25.0667 348.909 25.6C349.816 26.1333 350.856 26.4 352.029 26.4ZM378.327 31V1.8H383.887V31H378.327ZM383.087 31V26.2H396.327V31H383.087ZM383.087 18.56V13.76H395.287V18.56H383.087ZM383.087 6.6V1.8H396.007V6.6H383.087ZM405.879 31L399.079 9.28H404.799L411.319 31H405.879ZM407.519 31V26.44H413.399V31H407.519ZM409.719 31L415.319 9.28H420.679L414.799 31H409.719ZM434.13 31.76C432.263 31.76 430.623 31.44 429.21 30.8C427.823 30.16 426.663 29.3067 425.73 28.24C424.823 27.1467 424.13 25.9333 423.65 24.6C423.197 23.2667 422.97 21.9067 422.97 20.52V19.76C422.97 18.32 423.197 16.9333 423.65 15.6C424.13 14.24 424.823 13.04 425.73 12C426.663 10.9333 427.81 10.0933 429.17 9.48C430.53 8.84 432.103 8.52 433.89 8.52C436.237 8.52 438.197 9.04 439.77 10.08C441.37 11.0933 442.57 12.44 443.37 14.12C444.17 15.7733 444.57 17.56 444.57 19.48V21.48H425.33V18.08H441.09L439.37 19.76C439.37 18.3733 439.17 17.1867 438.77 16.2C438.37 15.2133 437.757 14.4533 436.93 13.92C436.13 13.3867 435.117 13.12 433.89 13.12C432.663 13.12 431.623 13.4 430.77 13.96C429.917 14.52 429.263 15.3333 428.81 16.4C428.383 17.44 428.17 18.6933 428.17 20.16C428.17 21.52 428.383 22.7333 428.81 23.8C429.237 24.84 429.89 25.6667 430.77 26.28C431.65 26.8667 432.77 27.16 434.13 27.16C435.49 27.16 436.597 26.8933 437.45 26.36C438.303 25.8 438.85 25.12 439.09 24.32H444.21C443.89 25.8133 443.277 27.12 442.37 28.24C441.463 29.36 440.303 30.2267 438.89 30.84C437.503 31.4533 435.917 31.76 434.13 31.76ZM449.215 31V9.28H453.615V18.6H453.215C453.215 16.3867 453.508 14.5467 454.095 13.08C454.681 11.5867 455.548 10.4667 456.695 9.72C457.868 8.97333 459.321 8.6 461.055 8.6H461.295C463.881 8.6 465.841 9.44 467.175 11.12C468.508 12.7733 469.175 15.2533 469.175 18.56V31H463.615V18.08C463.615 16.7467 463.228 15.6667 462.455 14.84C461.708 14.0133 460.668 13.6 459.335 13.6C457.975 13.6 456.868 14.0267 456.015 14.88C455.188 15.7067 454.775 16.8267 454.775 18.24V31H449.215ZM484.592 31.28C482.592 31.28 480.939 31.0267 479.632 30.52C478.352 29.9867 477.392 29.1067 476.752 27.88C476.112 26.6267 475.792 24.9467 475.792 22.84L475.832 3.16H481.032L480.992 23.2C480.992 24.2667 481.272 25.0933 481.832 25.68C482.419 26.24 483.246 26.52 484.312 26.52H487.712V31.28H484.592ZM472.352 13.36V9.28H487.712V13.36H472.352ZM500.103 31.68C497.116 31.68 494.769 31.0533 493.063 29.8C491.383 28.52 490.503 26.76 490.423 24.52H495.423C495.503 25.2667 495.916 25.9467 496.663 26.56C497.409 27.1733 498.583 27.48 500.183 27.48C501.516 27.48 502.569 27.24 503.343 26.76C504.143 26.28 504.543 25.6267 504.543 24.8C504.543 24.08 504.236 23.5067 503.623 23.08C503.036 22.6533 502.023 22.3733 500.583 22.24L498.663 22.04C496.236 21.7733 494.369 21.08 493.063 19.96C491.756 18.84 491.103 17.3467 491.103 15.48C491.103 13.9867 491.476 12.7333 492.223 11.72C492.969 10.7067 493.996 9.94667 495.303 9.44C496.636 8.90667 498.156 8.64 499.863 8.64C502.529 8.64 504.689 9.22667 506.343 10.4C507.996 11.5733 508.863 13.2933 508.943 15.56H503.943C503.889 14.8133 503.516 14.1733 502.823 13.64C502.129 13.1067 501.129 12.84 499.823 12.84C498.649 12.84 497.743 13.0667 497.103 13.52C496.463 13.9733 496.143 14.56 496.143 15.28C496.143 15.9733 496.396 16.5067 496.903 16.88C497.436 17.2533 498.289 17.5067 499.463 17.64L501.383 17.84C503.943 18.1067 505.943 18.8133 507.383 19.96C508.849 21.1067 509.583 22.6533 509.583 24.6C509.583 26.04 509.183 27.2933 508.383 28.36C507.609 29.4 506.516 30.2133 505.103 30.8C503.689 31.3867 502.023 31.68 500.103 31.68Z" fill="#CAD1E9"/>
</svg>
