<svg width="858" height="58" viewBox="0 0 858 58" fill="none" xmlns="http://www.w3.org/2000/svg">
<path d="M0.564563 18V2.256H4.45256C6.03656 2.256 7.36456 2.56 8.43656 3.168C9.52456 3.76 10.3486 4.64 10.9086 5.808C11.4686 6.976 11.7486 8.392 11.7486 10.056C11.7486 11.736 11.4686 13.168 10.9086 14.352C10.3646 15.536 9.55656 16.44 8.48456 17.064C7.41256 17.688 6.10056 18 4.54856 18H0.564563ZM2.55656 16.368H4.30856C5.50856 16.368 6.50056 16.12 7.28456 15.624C8.08456 15.112 8.68456 14.392 9.08456 13.464C9.48456 12.52 9.68456 11.384 9.68456 10.056C9.68456 8.744 9.48456 7.624 9.08456 6.696C8.68456 5.768 8.08456 5.072 7.28456 4.608C6.50056 4.128 5.50856 3.888 4.30856 3.888H2.55656V16.368ZM16.3712 18V6.336H18.0032L18.1712 9.096H18.2432C18.8512 8.152 19.6032 7.408 20.4992 6.864C21.3952 6.32 22.3792 6.048 23.4512 6.048C23.8832 6.048 24.2832 6.088 24.6512 6.168C25.0352 6.232 25.4032 6.352 25.7552 6.528L25.2992 8.232C24.8992 8.088 24.5552 7.984 24.2672 7.92C23.9792 7.856 23.6032 7.824 23.1392 7.824C22.2592 7.824 21.4112 8.08 20.5952 8.592C19.7952 9.088 19.0432 9.944 18.3392 11.16V18H16.3712ZM34.8418 18V7.944H29.4178V6.336H36.8098V18H34.8418ZM35.6098 3.888C35.1618 3.888 34.7858 3.752 34.4818 3.48C34.1778 3.192 34.0258 2.816 34.0258 2.352C34.0258 1.888 34.1778 1.52 34.4818 1.248C34.7858 0.96 35.1618 0.816 35.6098 0.816C36.0578 0.816 36.4338 0.96 36.7378 1.248C37.0418 1.52 37.1938 1.888 37.1938 2.352C37.1938 2.816 37.0418 3.192 36.7378 3.48C36.4338 3.752 36.0578 3.888 35.6098 3.888ZM47.7924 18L42.8724 6.336H44.8644L47.5524 12.96C47.7924 13.536 48.0164 14.112 48.2244 14.688C48.4484 15.264 48.6644 15.832 48.8724 16.392H48.9684C49.1764 15.832 49.3844 15.264 49.5924 14.688C49.8004 14.112 50.0164 13.536 50.2404 12.96L52.9284 6.336H54.8244L50.0004 18H47.7924ZM63.6231 18V7.944H58.1991V6.336H65.5911V18H63.6231ZM64.3911 3.888C63.9431 3.888 63.5671 3.752 63.2631 3.48C62.9591 3.192 62.8071 2.816 62.8071 2.352C62.8071 1.888 62.9591 1.52 63.2631 1.248C63.5671 0.96 63.9431 0.816 64.3911 0.816C64.8391 0.816 65.2151 0.96 65.5191 1.248C65.8231 1.52 65.9751 1.888 65.9751 2.352C65.9751 2.816 65.8231 3.192 65.5191 3.48C65.2151 3.752 64.8391 3.888 64.3911 3.888ZM72.6617 18V6.336H74.2937L74.4617 8.328H74.5577C75.1657 7.672 75.8217 7.128 76.5257 6.696C77.2297 6.264 78.0377 6.048 78.9497 6.048C80.3257 6.048 81.3417 6.448 81.9977 7.248C82.6537 8.048 82.9817 9.216 82.9817 10.752V18H81.0137V11.016C81.0137 9.912 80.8057 9.096 80.3897 8.568C79.9737 8.024 79.2857 7.752 78.3257 7.752C77.6377 7.752 77.0217 7.928 76.4777 8.28C75.9337 8.632 75.3177 9.16 74.6297 9.864V18H72.6617ZM91.9243 23.376C90.7883 23.376 89.8203 23.248 89.0203 22.992C88.2203 22.736 87.6043 22.368 87.1723 21.888C86.7563 21.408 86.5483 20.824 86.5483 20.136C86.5483 19.672 86.7083 19.208 87.0283 18.744C87.3643 18.296 87.8443 17.896 88.4683 17.544V17.448C88.1643 17.272 87.8843 17.032 87.6283 16.728C87.3883 16.424 87.2683 16.024 87.2683 15.528C87.2683 15.16 87.3883 14.784 87.6283 14.4C87.8683 14 88.2123 13.648 88.6603 13.344V13.248C88.2603 12.944 87.9163 12.536 87.6283 12.024C87.3563 11.512 87.2203 10.912 87.2203 10.224C87.2203 9.376 87.4283 8.64 87.8443 8.016C88.2763 7.392 88.8363 6.912 89.5243 6.576C90.2283 6.224 90.9883 6.048 91.8043 6.048C92.4603 6.048 93.0363 6.144 93.5323 6.336H98.3563V7.944H95.3323C95.6043 8.216 95.8363 8.56 96.0283 8.976C96.2203 9.392 96.3163 9.832 96.3163 10.296C96.3163 11.128 96.1163 11.848 95.7163 12.456C95.3163 13.048 94.7723 13.504 94.0843 13.824C93.4123 14.144 92.6523 14.304 91.8043 14.304C91.5003 14.304 91.1723 14.272 90.8203 14.208C90.4843 14.128 90.1563 14.016 89.8363 13.872C89.5483 14.048 89.3243 14.248 89.1643 14.472C89.0043 14.696 88.9243 14.944 88.9243 15.216C88.9243 15.664 89.1323 16 89.5483 16.224C89.9803 16.448 90.5803 16.56 91.3483 16.56H93.9643C95.4683 16.56 96.5803 16.768 97.3003 17.184C98.0363 17.6 98.4043 18.304 98.4043 19.296C98.4043 20.016 98.1403 20.688 97.6123 21.312C97.0843 21.936 96.3323 22.432 95.3563 22.8C94.3963 23.184 93.2523 23.376 91.9243 23.376ZM91.8043 12.984C92.3003 12.984 92.7483 12.872 93.1483 12.648C93.5643 12.424 93.8923 12.104 94.1323 11.688C94.3723 11.272 94.4923 10.784 94.4923 10.224C94.4923 9.68 94.3723 9.208 94.1323 8.808C93.8923 8.392 93.5643 8.072 93.1483 7.848C92.7483 7.608 92.3003 7.488 91.8043 7.488C91.3243 7.488 90.8763 7.608 90.4603 7.848C90.0603 8.072 89.7323 8.392 89.4763 8.808C89.2363 9.208 89.1163 9.68 89.1163 10.224C89.1163 10.784 89.2363 11.272 89.4763 11.688C89.7323 12.104 90.0603 12.424 90.4603 12.648C90.8763 12.872 91.3243 12.984 91.8043 12.984ZM92.0683 21.936C92.9803 21.936 93.7643 21.824 94.4203 21.6C95.0763 21.376 95.5803 21.088 95.9323 20.736C96.2843 20.384 96.4603 20.008 96.4603 19.608C96.4603 19.048 96.2363 18.672 95.7883 18.48C95.3563 18.288 94.6923 18.192 93.7963 18.192H91.5163C91.1803 18.192 90.8603 18.176 90.5563 18.144C90.2683 18.112 89.9963 18.064 89.7403 18C89.1963 18.304 88.8123 18.616 88.5883 18.936C88.3643 19.272 88.2523 19.608 88.2523 19.944C88.2523 20.552 88.5723 21.032 89.2123 21.384C89.8683 21.752 90.8203 21.936 92.0683 21.936ZM121.186 18V7.944H115.762V6.336H123.154V18H121.186ZM121.954 3.888C121.506 3.888 121.13 3.752 120.826 3.48C120.522 3.192 120.37 2.816 120.37 2.352C120.37 1.888 120.522 1.52 120.826 1.248C121.13 0.96 121.506 0.816 121.954 0.816C122.402 0.816 122.778 0.96 123.082 1.248C123.386 1.52 123.538 1.888 123.538 2.352C123.538 2.816 123.386 3.192 123.082 3.48C122.778 3.752 122.402 3.888 121.954 3.888ZM130.224 18V6.336H131.856L132.024 8.328H132.12C132.728 7.672 133.384 7.128 134.088 6.696C134.792 6.264 135.6 6.048 136.512 6.048C137.888 6.048 138.904 6.448 139.56 7.248C140.216 8.048 140.544 9.216 140.544 10.752V18H138.576V11.016C138.576 9.912 138.368 9.096 137.952 8.568C137.536 8.024 136.848 7.752 135.888 7.752C135.2 7.752 134.584 7.928 134.04 8.28C133.496 8.632 132.88 9.16 132.192 9.864V18H130.224ZM144.615 18V6.336H146.247L146.415 8.328H146.511C147.119 7.672 147.775 7.128 148.479 6.696C149.183 6.264 149.991 6.048 150.903 6.048C152.279 6.048 153.295 6.448 153.951 7.248C154.607 8.048 154.935 9.216 154.935 10.752V18H152.967V11.016C152.967 9.912 152.759 9.096 152.343 8.568C151.927 8.024 151.239 7.752 150.279 7.752C149.591 7.752 148.975 7.928 148.431 8.28C147.887 8.632 147.271 9.16 146.583 9.864V18H144.615ZM163.973 18.288C162.949 18.288 161.997 18.048 161.117 17.568C160.253 17.088 159.549 16.392 159.005 15.48C158.477 14.568 158.213 13.472 158.213 12.192C158.213 10.88 158.477 9.768 159.005 8.856C159.549 7.944 160.253 7.248 161.117 6.768C161.997 6.288 162.949 6.048 163.973 6.048C164.997 6.048 165.941 6.288 166.805 6.768C167.685 7.248 168.389 7.944 168.917 8.856C169.461 9.768 169.733 10.88 169.733 12.192C169.733 13.472 169.461 14.568 168.917 15.48C168.389 16.392 167.685 17.088 166.805 17.568C165.941 18.048 164.997 18.288 163.973 18.288ZM163.973 16.656C164.725 16.656 165.381 16.472 165.941 16.104C166.501 15.72 166.933 15.192 167.237 14.52C167.541 13.848 167.693 13.072 167.693 12.192C167.693 11.296 167.541 10.512 167.237 9.84C166.933 9.152 166.501 8.624 165.941 8.256C165.381 7.872 164.725 7.68 163.973 7.68C163.221 7.68 162.565 7.872 162.005 8.256C161.461 8.624 161.029 9.152 160.709 9.84C160.405 10.512 160.253 11.296 160.253 12.192C160.253 13.072 160.405 13.848 160.709 14.52C161.029 15.192 161.461 15.72 162.005 16.104C162.565 16.472 163.221 16.656 163.973 16.656ZM177.308 18L172.388 6.336H174.38L177.068 12.96C177.308 13.536 177.532 14.112 177.74 14.688C177.964 15.264 178.18 15.832 178.388 16.392H178.484C178.692 15.832 178.9 15.264 179.108 14.688C179.316 14.112 179.532 13.536 179.756 12.96L182.444 6.336H184.34L179.516 18H177.308ZM191.459 18.288C190.739 18.288 190.075 18.16 189.467 17.904C188.859 17.632 188.379 17.248 188.027 16.752C187.675 16.256 187.499 15.664 187.499 14.976C187.499 13.664 188.155 12.672 189.467 12C190.779 11.312 192.939 10.848 195.947 10.608C195.931 10.08 195.819 9.592 195.611 9.144C195.419 8.696 195.099 8.344 194.651 8.088C194.203 7.816 193.603 7.68 192.851 7.68C192.355 7.68 191.859 7.752 191.363 7.896C190.883 8.024 190.419 8.2 189.971 8.424C189.539 8.632 189.139 8.848 188.771 9.072L188.003 7.728C188.387 7.472 188.851 7.216 189.395 6.96C189.955 6.688 190.555 6.472 191.195 6.312C191.835 6.136 192.499 6.048 193.187 6.048C194.259 6.048 195.139 6.248 195.827 6.648C196.531 7.048 197.051 7.608 197.387 8.328C197.739 9.032 197.915 9.872 197.915 10.848V18H196.307L196.139 16.416H196.067C195.427 16.928 194.707 17.368 193.907 17.736C193.107 18.104 192.291 18.288 191.459 18.288ZM191.987 16.704C192.659 16.704 193.323 16.552 193.979 16.248C194.635 15.944 195.291 15.52 195.947 14.976V11.904C194.283 12.048 192.971 12.248 192.011 12.504C191.067 12.76 190.395 13.088 189.995 13.488C189.611 13.872 189.419 14.32 189.419 14.832C189.419 15.264 189.539 15.624 189.779 15.912C190.019 16.184 190.331 16.384 190.715 16.512C191.115 16.64 191.539 16.704 191.987 16.704ZM209.401 18.288C208.265 18.288 207.369 18.088 206.713 17.688C206.057 17.272 205.585 16.704 205.297 15.984C205.025 15.264 204.889 14.424 204.889 13.464V7.944H201.601V6.456L204.961 6.336L205.225 2.592H206.857V6.336H212.593V7.944H206.857V13.488C206.857 14.176 206.945 14.76 207.121 15.24C207.297 15.72 207.601 16.08 208.033 16.32C208.465 16.56 209.057 16.68 209.809 16.68C210.369 16.68 210.873 16.632 211.321 16.536C211.769 16.44 212.201 16.312 212.617 16.152L213.049 17.592C212.521 17.784 211.961 17.944 211.369 18.072C210.793 18.216 210.137 18.288 209.401 18.288ZM221.92 18V7.944H216.496V6.336H223.888V18H221.92ZM222.688 3.888C222.24 3.888 221.864 3.752 221.56 3.48C221.256 3.192 221.104 2.816 221.104 2.352C221.104 1.888 221.256 1.52 221.56 1.248C221.864 0.96 222.24 0.816 222.688 0.816C223.136 0.816 223.512 0.96 223.816 1.248C224.12 1.52 224.272 1.888 224.272 2.352C224.272 2.816 224.12 3.192 223.816 3.48C223.512 3.752 223.136 3.888 222.688 3.888ZM235.927 18.288C234.903 18.288 233.951 18.048 233.071 17.568C232.207 17.088 231.503 16.392 230.959 15.48C230.431 14.568 230.167 13.472 230.167 12.192C230.167 10.88 230.431 9.768 230.959 8.856C231.503 7.944 232.207 7.248 233.071 6.768C233.951 6.288 234.903 6.048 235.927 6.048C236.951 6.048 237.895 6.288 238.759 6.768C239.639 7.248 240.343 7.944 240.871 8.856C241.415 9.768 241.687 10.88 241.687 12.192C241.687 13.472 241.415 14.568 240.871 15.48C240.343 16.392 239.639 17.088 238.759 17.568C237.895 18.048 236.951 18.288 235.927 18.288ZM235.927 16.656C236.679 16.656 237.335 16.472 237.895 16.104C238.455 15.72 238.887 15.192 239.191 14.52C239.495 13.848 239.647 13.072 239.647 12.192C239.647 11.296 239.495 10.512 239.191 9.84C238.887 9.152 238.455 8.624 237.895 8.256C237.335 7.872 236.679 7.68 235.927 7.68C235.175 7.68 234.519 7.872 233.959 8.256C233.415 8.624 232.983 9.152 232.663 9.84C232.359 10.512 232.207 11.296 232.207 12.192C232.207 13.072 232.359 13.848 232.663 14.52C232.983 15.192 233.415 15.72 233.959 16.104C234.519 16.472 235.175 16.656 235.927 16.656ZM245.349 18V6.336H246.981L247.149 8.328H247.245C247.853 7.672 248.509 7.128 249.213 6.696C249.917 6.264 250.725 6.048 251.637 6.048C253.013 6.048 254.029 6.448 254.685 7.248C255.341 8.048 255.669 9.216 255.669 10.752V18H253.701V11.016C253.701 9.912 253.493 9.096 253.077 8.568C252.661 8.024 251.973 7.752 251.013 7.752C250.325 7.752 249.709 7.928 249.165 8.28C248.621 8.632 248.005 9.16 247.317 9.864V18H245.349ZM277.802 18.288C277.082 18.288 276.418 18.16 275.81 17.904C275.202 17.632 274.722 17.248 274.37 16.752C274.018 16.256 273.842 15.664 273.842 14.976C273.842 13.664 274.498 12.672 275.81 12C277.122 11.312 279.282 10.848 282.29 10.608C282.274 10.08 282.162 9.592 281.954 9.144C281.762 8.696 281.442 8.344 280.994 8.088C280.546 7.816 279.946 7.68 279.194 7.68C278.698 7.68 278.202 7.752 277.706 7.896C277.226 8.024 276.762 8.2 276.314 8.424C275.882 8.632 275.482 8.848 275.114 9.072L274.346 7.728C274.73 7.472 275.194 7.216 275.738 6.96C276.298 6.688 276.898 6.472 277.538 6.312C278.178 6.136 278.842 6.048 279.53 6.048C280.602 6.048 281.482 6.248 282.17 6.648C282.874 7.048 283.394 7.608 283.73 8.328C284.082 9.032 284.258 9.872 284.258 10.848V18H282.65L282.482 16.416H282.41C281.77 16.928 281.05 17.368 280.25 17.736C279.45 18.104 278.634 18.288 277.802 18.288ZM278.33 16.704C279.002 16.704 279.666 16.552 280.322 16.248C280.978 15.944 281.634 15.52 282.29 14.976V11.904C280.626 12.048 279.314 12.248 278.354 12.504C277.41 12.76 276.738 13.088 276.338 13.488C275.954 13.872 275.762 14.32 275.762 14.832C275.762 15.264 275.882 15.624 276.122 15.912C276.362 16.184 276.674 16.384 277.058 16.512C277.458 16.64 277.882 16.704 278.33 16.704ZM288.521 18V6.336H290.153L290.321 8.328H290.417C291.025 7.672 291.681 7.128 292.385 6.696C293.089 6.264 293.897 6.048 294.809 6.048C296.185 6.048 297.201 6.448 297.857 7.248C298.513 8.048 298.841 9.216 298.841 10.752V18H296.873V11.016C296.873 9.912 296.665 9.096 296.249 8.568C295.833 8.024 295.145 7.752 294.185 7.752C293.497 7.752 292.881 7.928 292.337 8.28C291.793 8.632 291.177 9.16 290.489 9.864V18H288.521ZM307.184 18.288C305.664 18.288 304.44 17.76 303.512 16.704C302.584 15.632 302.12 14.128 302.12 12.192C302.12 10.928 302.368 9.84 302.864 8.928C303.376 8 304.032 7.288 304.832 6.792C305.648 6.296 306.512 6.048 307.424 6.048C308.112 6.048 308.736 6.184 309.296 6.456C309.872 6.712 310.408 7.08 310.904 7.56H310.976L310.88 5.4V0.912H312.848V18H311.216L311.048 16.464H310.976C310.512 16.96 309.944 17.392 309.272 17.76C308.616 18.112 307.92 18.288 307.184 18.288ZM307.592 16.632C308.168 16.632 308.728 16.488 309.272 16.2C309.816 15.896 310.352 15.456 310.88 14.88V9.072C310.352 8.576 309.832 8.224 309.32 8.016C308.824 7.808 308.32 7.704 307.808 7.704C307.136 7.704 306.52 7.896 305.96 8.28C305.416 8.648 304.976 9.168 304.64 9.84C304.32 10.496 304.16 11.272 304.16 12.168C304.16 13.56 304.464 14.656 305.072 15.456C305.68 16.24 306.52 16.632 307.592 16.632ZM337.765 18.288C336.549 18.288 335.453 18.048 334.477 17.568C333.517 17.088 332.757 16.392 332.197 15.48C331.653 14.568 331.381 13.472 331.381 12.192C331.381 10.88 331.677 9.768 332.269 8.856C332.861 7.944 333.645 7.248 334.621 6.768C335.613 6.288 336.701 6.048 337.885 6.048C338.845 6.048 339.669 6.216 340.357 6.552C341.061 6.888 341.653 7.288 342.133 7.752L341.149 9.024C340.669 8.608 340.173 8.28 339.661 8.04C339.149 7.8 338.581 7.68 337.957 7.68C337.061 7.68 336.269 7.872 335.581 8.256C334.893 8.624 334.357 9.152 333.973 9.84C333.605 10.512 333.421 11.296 333.421 12.192C333.421 13.072 333.605 13.848 333.973 14.52C334.341 15.192 334.861 15.72 335.533 16.104C336.221 16.472 337.013 16.656 337.909 16.656C338.629 16.656 339.285 16.512 339.877 16.224C340.485 15.936 341.029 15.592 341.509 15.192L342.397 16.464C341.757 17.04 341.037 17.488 340.237 17.808C339.453 18.128 338.629 18.288 337.765 18.288ZM351.052 18.288C350.028 18.288 349.076 18.048 348.196 17.568C347.332 17.088 346.628 16.392 346.084 15.48C345.556 14.568 345.292 13.472 345.292 12.192C345.292 10.88 345.556 9.768 346.084 8.856C346.628 7.944 347.332 7.248 348.196 6.768C349.076 6.288 350.028 6.048 351.052 6.048C352.076 6.048 353.02 6.288 353.884 6.768C354.764 7.248 355.468 7.944 355.996 8.856C356.54 9.768 356.812 10.88 356.812 12.192C356.812 13.472 356.54 14.568 355.996 15.48C355.468 16.392 354.764 17.088 353.884 17.568C353.02 18.048 352.076 18.288 351.052 18.288ZM351.052 16.656C351.804 16.656 352.46 16.472 353.02 16.104C353.58 15.72 354.012 15.192 354.316 14.52C354.62 13.848 354.772 13.072 354.772 12.192C354.772 11.296 354.62 10.512 354.316 9.84C354.012 9.152 353.58 8.624 353.02 8.256C352.46 7.872 351.804 7.68 351.052 7.68C350.3 7.68 349.644 7.872 349.084 8.256C348.54 8.624 348.108 9.152 347.788 9.84C347.484 10.512 347.332 11.296 347.332 12.192C347.332 13.072 347.484 13.848 347.788 14.52C348.108 15.192 348.54 15.72 349.084 16.104C349.644 16.472 350.3 16.656 351.052 16.656ZM367.986 18.288C366.754 18.288 365.81 17.936 365.154 17.232C364.498 16.512 364.17 15.464 364.17 14.088V2.52H360.186V0.912H366.138V14.232C366.138 15.08 366.346 15.696 366.762 16.08C367.178 16.464 367.73 16.656 368.418 16.656C368.754 16.656 369.098 16.616 369.45 16.536C369.802 16.44 370.194 16.296 370.626 16.104L371.13 17.592C370.602 17.784 370.106 17.944 369.642 18.072C369.178 18.216 368.626 18.288 367.986 18.288ZM382.377 18.288C381.145 18.288 380.201 17.936 379.545 17.232C378.889 16.512 378.561 15.464 378.561 14.088V2.52H374.577V0.912H380.529V14.232C380.529 15.08 380.737 15.696 381.153 16.08C381.569 16.464 382.121 16.656 382.809 16.656C383.145 16.656 383.489 16.616 383.841 16.536C384.193 16.44 384.585 16.296 385.017 16.104L385.521 17.592C384.993 17.784 384.497 17.944 384.033 18.072C383.569 18.216 383.017 18.288 382.377 18.288ZM392.927 18.288C392.207 18.288 391.543 18.16 390.935 17.904C390.327 17.632 389.847 17.248 389.495 16.752C389.143 16.256 388.967 15.664 388.967 14.976C388.967 13.664 389.623 12.672 390.935 12C392.247 11.312 394.407 10.848 397.415 10.608C397.399 10.08 397.287 9.592 397.079 9.144C396.887 8.696 396.567 8.344 396.119 8.088C395.671 7.816 395.071 7.68 394.319 7.68C393.823 7.68 393.327 7.752 392.831 7.896C392.351 8.024 391.887 8.2 391.439 8.424C391.007 8.632 390.607 8.848 390.239 9.072L389.471 7.728C389.855 7.472 390.319 7.216 390.863 6.96C391.423 6.688 392.023 6.472 392.663 6.312C393.303 6.136 393.967 6.048 394.655 6.048C395.727 6.048 396.607 6.248 397.295 6.648C397.999 7.048 398.519 7.608 398.855 8.328C399.207 9.032 399.383 9.872 399.383 10.848V18H397.775L397.607 16.416H397.535C396.895 16.928 396.175 17.368 395.375 17.736C394.575 18.104 393.759 18.288 392.927 18.288ZM393.455 16.704C394.127 16.704 394.791 16.552 395.447 16.248C396.103 15.944 396.759 15.52 397.415 14.976V11.904C395.751 12.048 394.439 12.248 393.479 12.504C392.535 12.76 391.863 13.088 391.463 13.488C391.079 13.872 390.887 14.32 390.887 14.832C390.887 15.264 391.007 15.624 391.247 15.912C391.487 16.184 391.799 16.384 392.183 16.512C392.583 16.64 393.007 16.704 393.455 16.704ZM409.094 18.288C408.518 18.288 407.902 18.152 407.246 17.88C406.606 17.592 406.014 17.2 405.47 16.704H405.398L405.23 18H403.646V0.912H405.614V5.568L405.542 7.824H405.614C406.142 7.28 406.75 6.848 407.438 6.528C408.142 6.208 408.838 6.048 409.526 6.048C410.582 6.048 411.47 6.296 412.19 6.792C412.91 7.272 413.454 7.96 413.822 8.856C414.19 9.736 414.374 10.776 414.374 11.976C414.374 13.304 414.126 14.44 413.63 15.384C413.15 16.328 412.51 17.048 411.71 17.544C410.91 18.04 410.038 18.288 409.094 18.288ZM408.782 16.632C409.454 16.632 410.054 16.448 410.582 16.08C411.126 15.712 411.55 15.184 411.854 14.496C412.174 13.792 412.334 12.96 412.334 12C412.334 11.152 412.222 10.408 411.998 9.768C411.774 9.112 411.422 8.608 410.942 8.256C410.462 7.888 409.83 7.704 409.046 7.704C408.518 7.704 407.958 7.848 407.366 8.136C406.79 8.408 406.206 8.848 405.614 9.456V15.264C406.174 15.76 406.734 16.112 407.294 16.32C407.87 16.528 408.366 16.632 408.782 16.632ZM423.005 18.288C421.981 18.288 421.029 18.048 420.149 17.568C419.285 17.088 418.581 16.392 418.037 15.48C417.509 14.568 417.245 13.472 417.245 12.192C417.245 10.88 417.509 9.768 418.037 8.856C418.581 7.944 419.285 7.248 420.149 6.768C421.029 6.288 421.981 6.048 423.005 6.048C424.029 6.048 424.973 6.288 425.837 6.768C426.717 7.248 427.421 7.944 427.949 8.856C428.493 9.768 428.765 10.88 428.765 12.192C428.765 13.472 428.493 14.568 427.949 15.48C427.421 16.392 426.717 17.088 425.837 17.568C424.973 18.048 424.029 18.288 423.005 18.288ZM423.005 16.656C423.757 16.656 424.413 16.472 424.973 16.104C425.533 15.72 425.965 15.192 426.269 14.52C426.573 13.848 426.725 13.072 426.725 12.192C426.725 11.296 426.573 10.512 426.269 9.84C425.965 9.152 425.533 8.624 424.973 8.256C424.413 7.872 423.757 7.68 423.005 7.68C422.253 7.68 421.597 7.872 421.037 8.256C420.493 8.624 420.061 9.152 419.741 9.84C419.437 10.512 419.285 11.296 419.285 12.192C419.285 13.072 419.437 13.848 419.741 14.52C420.061 15.192 420.493 15.72 421.037 16.104C421.597 16.472 422.253 16.656 423.005 16.656ZM433.699 18V6.336H435.331L435.499 9.096H435.571C436.179 8.152 436.931 7.408 437.827 6.864C438.723 6.32 439.707 6.048 440.779 6.048C441.211 6.048 441.611 6.088 441.979 6.168C442.363 6.232 442.731 6.352 443.083 6.528L442.627 8.232C442.227 8.088 441.883 7.984 441.595 7.92C441.307 7.856 440.931 7.824 440.467 7.824C439.587 7.824 438.739 8.08 437.923 8.592C437.123 9.088 436.371 9.944 435.667 11.16V18H433.699ZM450.49 18.288C449.77 18.288 449.106 18.16 448.498 17.904C447.89 17.632 447.41 17.248 447.058 16.752C446.706 16.256 446.53 15.664 446.53 14.976C446.53 13.664 447.186 12.672 448.498 12C449.81 11.312 451.97 10.848 454.978 10.608C454.962 10.08 454.85 9.592 454.642 9.144C454.45 8.696 454.13 8.344 453.682 8.088C453.234 7.816 452.634 7.68 451.882 7.68C451.386 7.68 450.89 7.752 450.394 7.896C449.914 8.024 449.45 8.2 449.002 8.424C448.57 8.632 448.17 8.848 447.802 9.072L447.034 7.728C447.418 7.472 447.882 7.216 448.426 6.96C448.986 6.688 449.586 6.472 450.226 6.312C450.866 6.136 451.53 6.048 452.218 6.048C453.29 6.048 454.17 6.248 454.858 6.648C455.562 7.048 456.082 7.608 456.418 8.328C456.77 9.032 456.946 9.872 456.946 10.848V18H455.338L455.17 16.416H455.098C454.458 16.928 453.738 17.368 452.938 17.736C452.138 18.104 451.322 18.288 450.49 18.288ZM451.018 16.704C451.69 16.704 452.354 16.552 453.01 16.248C453.666 15.944 454.322 15.52 454.978 14.976V11.904C453.314 12.048 452.002 12.248 451.042 12.504C450.098 12.76 449.426 13.088 449.026 13.488C448.642 13.872 448.45 14.32 448.45 14.832C448.45 15.264 448.57 15.624 448.81 15.912C449.05 16.184 449.362 16.384 449.746 16.512C450.146 16.64 450.57 16.704 451.018 16.704ZM468.433 18.288C467.297 18.288 466.401 18.088 465.745 17.688C465.089 17.272 464.617 16.704 464.329 15.984C464.057 15.264 463.921 14.424 463.921 13.464V7.944H460.633V6.456L463.993 6.336L464.257 2.592H465.889V6.336H471.625V7.944H465.889V13.488C465.889 14.176 465.977 14.76 466.153 15.24C466.329 15.72 466.633 16.08 467.065 16.32C467.497 16.56 468.089 16.68 468.841 16.68C469.401 16.68 469.905 16.632 470.353 16.536C470.801 16.44 471.233 16.312 471.649 16.152L472.081 17.592C471.553 17.784 470.993 17.944 470.401 18.072C469.825 18.216 469.169 18.288 468.433 18.288ZM480.951 18V7.944H475.527V6.336H482.919V18H480.951ZM481.719 3.888C481.271 3.888 480.895 3.752 480.591 3.48C480.287 3.192 480.135 2.816 480.135 2.352C480.135 1.888 480.287 1.52 480.591 1.248C480.895 0.96 481.271 0.816 481.719 0.816C482.167 0.816 482.543 0.96 482.847 1.248C483.151 1.52 483.303 1.888 483.303 2.352C483.303 2.816 483.151 3.192 482.847 3.48C482.543 3.752 482.167 3.888 481.719 3.888ZM494.958 18.288C493.934 18.288 492.982 18.048 492.102 17.568C491.238 17.088 490.534 16.392 489.99 15.48C489.462 14.568 489.198 13.472 489.198 12.192C489.198 10.88 489.462 9.768 489.99 8.856C490.534 7.944 491.238 7.248 492.102 6.768C492.982 6.288 493.934 6.048 494.958 6.048C495.982 6.048 496.926 6.288 497.79 6.768C498.67 7.248 499.374 7.944 499.902 8.856C500.446 9.768 500.718 10.88 500.718 12.192C500.718 13.472 500.446 14.568 499.902 15.48C499.374 16.392 498.67 17.088 497.79 17.568C496.926 18.048 495.982 18.288 494.958 18.288ZM494.958 16.656C495.71 16.656 496.366 16.472 496.926 16.104C497.486 15.72 497.918 15.192 498.222 14.52C498.526 13.848 498.678 13.072 498.678 12.192C498.678 11.296 498.526 10.512 498.222 9.84C497.918 9.152 497.486 8.624 496.926 8.256C496.366 7.872 495.71 7.68 494.958 7.68C494.206 7.68 493.55 7.872 492.99 8.256C492.446 8.624 492.014 9.152 491.694 9.84C491.39 10.512 491.238 11.296 491.238 12.192C491.238 13.072 491.39 13.848 491.694 14.52C492.014 15.192 492.446 15.72 492.99 16.104C493.55 16.472 494.206 16.656 494.958 16.656ZM504.38 18V6.336H506.012L506.18 8.328H506.276C506.884 7.672 507.54 7.128 508.244 6.696C508.948 6.264 509.756 6.048 510.668 6.048C512.044 6.048 513.06 6.448 513.716 7.248C514.372 8.048 514.7 9.216 514.7 10.752V18H512.732V11.016C512.732 9.912 512.524 9.096 512.108 8.568C511.692 8.024 511.004 7.752 510.044 7.752C509.356 7.752 508.74 7.928 508.196 8.28C507.652 8.632 507.036 9.16 506.348 9.864V18H504.38ZM536.834 18.288C536.114 18.288 535.45 18.16 534.842 17.904C534.234 17.632 533.754 17.248 533.402 16.752C533.05 16.256 532.874 15.664 532.874 14.976C532.874 13.664 533.53 12.672 534.842 12C536.154 11.312 538.314 10.848 541.322 10.608C541.306 10.08 541.194 9.592 540.986 9.144C540.794 8.696 540.474 8.344 540.026 8.088C539.578 7.816 538.978 7.68 538.226 7.68C537.73 7.68 537.234 7.752 536.738 7.896C536.258 8.024 535.794 8.2 535.346 8.424C534.914 8.632 534.514 8.848 534.146 9.072L533.378 7.728C533.762 7.472 534.226 7.216 534.77 6.96C535.33 6.688 535.93 6.472 536.57 6.312C537.21 6.136 537.874 6.048 538.562 6.048C539.634 6.048 540.514 6.248 541.202 6.648C541.906 7.048 542.426 7.608 542.762 8.328C543.114 9.032 543.29 9.872 543.29 10.848V18H541.682L541.514 16.416H541.442C540.802 16.928 540.082 17.368 539.282 17.736C538.482 18.104 537.666 18.288 536.834 18.288ZM537.362 16.704C538.034 16.704 538.698 16.552 539.354 16.248C540.01 15.944 540.666 15.52 541.322 14.976V11.904C539.658 12.048 538.346 12.248 537.386 12.504C536.442 12.76 535.77 13.088 535.37 13.488C534.986 13.872 534.794 14.32 534.794 14.832C534.794 15.264 534.914 15.624 535.154 15.912C535.394 16.184 535.706 16.384 536.09 16.512C536.49 16.64 536.914 16.704 537.362 16.704ZM546.712 18V6.336H548.296L548.464 7.872H548.512C548.816 7.328 549.168 6.888 549.568 6.552C549.968 6.216 550.504 6.048 551.176 6.048C551.752 6.048 552.224 6.216 552.592 6.552C552.96 6.888 553.224 7.392 553.384 8.064C553.72 7.44 554.088 6.952 554.488 6.6C554.904 6.232 555.448 6.048 556.12 6.048C556.936 6.048 557.568 6.36 558.016 6.984C558.48 7.592 558.712 8.48 558.712 9.648V18H556.744V9.792C556.744 8.432 556.328 7.752 555.496 7.752C555.096 7.752 554.76 7.904 554.488 8.208C554.232 8.496 553.944 8.944 553.624 9.552V18H551.8V9.792C551.8 9.12 551.704 8.616 551.512 8.28C551.336 7.928 551.032 7.752 550.6 7.752C550.2 7.752 549.848 7.904 549.544 8.208C549.256 8.496 548.968 8.944 548.68 9.552V18H546.712ZM566.911 18.288C565.887 18.288 564.935 18.048 564.055 17.568C563.191 17.088 562.487 16.392 561.943 15.48C561.415 14.568 561.151 13.472 561.151 12.192C561.151 10.88 561.415 9.768 561.943 8.856C562.487 7.944 563.191 7.248 564.055 6.768C564.935 6.288 565.887 6.048 566.911 6.048C567.935 6.048 568.879 6.288 569.743 6.768C570.623 7.248 571.327 7.944 571.855 8.856C572.399 9.768 572.671 10.88 572.671 12.192C572.671 13.472 572.399 14.568 571.855 15.48C571.327 16.392 570.623 17.088 569.743 17.568C568.879 18.048 567.935 18.288 566.911 18.288ZM566.911 16.656C567.663 16.656 568.319 16.472 568.879 16.104C569.439 15.72 569.871 15.192 570.175 14.52C570.479 13.848 570.631 13.072 570.631 12.192C570.631 11.296 570.479 10.512 570.175 9.84C569.871 9.152 569.439 8.624 568.879 8.256C568.319 7.872 567.663 7.68 566.911 7.68C566.159 7.68 565.503 7.872 564.943 8.256C564.399 8.624 563.967 9.152 563.647 9.84C563.343 10.512 563.191 11.296 563.191 12.192C563.191 13.072 563.343 13.848 563.647 14.52C563.967 15.192 564.399 15.72 564.943 16.104C565.503 16.472 566.159 16.656 566.911 16.656ZM576.334 18V6.336H577.966L578.134 8.328H578.23C578.838 7.672 579.494 7.128 580.198 6.696C580.902 6.264 581.71 6.048 582.622 6.048C583.998 6.048 585.014 6.448 585.67 7.248C586.326 8.048 586.654 9.216 586.654 10.752V18H584.686V11.016C584.686 9.912 584.478 9.096 584.062 8.568C583.646 8.024 582.958 7.752 581.998 7.752C581.31 7.752 580.694 7.928 580.15 8.28C579.606 8.632 578.99 9.16 578.302 9.864V18H576.334ZM595.596 23.376C594.46 23.376 593.492 23.248 592.692 22.992C591.892 22.736 591.276 22.368 590.844 21.888C590.428 21.408 590.22 20.824 590.22 20.136C590.22 19.672 590.38 19.208 590.7 18.744C591.036 18.296 591.516 17.896 592.14 17.544V17.448C591.836 17.272 591.556 17.032 591.3 16.728C591.06 16.424 590.94 16.024 590.94 15.528C590.94 15.16 591.06 14.784 591.3 14.4C591.54 14 591.884 13.648 592.332 13.344V13.248C591.932 12.944 591.588 12.536 591.3 12.024C591.028 11.512 590.892 10.912 590.892 10.224C590.892 9.376 591.1 8.64 591.516 8.016C591.948 7.392 592.508 6.912 593.196 6.576C593.9 6.224 594.66 6.048 595.476 6.048C596.132 6.048 596.708 6.144 597.204 6.336H602.028V7.944H599.004C599.276 8.216 599.508 8.56 599.7 8.976C599.892 9.392 599.988 9.832 599.988 10.296C599.988 11.128 599.788 11.848 599.388 12.456C598.988 13.048 598.444 13.504 597.756 13.824C597.084 14.144 596.324 14.304 595.476 14.304C595.172 14.304 594.844 14.272 594.492 14.208C594.156 14.128 593.828 14.016 593.508 13.872C593.22 14.048 592.996 14.248 592.836 14.472C592.676 14.696 592.596 14.944 592.596 15.216C592.596 15.664 592.804 16 593.22 16.224C593.652 16.448 594.252 16.56 595.02 16.56H597.636C599.14 16.56 600.252 16.768 600.972 17.184C601.708 17.6 602.076 18.304 602.076 19.296C602.076 20.016 601.812 20.688 601.284 21.312C600.756 21.936 600.004 22.432 599.028 22.8C598.068 23.184 596.924 23.376 595.596 23.376ZM595.476 12.984C595.972 12.984 596.42 12.872 596.82 12.648C597.236 12.424 597.564 12.104 597.804 11.688C598.044 11.272 598.164 10.784 598.164 10.224C598.164 9.68 598.044 9.208 597.804 8.808C597.564 8.392 597.236 8.072 596.82 7.848C596.42 7.608 595.972 7.488 595.476 7.488C594.996 7.488 594.548 7.608 594.132 7.848C593.732 8.072 593.404 8.392 593.148 8.808C592.908 9.208 592.788 9.68 592.788 10.224C592.788 10.784 592.908 11.272 593.148 11.688C593.404 12.104 593.732 12.424 594.132 12.648C594.548 12.872 594.996 12.984 595.476 12.984ZM595.74 21.936C596.652 21.936 597.436 21.824 598.092 21.6C598.748 21.376 599.252 21.088 599.604 20.736C599.956 20.384 600.132 20.008 600.132 19.608C600.132 19.048 599.908 18.672 599.46 18.48C599.028 18.288 598.364 18.192 597.468 18.192H595.188C594.852 18.192 594.532 18.176 594.228 18.144C593.94 18.112 593.668 18.064 593.412 18C592.868 18.304 592.484 18.616 592.26 18.936C592.036 19.272 591.924 19.608 591.924 19.944C591.924 20.552 592.244 21.032 592.884 21.384C593.54 21.752 594.492 21.936 595.74 21.936ZM626.729 18.288C625.593 18.288 624.697 18.088 624.041 17.688C623.385 17.272 622.913 16.704 622.625 15.984C622.353 15.264 622.217 14.424 622.217 13.464V7.944H618.929V6.456L622.289 6.336L622.553 2.592H624.185V6.336H629.921V7.944H624.185V13.488C624.185 14.176 624.273 14.76 624.449 15.24C624.625 15.72 624.929 16.08 625.361 16.32C625.793 16.56 626.385 16.68 627.137 16.68C627.697 16.68 628.201 16.632 628.649 16.536C629.097 16.44 629.529 16.312 629.945 16.152L630.377 17.592C629.849 17.784 629.289 17.944 628.697 18.072C628.121 18.216 627.465 18.288 626.729 18.288ZM639.584 18.288C638.416 18.288 637.352 18.048 636.392 17.568C635.448 17.088 634.696 16.392 634.136 15.48C633.576 14.552 633.296 13.44 633.296 12.144C633.296 10.88 633.576 9.792 634.136 8.88C634.696 7.968 635.424 7.272 636.32 6.792C637.232 6.296 638.208 6.048 639.248 6.048C640.368 6.048 641.32 6.28 642.104 6.744C642.904 7.192 643.512 7.824 643.928 8.64C644.36 9.456 644.576 10.416 644.576 11.52C644.576 11.744 644.568 11.96 644.552 12.168C644.536 12.376 644.512 12.56 644.48 12.72H634.616V11.184H643.304L642.8 11.736C642.8 10.36 642.48 9.328 641.84 8.64C641.216 7.952 640.368 7.608 639.296 7.608C638.576 7.608 637.904 7.784 637.28 8.136C636.672 8.488 636.184 9 635.816 9.672C635.448 10.344 635.264 11.168 635.264 12.144C635.264 13.152 635.464 13.992 635.864 14.664C636.264 15.336 636.808 15.848 637.496 16.2C638.184 16.536 638.96 16.704 639.824 16.704C640.528 16.704 641.16 16.608 641.72 16.416C642.296 16.208 642.848 15.936 643.376 15.6L644.096 16.896C643.52 17.28 642.856 17.608 642.104 17.88C641.368 18.152 640.528 18.288 639.584 18.288ZM654.359 18.288C653.143 18.288 652.047 18.048 651.071 17.568C650.111 17.088 649.351 16.392 648.791 15.48C648.247 14.568 647.975 13.472 647.975 12.192C647.975 10.88 648.271 9.768 648.863 8.856C649.455 7.944 650.239 7.248 651.215 6.768C652.207 6.288 653.295 6.048 654.479 6.048C655.439 6.048 656.263 6.216 656.951 6.552C657.655 6.888 658.247 7.288 658.727 7.752L657.743 9.024C657.263 8.608 656.767 8.28 656.255 8.04C655.743 7.8 655.175 7.68 654.551 7.68C653.655 7.68 652.863 7.872 652.175 8.256C651.487 8.624 650.951 9.152 650.567 9.84C650.199 10.512 650.015 11.296 650.015 12.192C650.015 13.072 650.199 13.848 650.567 14.52C650.935 15.192 651.455 15.72 652.127 16.104C652.815 16.472 653.607 16.656 654.503 16.656C655.223 16.656 655.879 16.512 656.471 16.224C657.079 15.936 657.623 15.592 658.103 15.192L658.991 16.464C658.351 17.04 657.631 17.488 656.831 17.808C656.047 18.128 655.223 18.288 654.359 18.288ZM662.677 18V0.912H664.645V5.568L664.525 8.328H664.597C665.189 7.688 665.837 7.152 666.541 6.72C667.245 6.272 668.053 6.048 668.965 6.048C670.341 6.048 671.357 6.448 672.013 7.248C672.669 8.048 672.997 9.216 672.997 10.752V18H671.029V11.016C671.029 9.912 670.821 9.096 670.405 8.568C669.989 8.024 669.301 7.752 668.341 7.752C667.653 7.752 667.037 7.928 666.493 8.28C665.949 8.632 665.333 9.16 664.645 9.864V18H662.677ZM697.147 18.288C695.979 18.288 694.915 18.048 693.955 17.568C693.011 17.088 692.259 16.392 691.699 15.48C691.139 14.552 690.859 13.44 690.859 12.144C690.859 10.88 691.139 9.792 691.699 8.88C692.259 7.968 692.987 7.272 693.883 6.792C694.795 6.296 695.771 6.048 696.811 6.048C697.931 6.048 698.883 6.28 699.667 6.744C700.467 7.192 701.075 7.824 701.491 8.64C701.923 9.456 702.139 10.416 702.139 11.52C702.139 11.744 702.131 11.96 702.115 12.168C702.099 12.376 702.075 12.56 702.043 12.72H692.179V11.184H700.867L700.363 11.736C700.363 10.36 700.043 9.328 699.403 8.64C698.779 7.952 697.931 7.608 696.859 7.608C696.139 7.608 695.467 7.784 694.843 8.136C694.235 8.488 693.747 9 693.379 9.672C693.011 10.344 692.827 11.168 692.827 12.144C692.827 13.152 693.027 13.992 693.427 14.664C693.827 15.336 694.371 15.848 695.059 16.2C695.747 16.536 696.523 16.704 697.387 16.704C698.091 16.704 698.723 16.608 699.283 16.416C699.859 16.208 700.411 15.936 700.939 15.6L701.659 16.896C701.083 17.28 700.419 17.608 699.667 17.88C698.931 18.152 698.091 18.288 697.147 18.288ZM705.849 18V6.336H707.481L707.649 8.328H707.745C708.353 7.672 709.009 7.128 709.713 6.696C710.417 6.264 711.225 6.048 712.137 6.048C713.513 6.048 714.529 6.448 715.185 7.248C715.841 8.048 716.169 9.216 716.169 10.752V18H714.201V11.016C714.201 9.912 713.993 9.096 713.577 8.568C713.161 8.024 712.473 7.752 711.513 7.752C710.825 7.752 710.209 7.928 709.665 8.28C709.121 8.632 708.505 9.16 707.817 9.864V18H705.849ZM727.464 18.288C726.328 18.288 725.432 18.088 724.776 17.688C724.12 17.272 723.648 16.704 723.36 15.984C723.088 15.264 722.952 14.424 722.952 13.464V7.944H719.664V6.456L723.024 6.336L723.288 2.592H724.92V6.336H730.656V7.944H724.92V13.488C724.92 14.176 725.008 14.76 725.184 15.24C725.36 15.72 725.664 16.08 726.096 16.32C726.528 16.56 727.12 16.68 727.872 16.68C728.432 16.68 728.936 16.632 729.384 16.536C729.832 16.44 730.264 16.312 730.68 16.152L731.112 17.592C730.584 17.784 730.024 17.944 729.432 18.072C728.856 18.216 728.2 18.288 727.464 18.288ZM734.63 18V0.912H736.598V5.568L736.478 8.328H736.55C737.142 7.688 737.79 7.152 738.494 6.72C739.198 6.272 740.006 6.048 740.918 6.048C742.294 6.048 743.31 6.448 743.966 7.248C744.622 8.048 744.95 9.216 744.95 10.752V18H742.982V11.016C742.982 9.912 742.774 9.096 742.358 8.568C741.942 8.024 741.254 7.752 740.294 7.752C739.606 7.752 738.99 7.928 738.446 8.28C737.902 8.632 737.286 9.16 736.598 9.864V18H734.63ZM752.693 18.288C751.301 18.288 750.277 17.888 749.621 17.088C748.965 16.288 748.637 15.12 748.637 13.584V6.336H750.629V13.32C750.629 14.424 750.829 15.248 751.229 15.792C751.645 16.32 752.341 16.584 753.317 16.584C753.989 16.584 754.597 16.416 755.141 16.08C755.701 15.728 756.301 15.176 756.941 14.424V6.336H758.909V18H757.301L757.133 15.96H757.037C756.445 16.632 755.797 17.192 755.093 17.64C754.389 18.072 753.589 18.288 752.693 18.288ZM768.62 18.288C767.484 18.288 766.42 18.104 765.428 17.736C764.436 17.368 763.588 16.944 762.884 16.464L763.796 15.168C764.468 15.648 765.212 16.032 766.028 16.32C766.844 16.608 767.788 16.752 768.86 16.752C769.852 16.752 770.588 16.568 771.068 16.2C771.564 15.832 771.812 15.408 771.812 14.928C771.812 14.704 771.764 14.496 771.668 14.304C771.588 14.112 771.42 13.928 771.164 13.752C770.924 13.576 770.564 13.408 770.084 13.248C769.604 13.088 768.964 12.928 768.164 12.768C766.644 12.448 765.5 12.016 764.732 11.472C763.98 10.928 763.604 10.224 763.604 9.36C763.604 8.416 764.012 7.632 764.828 7.008C765.644 6.368 766.852 6.048 768.452 6.048C769.348 6.048 770.212 6.2 771.044 6.504C771.876 6.792 772.58 7.136 773.156 7.536L772.196 8.808C771.668 8.424 771.068 8.128 770.396 7.92C769.724 7.696 769.02 7.584 768.284 7.584C767.612 7.584 767.076 7.664 766.676 7.824C766.292 7.968 766.012 8.168 765.836 8.424C765.676 8.68 765.596 8.96 765.596 9.264C765.596 9.76 765.86 10.152 766.388 10.44C766.932 10.712 767.796 10.968 768.98 11.208C770.276 11.48 771.268 11.784 771.956 12.12C772.66 12.456 773.14 12.84 773.396 13.272C773.668 13.704 773.804 14.216 773.804 14.808C773.804 15.448 773.604 16.032 773.204 16.56C772.804 17.072 772.22 17.488 771.452 17.808C770.684 18.128 769.74 18.288 768.62 18.288ZM783.154 18V7.944H777.73V6.336H785.122V18H783.154ZM783.922 3.888C783.474 3.888 783.098 3.752 782.794 3.48C782.49 3.192 782.338 2.816 782.338 2.352C782.338 1.888 782.49 1.52 782.794 1.248C783.098 0.96 783.474 0.816 783.922 0.816C784.37 0.816 784.746 0.96 785.05 1.248C785.354 1.52 785.506 1.888 785.506 2.352C785.506 2.816 785.354 3.192 785.05 3.48C784.746 3.752 784.37 3.888 783.922 3.888ZM795.865 18.288C795.145 18.288 794.481 18.16 793.873 17.904C793.265 17.632 792.785 17.248 792.433 16.752C792.081 16.256 791.905 15.664 791.905 14.976C791.905 13.664 792.561 12.672 793.873 12C795.185 11.312 797.345 10.848 800.353 10.608C800.337 10.08 800.225 9.592 800.017 9.144C799.825 8.696 799.505 8.344 799.057 8.088C798.609 7.816 798.009 7.68 797.257 7.68C796.761 7.68 796.265 7.752 795.769 7.896C795.289 8.024 794.825 8.2 794.377 8.424C793.945 8.632 793.545 8.848 793.177 9.072L792.409 7.728C792.793 7.472 793.257 7.216 793.801 6.96C794.361 6.688 794.961 6.472 795.601 6.312C796.241 6.136 796.905 6.048 797.593 6.048C798.665 6.048 799.545 6.248 800.233 6.648C800.937 7.048 801.457 7.608 801.793 8.328C802.145 9.032 802.321 9.872 802.321 10.848V18H800.713L800.545 16.416H800.473C799.833 16.928 799.113 17.368 798.313 17.736C797.513 18.104 796.697 18.288 795.865 18.288ZM796.393 16.704C797.065 16.704 797.729 16.552 798.385 16.248C799.041 15.944 799.697 15.52 800.353 14.976V11.904C798.689 12.048 797.377 12.248 796.417 12.504C795.473 12.76 794.801 13.088 794.401 13.488C794.017 13.872 793.825 14.32 793.825 14.832C793.825 15.264 793.945 15.624 794.185 15.912C794.425 16.184 794.737 16.384 795.121 16.512C795.521 16.64 795.945 16.704 796.393 16.704ZM811.792 18.288C810.656 18.288 809.592 18.104 808.6 17.736C807.608 17.368 806.76 16.944 806.056 16.464L806.968 15.168C807.64 15.648 808.384 16.032 809.2 16.32C810.016 16.608 810.96 16.752 812.032 16.752C813.024 16.752 813.76 16.568 814.24 16.2C814.736 15.832 814.984 15.408 814.984 14.928C814.984 14.704 814.936 14.496 814.84 14.304C814.76 14.112 814.592 13.928 814.336 13.752C814.096 13.576 813.736 13.408 813.256 13.248C812.776 13.088 812.136 12.928 811.336 12.768C809.816 12.448 808.672 12.016 807.904 11.472C807.152 10.928 806.776 10.224 806.776 9.36C806.776 8.416 807.184 7.632 808 7.008C808.816 6.368 810.024 6.048 811.624 6.048C812.52 6.048 813.384 6.2 814.216 6.504C815.048 6.792 815.752 7.136 816.328 7.536L815.368 8.808C814.84 8.424 814.24 8.128 813.568 7.92C812.896 7.696 812.192 7.584 811.456 7.584C810.784 7.584 810.248 7.664 809.848 7.824C809.464 7.968 809.184 8.168 809.008 8.424C808.848 8.68 808.768 8.96 808.768 9.264C808.768 9.76 809.032 10.152 809.56 10.44C810.104 10.712 810.968 10.968 812.152 11.208C813.448 11.48 814.44 11.784 815.128 12.12C815.832 12.456 816.312 12.84 816.568 13.272C816.84 13.704 816.976 14.216 816.976 14.808C816.976 15.448 816.776 16.032 816.376 16.56C815.976 17.072 815.392 17.488 814.624 17.808C813.856 18.128 812.912 18.288 811.792 18.288ZM828.198 18.288C827.062 18.288 826.166 18.088 825.51 17.688C824.854 17.272 824.382 16.704 824.094 15.984C823.822 15.264 823.686 14.424 823.686 13.464V7.944H820.398V6.456L823.758 6.336L824.022 2.592H825.654V6.336H831.39V7.944H825.654V13.488C825.654 14.176 825.742 14.76 825.918 15.24C826.094 15.72 826.398 16.08 826.83 16.32C827.262 16.56 827.854 16.68 828.606 16.68C829.166 16.68 829.67 16.632 830.118 16.536C830.566 16.44 830.998 16.312 831.414 16.152L831.846 17.592C831.318 17.784 830.758 17.944 830.166 18.072C829.59 18.216 828.934 18.288 828.198 18.288ZM840.573 18.288C839.437 18.288 838.373 18.104 837.381 17.736C836.389 17.368 835.541 16.944 834.837 16.464L835.749 15.168C836.421 15.648 837.165 16.032 837.981 16.32C838.797 16.608 839.741 16.752 840.813 16.752C841.805 16.752 842.541 16.568 843.021 16.2C843.517 15.832 843.765 15.408 843.765 14.928C843.765 14.704 843.717 14.496 843.621 14.304C843.541 14.112 843.373 13.928 843.117 13.752C842.877 13.576 842.517 13.408 842.037 13.248C841.557 13.088 840.917 12.928 840.117 12.768C838.597 12.448 837.453 12.016 836.685 11.472C835.933 10.928 835.557 10.224 835.557 9.36C835.557 8.416 835.965 7.632 836.781 7.008C837.597 6.368 838.805 6.048 840.405 6.048C841.301 6.048 842.165 6.2 842.997 6.504C843.829 6.792 844.533 7.136 845.109 7.536L844.149 8.808C843.621 8.424 843.021 8.128 842.349 7.92C841.677 7.696 840.973 7.584 840.237 7.584C839.565 7.584 839.029 7.664 838.629 7.824C838.245 7.968 837.965 8.168 837.789 8.424C837.629 8.68 837.549 8.96 837.549 9.264C837.549 9.76 837.813 10.152 838.341 10.44C838.885 10.712 839.749 10.968 840.933 11.208C842.229 11.48 843.221 11.784 843.909 12.12C844.613 12.456 845.093 12.84 845.349 13.272C845.621 13.704 845.757 14.216 845.757 14.808C845.757 15.448 845.557 16.032 845.157 16.56C844.757 17.072 844.173 17.488 843.405 17.808C842.637 18.128 841.693 18.288 840.573 18.288ZM852.803 23.112L852.251 21.864C853.275 21.416 854.035 20.848 854.531 20.16C855.027 19.488 855.275 18.656 855.275 17.664L854.819 15.456L856.163 17.352C855.971 17.576 855.755 17.728 855.515 17.808C855.291 17.872 855.059 17.904 854.819 17.904C854.483 17.904 854.171 17.84 853.883 17.712C853.595 17.568 853.363 17.368 853.187 17.112C853.027 16.84 852.947 16.504 852.947 16.104C852.947 15.512 853.139 15.064 853.523 14.76C853.907 14.44 854.355 14.28 854.867 14.28C855.571 14.28 856.107 14.56 856.475 15.12C856.843 15.664 857.027 16.408 857.027 17.352C857.027 18.76 856.651 19.944 855.899 20.904C855.147 21.88 854.115 22.616 852.803 23.112ZM128.237 52.288C127.101 52.288 126.037 52.104 125.045 51.736C124.053 51.368 123.205 50.944 122.501 50.464L123.413 49.168C124.085 49.648 124.829 50.032 125.645 50.32C126.461 50.608 127.405 50.752 128.477 50.752C129.469 50.752 130.205 50.568 130.685 50.2C131.181 49.832 131.429 49.408 131.429 48.928C131.429 48.704 131.381 48.496 131.285 48.304C131.205 48.112 131.037 47.928 130.781 47.752C130.541 47.576 130.181 47.408 129.701 47.248C129.221 47.088 128.581 46.928 127.781 46.768C126.261 46.448 125.117 46.016 124.349 45.472C123.597 44.928 123.221 44.224 123.221 43.36C123.221 42.416 123.629 41.632 124.445 41.008C125.261 40.368 126.469 40.048 128.069 40.048C128.965 40.048 129.829 40.2 130.661 40.504C131.493 40.792 132.197 41.136 132.773 41.536L131.813 42.808C131.285 42.424 130.685 42.128 130.013 41.92C129.341 41.696 128.637 41.584 127.901 41.584C127.229 41.584 126.693 41.664 126.293 41.824C125.909 41.968 125.629 42.168 125.453 42.424C125.293 42.68 125.213 42.96 125.213 43.264C125.213 43.76 125.477 44.152 126.005 44.44C126.549 44.712 127.413 44.968 128.597 45.208C129.893 45.48 130.885 45.784 131.573 46.12C132.277 46.456 132.757 46.84 133.013 47.272C133.285 47.704 133.421 48.216 133.421 48.808C133.421 49.448 133.221 50.032 132.821 50.56C132.421 51.072 131.837 51.488 131.069 51.808C130.301 52.128 129.357 52.288 128.237 52.288ZM137.42 52V34.912H139.388V39.568L139.268 42.328H139.34C139.932 41.688 140.58 41.152 141.284 40.72C141.988 40.272 142.796 40.048 143.708 40.048C145.084 40.048 146.1 40.448 146.756 41.248C147.412 42.048 147.74 43.216 147.74 44.752V52H145.772V45.016C145.772 43.912 145.564 43.096 145.148 42.568C144.732 42.024 144.044 41.752 143.084 41.752C142.396 41.752 141.78 41.928 141.236 42.28C140.692 42.632 140.076 43.16 139.388 43.864V52H137.42ZM155.482 52.288C154.762 52.288 154.098 52.16 153.49 51.904C152.882 51.632 152.402 51.248 152.05 50.752C151.698 50.256 151.522 49.664 151.522 48.976C151.522 47.664 152.178 46.672 153.49 46C154.802 45.312 156.962 44.848 159.97 44.608C159.954 44.08 159.842 43.592 159.634 43.144C159.442 42.696 159.122 42.344 158.674 42.088C158.226 41.816 157.626 41.68 156.874 41.68C156.378 41.68 155.882 41.752 155.386 41.896C154.906 42.024 154.442 42.2 153.994 42.424C153.562 42.632 153.162 42.848 152.794 43.072L152.026 41.728C152.41 41.472 152.874 41.216 153.418 40.96C153.978 40.688 154.578 40.472 155.218 40.312C155.858 40.136 156.522 40.048 157.21 40.048C158.282 40.048 159.162 40.248 159.85 40.648C160.554 41.048 161.074 41.608 161.41 42.328C161.762 43.032 161.938 43.872 161.938 44.848V52H160.33L160.162 50.416H160.09C159.45 50.928 158.73 51.368 157.93 51.736C157.13 52.104 156.314 52.288 155.482 52.288ZM156.01 50.704C156.682 50.704 157.346 50.552 158.002 50.248C158.658 49.944 159.314 49.52 159.97 48.976V45.904C158.306 46.048 156.994 46.248 156.034 46.504C155.09 46.76 154.418 47.088 154.018 47.488C153.634 47.872 153.442 48.32 153.442 48.832C153.442 49.264 153.562 49.624 153.802 49.912C154.042 50.184 154.354 50.384 154.738 50.512C155.138 50.64 155.562 50.704 156.01 50.704ZM166.201 56.92V40.336H167.833L168.001 41.824H168.073C168.617 41.312 169.241 40.888 169.945 40.552C170.665 40.216 171.385 40.048 172.105 40.048C173.161 40.048 174.041 40.296 174.745 40.792C175.465 41.272 176.009 41.96 176.377 42.856C176.745 43.736 176.929 44.784 176.929 46C176.929 47.312 176.681 48.44 176.185 49.384C175.689 50.328 175.041 51.048 174.241 51.544C173.441 52.04 172.569 52.288 171.625 52.288C171.097 52.288 170.513 52.16 169.873 51.904C169.249 51.632 168.673 51.256 168.145 50.776H168.073L168.169 52.984V56.92H166.201ZM171.289 50.632C171.977 50.632 172.593 50.448 173.137 50.08C173.681 49.712 174.105 49.184 174.409 48.496C174.729 47.792 174.889 46.96 174.889 46C174.889 45.152 174.777 44.408 174.553 43.768C174.329 43.112 173.977 42.608 173.497 42.256C173.017 41.888 172.385 41.704 171.601 41.704C171.073 41.704 170.513 41.848 169.921 42.136C169.345 42.408 168.761 42.848 168.169 43.456V49.264C168.729 49.76 169.289 50.112 169.849 50.32C170.425 50.528 170.905 50.632 171.289 50.632ZM185.943 52V41.944H180.519V40.336H187.911V52H185.943ZM186.711 37.888C186.263 37.888 185.887 37.752 185.583 37.48C185.279 37.192 185.127 36.816 185.127 36.352C185.127 35.888 185.279 35.52 185.583 35.248C185.887 34.96 186.263 34.816 186.711 34.816C187.159 34.816 187.535 34.96 187.839 35.248C188.143 35.52 188.295 35.888 188.295 36.352C188.295 36.816 188.143 37.192 187.839 37.48C187.535 37.752 187.159 37.888 186.711 37.888ZM194.982 52V40.336H196.614L196.782 42.328H196.878C197.486 41.672 198.142 41.128 198.846 40.696C199.55 40.264 200.358 40.048 201.27 40.048C202.646 40.048 203.662 40.448 204.318 41.248C204.974 42.048 205.302 43.216 205.302 44.752V52H203.334V45.016C203.334 43.912 203.126 43.096 202.71 42.568C202.294 42.024 201.606 41.752 200.646 41.752C199.958 41.752 199.342 41.928 198.798 42.28C198.254 42.632 197.638 43.16 196.95 43.864V52H194.982ZM214.245 57.376C213.109 57.376 212.141 57.248 211.341 56.992C210.541 56.736 209.925 56.368 209.493 55.888C209.077 55.408 208.869 54.824 208.869 54.136C208.869 53.672 209.029 53.208 209.349 52.744C209.685 52.296 210.165 51.896 210.789 51.544V51.448C210.485 51.272 210.205 51.032 209.949 50.728C209.709 50.424 209.589 50.024 209.589 49.528C209.589 49.16 209.709 48.784 209.949 48.4C210.189 48 210.533 47.648 210.981 47.344V47.248C210.581 46.944 210.237 46.536 209.949 46.024C209.677 45.512 209.541 44.912 209.541 44.224C209.541 43.376 209.749 42.64 210.165 42.016C210.597 41.392 211.157 40.912 211.845 40.576C212.549 40.224 213.309 40.048 214.125 40.048C214.781 40.048 215.357 40.144 215.853 40.336H220.677V41.944H217.653C217.925 42.216 218.157 42.56 218.349 42.976C218.541 43.392 218.637 43.832 218.637 44.296C218.637 45.128 218.437 45.848 218.037 46.456C217.637 47.048 217.093 47.504 216.405 47.824C215.733 48.144 214.973 48.304 214.125 48.304C213.821 48.304 213.493 48.272 213.141 48.208C212.805 48.128 212.477 48.016 212.157 47.872C211.869 48.048 211.645 48.248 211.485 48.472C211.325 48.696 211.245 48.944 211.245 49.216C211.245 49.664 211.453 50 211.869 50.224C212.301 50.448 212.901 50.56 213.669 50.56H216.285C217.789 50.56 218.901 50.768 219.621 51.184C220.357 51.6 220.725 52.304 220.725 53.296C220.725 54.016 220.461 54.688 219.933 55.312C219.405 55.936 218.653 56.432 217.677 56.8C216.717 57.184 215.573 57.376 214.245 57.376ZM214.125 46.984C214.621 46.984 215.069 46.872 215.469 46.648C215.885 46.424 216.213 46.104 216.453 45.688C216.693 45.272 216.813 44.784 216.813 44.224C216.813 43.68 216.693 43.208 216.453 42.808C216.213 42.392 215.885 42.072 215.469 41.848C215.069 41.608 214.621 41.488 214.125 41.488C213.645 41.488 213.197 41.608 212.781 41.848C212.381 42.072 212.053 42.392 211.797 42.808C211.557 43.208 211.437 43.68 211.437 44.224C211.437 44.784 211.557 45.272 211.797 45.688C212.053 46.104 212.381 46.424 212.781 46.648C213.197 46.872 213.645 46.984 214.125 46.984ZM214.389 55.936C215.301 55.936 216.085 55.824 216.741 55.6C217.397 55.376 217.901 55.088 218.253 54.736C218.605 54.384 218.781 54.008 218.781 53.608C218.781 53.048 218.557 52.672 218.109 52.48C217.677 52.288 217.013 52.192 216.117 52.192H213.837C213.501 52.192 213.181 52.176 212.877 52.144C212.589 52.112 212.317 52.064 212.061 52C211.517 52.304 211.133 52.616 210.909 52.936C210.685 53.272 210.573 53.608 210.573 53.944C210.573 54.552 210.893 55.032 211.533 55.384C212.189 55.752 213.141 55.936 214.389 55.936ZM245.378 52.288C244.242 52.288 243.346 52.088 242.69 51.688C242.034 51.272 241.562 50.704 241.274 49.984C241.002 49.264 240.866 48.424 240.866 47.464V41.944H237.578V40.456L240.938 40.336L241.202 36.592H242.834V40.336H248.57V41.944H242.834V47.488C242.834 48.176 242.922 48.76 243.098 49.24C243.274 49.72 243.578 50.08 244.01 50.32C244.442 50.56 245.034 50.68 245.786 50.68C246.346 50.68 246.85 50.632 247.298 50.536C247.746 50.44 248.178 50.312 248.594 50.152L249.026 51.592C248.498 51.784 247.938 51.944 247.346 52.072C246.77 52.216 246.114 52.288 245.378 52.288ZM252.545 52V34.912H254.513V39.568L254.393 42.328H254.465C255.057 41.688 255.705 41.152 256.409 40.72C257.113 40.272 257.921 40.048 258.833 40.048C260.209 40.048 261.225 40.448 261.881 41.248C262.537 42.048 262.865 43.216 262.865 44.752V52H260.897V45.016C260.897 43.912 260.689 43.096 260.273 42.568C259.857 42.024 259.169 41.752 258.209 41.752C257.521 41.752 256.905 41.928 256.361 42.28C255.817 42.632 255.201 43.16 254.513 43.864V52H252.545ZM272.623 52.288C271.455 52.288 270.391 52.048 269.431 51.568C268.487 51.088 267.735 50.392 267.175 49.48C266.615 48.552 266.335 47.44 266.335 46.144C266.335 44.88 266.615 43.792 267.175 42.88C267.735 41.968 268.463 41.272 269.359 40.792C270.271 40.296 271.247 40.048 272.287 40.048C273.407 40.048 274.359 40.28 275.143 40.744C275.943 41.192 276.551 41.824 276.967 42.64C277.399 43.456 277.615 44.416 277.615 45.52C277.615 45.744 277.607 45.96 277.591 46.168C277.575 46.376 277.551 46.56 277.519 46.72H267.655V45.184H276.343L275.839 45.736C275.839 44.36 275.519 43.328 274.879 42.64C274.255 41.952 273.407 41.608 272.335 41.608C271.615 41.608 270.943 41.784 270.319 42.136C269.711 42.488 269.223 43 268.855 43.672C268.487 44.344 268.303 45.168 268.303 46.144C268.303 47.152 268.503 47.992 268.903 48.664C269.303 49.336 269.847 49.848 270.535 50.2C271.223 50.536 271.999 50.704 272.863 50.704C273.567 50.704 274.199 50.608 274.759 50.416C275.335 50.208 275.887 49.936 276.415 49.6L277.135 50.896C276.559 51.28 275.895 51.608 275.143 51.88C274.407 52.152 273.567 52.288 272.623 52.288ZM299.292 52V39.352C299.292 38.408 299.46 37.584 299.796 36.88C300.148 36.16 300.668 35.608 301.356 35.224C302.044 34.824 302.924 34.624 303.996 34.624C304.572 34.624 305.132 34.68 305.676 34.792C306.236 34.888 306.796 35.056 307.356 35.296L306.9 36.784C306.42 36.56 305.972 36.416 305.556 36.352C305.156 36.272 304.7 36.232 304.188 36.232C303.148 36.232 302.396 36.504 301.932 37.048C301.468 37.592 301.236 38.336 301.236 39.28V52H299.292ZM295.956 41.944V40.456L299.364 40.336H306.132V41.944H295.956ZM313.779 52.288C312.387 52.288 311.363 51.888 310.707 51.088C310.051 50.288 309.723 49.12 309.723 47.584V40.336H311.715V47.32C311.715 48.424 311.915 49.248 312.315 49.792C312.731 50.32 313.427 50.584 314.403 50.584C315.075 50.584 315.683 50.416 316.227 50.08C316.787 49.728 317.387 49.176 318.027 48.424V40.336H319.995V52H318.387L318.219 49.96H318.123C317.531 50.632 316.883 51.192 316.179 51.64C315.475 52.072 314.675 52.288 313.779 52.288ZM331.722 52.288C330.586 52.288 329.69 52.088 329.034 51.688C328.378 51.272 327.906 50.704 327.618 49.984C327.346 49.264 327.21 48.424 327.21 47.464V41.944H323.922V40.456L327.282 40.336L327.546 36.592H329.178V40.336H334.914V41.944H329.178V47.488C329.178 48.176 329.266 48.76 329.442 49.24C329.618 49.72 329.922 50.08 330.354 50.32C330.786 50.56 331.378 50.68 332.13 50.68C332.69 50.68 333.194 50.632 333.642 50.536C334.09 50.44 334.522 50.312 334.938 50.152L335.37 51.592C334.842 51.784 334.282 51.944 333.69 52.072C333.114 52.216 332.458 52.288 331.722 52.288ZM342.56 52.288C341.168 52.288 340.144 51.888 339.488 51.088C338.832 50.288 338.504 49.12 338.504 47.584V40.336H340.496V47.32C340.496 48.424 340.696 49.248 341.096 49.792C341.512 50.32 342.208 50.584 343.184 50.584C343.856 50.584 344.464 50.416 345.008 50.08C345.568 49.728 346.168 49.176 346.808 48.424V40.336H348.776V52H347.168L347 49.96H346.904C346.312 50.632 345.664 51.192 344.96 51.64C344.256 52.072 343.456 52.288 342.56 52.288ZM354.551 52V40.336H356.183L356.351 43.096H356.423C357.031 42.152 357.783 41.408 358.679 40.864C359.575 40.32 360.559 40.048 361.631 40.048C362.063 40.048 362.463 40.088 362.831 40.168C363.215 40.232 363.583 40.352 363.935 40.528L363.479 42.232C363.079 42.088 362.735 41.984 362.447 41.92C362.159 41.856 361.783 41.824 361.319 41.824C360.439 41.824 359.591 42.08 358.775 42.592C357.975 43.088 357.223 43.944 356.519 45.16V52H354.551ZM373.358 52.288C372.19 52.288 371.126 52.048 370.166 51.568C369.222 51.088 368.47 50.392 367.91 49.48C367.35 48.552 367.07 47.44 367.07 46.144C367.07 44.88 367.35 43.792 367.91 42.88C368.47 41.968 369.198 41.272 370.094 40.792C371.006 40.296 371.982 40.048 373.022 40.048C374.142 40.048 375.094 40.28 375.878 40.744C376.678 41.192 377.286 41.824 377.702 42.64C378.134 43.456 378.35 44.416 378.35 45.52C378.35 45.744 378.342 45.96 378.326 46.168C378.31 46.376 378.286 46.56 378.254 46.72H368.39V45.184H377.078L376.574 45.736C376.574 44.36 376.254 43.328 375.614 42.64C374.99 41.952 374.142 41.608 373.07 41.608C372.35 41.608 371.678 41.784 371.054 42.136C370.446 42.488 369.958 43 369.59 43.672C369.222 44.344 369.038 45.168 369.038 46.144C369.038 47.152 369.238 47.992 369.638 48.664C370.038 49.336 370.582 49.848 371.27 50.2C371.958 50.536 372.734 50.704 373.598 50.704C374.302 50.704 374.934 50.608 375.494 50.416C376.07 50.208 376.622 49.936 377.15 49.6L377.87 50.896C377.294 51.28 376.63 51.608 375.878 51.88C375.142 52.152 374.302 52.288 373.358 52.288ZM401.419 52.288C400.395 52.288 399.443 52.048 398.563 51.568C397.699 51.088 396.995 50.392 396.451 49.48C395.923 48.568 395.659 47.472 395.659 46.192C395.659 44.88 395.923 43.768 396.451 42.856C396.995 41.944 397.699 41.248 398.563 40.768C399.443 40.288 400.395 40.048 401.419 40.048C402.443 40.048 403.387 40.288 404.251 40.768C405.131 41.248 405.835 41.944 406.363 42.856C406.907 43.768 407.179 44.88 407.179 46.192C407.179 47.472 406.907 48.568 406.363 49.48C405.835 50.392 405.131 51.088 404.251 51.568C403.387 52.048 402.443 52.288 401.419 52.288ZM401.419 50.656C402.171 50.656 402.827 50.472 403.387 50.104C403.947 49.72 404.379 49.192 404.683 48.52C404.987 47.848 405.139 47.072 405.139 46.192C405.139 45.296 404.987 44.512 404.683 43.84C404.379 43.152 403.947 42.624 403.387 42.256C402.827 41.872 402.171 41.68 401.419 41.68C400.667 41.68 400.011 41.872 399.451 42.256C398.907 42.624 398.475 43.152 398.155 43.84C397.851 44.512 397.699 45.296 397.699 46.192C397.699 47.072 397.851 47.848 398.155 48.52C398.475 49.192 398.907 49.72 399.451 50.104C400.011 50.472 400.667 50.656 401.419 50.656ZM414.417 52V39.352C414.417 38.408 414.585 37.584 414.921 36.88C415.273 36.16 415.793 35.608 416.481 35.224C417.169 34.824 418.049 34.624 419.121 34.624C419.697 34.624 420.257 34.68 420.801 34.792C421.361 34.888 421.921 35.056 422.481 35.296L422.025 36.784C421.545 36.56 421.097 36.416 420.681 36.352C420.281 36.272 419.825 36.232 419.313 36.232C418.273 36.232 417.521 36.504 417.057 37.048C416.593 37.592 416.361 38.336 416.361 39.28V52H414.417ZM411.081 41.944V40.456L414.489 40.336H421.257V41.944H411.081ZM445.695 52.288C444.479 52.288 443.383 52.048 442.407 51.568C441.447 51.088 440.687 50.392 440.127 49.48C439.583 48.568 439.311 47.472 439.311 46.192C439.311 44.88 439.607 43.768 440.199 42.856C440.791 41.944 441.575 41.248 442.551 40.768C443.543 40.288 444.631 40.048 445.815 40.048C446.775 40.048 447.599 40.216 448.287 40.552C448.991 40.888 449.583 41.288 450.063 41.752L449.079 43.024C448.599 42.608 448.103 42.28 447.591 42.04C447.079 41.8 446.511 41.68 445.887 41.68C444.991 41.68 444.199 41.872 443.511 42.256C442.823 42.624 442.287 43.152 441.903 43.84C441.535 44.512 441.351 45.296 441.351 46.192C441.351 47.072 441.535 47.848 441.903 48.52C442.271 49.192 442.791 49.72 443.463 50.104C444.151 50.472 444.943 50.656 445.839 50.656C446.559 50.656 447.215 50.512 447.807 50.224C448.415 49.936 448.959 49.592 449.439 49.192L450.327 50.464C449.687 51.04 448.967 51.488 448.167 51.808C447.383 52.128 446.559 52.288 445.695 52.288ZM458.981 52.288C457.957 52.288 457.005 52.048 456.125 51.568C455.261 51.088 454.557 50.392 454.013 49.48C453.485 48.568 453.221 47.472 453.221 46.192C453.221 44.88 453.485 43.768 454.013 42.856C454.557 41.944 455.261 41.248 456.125 40.768C457.005 40.288 457.957 40.048 458.981 40.048C460.005 40.048 460.949 40.288 461.813 40.768C462.693 41.248 463.397 41.944 463.925 42.856C464.469 43.768 464.741 44.88 464.741 46.192C464.741 47.472 464.469 48.568 463.925 49.48C463.397 50.392 462.693 51.088 461.813 51.568C460.949 52.048 460.005 52.288 458.981 52.288ZM458.981 50.656C459.733 50.656 460.389 50.472 460.949 50.104C461.509 49.72 461.941 49.192 462.245 48.52C462.549 47.848 462.701 47.072 462.701 46.192C462.701 45.296 462.549 44.512 462.245 43.84C461.941 43.152 461.509 42.624 460.949 42.256C460.389 41.872 459.733 41.68 458.981 41.68C458.229 41.68 457.573 41.872 457.013 42.256C456.469 42.624 456.037 43.152 455.717 43.84C455.413 44.512 455.261 45.296 455.261 46.192C455.261 47.072 455.413 47.848 455.717 48.52C456.037 49.192 456.469 49.72 457.013 50.104C457.573 50.472 458.229 50.656 458.981 50.656ZM467.564 52V40.336H469.148L469.316 41.872H469.364C469.668 41.328 470.02 40.888 470.42 40.552C470.82 40.216 471.356 40.048 472.028 40.048C472.604 40.048 473.076 40.216 473.444 40.552C473.812 40.888 474.076 41.392 474.236 42.064C474.572 41.44 474.94 40.952 475.34 40.6C475.756 40.232 476.3 40.048 476.972 40.048C477.788 40.048 478.42 40.36 478.868 40.984C479.332 41.592 479.564 42.48 479.564 43.648V52H477.596V43.792C477.596 42.432 477.18 41.752 476.348 41.752C475.948 41.752 475.612 41.904 475.34 42.208C475.084 42.496 474.796 42.944 474.476 43.552V52H472.652V43.792C472.652 43.12 472.556 42.616 472.364 42.28C472.188 41.928 471.884 41.752 471.452 41.752C471.052 41.752 470.7 41.904 470.396 42.208C470.108 42.496 469.82 42.944 469.532 43.552V52H467.564ZM482.795 56.92V40.336H484.427L484.595 41.824H484.667C485.211 41.312 485.835 40.888 486.539 40.552C487.259 40.216 487.979 40.048 488.699 40.048C489.755 40.048 490.635 40.296 491.339 40.792C492.059 41.272 492.603 41.96 492.971 42.856C493.339 43.736 493.523 44.784 493.523 46C493.523 47.312 493.275 48.44 492.779 49.384C492.283 50.328 491.635 51.048 490.835 51.544C490.035 52.04 489.163 52.288 488.219 52.288C487.691 52.288 487.107 52.16 486.467 51.904C485.843 51.632 485.267 51.256 484.739 50.776H484.667L484.763 52.984V56.92H482.795ZM487.883 50.632C488.571 50.632 489.187 50.448 489.731 50.08C490.275 49.712 490.699 49.184 491.003 48.496C491.323 47.792 491.483 46.96 491.483 46C491.483 45.152 491.371 44.408 491.147 43.768C490.923 43.112 490.571 42.608 490.091 42.256C489.611 41.888 488.979 41.704 488.195 41.704C487.667 41.704 487.107 41.848 486.515 42.136C485.939 42.408 485.355 42.848 484.763 43.456V49.264C485.323 49.76 485.883 50.112 486.443 50.32C487.019 50.528 487.499 50.632 487.883 50.632ZM500.857 52.288C499.465 52.288 498.441 51.888 497.785 51.088C497.129 50.288 496.801 49.12 496.801 47.584V40.336H498.793V47.32C498.793 48.424 498.993 49.248 499.393 49.792C499.809 50.32 500.505 50.584 501.481 50.584C502.153 50.584 502.761 50.416 503.305 50.08C503.865 49.728 504.465 49.176 505.105 48.424V40.336H507.073V52H505.465L505.297 49.96H505.201C504.609 50.632 503.961 51.192 503.257 51.64C502.553 52.072 501.753 52.288 500.857 52.288ZM518.8 52.288C517.664 52.288 516.768 52.088 516.112 51.688C515.456 51.272 514.984 50.704 514.696 49.984C514.424 49.264 514.288 48.424 514.288 47.464V41.944H511V40.456L514.36 40.336L514.624 36.592H516.256V40.336H521.992V41.944H516.256V47.488C516.256 48.176 516.344 48.76 516.52 49.24C516.696 49.72 517 50.08 517.432 50.32C517.864 50.56 518.456 50.68 519.208 50.68C519.768 50.68 520.272 50.632 520.72 50.536C521.168 50.44 521.6 50.312 522.016 50.152L522.448 51.592C521.92 51.784 521.36 51.944 520.768 52.072C520.192 52.216 519.536 52.288 518.8 52.288ZM531.318 52V41.944H525.894V40.336H533.286V52H531.318ZM532.086 37.888C531.638 37.888 531.262 37.752 530.958 37.48C530.654 37.192 530.502 36.816 530.502 36.352C530.502 35.888 530.654 35.52 530.958 35.248C531.262 34.96 531.638 34.816 532.086 34.816C532.534 34.816 532.91 34.96 533.214 35.248C533.518 35.52 533.67 35.888 533.67 36.352C533.67 36.816 533.518 37.192 533.214 37.48C532.91 37.752 532.534 37.888 532.086 37.888ZM540.357 52V40.336H541.989L542.157 42.328H542.253C542.861 41.672 543.517 41.128 544.221 40.696C544.925 40.264 545.733 40.048 546.645 40.048C548.021 40.048 549.037 40.448 549.693 41.248C550.349 42.048 550.677 43.216 550.677 44.752V52H548.709V45.016C548.709 43.912 548.501 43.096 548.085 42.568C547.669 42.024 546.981 41.752 546.021 41.752C545.333 41.752 544.717 41.928 544.173 42.28C543.629 42.632 543.013 43.16 542.325 43.864V52H540.357ZM559.62 57.376C558.484 57.376 557.516 57.248 556.716 56.992C555.916 56.736 555.3 56.368 554.868 55.888C554.452 55.408 554.244 54.824 554.244 54.136C554.244 53.672 554.404 53.208 554.724 52.744C555.06 52.296 555.54 51.896 556.164 51.544V51.448C555.86 51.272 555.58 51.032 555.324 50.728C555.084 50.424 554.964 50.024 554.964 49.528C554.964 49.16 555.084 48.784 555.324 48.4C555.564 48 555.908 47.648 556.356 47.344V47.248C555.956 46.944 555.612 46.536 555.324 46.024C555.052 45.512 554.916 44.912 554.916 44.224C554.916 43.376 555.124 42.64 555.54 42.016C555.972 41.392 556.532 40.912 557.22 40.576C557.924 40.224 558.684 40.048 559.5 40.048C560.156 40.048 560.732 40.144 561.228 40.336H566.052V41.944H563.028C563.3 42.216 563.532 42.56 563.724 42.976C563.916 43.392 564.012 43.832 564.012 44.296C564.012 45.128 563.812 45.848 563.412 46.456C563.012 47.048 562.468 47.504 561.78 47.824C561.108 48.144 560.348 48.304 559.5 48.304C559.196 48.304 558.868 48.272 558.516 48.208C558.18 48.128 557.852 48.016 557.532 47.872C557.244 48.048 557.02 48.248 556.86 48.472C556.7 48.696 556.62 48.944 556.62 49.216C556.62 49.664 556.828 50 557.244 50.224C557.676 50.448 558.276 50.56 559.044 50.56H561.66C563.164 50.56 564.276 50.768 564.996 51.184C565.732 51.6 566.1 52.304 566.1 53.296C566.1 54.016 565.836 54.688 565.308 55.312C564.78 55.936 564.028 56.432 563.052 56.8C562.092 57.184 560.948 57.376 559.62 57.376ZM559.5 46.984C559.996 46.984 560.444 46.872 560.844 46.648C561.26 46.424 561.588 46.104 561.828 45.688C562.068 45.272 562.188 44.784 562.188 44.224C562.188 43.68 562.068 43.208 561.828 42.808C561.588 42.392 561.26 42.072 560.844 41.848C560.444 41.608 559.996 41.488 559.5 41.488C559.02 41.488 558.572 41.608 558.156 41.848C557.756 42.072 557.428 42.392 557.172 42.808C556.932 43.208 556.812 43.68 556.812 44.224C556.812 44.784 556.932 45.272 557.172 45.688C557.428 46.104 557.756 46.424 558.156 46.648C558.572 46.872 559.02 46.984 559.5 46.984ZM559.764 55.936C560.676 55.936 561.46 55.824 562.116 55.6C562.772 55.376 563.276 55.088 563.628 54.736C563.98 54.384 564.156 54.008 564.156 53.608C564.156 53.048 563.932 52.672 563.484 52.48C563.052 52.288 562.388 52.192 561.492 52.192H559.212C558.876 52.192 558.556 52.176 558.252 52.144C557.964 52.112 557.692 52.064 557.436 52C556.892 52.304 556.508 52.616 556.284 52.936C556.06 53.272 555.948 53.608 555.948 53.944C555.948 54.552 556.268 55.032 556.908 55.384C557.564 55.752 558.516 55.936 559.764 55.936ZM588.497 52.288C587.473 52.288 586.521 52.048 585.641 51.568C584.777 51.088 584.073 50.392 583.529 49.48C583.001 48.568 582.737 47.472 582.737 46.192C582.737 44.88 583.001 43.768 583.529 42.856C584.073 41.944 584.777 41.248 585.641 40.768C586.521 40.288 587.473 40.048 588.497 40.048C589.521 40.048 590.465 40.288 591.329 40.768C592.209 41.248 592.913 41.944 593.441 42.856C593.985 43.768 594.257 44.88 594.257 46.192C594.257 47.472 593.985 48.568 593.441 49.48C592.913 50.392 592.209 51.088 591.329 51.568C590.465 52.048 589.521 52.288 588.497 52.288ZM588.497 50.656C589.249 50.656 589.905 50.472 590.465 50.104C591.025 49.72 591.457 49.192 591.761 48.52C592.065 47.848 592.217 47.072 592.217 46.192C592.217 45.296 592.065 44.512 591.761 43.84C591.457 43.152 591.025 42.624 590.465 42.256C589.905 41.872 589.249 41.68 588.497 41.68C587.745 41.68 587.089 41.872 586.529 42.256C585.985 42.624 585.553 43.152 585.233 43.84C584.929 44.512 584.777 45.296 584.777 46.192C584.777 47.072 584.929 47.848 585.233 48.52C585.553 49.192 585.985 49.72 586.529 50.104C587.089 50.472 587.745 50.656 588.497 50.656ZM597.92 52V40.336H599.552L599.72 42.328H599.816C600.424 41.672 601.08 41.128 601.784 40.696C602.488 40.264 603.296 40.048 604.208 40.048C605.584 40.048 606.6 40.448 607.256 41.248C607.912 42.048 608.24 43.216 608.24 44.752V52H606.272V45.016C606.272 43.912 606.064 43.096 605.648 42.568C605.232 42.024 604.544 41.752 603.584 41.752C602.896 41.752 602.28 41.928 601.736 42.28C601.192 42.632 600.576 43.16 599.888 43.864V52H597.92ZM632.773 52.288C631.557 52.288 630.461 52.048 629.485 51.568C628.525 51.088 627.765 50.392 627.205 49.48C626.661 48.568 626.389 47.472 626.389 46.192C626.389 44.88 626.685 43.768 627.277 42.856C627.869 41.944 628.653 41.248 629.629 40.768C630.621 40.288 631.709 40.048 632.893 40.048C633.853 40.048 634.677 40.216 635.365 40.552C636.069 40.888 636.661 41.288 637.141 41.752L636.157 43.024C635.677 42.608 635.181 42.28 634.669 42.04C634.157 41.8 633.589 41.68 632.965 41.68C632.069 41.68 631.277 41.872 630.589 42.256C629.901 42.624 629.365 43.152 628.981 43.84C628.613 44.512 628.429 45.296 628.429 46.192C628.429 47.072 628.613 47.848 628.981 48.52C629.349 49.192 629.869 49.72 630.541 50.104C631.229 50.472 632.021 50.656 632.917 50.656C633.637 50.656 634.293 50.512 634.885 50.224C635.493 49.936 636.037 49.592 636.517 49.192L637.405 50.464C636.765 51.04 636.045 51.488 635.245 51.808C634.461 52.128 633.637 52.288 632.773 52.288ZM644.763 52.288C644.043 52.288 643.379 52.16 642.771 51.904C642.163 51.632 641.683 51.248 641.331 50.752C640.979 50.256 640.803 49.664 640.803 48.976C640.803 47.664 641.459 46.672 642.771 46C644.083 45.312 646.243 44.848 649.251 44.608C649.235 44.08 649.123 43.592 648.915 43.144C648.723 42.696 648.403 42.344 647.955 42.088C647.507 41.816 646.907 41.68 646.155 41.68C645.659 41.68 645.163 41.752 644.667 41.896C644.187 42.024 643.723 42.2 643.275 42.424C642.843 42.632 642.443 42.848 642.075 43.072L641.307 41.728C641.691 41.472 642.155 41.216 642.699 40.96C643.259 40.688 643.859 40.472 644.499 40.312C645.139 40.136 645.803 40.048 646.491 40.048C647.563 40.048 648.443 40.248 649.131 40.648C649.835 41.048 650.355 41.608 650.691 42.328C651.043 43.032 651.219 43.872 651.219 44.848V52H649.611L649.443 50.416H649.371C648.731 50.928 648.011 51.368 647.211 51.736C646.411 52.104 645.595 52.288 644.763 52.288ZM645.291 50.704C645.963 50.704 646.627 50.552 647.283 50.248C647.939 49.944 648.595 49.52 649.251 48.976V45.904C647.587 46.048 646.275 46.248 645.315 46.504C644.371 46.76 643.699 47.088 643.299 47.488C642.915 47.872 642.723 48.32 642.723 48.832C642.723 49.264 642.843 49.624 643.083 49.912C643.323 50.184 643.635 50.384 644.019 50.512C644.419 50.64 644.843 50.704 645.291 50.704ZM654.642 52V40.336H656.226L656.394 41.872H656.442C656.746 41.328 657.098 40.888 657.498 40.552C657.898 40.216 658.434 40.048 659.106 40.048C659.682 40.048 660.154 40.216 660.522 40.552C660.89 40.888 661.154 41.392 661.314 42.064C661.65 41.44 662.018 40.952 662.418 40.6C662.834 40.232 663.378 40.048 664.05 40.048C664.866 40.048 665.498 40.36 665.946 40.984C666.41 41.592 666.642 42.48 666.642 43.648V52H664.674V43.792C664.674 42.432 664.258 41.752 663.426 41.752C663.026 41.752 662.69 41.904 662.418 42.208C662.162 42.496 661.874 42.944 661.554 43.552V52H659.73V43.792C659.73 43.12 659.634 42.616 659.442 42.28C659.266 41.928 658.962 41.752 658.53 41.752C658.13 41.752 657.778 41.904 657.474 42.208C657.186 42.496 656.898 42.944 656.61 43.552V52H654.642ZM669.873 56.92V40.336H671.505L671.673 41.824H671.745C672.289 41.312 672.913 40.888 673.617 40.552C674.337 40.216 675.057 40.048 675.777 40.048C676.833 40.048 677.713 40.296 678.417 40.792C679.137 41.272 679.681 41.96 680.049 42.856C680.417 43.736 680.601 44.784 680.601 46C680.601 47.312 680.353 48.44 679.857 49.384C679.361 50.328 678.713 51.048 677.913 51.544C677.113 52.04 676.241 52.288 675.297 52.288C674.769 52.288 674.185 52.16 673.545 51.904C672.921 51.632 672.345 51.256 671.817 50.776H671.745L671.841 52.984V56.92H669.873ZM674.961 50.632C675.649 50.632 676.265 50.448 676.809 50.08C677.353 49.712 677.777 49.184 678.081 48.496C678.401 47.792 678.561 46.96 678.561 46C678.561 45.152 678.449 44.408 678.225 43.768C678.001 43.112 677.649 42.608 677.169 42.256C676.689 41.888 676.057 41.704 675.273 41.704C674.745 41.704 674.185 41.848 673.593 42.136C673.017 42.408 672.433 42.848 671.841 43.456V49.264C672.401 49.76 672.961 50.112 673.521 50.32C674.097 50.528 674.577 50.632 674.961 50.632ZM687.935 52.288C686.543 52.288 685.519 51.888 684.863 51.088C684.207 50.288 683.879 49.12 683.879 47.584V40.336H685.871V47.32C685.871 48.424 686.071 49.248 686.471 49.792C686.887 50.32 687.583 50.584 688.559 50.584C689.231 50.584 689.839 50.416 690.383 50.08C690.943 49.728 691.543 49.176 692.183 48.424V40.336H694.151V52H692.543L692.375 49.96H692.279C691.687 50.632 691.039 51.192 690.335 51.64C689.631 52.072 688.831 52.288 687.935 52.288ZM703.862 52.288C702.726 52.288 701.662 52.104 700.67 51.736C699.678 51.368 698.83 50.944 698.126 50.464L699.038 49.168C699.71 49.648 700.454 50.032 701.27 50.32C702.086 50.608 703.03 50.752 704.102 50.752C705.094 50.752 705.83 50.568 706.31 50.2C706.806 49.832 707.054 49.408 707.054 48.928C707.054 48.704 707.006 48.496 706.91 48.304C706.83 48.112 706.662 47.928 706.406 47.752C706.166 47.576 705.806 47.408 705.326 47.248C704.846 47.088 704.206 46.928 703.406 46.768C701.886 46.448 700.742 46.016 699.974 45.472C699.222 44.928 698.846 44.224 698.846 43.36C698.846 42.416 699.254 41.632 700.07 41.008C700.886 40.368 702.094 40.048 703.694 40.048C704.59 40.048 705.454 40.2 706.286 40.504C707.118 40.792 707.822 41.136 708.398 41.536L707.438 42.808C706.91 42.424 706.31 42.128 705.638 41.92C704.966 41.696 704.262 41.584 703.526 41.584C702.854 41.584 702.318 41.664 701.918 41.824C701.534 41.968 701.254 42.168 701.078 42.424C700.918 42.68 700.838 42.96 700.838 43.264C700.838 43.76 701.102 44.152 701.63 44.44C702.174 44.712 703.038 44.968 704.222 45.208C705.518 45.48 706.51 45.784 707.198 46.12C707.902 46.456 708.382 46.84 708.638 47.272C708.91 47.704 709.046 48.216 709.046 48.808C709.046 49.448 708.846 50.032 708.446 50.56C708.046 51.072 707.462 51.488 706.694 51.808C705.926 52.128 704.982 52.288 703.862 52.288ZM718.013 52.288C717.485 52.288 717.029 52.104 716.645 51.736C716.261 51.352 716.069 50.864 716.069 50.272C716.069 49.664 716.261 49.176 716.645 48.808C717.029 48.424 717.485 48.232 718.013 48.232C718.557 48.232 719.013 48.424 719.381 48.808C719.765 49.176 719.957 49.664 719.957 50.272C719.957 50.864 719.765 51.352 719.381 51.736C719.013 52.104 718.557 52.288 718.013 52.288Z" fill="#CAC6DD"/>
</svg>
