<svg width="603" height="120" viewBox="0 0 603 120" fill="none" xmlns="http://www.w3.org/2000/svg">
<path d="M0.536719 46V2.2H8.87672V46H0.536719ZM7.67672 46V38.8H27.5367V46H7.67672ZM7.67672 27.34V20.14H25.9767V27.34H7.67672ZM7.67672 9.4V2.2H27.0567V9.4H7.67672ZM31.5389 46L46.9589 22.66L47.0189 23.68L32.8589 2.2H42.3389L51.8189 16.9H53.0789L62.4989 2.2H71.6189L57.2789 23.86L57.1589 22.84L72.9389 46H63.5189L52.4789 29.56H51.2189L40.6589 46H31.5389ZM86.3723 32.56V25.18H94.8923C96.6123 25.18 98.0523 24.84 99.2123 24.16C100.412 23.48 101.312 22.54 101.912 21.34C102.552 20.14 102.872 18.76 102.872 17.2C102.872 15.64 102.552 14.26 101.912 13.06C101.312 11.86 100.412 10.94 99.2123 10.3C98.0523 9.62 96.6123 9.28 94.8923 9.28H86.3723V1.9H94.1723C97.8523 1.9 100.972 2.5 103.532 3.7C106.132 4.9 108.112 6.62 109.472 8.86C110.832 11.06 111.512 13.68 111.512 16.72V17.68C111.512 20.72 110.832 23.36 109.472 25.6C108.112 27.8 106.132 29.52 103.532 30.76C100.972 31.96 97.8523 32.56 94.1723 32.56H86.3723ZM79.0523 46V1.9H87.5723V46H79.0523ZM118.545 46V2.2H127.065V46H118.545ZM125.865 46V38.5H144.765V46H125.865ZM171.468 47.14C167.508 47.14 164.068 46.44 161.148 45.04C158.268 43.64 155.868 41.82 153.948 39.58C152.068 37.3 150.648 34.86 149.688 32.26C148.768 29.62 148.308 27.08 148.308 24.64V23.32C148.308 20.64 148.788 17.98 149.748 15.34C150.708 12.66 152.148 10.24 154.068 8.08C156.028 5.92 158.448 4.2 161.328 2.92C164.208 1.6 167.588 0.939997 171.468 0.939997C175.308 0.939997 178.668 1.6 181.548 2.92C184.428 4.2 186.828 5.92 188.748 8.08C190.708 10.24 192.168 12.66 193.128 15.34C194.088 17.98 194.568 20.64 194.568 23.32V24.64C194.568 27.08 194.088 29.62 193.128 32.26C192.208 34.86 190.788 37.3 188.868 39.58C186.988 41.82 184.588 43.64 181.668 45.04C178.788 46.44 175.388 47.14 171.468 47.14ZM171.468 39.22C173.708 39.22 175.708 38.82 177.468 38.02C179.268 37.22 180.788 36.12 182.028 34.72C183.308 33.28 184.268 31.66 184.908 29.86C185.588 28.02 185.928 26.08 185.928 24.04C185.928 21.84 185.588 19.82 184.908 17.98C184.268 16.14 183.308 14.54 182.028 13.18C180.788 11.82 179.268 10.76 177.468 10C175.668 9.24 173.668 8.86 171.468 8.86C169.228 8.86 167.208 9.24 165.408 10C163.608 10.76 162.068 11.82 160.788 13.18C159.548 14.54 158.588 16.14 157.908 17.98C157.268 19.82 156.948 21.84 156.948 24.04C156.948 26.08 157.268 28.02 157.908 29.86C158.588 31.66 159.548 33.28 160.788 34.72C162.068 36.12 163.608 37.22 165.408 38.02C167.208 38.82 169.228 39.22 171.468 39.22ZM202.802 46V1.9H211.322V46H202.802ZM229.562 46L216.122 26.92H225.662L239.522 46H229.562ZM208.802 31.36V24.46H219.962C221.522 24.46 222.862 24.14 223.982 23.5C225.142 22.86 226.042 21.96 226.682 20.8C227.322 19.64 227.642 18.32 227.642 16.84C227.642 15.32 227.322 13.98 226.682 12.82C226.042 11.66 225.142 10.76 223.982 10.12C222.862 9.48 221.522 9.16 219.962 9.16H208.802V1.9H219.062C222.582 1.9 225.622 2.42 228.182 3.46C230.782 4.5 232.782 6.08 234.182 8.2C235.582 10.32 236.282 12.98 236.282 16.18V17.14C236.282 20.38 235.562 23.04 234.122 25.12C232.722 27.2 230.742 28.76 228.182 29.8C225.622 30.84 222.582 31.36 219.062 31.36H208.802ZM245.986 46V2.2H254.326V46H245.986ZM253.126 46V38.8H272.986V46H253.126ZM253.126 27.34V20.14H271.426V27.34H253.126ZM253.126 9.4V2.2H272.506V9.4H253.126ZM294.677 46V2.2H303.197V46H294.677ZM301.997 46V38.5H320.897V46H301.997ZM327.961 46V2.2H336.481V46H327.961ZM347.412 46V2.2H359.052L370.032 28.36H371.112L382.032 2.2H393.852V46H385.392V8.62L386.472 8.74L374.652 37.06H365.952L354.072 8.74L355.212 8.62V46H347.412ZM404.778 46V2.2H413.298V46H404.778ZM432.868 46V8.5H441.388V46H432.868ZM420.208 9.7V2.2H454.048V9.7H420.208ZM460.849 46V2.2H469.369V46H460.849ZM468.169 46V38.5H487.069V46H468.169ZM494.013 46V2.2H502.353V46H494.013ZM501.153 46V38.8H521.013V46H501.153ZM501.153 27.34V20.14H519.453V27.34H501.153ZM501.153 9.4V2.2H520.533V9.4H501.153ZM544.344 47.14C540.464 47.14 537.184 46.52 534.504 45.28C531.864 44.04 529.844 42.34 528.444 40.18C527.044 37.98 526.344 35.5 526.344 32.74H534.684C534.684 33.9 535.004 35.04 535.644 36.16C536.284 37.24 537.304 38.12 538.704 38.8C540.144 39.48 542.024 39.82 544.344 39.82C546.424 39.82 548.164 39.52 549.564 38.92C550.964 38.32 552.004 37.54 552.684 36.58C553.364 35.58 553.704 34.46 553.704 33.22C553.704 31.66 553.044 30.42 551.724 29.5C550.404 28.54 548.364 27.94 545.604 27.7L541.764 27.4C537.564 27.04 534.204 25.74 531.684 23.5C529.204 21.22 527.964 18.22 527.964 14.5C527.964 11.7 528.624 9.3 529.944 7.3C531.264 5.26 533.104 3.7 535.464 2.62C537.864 1.5 540.664 0.939997 543.864 0.939997C547.184 0.939997 550.044 1.52 552.444 2.68C554.844 3.84 556.704 5.48 558.024 7.6C559.344 9.68 560.004 12.14 560.004 14.98H551.664C551.664 13.78 551.364 12.68 550.764 11.68C550.204 10.64 549.344 9.82 548.184 9.22C547.064 8.58 545.624 8.26 543.864 8.26C542.184 8.26 540.784 8.54 539.664 9.1C538.544 9.66 537.704 10.42 537.144 11.38C536.584 12.34 536.304 13.38 536.304 14.5C536.304 15.86 536.804 17.06 537.804 18.1C538.804 19.1 540.384 19.68 542.544 19.84L546.384 20.2C549.504 20.44 552.244 21.1 554.604 22.18C556.964 23.26 558.784 24.72 560.064 26.56C561.384 28.4 562.044 30.62 562.044 33.22C562.044 35.98 561.324 38.42 559.884 40.54C558.444 42.62 556.384 44.24 553.704 45.4C551.064 46.56 547.944 47.14 544.344 47.14ZM584.774 47.14C580.894 47.14 577.614 46.52 574.934 45.28C572.294 44.04 570.274 42.34 568.874 40.18C567.474 37.98 566.774 35.5 566.774 32.74H575.114C575.114 33.9 575.434 35.04 576.074 36.16C576.714 37.24 577.734 38.12 579.134 38.8C580.574 39.48 582.454 39.82 584.774 39.82C586.854 39.82 588.594 39.52 589.994 38.92C591.394 38.32 592.434 37.54 593.114 36.58C593.794 35.58 594.134 34.46 594.134 33.22C594.134 31.66 593.474 30.42 592.154 29.5C590.834 28.54 588.794 27.94 586.034 27.7L582.194 27.4C577.994 27.04 574.634 25.74 572.114 23.5C569.634 21.22 568.394 18.22 568.394 14.5C568.394 11.7 569.054 9.3 570.374 7.3C571.694 5.26 573.534 3.7 575.894 2.62C578.294 1.5 581.094 0.939997 584.294 0.939997C587.614 0.939997 590.474 1.52 592.874 2.68C595.274 3.84 597.134 5.48 598.454 7.6C599.774 9.68 600.434 12.14 600.434 14.98H592.094C592.094 13.78 591.794 12.68 591.194 11.68C590.634 10.64 589.774 9.82 588.614 9.22C587.494 8.58 586.054 8.26 584.294 8.26C582.614 8.26 581.214 8.54 580.094 9.1C578.974 9.66 578.134 10.42 577.574 11.38C577.014 12.34 576.734 13.38 576.734 14.5C576.734 15.86 577.234 17.06 578.234 18.1C579.234 19.1 580.814 19.68 582.974 19.84L586.814 20.2C589.934 20.44 592.674 21.1 595.034 22.18C597.394 23.26 599.214 24.72 600.494 26.56C601.814 28.4 602.474 30.62 602.474 33.22C602.474 35.98 601.754 38.42 600.314 40.54C598.874 42.62 596.814 44.24 594.134 45.4C591.494 46.56 588.374 47.14 584.774 47.14ZM114.322 104.56V97.18H122.842C124.562 97.18 126.002 96.84 127.162 96.16C128.362 95.48 129.262 94.54 129.862 93.34C130.502 92.14 130.822 90.76 130.822 89.2C130.822 87.64 130.502 86.26 129.862 85.06C129.262 83.86 128.362 82.94 127.162 82.3C126.002 81.62 124.562 81.28 122.842 81.28H114.322V73.9H122.122C125.802 73.9 128.922 74.5 131.482 75.7C134.082 76.9 136.062 78.62 137.422 80.86C138.782 83.06 139.462 85.68 139.462 88.72V89.68C139.462 92.72 138.782 95.36 137.422 97.6C136.062 99.8 134.082 101.52 131.482 102.76C128.922 103.96 125.802 104.56 122.122 104.56H114.322ZM107.002 118V73.9H115.522V118H107.002ZM167.074 119.14C163.114 119.14 159.674 118.44 156.754 117.04C153.874 115.64 151.474 113.82 149.554 111.58C147.674 109.3 146.254 106.86 145.294 104.26C144.374 101.62 143.914 99.08 143.914 96.64V95.32C143.914 92.64 144.394 89.98 145.354 87.34C146.314 84.66 147.754 82.24 149.674 80.08C151.634 77.92 154.054 76.2 156.934 74.92C159.814 73.6 163.194 72.94 167.074 72.94C170.914 72.94 174.274 73.6 177.154 74.92C180.034 76.2 182.434 77.92 184.354 80.08C186.314 82.24 187.774 84.66 188.734 87.34C189.694 89.98 190.174 92.64 190.174 95.32V96.64C190.174 99.08 189.694 101.62 188.734 104.26C187.814 106.86 186.394 109.3 184.474 111.58C182.594 113.82 180.194 115.64 177.274 117.04C174.394 118.44 170.994 119.14 167.074 119.14ZM167.074 111.22C169.314 111.22 171.314 110.82 173.074 110.02C174.874 109.22 176.394 108.12 177.634 106.72C178.914 105.28 179.874 103.66 180.514 101.86C181.194 100.02 181.534 98.08 181.534 96.04C181.534 93.84 181.194 91.82 180.514 89.98C179.874 88.14 178.914 86.54 177.634 85.18C176.394 83.82 174.874 82.76 173.074 82C171.274 81.24 169.274 80.86 167.074 80.86C164.834 80.86 162.814 81.24 161.014 82C159.214 82.76 157.674 83.82 156.394 85.18C155.154 86.54 154.194 88.14 153.514 89.98C152.874 91.82 152.554 93.84 152.554 96.04C152.554 98.08 152.874 100.02 153.514 101.86C154.194 103.66 155.154 105.28 156.394 106.72C157.674 108.12 159.214 109.22 161.014 110.02C162.814 110.82 164.834 111.22 167.074 111.22ZM213.113 119.14C209.233 119.14 205.953 118.52 203.273 117.28C200.633 116.04 198.613 114.34 197.213 112.18C195.813 109.98 195.113 107.5 195.113 104.74H203.453C203.453 105.9 203.773 107.04 204.413 108.16C205.053 109.24 206.073 110.12 207.473 110.8C208.913 111.48 210.793 111.82 213.113 111.82C215.193 111.82 216.933 111.52 218.333 110.92C219.733 110.32 220.773 109.54 221.453 108.58C222.133 107.58 222.473 106.46 222.473 105.22C222.473 103.66 221.813 102.42 220.493 101.5C219.173 100.54 217.133 99.94 214.373 99.7L210.533 99.4C206.333 99.04 202.973 97.74 200.453 95.5C197.973 93.22 196.733 90.22 196.733 86.5C196.733 83.7 197.393 81.3 198.713 79.3C200.033 77.26 201.873 75.7 204.233 74.62C206.633 73.5 209.433 72.94 212.633 72.94C215.953 72.94 218.813 73.52 221.213 74.68C223.613 75.84 225.473 77.48 226.793 79.6C228.113 81.68 228.773 84.14 228.773 86.98H220.433C220.433 85.78 220.133 84.68 219.533 83.68C218.973 82.64 218.113 81.82 216.953 81.22C215.833 80.58 214.393 80.26 212.633 80.26C210.953 80.26 209.553 80.54 208.433 81.1C207.313 81.66 206.473 82.42 205.913 83.38C205.353 84.34 205.073 85.38 205.073 86.5C205.073 87.86 205.573 89.06 206.573 90.1C207.573 91.1 209.153 91.68 211.313 91.84L215.153 92.2C218.273 92.44 221.013 93.1 223.373 94.18C225.733 95.26 227.553 96.72 228.833 98.56C230.153 100.4 230.813 102.62 230.813 105.22C230.813 107.98 230.093 110.42 228.653 112.54C227.213 114.62 225.153 116.24 222.473 117.4C219.833 118.56 216.713 119.14 213.113 119.14ZM238.723 118V74.2H247.243V118H238.723ZM265.313 118.3V111.46H276.293C278.293 111.46 279.813 110.92 280.853 109.84C281.893 108.72 282.413 107.2 282.413 105.28C282.413 103.36 281.893 101.88 280.853 100.84C279.813 99.76 278.293 99.22 276.293 99.22H265.313V94H275.693C278.613 94 281.213 94.36 283.493 95.08C285.813 95.76 287.613 96.92 288.893 98.56C290.213 100.2 290.873 102.4 290.873 105.16V106C290.873 108.6 290.293 110.82 289.133 112.66C288.013 114.46 286.313 115.86 284.033 116.86C281.793 117.82 279.013 118.3 275.693 118.3H265.313ZM258.173 118.3V73.9H266.513V118.3H258.173ZM265.313 97.84V92.62H274.673C276.713 92.62 278.213 92.08 279.173 91C280.133 89.92 280.613 88.48 280.613 86.68C280.613 84.88 280.133 83.44 279.173 82.36C278.213 81.28 276.713 80.74 274.673 80.74H265.313V73.9H273.893C278.853 73.9 282.613 74.94 285.173 77.02C287.773 79.1 289.073 82.08 289.073 85.96V86.8C289.073 89.52 288.413 91.7 287.093 93.34C285.813 94.94 284.033 96.1 281.753 96.82C279.473 97.5 276.853 97.84 273.893 97.84H265.313ZM299.602 118V74.2H308.122V118H299.602ZM319.052 118V74.2H327.572V118H319.052ZM326.372 118V110.5H345.272V118H326.372ZM352.336 118V74.2H360.856V118H352.336ZM380.427 118V80.5H388.947V118H380.427ZM367.767 81.7V74.2H401.607V81.7H367.767ZM408.528 118V74.2H417.048V118H408.528ZM427.978 118V74.2H436.318V118H427.978ZM435.118 118V110.8H454.978V118H435.118ZM435.118 99.34V92.14H453.418V99.34H435.118ZM435.118 81.4V74.2H454.498V81.4H435.118ZM478.309 119.14C474.429 119.14 471.149 118.52 468.469 117.28C465.829 116.04 463.809 114.34 462.409 112.18C461.009 109.98 460.309 107.5 460.309 104.74H468.649C468.649 105.9 468.969 107.04 469.609 108.16C470.249 109.24 471.269 110.12 472.669 110.8C474.109 111.48 475.989 111.82 478.309 111.82C480.389 111.82 482.129 111.52 483.529 110.92C484.929 110.32 485.969 109.54 486.649 108.58C487.329 107.58 487.669 106.46 487.669 105.22C487.669 103.66 487.009 102.42 485.689 101.5C484.369 100.54 482.329 99.94 479.569 99.7L475.729 99.4C471.529 99.04 468.169 97.74 465.649 95.5C463.169 93.22 461.929 90.22 461.929 86.5C461.929 83.7 462.589 81.3 463.909 79.3C465.229 77.26 467.069 75.7 469.429 74.62C471.829 73.5 474.629 72.94 477.829 72.94C481.149 72.94 484.009 73.52 486.409 74.68C488.809 75.84 490.669 77.48 491.989 79.6C493.309 81.68 493.969 84.14 493.969 86.98H485.629C485.629 85.78 485.329 84.68 484.729 83.68C484.169 82.64 483.309 81.82 482.149 81.22C481.029 80.58 479.589 80.26 477.829 80.26C476.149 80.26 474.749 80.54 473.629 81.1C472.509 81.66 471.669 82.42 471.109 83.38C470.549 84.34 470.269 85.38 470.269 86.5C470.269 87.86 470.769 89.06 471.769 90.1C472.769 91.1 474.349 91.68 476.509 91.84L480.349 92.2C483.469 92.44 486.209 93.1 488.569 94.18C490.929 95.26 492.749 96.72 494.029 98.56C495.349 100.4 496.009 102.62 496.009 105.22C496.009 107.98 495.289 110.42 493.849 112.54C492.409 114.62 490.349 116.24 487.669 117.4C485.029 118.56 481.909 119.14 478.309 119.14Z" fill="url(#paint0_linear_5_5672)"/>
<defs>
<linearGradient id="paint0_linear_5_5672" x1="300" y1="-3.5" x2="300" y2="134" gradientUnits="userSpaceOnUse">
<stop offset="0.0933855" stop-color="#F33CC0"/>
<stop offset="0.72116" stop-color="#4349FF"/>
</linearGradient>
</defs>
</svg>
