<svg width="61" height="13" viewBox="0 0 61 13" fill="none" xmlns="http://www.w3.org/2000/svg">
<path d="M4.672 12.288C3.91467 12.288 3.22667 12.128 2.608 11.808C1.98933 11.488 1.49867 11.0133 1.136 10.384C0.784 9.75467 0.608 8.97067 0.608 8.032V7.632H2.176V8.32C2.176 9.12 2.41067 9.744 2.88 10.192C3.34933 10.6293 3.94667 10.848 4.672 10.848C5.39733 10.848 5.99467 10.6293 6.464 10.192C6.93333 9.744 7.168 9.12 7.168 8.32V1.408H8.736V8.032C8.736 8.97067 8.55467 9.75467 8.192 10.384C7.84 11.0133 7.35467 11.488 6.736 11.808C6.128 12.128 5.44 12.288 4.672 12.288ZM2.144 1.728V0.32H8.736V1.728H2.144ZM15.6424 12.288C14.8957 12.288 14.2397 12.16 13.6744 11.904C13.109 11.648 12.629 11.312 12.2344 10.896C11.8504 10.4693 11.557 9.99467 11.3544 9.472C11.1624 8.94933 11.0664 8.416 11.0664 7.872V7.584C11.0664 7.04 11.1677 6.50667 11.3704 5.984C11.573 5.45067 11.8717 4.976 12.2664 4.56C12.661 4.13333 13.141 3.79733 13.7064 3.552C14.2717 3.296 14.917 3.168 15.6424 3.168C16.3677 3.168 17.013 3.296 17.5784 3.552C18.1437 3.79733 18.6237 4.13333 19.0184 4.56C19.413 4.976 19.7117 5.45067 19.9144 5.984C20.117 6.50667 20.2184 7.04 20.2184 7.584V7.872C20.2184 8.416 20.117 8.94933 19.9144 9.472C19.7224 9.99467 19.429 10.4693 19.0344 10.896C18.6504 11.312 18.1757 11.648 17.6104 11.904C17.045 12.16 16.389 12.288 15.6424 12.288ZM15.6424 10.912C16.2824 10.912 16.8264 10.7733 17.2744 10.496C17.733 10.208 18.0797 9.824 18.3144 9.344C18.5597 8.864 18.6824 8.32533 18.6824 7.728C18.6824 7.12 18.5597 6.576 18.3144 6.096C18.069 5.616 17.717 5.23733 17.2584 4.96C16.8104 4.68267 16.2717 4.544 15.6424 4.544C15.0237 4.544 14.485 4.68267 14.0264 4.96C13.5677 5.23733 13.2157 5.616 12.9704 6.096C12.725 6.576 12.6024 7.12 12.6024 7.728C12.6024 8.32533 12.7197 8.864 12.9544 9.344C13.1997 9.824 13.5464 10.208 13.9944 10.496C14.453 10.7733 15.0024 10.912 15.6424 10.912ZM22.9349 12V3.456H24.4709V12H22.9349ZM21.6229 4.672V3.456H24.4709V4.672H21.6229ZM23.3669 2.08C23.0255 2.08 22.7695 1.98933 22.5989 1.808C22.4389 1.62667 22.3589 1.39733 22.3589 1.12C22.3589 0.842666 22.4389 0.613333 22.5989 0.431999C22.7695 0.250666 23.0255 0.16 23.3669 0.16C23.7082 0.16 23.9589 0.250666 24.1189 0.431999C24.2895 0.613333 24.3749 0.842666 24.3749 1.12C24.3749 1.39733 24.2895 1.62667 24.1189 1.808C23.9589 1.98933 23.7082 2.08 23.3669 2.08ZM27.4408 12V3.456H28.6568V7.12H28.4648C28.4648 6.27733 28.5768 5.568 28.8008 4.992C29.0354 4.40533 29.3874 3.96267 29.8568 3.664C30.3261 3.35467 30.9181 3.2 31.6328 3.2H31.6968C32.7741 3.2 33.5688 3.536 34.0808 4.208C34.6034 4.88 34.8648 5.85067 34.8648 7.12V12H33.3288V6.8C33.3288 6.13867 33.1421 5.61067 32.7688 5.216C32.3954 4.81067 31.8834 4.608 31.2328 4.608C30.5608 4.608 30.0168 4.816 29.6008 5.232C29.1848 5.648 28.9768 6.20267 28.9768 6.896V12H27.4408ZM46.1638 12.288C45.1078 12.288 44.2171 12.0853 43.4918 11.68C42.7771 11.264 42.2331 10.688 41.8598 9.952C41.4971 9.20533 41.3158 8.34133 41.3158 7.36V0.32H42.8838V7.552C42.8838 8.20267 43.0064 8.77867 43.2518 9.28C43.5078 9.77067 43.8811 10.1547 44.3718 10.432C44.8624 10.7093 45.4598 10.848 46.1638 10.848C46.8678 10.848 47.4598 10.7147 47.9398 10.448C48.4304 10.1707 48.7984 9.78667 49.0438 9.296C49.2998 8.79467 49.4278 8.21333 49.4278 7.552V0.32H50.9958V7.36C50.9958 8.34133 50.8144 9.20533 50.4518 9.952C50.0891 10.688 49.5504 11.264 48.8358 11.68C48.1211 12.0853 47.2304 12.288 46.1638 12.288ZM56.7408 12.256C55.6208 12.256 54.7514 12.016 54.1328 11.536C53.5248 11.056 53.2101 10.4 53.1888 9.568H54.6288C54.6501 9.89867 54.8154 10.2133 55.1248 10.512C55.4448 10.8 55.9834 10.944 56.7408 10.944C57.4234 10.944 57.9461 10.8107 58.3088 10.544C58.6714 10.2667 58.8528 9.93067 58.8528 9.536C58.8528 9.184 58.7194 8.912 58.4528 8.72C58.1861 8.51733 57.7541 8.384 57.1568 8.32L56.2288 8.224C55.4181 8.13867 54.7568 7.89867 54.2448 7.504C53.7328 7.09867 53.4768 6.53333 53.4768 5.808C53.4768 5.264 53.6154 4.8 53.8928 4.416C54.1701 4.02133 54.5541 3.72267 55.0448 3.52C55.5354 3.30667 56.1008 3.2 56.7408 3.2C57.7008 3.2 58.4794 3.41333 59.0768 3.84C59.6741 4.26667 59.9834 4.90133 60.0048 5.744H58.5648C58.5541 5.40267 58.3941 5.11467 58.0848 4.88C57.7861 4.63467 57.3381 4.512 56.7408 4.512C56.1434 4.512 55.6901 4.63467 55.3808 4.88C55.0714 5.12533 54.9168 5.43467 54.9168 5.808C54.9168 6.128 55.0234 6.384 55.2368 6.576C55.4608 6.768 55.8234 6.89067 56.3248 6.944L57.2528 7.04C58.1701 7.136 58.9061 7.392 59.4608 7.808C60.0154 8.21333 60.2928 8.78933 60.2928 9.536C60.2928 10.0693 60.1381 10.544 59.8288 10.96C59.5301 11.3653 59.1141 11.6853 58.5808 11.92C58.0474 12.144 57.4341 12.256 56.7408 12.256Z" fill="white"/>
</svg>
