<svg width="683" height="119" viewBox="0 0 683 119" fill="none" xmlns="http://www.w3.org/2000/svg">
<path d="M7.47359 45.3V38.46H18.4536C20.4536 38.46 21.9736 37.92 23.0136 36.84C24.0536 35.72 24.5736 34.2 24.5736 32.28C24.5736 30.36 24.0536 28.88 23.0136 27.84C21.9736 26.76 20.4536 26.22 18.4536 26.22H7.47359V21H17.8536C20.7736 21 23.3736 21.36 25.6536 22.08C27.9736 22.76 29.7736 23.92 31.0536 25.56C32.3736 27.2 33.0336 29.4 33.0336 32.16V33C33.0336 35.6 32.4536 37.82 31.2936 39.66C30.1736 41.46 28.4736 42.86 26.1936 43.86C23.9536 44.82 21.1736 45.3 17.8536 45.3H7.47359ZM0.333594 45.3V0.899999H8.67359V45.3H0.333594ZM7.47359 24.84V19.62H16.8336C18.8736 19.62 20.3736 19.08 21.3336 18C22.2936 16.92 22.7736 15.48 22.7736 13.68C22.7736 11.88 22.2936 10.44 21.3336 9.36C20.3736 8.28 18.8736 7.74 16.8336 7.74H7.47359V0.899999H16.0536C21.0136 0.899999 24.7736 1.94 27.3336 4.02C29.9336 6.1 31.2336 9.08 31.2336 12.96V13.8C31.2336 16.52 30.5736 18.7 29.2536 20.34C27.9736 21.94 26.1936 23.1 23.9136 23.82C21.6336 24.5 19.0136 24.84 16.0536 24.84H7.47359ZM55.2692 46.14C52.4692 46.14 50.0092 45.66 47.8892 44.7C45.8092 43.74 44.0692 42.46 42.6692 40.86C41.3092 39.22 40.2692 37.4 39.5492 35.4C38.8692 33.4 38.5292 31.36 38.5292 29.28V28.14C38.5292 25.98 38.8692 23.9 39.5492 21.9C40.2692 19.86 41.3092 18.06 42.6692 16.5C44.0692 14.9 45.7892 13.64 47.8292 12.72C49.8692 11.76 52.2292 11.28 54.9092 11.28C58.4292 11.28 61.3692 12.06 63.7292 13.62C66.1292 15.14 67.9292 17.16 69.1292 19.68C70.3292 22.16 70.9292 24.84 70.9292 27.72V30.72H42.0692V25.62H65.7092L63.1292 28.14C63.1292 26.06 62.8292 24.28 62.2292 22.8C61.6292 21.32 60.7092 20.18 59.4692 19.38C58.2692 18.58 56.7492 18.18 54.9092 18.18C53.0692 18.18 51.5092 18.6 50.2292 19.44C48.9492 20.28 47.9692 21.5 47.2892 23.1C46.6492 24.66 46.3292 26.54 46.3292 28.74C46.3292 30.78 46.6492 32.6 47.2892 34.2C47.9292 35.76 48.9092 37 50.2292 37.92C51.5492 38.8 53.2292 39.24 55.2692 39.24C57.3092 39.24 58.9692 38.84 60.2492 38.04C61.5292 37.2 62.3492 36.18 62.7092 34.98H70.3892C69.9092 37.22 68.9892 39.18 67.6292 40.86C66.2692 42.54 64.5292 43.84 62.4092 44.76C60.3292 45.68 57.9492 46.14 55.2692 46.14ZM90.8455 57V12.42H97.4455V26.46L96.4255 26.4C96.5855 23.08 97.2655 20.3 98.4655 18.06C99.7055 15.82 101.345 14.16 103.385 13.08C105.425 11.96 107.705 11.4 110.225 11.4C112.545 11.4 114.625 11.82 116.465 12.66C118.345 13.5 119.945 14.68 121.265 16.2C122.625 17.72 123.665 19.5 124.385 21.54C125.105 23.54 125.465 25.7 125.465 28.02V29.28C125.465 31.64 125.105 33.84 124.385 35.88C123.705 37.88 122.685 39.66 121.325 41.22C120.005 42.74 118.405 43.94 116.525 44.82C114.645 45.66 112.545 46.08 110.225 46.08C107.785 46.08 105.545 45.58 103.505 44.58C101.505 43.54 99.8855 41.96 98.6455 39.84C97.4055 37.68 96.7055 34.9 96.5455 31.5L99.1855 35.52V57H90.8455ZM108.125 39.06C109.925 39.06 111.485 38.62 112.805 37.74C114.165 36.86 115.225 35.64 115.985 34.08C116.745 32.48 117.125 30.68 117.125 28.68C117.125 26.6 116.745 24.8 115.985 23.28C115.225 21.76 114.165 20.58 112.805 19.74C111.485 18.86 109.925 18.42 108.125 18.42C106.485 18.42 104.965 18.78 103.565 19.5C102.205 20.22 101.085 21.28 100.205 22.68C99.3655 24.08 98.9455 25.76 98.9455 27.72V30.12C98.9455 32 99.3855 33.6 100.265 34.92C101.145 36.24 102.285 37.26 103.685 37.98C105.085 38.7 106.565 39.06 108.125 39.06ZM152.539 45V35.34H151.159V24.6C151.159 22.72 150.699 21.32 149.779 20.4C148.859 19.48 147.439 19.02 145.519 19.02C144.519 19.02 143.319 19.04 141.919 19.08C140.519 19.12 139.099 19.18 137.659 19.26C136.259 19.3 134.999 19.36 133.879 19.44V12.36C134.799 12.28 135.839 12.2 136.999 12.12C138.159 12.04 139.339 12 140.539 12C141.779 11.96 142.939 11.94 144.019 11.94C147.379 11.94 150.159 12.38 152.359 13.26C154.599 14.14 156.279 15.52 157.399 17.4C158.559 19.28 159.139 21.74 159.139 24.78V45H152.539ZM142.039 45.84C139.679 45.84 137.599 45.42 135.799 44.58C134.039 43.74 132.659 42.54 131.659 40.98C130.699 39.42 130.219 37.54 130.219 35.34C130.219 32.94 130.799 30.98 131.959 29.46C133.159 27.94 134.819 26.8 136.939 26.04C139.099 25.28 141.619 24.9 144.499 24.9H152.059V29.88H144.379C142.459 29.88 140.979 30.36 139.939 31.32C138.939 32.24 138.439 33.44 138.439 34.92C138.439 36.4 138.939 37.6 139.939 38.52C140.979 39.44 142.459 39.9 144.379 39.9C145.539 39.9 146.599 39.7 147.559 39.3C148.559 38.86 149.379 38.14 150.019 37.14C150.699 36.1 151.079 34.7 151.159 32.94L153.199 35.28C152.999 37.56 152.439 39.48 151.519 41.04C150.639 42.6 149.399 43.8 147.799 44.64C146.239 45.44 144.319 45.84 142.039 45.84ZM168.072 45V12.42H174.672V26.22H174.492C174.492 21.54 175.492 18 177.492 15.6C179.492 13.2 182.432 12 186.312 12H187.512V19.26H185.232C182.432 19.26 180.252 20.02 178.692 21.54C177.172 23.02 176.412 25.18 176.412 28.02V45H168.072ZM207.955 45.42C204.955 45.42 202.475 45.04 200.515 44.28C198.595 43.48 197.155 42.16 196.195 40.32C195.235 38.44 194.755 35.92 194.755 32.76L194.815 3.24H202.615L202.555 33.3C202.555 34.9 202.975 36.14 203.815 37.02C204.695 37.86 205.935 38.28 207.535 38.28H212.635V45.42H207.955ZM189.595 18.54V12.42H212.635V18.54H189.595ZM248.244 46.14C245.364 46.14 242.824 45.68 240.624 44.76C238.424 43.84 236.564 42.6 235.044 41.04C233.524 39.44 232.364 37.64 231.564 35.64C230.804 33.64 230.424 31.56 230.424 29.4V28.14C230.424 25.9 230.824 23.78 231.624 21.78C232.464 19.74 233.644 17.94 235.164 16.38C236.724 14.78 238.604 13.54 240.804 12.66C243.004 11.74 245.484 11.28 248.244 11.28C251.004 11.28 253.484 11.74 255.684 12.66C257.884 13.54 259.744 14.78 261.264 16.38C262.824 17.94 264.004 19.74 264.804 21.78C265.604 23.78 266.004 25.9 266.004 28.14V29.4C266.004 31.56 265.604 33.64 264.804 35.64C264.044 37.64 262.904 39.44 261.384 41.04C259.864 42.6 258.004 43.84 255.804 44.76C253.604 45.68 251.084 46.14 248.244 46.14ZM248.244 39C250.284 39 252.004 38.56 253.404 37.68C254.804 36.76 255.864 35.54 256.584 34.02C257.304 32.46 257.664 30.7 257.664 28.74C257.664 26.74 257.284 24.98 256.524 23.46C255.804 21.9 254.724 20.68 253.284 19.8C251.884 18.88 250.204 18.42 248.244 18.42C246.284 18.42 244.584 18.88 243.144 19.8C241.744 20.68 240.664 21.9 239.904 23.46C239.144 24.98 238.764 26.74 238.764 28.74C238.764 30.7 239.124 32.46 239.844 34.02C240.604 35.54 241.684 36.76 243.084 37.68C244.484 38.56 246.204 39 248.244 39ZM274.086 45V11.64C274.086 7.92 275.106 5.18 277.146 3.42C279.226 1.62 282.286 0.719998 286.326 0.719998H290.406V7.14H285.726C284.486 7.14 283.526 7.48 282.846 8.16C282.206 8.8 281.886 9.72 281.886 10.92V45H274.086ZM270.006 19.08V12.96H290.946V19.08H270.006ZM323.267 45.42C320.267 45.42 317.787 45.04 315.827 44.28C313.907 43.48 312.467 42.16 311.507 40.32C310.547 38.44 310.067 35.92 310.067 32.76L310.127 3.24H317.927L317.867 33.3C317.867 34.9 318.287 36.14 319.127 37.02C320.007 37.86 321.247 38.28 322.847 38.28H327.947V45.42H323.267ZM304.907 18.54V12.42H327.947V18.54H304.907ZM334.947 45V1.2H343.287V26.76H341.847C341.847 23.48 342.267 20.7 343.107 18.42C343.947 16.14 345.187 14.4 346.827 13.2C348.507 12 350.627 11.4 353.187 11.4H353.547C357.267 11.4 360.087 12.68 362.007 15.24C363.927 17.8 364.887 21.52 364.887 26.4V45H356.547V25.62C356.547 23.54 355.947 21.9 354.747 20.7C353.587 19.5 352.047 18.9 350.127 18.9C348.087 18.9 346.427 19.58 345.147 20.94C343.907 22.26 343.287 24 343.287 26.16V45H334.947ZM388.433 46.14C385.633 46.14 383.173 45.66 381.053 44.7C378.973 43.74 377.233 42.46 375.833 40.86C374.473 39.22 373.433 37.4 372.713 35.4C372.033 33.4 371.693 31.36 371.693 29.28V28.14C371.693 25.98 372.033 23.9 372.713 21.9C373.433 19.86 374.473 18.06 375.833 16.5C377.233 14.9 378.953 13.64 380.993 12.72C383.033 11.76 385.393 11.28 388.073 11.28C391.593 11.28 394.533 12.06 396.893 13.62C399.293 15.14 401.093 17.16 402.293 19.68C403.493 22.16 404.093 24.84 404.093 27.72V30.72H375.233V25.62H398.873L396.293 28.14C396.293 26.06 395.993 24.28 395.393 22.8C394.793 21.32 393.873 20.18 392.633 19.38C391.433 18.58 389.913 18.18 388.073 18.18C386.233 18.18 384.673 18.6 383.393 19.44C382.113 20.28 381.133 21.5 380.453 23.1C379.813 24.66 379.493 26.54 379.493 28.74C379.493 30.78 379.813 32.6 380.453 34.2C381.093 35.76 382.073 37 383.393 37.92C384.713 38.8 386.393 39.24 388.433 39.24C390.473 39.24 392.133 38.84 393.413 38.04C394.693 37.2 395.513 36.18 395.873 34.98H403.553C403.073 37.22 402.153 39.18 400.793 40.86C399.433 42.54 397.693 43.84 395.573 44.76C393.493 45.68 391.113 46.14 388.433 46.14ZM424.79 45V11.64C424.79 7.92 425.81 5.18 427.85 3.42C429.93 1.62 432.99 0.719998 437.03 0.719998H441.11V7.14H436.43C435.19 7.14 434.23 7.48 433.55 8.16C432.91 8.8 432.59 9.72 432.59 10.92V45H424.79ZM420.71 19.08V12.96H441.65V19.08H420.71ZM457.961 46.02C454.201 46.02 451.281 44.78 449.201 42.3C447.161 39.82 446.141 36.14 446.141 31.26V12.36H454.481V31.98C454.481 33.98 455.041 35.58 456.161 36.78C457.281 37.94 458.801 38.52 460.721 38.52C462.641 38.52 464.201 37.9 465.401 36.66C466.641 35.42 467.261 33.74 467.261 31.62V12.36H475.601V45H469.001V31.14H469.661C469.661 34.42 469.241 37.16 468.401 39.36C467.561 41.56 466.301 43.22 464.621 44.34C462.941 45.46 460.841 46.02 458.321 46.02H457.961ZM499.341 45.42C496.341 45.42 493.861 45.04 491.901 44.28C489.981 43.48 488.541 42.16 487.581 40.32C486.621 38.44 486.141 35.92 486.141 32.76L486.201 3.24H494.001L493.941 33.3C493.941 34.9 494.361 36.14 495.201 37.02C496.081 37.86 497.321 38.28 498.921 38.28H504.021V45.42H499.341ZM480.981 18.54V12.42H504.021V18.54H480.981ZM522.121 46.02C518.361 46.02 515.441 44.78 513.361 42.3C511.321 39.82 510.301 36.14 510.301 31.26V12.36H518.641V31.98C518.641 33.98 519.201 35.58 520.321 36.78C521.441 37.94 522.961 38.52 524.881 38.52C526.801 38.52 528.361 37.9 529.561 36.66C530.801 35.42 531.421 33.74 531.421 31.62V12.36H539.761V45H533.161V31.14H533.821C533.821 34.42 533.401 37.16 532.561 39.36C531.721 41.56 530.461 43.22 528.781 44.34C527.101 45.46 525.001 46.02 522.481 46.02H522.121ZM549.342 45V12.42H555.942V26.22H555.762C555.762 21.54 556.762 18 558.762 15.6C560.762 13.2 563.702 12 567.582 12H568.782V19.26H566.502C563.702 19.26 561.522 20.02 559.962 21.54C558.442 23.02 557.682 25.18 557.682 28.02V45H549.342ZM588.707 46.14C585.907 46.14 583.447 45.66 581.327 44.7C579.247 43.74 577.507 42.46 576.107 40.86C574.747 39.22 573.707 37.4 572.987 35.4C572.307 33.4 571.967 31.36 571.967 29.28V28.14C571.967 25.98 572.307 23.9 572.987 21.9C573.707 19.86 574.747 18.06 576.107 16.5C577.507 14.9 579.227 13.64 581.267 12.72C583.307 11.76 585.667 11.28 588.347 11.28C591.867 11.28 594.807 12.06 597.167 13.62C599.567 15.14 601.367 17.16 602.567 19.68C603.767 22.16 604.367 24.84 604.367 27.72V30.72H575.507V25.62H599.147L596.567 28.14C596.567 26.06 596.267 24.28 595.667 22.8C595.067 21.32 594.147 20.18 592.907 19.38C591.707 18.58 590.187 18.18 588.347 18.18C586.507 18.18 584.947 18.6 583.667 19.44C582.387 20.28 581.407 21.5 580.727 23.1C580.087 24.66 579.767 26.54 579.767 28.74C579.767 30.78 580.087 32.6 580.727 34.2C581.367 35.76 582.347 37 583.667 37.92C584.987 38.8 586.667 39.24 588.707 39.24C590.747 39.24 592.407 38.84 593.687 38.04C594.967 37.2 595.787 36.18 596.147 34.98H603.827C603.347 37.22 602.427 39.18 601.067 40.86C599.707 42.54 597.967 43.84 595.847 44.76C593.767 45.68 591.387 46.14 588.707 46.14ZM639.943 46.14C637.063 46.14 634.523 45.68 632.323 44.76C630.123 43.84 628.263 42.6 626.743 41.04C625.223 39.44 624.063 37.64 623.263 35.64C622.503 33.64 622.123 31.56 622.123 29.4V28.14C622.123 25.9 622.523 23.78 623.323 21.78C624.163 19.74 625.343 17.94 626.863 16.38C628.423 14.78 630.303 13.54 632.503 12.66C634.703 11.74 637.183 11.28 639.943 11.28C642.703 11.28 645.183 11.74 647.383 12.66C649.583 13.54 651.443 14.78 652.963 16.38C654.523 17.94 655.703 19.74 656.503 21.78C657.303 23.78 657.703 25.9 657.703 28.14V29.4C657.703 31.56 657.303 33.64 656.503 35.64C655.743 37.64 654.603 39.44 653.083 41.04C651.563 42.6 649.703 43.84 647.503 44.76C645.303 45.68 642.783 46.14 639.943 46.14ZM639.943 39C641.983 39 643.703 38.56 645.103 37.68C646.503 36.76 647.563 35.54 648.283 34.02C649.003 32.46 649.363 30.7 649.363 28.74C649.363 26.74 648.983 24.98 648.223 23.46C647.503 21.9 646.423 20.68 644.983 19.8C643.583 18.88 641.903 18.42 639.943 18.42C637.983 18.42 636.283 18.88 634.843 19.8C633.443 20.68 632.363 21.9 631.603 23.46C630.843 24.98 630.463 26.74 630.463 28.74C630.463 30.7 630.823 32.46 631.543 34.02C632.303 35.54 633.383 36.76 634.783 37.68C636.183 38.56 637.903 39 639.943 39ZM665.786 45V11.64C665.786 7.92 666.806 5.18 668.846 3.42C670.926 1.62 673.986 0.719998 678.026 0.719998H682.106V7.14H677.426C676.186 7.14 675.226 7.48 674.546 8.16C673.906 8.8 673.586 9.72 673.586 10.92V45H665.786ZM661.706 19.08V12.96H682.646V19.08H661.706ZM197.225 117L212.165 73.2H226.085L241.445 117H232.685L219.665 79.02L222.725 80.34H215.225L218.345 79.02L205.745 117H197.225ZM207.665 105.36L210.365 98.16H228.125L230.765 105.36H207.665ZM265.992 118.14C262.032 118.14 258.632 117.44 255.792 116.04C252.952 114.64 250.632 112.82 248.832 110.58C247.072 108.34 245.772 105.9 244.932 103.26C244.092 100.62 243.672 98.08 243.672 95.64V94.32C243.672 91.6 244.092 88.92 244.932 86.28C245.812 83.64 247.152 81.24 248.952 79.08C250.752 76.92 253.032 75.2 255.792 73.92C258.592 72.6 261.892 71.94 265.692 71.94C269.652 71.94 273.092 72.66 276.012 74.1C278.972 75.5 281.332 77.5 283.092 80.1C284.852 82.66 285.912 85.66 286.272 89.1H277.692C277.372 87.1 276.652 85.42 275.532 84.06C274.452 82.66 273.072 81.62 271.392 80.94C269.712 80.22 267.812 79.86 265.692 79.86C263.532 79.86 261.612 80.24 259.932 81C258.252 81.72 256.852 82.76 255.732 84.12C254.612 85.48 253.752 87.08 253.152 88.92C252.592 90.76 252.312 92.8 252.312 95.04C252.312 97.2 252.592 99.2 253.152 101.04C253.752 102.88 254.632 104.5 255.792 105.9C256.952 107.26 258.372 108.32 260.052 109.08C261.772 109.84 263.752 110.22 265.992 110.22C269.272 110.22 272.032 109.42 274.272 107.82C276.552 106.18 277.932 103.9 278.412 100.98H286.992C286.592 104.1 285.532 106.96 283.812 109.56C282.092 112.16 279.732 114.24 276.732 115.8C273.732 117.36 270.152 118.14 265.992 118.14ZM294.181 117V73.2H305.821L316.801 99.36H317.881L328.801 73.2H340.621V117H332.161V79.62L333.241 79.74L321.421 108.06H312.721L300.841 79.74L301.981 79.62V117H294.181ZM379.317 118.14C375.437 118.14 372.157 117.52 369.477 116.28C366.837 115.04 364.817 113.34 363.417 111.18C362.017 108.98 361.317 106.5 361.317 103.74H369.657C369.657 104.9 369.977 106.04 370.617 107.16C371.257 108.24 372.277 109.12 373.677 109.8C375.117 110.48 376.997 110.82 379.317 110.82C381.397 110.82 383.137 110.52 384.537 109.92C385.937 109.32 386.977 108.54 387.657 107.58C388.337 106.58 388.677 105.46 388.677 104.22C388.677 102.66 388.017 101.42 386.697 100.5C385.377 99.54 383.337 98.94 380.577 98.7L376.737 98.4C372.537 98.04 369.177 96.74 366.657 94.5C364.177 92.22 362.937 89.22 362.937 85.5C362.937 82.7 363.597 80.3 364.917 78.3C366.237 76.26 368.077 74.7 370.437 73.62C372.837 72.5 375.637 71.94 378.837 71.94C382.157 71.94 385.017 72.52 387.417 73.68C389.817 74.84 391.677 76.48 392.997 78.6C394.317 80.68 394.977 83.14 394.977 85.98H386.637C386.637 84.78 386.337 83.68 385.737 82.68C385.177 81.64 384.317 80.82 383.157 80.22C382.037 79.58 380.597 79.26 378.837 79.26C377.157 79.26 375.757 79.54 374.637 80.1C373.517 80.66 372.677 81.42 372.117 82.38C371.557 83.34 371.277 84.38 371.277 85.5C371.277 86.86 371.777 88.06 372.777 89.1C373.777 90.1 375.357 90.68 377.517 90.84L381.357 91.2C384.477 91.44 387.217 92.1 389.577 93.18C391.937 94.26 393.757 95.72 395.037 97.56C396.357 99.4 397.017 101.62 397.017 104.22C397.017 106.98 396.297 109.42 394.857 111.54C393.417 113.62 391.357 115.24 388.677 116.4C386.037 117.56 382.917 118.14 379.317 118.14ZM404.926 117V73.2H413.446V117H404.926ZM439.317 118.14C435.437 118.14 432.157 117.52 429.477 116.28C426.837 115.04 424.817 113.34 423.417 111.18C422.017 108.98 421.317 106.5 421.317 103.74H429.657C429.657 104.9 429.977 106.04 430.617 107.16C431.257 108.24 432.277 109.12 433.677 109.8C435.117 110.48 436.997 110.82 439.317 110.82C441.397 110.82 443.137 110.52 444.537 109.92C445.937 109.32 446.977 108.54 447.657 107.58C448.337 106.58 448.677 105.46 448.677 104.22C448.677 102.66 448.017 101.42 446.697 100.5C445.377 99.54 443.337 98.94 440.577 98.7L436.737 98.4C432.537 98.04 429.177 96.74 426.657 94.5C424.177 92.22 422.937 89.22 422.937 85.5C422.937 82.7 423.597 80.3 424.917 78.3C426.237 76.26 428.077 74.7 430.437 73.62C432.837 72.5 435.637 71.94 438.837 71.94C442.157 71.94 445.017 72.52 447.417 73.68C449.817 74.84 451.677 76.48 452.997 78.6C454.317 80.68 454.977 83.14 454.977 85.98H446.637C446.637 84.78 446.337 83.68 445.737 82.68C445.177 81.64 444.317 80.82 443.157 80.22C442.037 79.58 440.597 79.26 438.837 79.26C437.157 79.26 435.757 79.54 434.637 80.1C433.517 80.66 432.677 81.42 432.117 82.38C431.557 83.34 431.277 84.38 431.277 85.5C431.277 86.86 431.777 88.06 432.777 89.1C433.777 90.1 435.357 90.68 437.517 90.84L441.357 91.2C444.477 91.44 447.217 92.1 449.577 93.18C451.937 94.26 453.757 95.72 455.037 97.56C456.357 99.4 457.017 101.62 457.017 104.22C457.017 106.98 456.297 109.42 454.857 111.54C453.417 113.62 451.357 115.24 448.677 116.4C446.037 117.56 442.917 118.14 439.317 118.14ZM472.274 117V79.5H480.794V117H472.274ZM459.614 80.7V73.2H493.454V80.7H459.614Z" fill="white"/>
</svg>
