<svg width="620" height="48" viewBox="0 0 620 48" fill="none" xmlns="http://www.w3.org/2000/svg">
<path d="M6.20859 15.36C4.88859 15.36 3.77526 15.1067 2.86859 14.6C1.97526 14.08 1.29526 13.36 0.828594 12.44C0.375261 11.5067 0.148594 10.4267 0.148594 9.2V0.4H2.10859V9.44C2.10859 10.2533 2.26193 10.9733 2.56859 11.6C2.88859 12.2133 3.35526 12.6933 3.96859 13.04C4.58193 13.3867 5.32859 13.56 6.20859 13.56C7.08859 13.56 7.82859 13.3933 8.42859 13.06C9.04193 12.7133 9.50193 12.2333 9.80859 11.62C10.1286 10.9933 10.2886 10.2667 10.2886 9.44V0.4H12.2486V9.2C12.2486 10.4267 12.0219 11.5067 11.5686 12.44C11.1153 13.36 10.4419 14.08 9.54859 14.6C8.65526 15.1067 7.54193 15.36 6.20859 15.36ZM15.9298 15V4.32H17.4498V8.9H17.2098C17.2098 7.84667 17.3498 6.96 17.6298 6.24C17.9232 5.50667 18.3632 4.95333 18.9498 4.58C19.5365 4.19333 20.2765 4 21.1698 4H21.2498C22.5965 4 23.5898 4.42 24.2298 5.26C24.8832 6.1 25.2098 7.31333 25.2098 8.9V15H23.2898V8.5C23.2898 7.67333 23.0565 7.01333 22.5898 6.52C22.1232 6.01333 21.4832 5.76 20.6698 5.76C19.8298 5.76 19.1498 6.02 18.6298 6.54C18.1098 7.06 17.8498 7.75333 17.8498 8.62V15H15.9298ZM28.8428 15V0.4H30.7628V15H28.8428ZM27.3628 1.92V0.4H30.7628V1.92H27.3628ZM38.9855 15.36C38.0521 15.36 37.2455 15.2 36.5655 14.88C35.8855 14.56 35.3321 14.14 34.9055 13.62C34.4788 13.0867 34.1588 12.4933 33.9455 11.84C33.7455 11.1867 33.6455 10.52 33.6455 9.84V9.48C33.6455 8.78667 33.7455 8.11333 33.9455 7.46C34.1588 6.80667 34.4788 6.22 34.9055 5.7C35.3321 5.16667 35.8721 4.74667 36.5255 4.44C37.1921 4.12 37.9721 3.96 38.8655 3.96C40.0255 3.96 40.9788 4.21333 41.7255 4.72C42.4855 5.21333 43.0455 5.85333 43.4055 6.64C43.7788 7.42667 43.9655 8.26667 43.9655 9.16V10.02H34.4855V8.58H42.5655L42.1255 9.36C42.1255 8.6 42.0055 7.94667 41.7655 7.4C41.5255 6.84 41.1655 6.40667 40.6855 6.1C40.2055 5.79333 39.5988 5.64 38.8655 5.64C38.1055 5.64 37.4721 5.81333 36.9655 6.16C36.4721 6.50667 36.0988 6.98 35.8455 7.58C35.6055 8.18 35.4855 8.87333 35.4855 9.66C35.4855 10.42 35.6055 11.1067 35.8455 11.72C36.0988 12.32 36.4855 12.8 37.0055 13.16C37.5255 13.5067 38.1855 13.68 38.9855 13.68C39.8255 13.68 40.5055 13.4933 41.0255 13.12C41.5588 12.7467 41.8788 12.3133 41.9855 11.82H43.7855C43.6388 12.5533 43.3455 13.1867 42.9055 13.72C42.4655 14.2533 41.9121 14.66 41.2455 14.94C40.5788 15.22 39.8255 15.36 38.9855 15.36ZM53.1516 15V11.8H52.8316V8.1C52.8316 7.36667 52.6382 6.81333 52.2516 6.44C51.8782 6.06667 51.3249 5.88 50.5916 5.88C50.1782 5.88 49.7516 5.88667 49.3116 5.9C48.8716 5.91333 48.4516 5.92667 48.0516 5.94C47.6516 5.95333 47.3049 5.97333 47.0116 6V4.32C47.3049 4.29333 47.6116 4.27333 47.9316 4.26C48.2649 4.23333 48.6049 4.22 48.9516 4.22C49.2982 4.20667 49.6316 4.2 49.9516 4.2C51.0449 4.2 51.9382 4.33333 52.6316 4.6C53.3249 4.85333 53.8382 5.27333 54.1716 5.86C54.5049 6.44667 54.6716 7.24 54.6716 8.24V15H53.1516ZM49.6516 15.28C48.8516 15.28 48.1582 15.1467 47.5716 14.88C46.9982 14.6 46.5516 14.2 46.2316 13.68C45.9249 13.16 45.7716 12.5333 45.7716 11.8C45.7716 11.04 45.9382 10.4067 46.2716 9.9C46.6182 9.39333 47.1182 9.01333 47.7716 8.76C48.4249 8.49333 49.2116 8.36 50.1316 8.36H53.0316V9.8H50.0516C49.2782 9.8 48.6849 9.98667 48.2716 10.36C47.8582 10.7333 47.6516 11.2133 47.6516 11.8C47.6516 12.3867 47.8582 12.86 48.2716 13.22C48.6849 13.58 49.2782 13.76 50.0516 13.76C50.5049 13.76 50.9382 13.68 51.3516 13.52C51.7649 13.3467 52.1049 13.0667 52.3716 12.68C52.6516 12.28 52.8049 11.7333 52.8316 11.04L53.3516 11.8C53.2849 12.56 53.0982 13.2 52.7916 13.72C52.4982 14.2267 52.0849 14.6133 51.5516 14.88C51.0316 15.1467 50.3982 15.28 49.6516 15.28ZM61.6955 15.32C60.2955 15.32 59.2088 15.02 58.4355 14.42C57.6755 13.82 57.2821 13 57.2555 11.96H59.0555C59.0821 12.3733 59.2888 12.7667 59.6755 13.14C60.0755 13.5 60.7488 13.68 61.6955 13.68C62.5488 13.68 63.2021 13.5133 63.6555 13.18C64.1088 12.8333 64.3355 12.4133 64.3355 11.92C64.3355 11.48 64.1688 11.14 63.8355 10.9C63.5021 10.6467 62.9621 10.48 62.2155 10.4L61.0555 10.28C60.0421 10.1733 59.2155 9.87333 58.5755 9.38C57.9355 8.87333 57.6155 8.16667 57.6155 7.26C57.6155 6.58 57.7888 6 58.1355 5.52C58.4821 5.02667 58.9621 4.65333 59.5755 4.4C60.1888 4.13333 60.8955 4 61.6955 4C62.8955 4 63.8688 4.26667 64.6155 4.8C65.3621 5.33333 65.7488 6.12667 65.7755 7.18H63.9755C63.9621 6.75333 63.7621 6.39333 63.3755 6.1C63.0021 5.79333 62.4421 5.64 61.6955 5.64C60.9488 5.64 60.3821 5.79333 59.9955 6.1C59.6088 6.40667 59.4155 6.79333 59.4155 7.26C59.4155 7.66 59.5488 7.98 59.8155 8.22C60.0955 8.46 60.5488 8.61333 61.1755 8.68L62.3355 8.8C63.4821 8.92 64.4021 9.24 65.0955 9.76C65.7888 10.2667 66.1355 10.9867 66.1355 11.92C66.1355 12.5867 65.9421 13.18 65.5555 13.7C65.1821 14.2067 64.6621 14.6067 63.9955 14.9C63.3288 15.18 62.5621 15.32 61.6955 15.32ZM68.9181 15V0.4H70.8381V9.12H70.3581C70.3581 8.06667 70.4915 7.16 70.7581 6.4C71.0381 5.62667 71.4648 5.03333 72.0381 4.62C72.6115 4.20667 73.3448 4 74.2381 4H74.3181C75.5981 4 76.5648 4.42667 77.2181 5.28C77.8715 6.12 78.1981 7.32667 78.1981 8.9V15H76.2781V8.5C76.2781 7.63333 76.0315 6.96 75.5381 6.48C75.0581 6 74.4315 5.76 73.6581 5.76C72.8048 5.76 72.1181 6.04667 71.5981 6.62C71.0915 7.18 70.8381 7.92 70.8381 8.84V15H68.9181ZM85.5419 19.16V17.44H87.0819C87.5352 17.44 87.9152 17.38 88.2219 17.26C88.5419 17.1533 88.8019 16.9667 89.0019 16.7C89.2152 16.4333 89.3885 16.08 89.5219 15.64L92.8819 4.32H94.7619L91.2019 16.14C90.9885 16.8467 90.6885 17.42 90.3019 17.86C89.9152 18.3133 89.4419 18.64 88.8819 18.84C88.3352 19.0533 87.6952 19.16 86.9619 19.16H85.5419ZM88.8019 14.76V13.16H91.1219V14.76H88.8019ZM88.6019 14.76L84.7819 4.32H86.7419L90.4019 14.76H88.6019ZM101.924 15.36C100.991 15.36 100.171 15.2 99.4641 14.88C98.7574 14.56 98.1574 14.14 97.6641 13.62C97.1841 13.0867 96.8174 12.4933 96.5641 11.84C96.3241 11.1867 96.2041 10.52 96.2041 9.84V9.48C96.2041 8.8 96.3307 8.13333 96.5841 7.48C96.8374 6.81333 97.2107 6.22 97.7041 5.7C98.1974 5.16667 98.7974 4.74667 99.5041 4.44C100.211 4.12 101.017 3.96 101.924 3.96C102.831 3.96 103.637 4.12 104.344 4.44C105.051 4.74667 105.651 5.16667 106.144 5.7C106.637 6.22 107.011 6.81333 107.264 7.48C107.517 8.13333 107.644 8.8 107.644 9.48V9.84C107.644 10.52 107.517 11.1867 107.264 11.84C107.024 12.4933 106.657 13.0867 106.164 13.62C105.684 14.14 105.091 14.56 104.384 14.88C103.677 15.2 102.857 15.36 101.924 15.36ZM101.924 13.64C102.724 13.64 103.404 13.4667 103.964 13.12C104.537 12.76 104.971 12.28 105.264 11.68C105.571 11.08 105.724 10.4067 105.724 9.66C105.724 8.9 105.571 8.22 105.264 7.62C104.957 7.02 104.517 6.54667 103.944 6.2C103.384 5.85333 102.711 5.68 101.924 5.68C101.151 5.68 100.477 5.85333 99.9041 6.2C99.3307 6.54667 98.8907 7.02 98.5841 7.62C98.2774 8.22 98.1241 8.9 98.1241 9.66C98.1241 10.4067 98.2707 11.08 98.5641 11.68C98.8707 12.28 99.3041 12.76 99.8641 13.12C100.437 13.4667 101.124 13.64 101.924 13.64ZM114.22 15.32C112.953 15.32 111.98 14.9067 111.3 14.08C110.62 13.2533 110.28 12.06 110.28 10.5V4.3H112.2V10.88C112.2 11.72 112.426 12.38 112.88 12.86C113.333 13.3267 113.946 13.56 114.72 13.56C115.52 13.56 116.173 13.3067 116.68 12.8C117.186 12.28 117.44 11.5733 117.44 10.68V4.3H119.36V15H117.84V10.42H118.08C118.08 11.4733 117.94 12.3667 117.66 13.1C117.38 13.82 116.96 14.3733 116.4 14.76C115.853 15.1333 115.153 15.32 114.3 15.32H114.22ZM123.078 15V4.32H124.598V8.72H124.518C124.518 7.16 124.858 6.02 125.538 5.3C126.232 4.56667 127.265 4.2 128.638 4.2H128.998V5.92H128.318C127.252 5.92 126.432 6.20667 125.858 6.78C125.285 7.34 124.998 8.15333 124.998 9.22V15H123.078ZM135.832 19V4.32H137.352V8.94L136.992 8.9C137.059 7.75333 137.299 6.82 137.712 6.1C138.139 5.36667 138.692 4.82667 139.372 4.48C140.052 4.13333 140.792 3.96 141.592 3.96C142.366 3.96 143.066 4.10667 143.692 4.4C144.332 4.69333 144.879 5.09333 145.332 5.6C145.786 6.10667 146.132 6.69333 146.372 7.36C146.612 8.02667 146.732 8.73333 146.732 9.48V9.84C146.732 10.5867 146.606 11.2933 146.352 11.96C146.099 12.6267 145.739 13.2133 145.272 13.72C144.819 14.2267 144.272 14.6267 143.632 14.92C143.006 15.2133 142.312 15.36 141.552 15.36C140.792 15.36 140.066 15.1933 139.372 14.86C138.679 14.5267 138.106 13.9867 137.652 13.24C137.199 12.4933 136.939 11.5133 136.872 10.3L137.752 11.9V19H135.832ZM141.252 13.68C141.972 13.68 142.599 13.5133 143.132 13.18C143.666 12.8333 144.079 12.36 144.372 11.76C144.666 11.1467 144.812 10.4467 144.812 9.66C144.812 8.86 144.666 8.16 144.372 7.56C144.079 6.96 143.666 6.49333 143.132 6.16C142.599 5.81333 141.972 5.64 141.252 5.64C140.612 5.64 140.019 5.78667 139.472 6.08C138.926 6.36 138.486 6.77333 138.152 7.32C137.832 7.85333 137.672 8.5 137.672 9.26V10.18C137.672 10.9133 137.839 11.54 138.172 12.06C138.506 12.58 138.946 12.98 139.492 13.26C140.039 13.54 140.626 13.68 141.252 13.68ZM154.541 15.36C153.608 15.36 152.788 15.2 152.081 14.88C151.375 14.56 150.775 14.14 150.281 13.62C149.801 13.0867 149.435 12.4933 149.181 11.84C148.941 11.1867 148.821 10.52 148.821 9.84V9.48C148.821 8.8 148.948 8.13333 149.201 7.48C149.455 6.81333 149.828 6.22 150.321 5.7C150.815 5.16667 151.415 4.74667 152.121 4.44C152.828 4.12 153.635 3.96 154.541 3.96C155.448 3.96 156.255 4.12 156.961 4.44C157.668 4.74667 158.268 5.16667 158.761 5.7C159.255 6.22 159.628 6.81333 159.881 7.48C160.135 8.13333 160.261 8.8 160.261 9.48V9.84C160.261 10.52 160.135 11.1867 159.881 11.84C159.641 12.4933 159.275 13.0867 158.781 13.62C158.301 14.14 157.708 14.56 157.001 14.88C156.295 15.2 155.475 15.36 154.541 15.36ZM154.541 13.64C155.341 13.64 156.021 13.4667 156.581 13.12C157.155 12.76 157.588 12.28 157.881 11.68C158.188 11.08 158.341 10.4067 158.341 9.66C158.341 8.9 158.188 8.22 157.881 7.62C157.575 7.02 157.135 6.54667 156.561 6.2C156.001 5.85333 155.328 5.68 154.541 5.68C153.768 5.68 153.095 5.85333 152.521 6.2C151.948 6.54667 151.508 7.02 151.201 7.62C150.895 8.22 150.741 8.9 150.741 9.66C150.741 10.4067 150.888 11.08 151.181 11.68C151.488 12.28 151.921 12.76 152.481 13.12C153.055 13.4667 153.741 13.64 154.541 13.64ZM167.297 15.12C166.497 15.12 165.804 15.0067 165.217 14.78C164.644 14.5533 164.197 14.1667 163.877 13.62C163.57 13.06 163.417 12.3067 163.417 11.36V1.08H165.257V11.6C165.257 12.1733 165.41 12.62 165.717 12.94C166.037 13.2467 166.484 13.4 167.057 13.4H168.937V15.12H167.297ZM161.577 5.76V4.32H168.937V5.76H161.577ZM176.114 15.36C175.181 15.36 174.374 15.2 173.694 14.88C173.014 14.56 172.461 14.14 172.034 13.62C171.608 13.0867 171.288 12.4933 171.074 11.84C170.874 11.1867 170.774 10.52 170.774 9.84V9.48C170.774 8.78667 170.874 8.11333 171.074 7.46C171.288 6.80667 171.608 6.22 172.034 5.7C172.461 5.16667 173.001 4.74667 173.654 4.44C174.321 4.12 175.101 3.96 175.994 3.96C177.154 3.96 178.108 4.21333 178.854 4.72C179.614 5.21333 180.174 5.85333 180.534 6.64C180.908 7.42667 181.094 8.26667 181.094 9.16V10.02H171.614V8.58H179.694L179.254 9.36C179.254 8.6 179.134 7.94667 178.894 7.4C178.654 6.84 178.294 6.40667 177.814 6.1C177.334 5.79333 176.728 5.64 175.994 5.64C175.234 5.64 174.601 5.81333 174.094 6.16C173.601 6.50667 173.228 6.98 172.974 7.58C172.734 8.18 172.614 8.87333 172.614 9.66C172.614 10.42 172.734 11.1067 172.974 11.72C173.228 12.32 173.614 12.8 174.134 13.16C174.654 13.5067 175.314 13.68 176.114 13.68C176.954 13.68 177.634 13.4933 178.154 13.12C178.688 12.7467 179.008 12.3133 179.114 11.82H180.914C180.768 12.5533 180.474 13.1867 180.034 13.72C179.594 14.2533 179.041 14.66 178.374 14.94C177.708 15.22 176.954 15.36 176.114 15.36ZM183.82 15V4.32H185.34V8.9H185.1C185.1 7.84667 185.24 6.96 185.52 6.24C185.814 5.50667 186.254 4.95333 186.84 4.58C187.427 4.19333 188.167 4 189.06 4H189.14C190.487 4 191.48 4.42 192.12 5.26C192.774 6.1 193.1 7.31333 193.1 8.9V15H191.18V8.5C191.18 7.67333 190.947 7.01333 190.48 6.52C190.014 6.01333 189.374 5.76 188.56 5.76C187.72 5.76 187.04 6.02 186.52 6.54C186 7.06 185.74 7.75333 185.74 8.62V15H183.82ZM200.773 15.12C199.973 15.12 199.28 15.0067 198.693 14.78C198.12 14.5533 197.673 14.1667 197.353 13.62C197.047 13.06 196.893 12.3067 196.893 11.36V1.08H198.733V11.6C198.733 12.1733 198.887 12.62 199.193 12.94C199.513 13.2467 199.96 13.4 200.533 13.4H202.413V15.12H200.773ZM195.053 5.76V4.32H202.413V5.76H195.053ZM205.649 15V4.32H207.569V15H205.649ZM204.009 5.84V4.32H207.569V5.84H204.009ZM206.189 2.6C205.762 2.6 205.442 2.48667 205.229 2.26C205.029 2.03333 204.929 1.74667 204.929 1.4C204.929 1.05333 205.029 0.766666 205.229 0.539999C205.442 0.313333 205.762 0.2 206.189 0.2C206.616 0.2 206.929 0.313333 207.129 0.539999C207.342 0.766666 207.449 1.05333 207.449 1.4C207.449 1.74667 207.342 2.03333 207.129 2.26C206.929 2.48667 206.616 2.6 206.189 2.6ZM217.741 15V11.8H217.421V8.1C217.421 7.36667 217.228 6.81333 216.841 6.44C216.468 6.06667 215.915 5.88 215.181 5.88C214.768 5.88 214.341 5.88667 213.901 5.9C213.461 5.91333 213.041 5.92667 212.641 5.94C212.241 5.95333 211.895 5.97333 211.601 6V4.32C211.895 4.29333 212.201 4.27333 212.521 4.26C212.855 4.23333 213.195 4.22 213.541 4.22C213.888 4.20667 214.221 4.2 214.541 4.2C215.635 4.2 216.528 4.33333 217.221 4.6C217.915 4.85333 218.428 5.27333 218.761 5.86C219.095 6.44667 219.261 7.24 219.261 8.24V15H217.741ZM214.241 15.28C213.441 15.28 212.748 15.1467 212.161 14.88C211.588 14.6 211.141 14.2 210.821 13.68C210.515 13.16 210.361 12.5333 210.361 11.8C210.361 11.04 210.528 10.4067 210.861 9.9C211.208 9.39333 211.708 9.01333 212.361 8.76C213.015 8.49333 213.801 8.36 214.721 8.36H217.621V9.8H214.641C213.868 9.8 213.275 9.98667 212.861 10.36C212.448 10.7333 212.241 11.2133 212.241 11.8C212.241 12.3867 212.448 12.86 212.861 13.22C213.275 13.58 213.868 13.76 214.641 13.76C215.095 13.76 215.528 13.68 215.941 13.52C216.355 13.3467 216.695 13.0667 216.961 12.68C217.241 12.28 217.395 11.7333 217.421 11.04L217.941 11.8C217.875 12.56 217.688 13.2 217.381 13.72C217.088 14.2267 216.675 14.6133 216.141 14.88C215.621 15.1467 214.988 15.28 214.241 15.28ZM222.905 15V0.4H224.825V15H222.905ZM221.425 1.92V0.4H224.825V1.92H221.425ZM227.028 10.26V8.62H244.308V10.26H227.028ZM244.519 19.08V17.36H245.639C246.145 17.36 246.532 17.22 246.799 16.94C247.079 16.66 247.219 16.2733 247.219 15.78V4.32H249.059V15.5C249.059 16.3933 248.932 17.1 248.679 17.62C248.439 18.14 248.045 18.5133 247.499 18.74C246.965 18.9667 246.252 19.08 245.359 19.08H244.519ZM245.539 5.84V4.32H249.059V5.84H245.539ZM247.679 2.44C247.252 2.44 246.932 2.32667 246.719 2.1C246.519 1.87333 246.419 1.58667 246.419 1.24C246.419 0.893333 246.519 0.606666 246.719 0.38C246.932 0.153333 247.252 0.0399995 247.679 0.0399995C248.105 0.0399995 248.419 0.153333 248.619 0.38C248.832 0.606666 248.939 0.893333 248.939 1.24C248.939 1.58667 248.832 1.87333 248.619 2.1C248.419 2.32667 248.105 2.44 247.679 2.44ZM257.666 15.36C256.733 15.36 255.913 15.2 255.206 14.88C254.5 14.56 253.9 14.14 253.406 13.62C252.926 13.0867 252.56 12.4933 252.306 11.84C252.066 11.1867 251.946 10.52 251.946 9.84V9.48C251.946 8.8 252.073 8.13333 252.326 7.48C252.58 6.81333 252.953 6.22 253.446 5.7C253.94 5.16667 254.54 4.74667 255.246 4.44C255.953 4.12 256.76 3.96 257.666 3.96C258.573 3.96 259.38 4.12 260.086 4.44C260.793 4.74667 261.393 5.16667 261.886 5.7C262.38 6.22 262.753 6.81333 263.006 7.48C263.26 8.13333 263.386 8.8 263.386 9.48V9.84C263.386 10.52 263.26 11.1867 263.006 11.84C262.766 12.4933 262.4 13.0867 261.906 13.62C261.426 14.14 260.833 14.56 260.126 14.88C259.42 15.2 258.6 15.36 257.666 15.36ZM257.666 13.64C258.466 13.64 259.146 13.4667 259.706 13.12C260.28 12.76 260.713 12.28 261.006 11.68C261.313 11.08 261.466 10.4067 261.466 9.66C261.466 8.9 261.313 8.22 261.006 7.62C260.7 7.02 260.26 6.54667 259.686 6.2C259.126 5.85333 258.453 5.68 257.666 5.68C256.893 5.68 256.22 5.85333 255.646 6.2C255.073 6.54667 254.633 7.02 254.326 7.62C254.02 8.22 253.866 8.9 253.866 9.66C253.866 10.4067 254.013 11.08 254.306 11.68C254.613 12.28 255.046 12.76 255.606 13.12C256.18 13.4667 256.866 13.64 257.666 13.64ZM266.782 15V4.32H268.702V15H266.782ZM265.142 5.84V4.32H268.702V5.84H265.142ZM267.322 2.6C266.895 2.6 266.575 2.48667 266.362 2.26C266.162 2.03333 266.062 1.74667 266.062 1.4C266.062 1.05333 266.162 0.766666 266.362 0.539999C266.575 0.313333 266.895 0.2 267.322 0.2C267.749 0.2 268.062 0.313333 268.262 0.539999C268.475 0.766666 268.582 1.05333 268.582 1.4C268.582 1.74667 268.475 2.03333 268.262 2.26C268.062 2.48667 267.749 2.6 267.322 2.6ZM272.414 15V4.32H273.934V8.9H273.694C273.694 7.84667 273.834 6.96 274.114 6.24C274.408 5.50667 274.848 4.95333 275.434 4.58C276.021 4.19333 276.761 4 277.654 4H277.734C279.081 4 280.074 4.42 280.714 5.26C281.368 6.1 281.694 7.31333 281.694 8.9V15H279.774V8.5C279.774 7.67333 279.541 7.01333 279.074 6.52C278.608 6.01333 277.968 5.76 277.154 5.76C276.314 5.76 275.634 6.02 275.114 6.54C274.594 7.06 274.334 7.75333 274.334 8.62V15H272.414ZM288.478 15L293.738 0.4H297.058L302.478 15H300.458L295.558 1.68L296.518 2.16H294.158L295.178 1.68L290.438 15H288.478ZM291.618 10.64L292.278 8.88H298.578L299.238 10.64H291.618ZM311.026 15.36C309.693 15.36 308.553 15.1267 307.606 14.66C306.673 14.1933 305.92 13.5867 305.346 12.84C304.773 12.0933 304.353 11.2867 304.086 10.42C303.82 9.54 303.686 8.69333 303.686 7.88V7.44C303.686 6.56 303.82 5.68 304.086 4.8C304.366 3.92 304.793 3.12 305.366 2.4C305.94 1.68 306.686 1.1 307.606 0.66C308.526 0.219999 309.626 -1.19209e-06 310.906 -1.19209e-06C312.213 -1.19209e-06 313.333 0.226666 314.266 0.68C315.2 1.13333 315.94 1.76667 316.486 2.58C317.033 3.39333 317.366 4.35333 317.486 5.46H315.486C315.38 4.63333 315.113 3.95333 314.686 3.42C314.26 2.87333 313.72 2.46667 313.066 2.2C312.426 1.93333 311.706 1.8 310.906 1.8C310.04 1.8 309.28 1.95333 308.626 2.26C307.973 2.55333 307.426 2.97333 306.986 3.52C306.56 4.05333 306.233 4.67333 306.006 5.38C305.793 6.08667 305.686 6.85333 305.686 7.68C305.686 8.46667 305.793 9.21333 306.006 9.92C306.233 10.6267 306.566 11.2533 307.006 11.8C307.46 12.3467 308.02 12.78 308.686 13.1C309.353 13.4067 310.133 13.56 311.026 13.56C312.28 13.56 313.333 13.2467 314.186 12.62C315.04 11.9933 315.56 11.0867 315.746 9.9H317.746C317.613 10.9 317.273 11.8133 316.726 12.64C316.193 13.4667 315.446 14.1267 314.486 14.62C313.54 15.1133 312.386 15.36 311.026 15.36ZM320.585 15V0.4H323.185L327.505 10.14H327.825L332.125 0.4H334.745V15H332.785V2.54L332.925 2.58L328.785 11.98H326.385L322.225 2.58L322.385 2.54V15H320.585ZM348.274 15.36C347.061 15.36 346.027 15.16 345.174 14.76C344.321 14.36 343.667 13.8067 343.214 13.1C342.761 12.3933 342.534 11.5933 342.534 10.7H344.494C344.494 11.14 344.607 11.58 344.834 12.02C345.074 12.46 345.467 12.8267 346.014 13.12C346.574 13.4133 347.327 13.56 348.274 13.56C349.154 13.56 349.874 13.4333 350.434 13.18C350.994 12.9133 351.407 12.5733 351.674 12.16C351.941 11.7333 352.074 11.2733 352.074 10.78C352.074 10.18 351.814 9.68667 351.294 9.3C350.774 8.9 350.014 8.65333 349.014 8.56L347.394 8.42C346.101 8.31333 345.067 7.91333 344.294 7.22C343.521 6.52667 343.134 5.61333 343.134 4.48C343.134 3.58667 343.347 2.80667 343.774 2.14C344.214 1.47333 344.821 0.953333 345.594 0.58C346.367 0.193332 347.267 -1.19209e-06 348.294 -1.19209e-06C349.307 -1.19209e-06 350.201 0.186665 350.974 0.559999C351.747 0.933333 352.347 1.46 352.774 2.14C353.214 2.80667 353.434 3.60667 353.434 4.54H351.474C351.474 4.07333 351.361 3.63333 351.134 3.22C350.921 2.80667 350.581 2.46667 350.114 2.2C349.647 1.93333 349.041 1.8 348.294 1.8C347.574 1.8 346.974 1.92667 346.494 2.18C346.027 2.43333 345.674 2.76667 345.434 3.18C345.207 3.58 345.094 4.01333 345.094 4.48C345.094 5.01333 345.301 5.48667 345.714 5.9C346.127 6.31333 346.741 6.55333 347.554 6.62L349.174 6.76C350.174 6.84 351.034 7.05333 351.754 7.4C352.487 7.73333 353.047 8.18667 353.434 8.76C353.834 9.32 354.034 9.99333 354.034 10.78C354.034 11.6733 353.794 12.4667 353.314 13.16C352.834 13.8533 352.161 14.3933 351.294 14.78C350.427 15.1667 349.421 15.36 348.274 15.36ZM357.363 15V0.4H359.323V15H357.363ZM368.352 15.36C367.139 15.36 366.106 15.16 365.252 14.76C364.399 14.36 363.746 13.8067 363.292 13.1C362.839 12.3933 362.612 11.5933 362.612 10.7H364.572C364.572 11.14 364.686 11.58 364.912 12.02C365.152 12.46 365.546 12.8267 366.092 13.12C366.652 13.4133 367.406 13.56 368.352 13.56C369.232 13.56 369.952 13.4333 370.512 13.18C371.072 12.9133 371.486 12.5733 371.752 12.16C372.019 11.7333 372.152 11.2733 372.152 10.78C372.152 10.18 371.892 9.68667 371.372 9.3C370.852 8.9 370.092 8.65333 369.092 8.56L367.472 8.42C366.179 8.31333 365.146 7.91333 364.372 7.22C363.599 6.52667 363.212 5.61333 363.212 4.48C363.212 3.58667 363.426 2.80667 363.852 2.14C364.292 1.47333 364.899 0.953333 365.672 0.58C366.446 0.193332 367.346 -1.19209e-06 368.372 -1.19209e-06C369.386 -1.19209e-06 370.279 0.186665 371.052 0.559999C371.826 0.933333 372.426 1.46 372.852 2.14C373.292 2.80667 373.512 3.60667 373.512 4.54H371.552C371.552 4.07333 371.439 3.63333 371.212 3.22C370.999 2.80667 370.659 2.46667 370.192 2.2C369.726 1.93333 369.119 1.8 368.372 1.8C367.652 1.8 367.052 1.92667 366.572 2.18C366.106 2.43333 365.752 2.76667 365.512 3.18C365.286 3.58 365.172 4.01333 365.172 4.48C365.172 5.01333 365.379 5.48667 365.792 5.9C366.206 6.31333 366.819 6.55333 367.632 6.62L369.252 6.76C370.252 6.84 371.112 7.05333 371.832 7.4C372.566 7.73333 373.126 8.18667 373.512 8.76C373.912 9.32 374.112 9.99333 374.112 10.78C374.112 11.6733 373.872 12.4667 373.392 13.16C372.912 13.8533 372.239 14.3933 371.372 14.78C370.506 15.1667 369.499 15.36 368.352 15.36ZM379.89 15V1.76H381.85V15H379.89ZM375.45 2.16V0.4H386.29V2.16H375.45ZM399.655 15V11.8H399.335V8.1C399.335 7.36667 399.142 6.81333 398.755 6.44C398.382 6.06667 397.829 5.88 397.095 5.88C396.682 5.88 396.255 5.88667 395.815 5.9C395.375 5.91333 394.955 5.92667 394.555 5.94C394.155 5.95333 393.809 5.97333 393.515 6V4.32C393.809 4.29333 394.115 4.27333 394.435 4.26C394.769 4.23333 395.109 4.22 395.455 4.22C395.802 4.20667 396.135 4.2 396.455 4.2C397.549 4.2 398.442 4.33333 399.135 4.6C399.829 4.85333 400.342 5.27333 400.675 5.86C401.009 6.44667 401.175 7.24 401.175 8.24V15H399.655ZM396.155 15.28C395.355 15.28 394.662 15.1467 394.075 14.88C393.502 14.6 393.055 14.2 392.735 13.68C392.429 13.16 392.275 12.5333 392.275 11.8C392.275 11.04 392.442 10.4067 392.775 9.9C393.122 9.39333 393.622 9.01333 394.275 8.76C394.929 8.49333 395.715 8.36 396.635 8.36H399.535V9.8H396.555C395.782 9.8 395.189 9.98667 394.775 10.36C394.362 10.7333 394.155 11.2133 394.155 11.8C394.155 12.3867 394.362 12.86 394.775 13.22C395.189 13.58 395.782 13.76 396.555 13.76C397.009 13.76 397.442 13.68 397.855 13.52C398.269 13.3467 398.609 13.0667 398.875 12.68C399.155 12.28 399.309 11.7333 399.335 11.04L399.855 11.8C399.789 12.56 399.602 13.2 399.295 13.72C399.002 14.2267 398.589 14.6133 398.055 14.88C397.535 15.1467 396.902 15.28 396.155 15.28ZM404.699 15V4.32H406.219V8.9H405.979C405.979 7.84667 406.119 6.96 406.399 6.24C406.693 5.50667 407.133 4.95333 407.719 4.58C408.306 4.19333 409.046 4 409.939 4H410.019C411.366 4 412.359 4.42 412.999 5.26C413.653 6.1 413.979 7.31333 413.979 8.9V15H412.059V8.5C412.059 7.67333 411.826 7.01333 411.359 6.52C410.893 6.01333 410.253 5.76 409.439 5.76C408.599 5.76 407.919 6.02 407.399 6.54C406.879 7.06 406.619 7.75333 406.619 8.62V15H404.699ZM421.952 15.36C421.192 15.36 420.492 15.22 419.852 14.94C419.212 14.66 418.652 14.2667 418.172 13.76C417.706 13.2533 417.339 12.6667 417.072 12C416.819 11.3333 416.692 10.6133 416.692 9.84V9.48C416.692 8.72 416.819 8.00667 417.072 7.34C417.326 6.67333 417.679 6.08667 418.132 5.58C418.599 5.07333 419.146 4.68 419.772 4.4C420.412 4.10667 421.119 3.96 421.892 3.96C422.706 3.96 423.446 4.13333 424.112 4.48C424.779 4.81333 425.326 5.34 425.752 6.06C426.179 6.78 426.419 7.71333 426.472 8.86L425.672 7.58V0.4H427.592V15H426.072V10.26H426.632C426.579 11.4733 426.326 12.46 425.872 13.22C425.419 13.9667 424.846 14.5133 424.152 14.86C423.472 15.1933 422.739 15.36 421.952 15.36ZM422.212 13.68C422.866 13.68 423.459 13.5333 423.992 13.24C424.526 12.9467 424.952 12.5267 425.272 11.98C425.592 11.42 425.752 10.7667 425.752 10.02V9.1C425.752 8.36667 425.586 7.74667 425.252 7.24C424.932 6.72 424.499 6.32667 423.952 6.06C423.419 5.78 422.832 5.64 422.192 5.64C421.486 5.64 420.859 5.80667 420.312 6.14C419.779 6.47333 419.359 6.94 419.052 7.54C418.759 8.14 418.612 8.84667 418.612 9.66C418.612 10.4733 418.766 11.1867 419.072 11.8C419.379 12.4 419.806 12.8667 420.352 13.2C420.899 13.52 421.519 13.68 422.212 13.68ZM441.472 15.36C440.592 15.36 439.806 15.1667 439.112 14.78C438.432 14.3933 437.892 13.8333 437.492 13.1C437.092 12.3533 436.872 11.46 436.832 10.42H437.352V15H435.832V0.4H437.752V7.5L437.072 8.96C437.126 7.8 437.359 6.85333 437.772 6.12C438.186 5.38667 438.726 4.84667 439.392 4.5C440.072 4.14 440.819 3.96 441.632 3.96C442.392 3.96 443.086 4.10667 443.712 4.4C444.339 4.68 444.879 5.07333 445.332 5.58C445.786 6.07333 446.132 6.65333 446.372 7.32C446.612 7.97333 446.732 8.68 446.732 9.44V9.8C446.732 10.56 446.606 11.2733 446.352 11.94C446.112 12.6067 445.759 13.2 445.292 13.72C444.826 14.2267 444.266 14.6267 443.612 14.92C442.972 15.2133 442.259 15.36 441.472 15.36ZM441.252 13.68C441.972 13.68 442.599 13.5067 443.132 13.16C443.666 12.8133 444.079 12.34 444.372 11.74C444.666 11.1267 444.812 10.42 444.812 9.62C444.812 8.82 444.659 8.12 444.352 7.52C444.059 6.92 443.646 6.46 443.112 6.14C442.579 5.80667 441.959 5.64 441.252 5.64C440.612 5.64 440.019 5.78667 439.472 6.08C438.926 6.36 438.486 6.77333 438.152 7.32C437.832 7.85333 437.672 8.5 437.672 9.26V10.18C437.672 10.9133 437.839 11.54 438.172 12.06C438.506 12.58 438.946 12.98 439.492 13.26C440.039 13.54 440.626 13.68 441.252 13.68ZM454.161 15.36C453.228 15.36 452.421 15.2 451.741 14.88C451.061 14.56 450.508 14.14 450.081 13.62C449.655 13.0867 449.335 12.4933 449.121 11.84C448.921 11.1867 448.821 10.52 448.821 9.84V9.48C448.821 8.78667 448.921 8.11333 449.121 7.46C449.335 6.80667 449.655 6.22 450.081 5.7C450.508 5.16667 451.048 4.74667 451.701 4.44C452.368 4.12 453.148 3.96 454.041 3.96C455.201 3.96 456.155 4.21333 456.901 4.72C457.661 5.21333 458.221 5.85333 458.581 6.64C458.955 7.42667 459.141 8.26667 459.141 9.16V10.02H449.661V8.58H457.741L457.301 9.36C457.301 8.6 457.181 7.94667 456.941 7.4C456.701 6.84 456.341 6.40667 455.861 6.1C455.381 5.79333 454.775 5.64 454.041 5.64C453.281 5.64 452.648 5.81333 452.141 6.16C451.648 6.50667 451.275 6.98 451.021 7.58C450.781 8.18 450.661 8.87333 450.661 9.66C450.661 10.42 450.781 11.1067 451.021 11.72C451.275 12.32 451.661 12.8 452.181 13.16C452.701 13.5067 453.361 13.68 454.161 13.68C455.001 13.68 455.681 13.4933 456.201 13.12C456.735 12.7467 457.055 12.3133 457.161 11.82H458.961C458.815 12.5533 458.521 13.1867 458.081 13.72C457.641 14.2533 457.088 14.66 456.421 14.94C455.755 15.22 455.001 15.36 454.161 15.36ZM466.418 19V4.32H467.938V8.94L467.578 8.9C467.645 7.75333 467.885 6.82 468.298 6.1C468.725 5.36667 469.278 4.82667 469.958 4.48C470.638 4.13333 471.378 3.96 472.178 3.96C472.951 3.96 473.651 4.10667 474.278 4.4C474.918 4.69333 475.465 5.09333 475.918 5.6C476.371 6.10667 476.718 6.69333 476.958 7.36C477.198 8.02667 477.318 8.73333 477.318 9.48V9.84C477.318 10.5867 477.191 11.2933 476.938 11.96C476.685 12.6267 476.325 13.2133 475.858 13.72C475.405 14.2267 474.858 14.6267 474.218 14.92C473.591 15.2133 472.898 15.36 472.138 15.36C471.378 15.36 470.651 15.1933 469.958 14.86C469.265 14.5267 468.691 13.9867 468.238 13.24C467.785 12.4933 467.525 11.5133 467.458 10.3L468.338 11.9V19H466.418ZM471.838 13.68C472.558 13.68 473.185 13.5133 473.718 13.18C474.251 12.8333 474.665 12.36 474.958 11.76C475.251 11.1467 475.398 10.4467 475.398 9.66C475.398 8.86 475.251 8.16 474.958 7.56C474.665 6.96 474.251 6.49333 473.718 6.16C473.185 5.81333 472.558 5.64 471.838 5.64C471.198 5.64 470.605 5.78667 470.058 6.08C469.511 6.36 469.071 6.77333 468.738 7.32C468.418 7.85333 468.258 8.5 468.258 9.26V10.18C468.258 10.9133 468.425 11.54 468.758 12.06C469.091 12.58 469.531 12.98 470.078 13.26C470.625 13.54 471.211 13.68 471.838 13.68ZM486.667 15V11.8H486.347V8.1C486.347 7.36667 486.154 6.81333 485.767 6.44C485.394 6.06667 484.841 5.88 484.107 5.88C483.694 5.88 483.267 5.88667 482.827 5.9C482.387 5.91333 481.967 5.92667 481.567 5.94C481.167 5.95333 480.821 5.97333 480.527 6V4.32C480.821 4.29333 481.127 4.27333 481.447 4.26C481.781 4.23333 482.121 4.22 482.467 4.22C482.814 4.20667 483.147 4.2 483.467 4.2C484.561 4.2 485.454 4.33333 486.147 4.6C486.841 4.85333 487.354 5.27333 487.687 5.86C488.021 6.44667 488.187 7.24 488.187 8.24V15H486.667ZM483.167 15.28C482.367 15.28 481.674 15.1467 481.087 14.88C480.514 14.6 480.067 14.2 479.747 13.68C479.441 13.16 479.287 12.5333 479.287 11.8C479.287 11.04 479.454 10.4067 479.787 9.9C480.134 9.39333 480.634 9.01333 481.287 8.76C481.941 8.49333 482.727 8.36 483.647 8.36H486.547V9.8H483.567C482.794 9.8 482.201 9.98667 481.787 10.36C481.374 10.7333 481.167 11.2133 481.167 11.8C481.167 12.3867 481.374 12.86 481.787 13.22C482.201 13.58 482.794 13.76 483.567 13.76C484.021 13.76 484.454 13.68 484.867 13.52C485.281 13.3467 485.621 13.0667 485.887 12.68C486.167 12.28 486.321 11.7333 486.347 11.04L486.867 11.8C486.801 12.56 486.614 13.2 486.307 13.72C486.014 14.2267 485.601 14.6133 485.067 14.88C484.547 15.1467 483.914 15.28 483.167 15.28ZM491.711 15V4.32H493.231V8.72H493.151C493.151 7.16 493.491 6.02 494.171 5.3C494.864 4.56667 495.898 4.2 497.271 4.2H497.631V5.92H496.951C495.884 5.92 495.064 6.20667 494.491 6.78C493.918 7.34 493.631 8.15333 493.631 9.22V15H491.711ZM504.27 15.12C503.47 15.12 502.776 15.0067 502.19 14.78C501.616 14.5533 501.17 14.1667 500.85 13.62C500.543 13.06 500.39 12.3067 500.39 11.36V1.08H502.23V11.6C502.23 12.1733 502.383 12.62 502.69 12.94C503.01 13.2467 503.456 13.4 504.03 13.4H505.91V15.12H504.27ZM498.55 5.76V4.32H505.91V5.76H498.55ZM518.096 15.36C517.163 15.36 516.343 15.2 515.636 14.88C514.929 14.56 514.329 14.14 513.836 13.62C513.356 13.0867 512.989 12.4933 512.736 11.84C512.496 11.1867 512.376 10.52 512.376 9.84V9.48C512.376 8.8 512.503 8.13333 512.756 7.48C513.009 6.81333 513.383 6.22 513.876 5.7C514.369 5.16667 514.969 4.74667 515.676 4.44C516.383 4.12 517.189 3.96 518.096 3.96C519.003 3.96 519.809 4.12 520.516 4.44C521.223 4.74667 521.823 5.16667 522.316 5.7C522.809 6.22 523.183 6.81333 523.436 7.48C523.689 8.13333 523.816 8.8 523.816 9.48V9.84C523.816 10.52 523.689 11.1867 523.436 11.84C523.196 12.4933 522.829 13.0867 522.336 13.62C521.856 14.14 521.263 14.56 520.556 14.88C519.849 15.2 519.029 15.36 518.096 15.36ZM518.096 13.64C518.896 13.64 519.576 13.4667 520.136 13.12C520.709 12.76 521.143 12.28 521.436 11.68C521.743 11.08 521.896 10.4067 521.896 9.66C521.896 8.9 521.743 8.22 521.436 7.62C521.129 7.02 520.689 6.54667 520.116 6.2C519.556 5.85333 518.883 5.68 518.096 5.68C517.323 5.68 516.649 5.85333 516.076 6.2C515.503 6.54667 515.063 7.02 514.756 7.62C514.449 8.22 514.296 8.9 514.296 9.66C514.296 10.4067 514.443 11.08 514.736 11.68C515.043 12.28 515.476 12.76 516.036 13.12C516.609 13.4667 517.296 13.64 518.096 13.64ZM526.972 15V3.78C526.972 2.59333 527.285 1.72 527.912 1.16C528.538 0.599999 529.458 0.319999 530.672 0.319999H531.992V1.92H530.352C529.858 1.92 529.478 2.06 529.212 2.34C528.945 2.60667 528.812 2.98 528.812 3.46V15H526.972ZM525.492 5.88V4.44H532.192V5.88H525.492ZM542.98 15.12C542.18 15.12 541.487 15.0067 540.9 14.78C540.327 14.5533 539.88 14.1667 539.56 13.62C539.254 13.06 539.1 12.3067 539.1 11.36V1.08H540.94V11.6C540.94 12.1733 541.094 12.62 541.4 12.94C541.72 13.2467 542.167 13.4 542.74 13.4H544.62V15.12H542.98ZM537.26 5.76V4.32H544.62V5.76H537.26ZM547.336 15V0.4H549.256V9.12H548.776C548.776 8.06667 548.909 7.16 549.176 6.4C549.456 5.62667 549.883 5.03333 550.456 4.62C551.029 4.20667 551.763 4 552.656 4H552.736C554.016 4 554.983 4.42667 555.636 5.28C556.289 6.12 556.616 7.32667 556.616 8.9V15H554.696V8.5C554.696 7.63333 554.449 6.96 553.956 6.48C553.476 6 552.849 5.76 552.076 5.76C551.223 5.76 550.536 6.04667 550.016 6.62C549.509 7.18 549.256 7.92 549.256 8.84V15H547.336ZM564.669 15.36C563.736 15.36 562.929 15.2 562.249 14.88C561.569 14.56 561.016 14.14 560.589 13.62C560.162 13.0867 559.842 12.4933 559.629 11.84C559.429 11.1867 559.329 10.52 559.329 9.84V9.48C559.329 8.78667 559.429 8.11333 559.629 7.46C559.842 6.80667 560.162 6.22 560.589 5.7C561.016 5.16667 561.556 4.74667 562.209 4.44C562.876 4.12 563.656 3.96 564.549 3.96C565.709 3.96 566.662 4.21333 567.409 4.72C568.169 5.21333 568.729 5.85333 569.089 6.64C569.462 7.42667 569.649 8.26667 569.649 9.16V10.02H560.169V8.58H568.249L567.809 9.36C567.809 8.6 567.689 7.94667 567.449 7.4C567.209 6.84 566.849 6.40667 566.369 6.1C565.889 5.79333 565.282 5.64 564.549 5.64C563.789 5.64 563.156 5.81333 562.649 6.16C562.156 6.50667 561.782 6.98 561.529 7.58C561.289 8.18 561.169 8.87333 561.169 9.66C561.169 10.42 561.289 11.1067 561.529 11.72C561.782 12.32 562.169 12.8 562.689 13.16C563.209 13.5067 563.869 13.68 564.669 13.68C565.509 13.68 566.189 13.4933 566.709 13.12C567.242 12.7467 567.562 12.3133 567.669 11.82H569.469C569.322 12.5533 569.029 13.1867 568.589 13.72C568.149 14.2533 567.596 14.66 566.929 14.94C566.262 15.22 565.509 15.36 564.669 15.36ZM581.086 15.12C580.286 15.12 579.593 15.0067 579.006 14.78C578.433 14.5533 577.986 14.1667 577.666 13.62C577.359 13.06 577.206 12.3067 577.206 11.36V1.08H579.046V11.6C579.046 12.1733 579.199 12.62 579.506 12.94C579.826 13.2467 580.273 13.4 580.846 13.4H582.726V15.12H581.086ZM575.366 5.76V4.32H582.726V5.76H575.366ZM589.903 15.36C588.97 15.36 588.163 15.2 587.483 14.88C586.803 14.56 586.25 14.14 585.823 13.62C585.397 13.0867 585.077 12.4933 584.863 11.84C584.663 11.1867 584.563 10.52 584.563 9.84V9.48C584.563 8.78667 584.663 8.11333 584.863 7.46C585.077 6.80667 585.397 6.22 585.823 5.7C586.25 5.16667 586.79 4.74667 587.443 4.44C588.11 4.12 588.89 3.96 589.783 3.96C590.943 3.96 591.897 4.21333 592.643 4.72C593.403 5.21333 593.963 5.85333 594.323 6.64C594.697 7.42667 594.883 8.26667 594.883 9.16V10.02H585.403V8.58H593.483L593.043 9.36C593.043 8.6 592.923 7.94667 592.683 7.4C592.443 6.84 592.083 6.40667 591.603 6.1C591.123 5.79333 590.517 5.64 589.783 5.64C589.023 5.64 588.39 5.81333 587.883 6.16C587.39 6.50667 587.017 6.98 586.763 7.58C586.523 8.18 586.403 8.87333 586.403 9.66C586.403 10.42 586.523 11.1067 586.763 11.72C587.017 12.32 587.403 12.8 587.923 13.16C588.443 13.5067 589.103 13.68 589.903 13.68C590.743 13.68 591.423 13.4933 591.943 13.12C592.477 12.7467 592.797 12.3133 592.903 11.82H594.703C594.557 12.5533 594.263 13.1867 593.823 13.72C593.383 14.2533 592.83 14.66 592.163 14.94C591.497 15.22 590.743 15.36 589.903 15.36ZM602.19 15.36C601.27 15.36 600.47 15.2 599.79 14.88C599.123 14.56 598.57 14.1333 598.13 13.6C597.69 13.0533 597.356 12.4533 597.13 11.8C596.916 11.1467 596.81 10.4933 596.81 9.84V9.48C596.81 8.8 596.916 8.13333 597.13 7.48C597.356 6.82667 597.69 6.24 598.13 5.72C598.583 5.18667 599.143 4.76 599.81 4.44C600.476 4.12 601.256 3.96 602.15 3.96C603.043 3.96 603.843 4.12667 604.55 4.46C605.27 4.79333 605.843 5.26667 606.27 5.88C606.71 6.48 606.956 7.19333 607.01 8.02H605.17C605.076 7.35333 604.77 6.8 604.25 6.36C603.73 5.90667 603.03 5.68 602.15 5.68C601.39 5.68 600.756 5.85333 600.25 6.2C599.743 6.54667 599.363 7.02 599.11 7.62C598.856 8.22 598.73 8.9 598.73 9.66C598.73 10.3933 598.856 11.0667 599.11 11.68C599.363 12.28 599.743 12.76 600.25 13.12C600.77 13.4667 601.416 13.64 602.19 13.64C602.79 13.64 603.31 13.5333 603.75 13.32C604.19 13.1067 604.543 12.82 604.81 12.46C605.076 12.1 605.236 11.6933 605.29 11.24H607.13C607.09 12.08 606.843 12.8067 606.39 13.42C605.95 14.0333 605.363 14.5133 604.63 14.86C603.91 15.1933 603.096 15.36 602.19 15.36ZM609.738 15V0.4H611.658V9.12H611.178C611.178 8.06667 611.312 7.16 611.578 6.4C611.858 5.62667 612.285 5.03333 612.858 4.62C613.432 4.20667 614.165 4 615.058 4H615.138C616.418 4 617.385 4.42667 618.038 5.28C618.692 6.12 619.018 7.32667 619.018 8.9V15H617.098V8.5C617.098 7.63333 616.852 6.96 616.358 6.48C615.878 6 615.252 5.76 614.478 5.76C613.625 5.76 612.938 6.04667 612.418 6.62C611.912 7.18 611.658 7.92 611.658 8.84V15H609.738ZM256.379 47V36.32H257.899V40.72H257.819C257.819 39.16 258.159 38.02 258.839 37.3C259.532 36.5667 260.566 36.2 261.939 36.2H262.299V37.92H261.619C260.552 37.92 259.732 38.2067 259.159 38.78C258.586 39.34 258.299 40.1533 258.299 41.22V47H256.379ZM269.005 47.36C268.072 47.36 267.265 47.2 266.585 46.88C265.905 46.56 265.352 46.14 264.925 45.62C264.498 45.0867 264.178 44.4933 263.965 43.84C263.765 43.1867 263.665 42.52 263.665 41.84V41.48C263.665 40.7867 263.765 40.1133 263.965 39.46C264.178 38.8067 264.498 38.22 264.925 37.7C265.352 37.1667 265.892 36.7467 266.545 36.44C267.212 36.12 267.992 35.96 268.885 35.96C270.045 35.96 270.998 36.2133 271.745 36.72C272.505 37.2133 273.065 37.8533 273.425 38.64C273.798 39.4267 273.985 40.2667 273.985 41.16V42.02H264.505V40.58H272.585L272.145 41.36C272.145 40.6 272.025 39.9467 271.785 39.4C271.545 38.84 271.185 38.4067 270.705 38.1C270.225 37.7933 269.618 37.64 268.885 37.64C268.125 37.64 267.492 37.8133 266.985 38.16C266.492 38.5067 266.118 38.98 265.865 39.58C265.625 40.18 265.505 40.8733 265.505 41.66C265.505 42.42 265.625 43.1067 265.865 43.72C266.118 44.32 266.505 44.8 267.025 45.16C267.545 45.5067 268.205 45.68 269.005 45.68C269.845 45.68 270.525 45.4933 271.045 45.12C271.578 44.7467 271.898 44.3133 272.005 43.82H273.805C273.658 44.5533 273.365 45.1867 272.925 45.72C272.485 46.2533 271.932 46.66 271.265 46.94C270.598 47.22 269.845 47.36 269.005 47.36ZM278.913 47L275.273 36.32H277.273L280.833 47H278.913ZM279.393 47V45.48H281.713V47H279.393ZM280.313 47L283.413 36.32H285.293L282.133 47H280.313ZM292.53 47.36C291.596 47.36 290.776 47.2 290.07 46.88C289.363 46.56 288.763 46.14 288.27 45.62C287.79 45.0867 287.423 44.4933 287.17 43.84C286.93 43.1867 286.81 42.52 286.81 41.84V41.48C286.81 40.8 286.936 40.1333 287.19 39.48C287.443 38.8133 287.816 38.22 288.31 37.7C288.803 37.1667 289.403 36.7467 290.11 36.44C290.816 36.12 291.623 35.96 292.53 35.96C293.436 35.96 294.243 36.12 294.95 36.44C295.656 36.7467 296.256 37.1667 296.75 37.7C297.243 38.22 297.616 38.8133 297.87 39.48C298.123 40.1333 298.25 40.8 298.25 41.48V41.84C298.25 42.52 298.123 43.1867 297.87 43.84C297.63 44.4933 297.263 45.0867 296.77 45.62C296.29 46.14 295.696 46.56 294.99 46.88C294.283 47.2 293.463 47.36 292.53 47.36ZM292.53 45.64C293.33 45.64 294.01 45.4667 294.57 45.12C295.143 44.76 295.576 44.28 295.87 43.68C296.176 43.08 296.33 42.4067 296.33 41.66C296.33 40.9 296.176 40.22 295.87 39.62C295.563 39.02 295.123 38.5467 294.55 38.2C293.99 37.8533 293.316 37.68 292.53 37.68C291.756 37.68 291.083 37.8533 290.51 38.2C289.936 38.5467 289.496 39.02 289.19 39.62C288.883 40.22 288.73 40.9 288.73 41.66C288.73 42.4067 288.876 43.08 289.17 43.68C289.476 44.28 289.91 44.76 290.47 45.12C291.043 45.4667 291.73 45.64 292.53 45.64ZM301.245 47V32.4H303.165V47H301.245ZM299.765 33.92V32.4H303.165V33.92H299.765ZM310.548 47.32C309.281 47.32 308.308 46.9067 307.628 46.08C306.948 45.2533 306.608 44.06 306.608 42.5V36.3H308.528V42.88C308.528 43.72 308.754 44.38 309.208 44.86C309.661 45.3267 310.274 45.56 311.048 45.56C311.848 45.56 312.501 45.3067 313.008 44.8C313.514 44.28 313.768 43.5733 313.768 42.68V36.3H315.688V47H314.168V42.42H314.408C314.408 43.4733 314.268 44.3667 313.988 45.1C313.708 45.82 313.288 46.3733 312.728 46.76C312.181 47.1333 311.481 47.32 310.628 47.32H310.548ZM323.566 47.12C322.766 47.12 322.073 47.0067 321.486 46.78C320.913 46.5533 320.466 46.1667 320.146 45.62C319.84 45.06 319.686 44.3067 319.686 43.36V33.08H321.526V43.6C321.526 44.1733 321.68 44.62 321.986 44.94C322.306 45.2467 322.753 45.4 323.326 45.4H325.206V47.12H323.566ZM317.846 37.76V36.32H325.206V37.76H317.846ZM328.442 47V36.32H330.362V47H328.442ZM326.802 37.84V36.32H330.362V37.84H326.802ZM328.982 34.6C328.555 34.6 328.235 34.4867 328.022 34.26C327.822 34.0333 327.722 33.7467 327.722 33.4C327.722 33.0533 327.822 32.7667 328.022 32.54C328.235 32.3133 328.555 32.2 328.982 32.2C329.409 32.2 329.722 32.3133 329.922 32.54C330.135 32.7667 330.242 33.0533 330.242 33.4C330.242 33.7467 330.135 34.0333 329.922 34.26C329.722 34.4867 329.409 34.6 328.982 34.6ZM338.994 47.36C338.061 47.36 337.241 47.2 336.534 46.88C335.828 46.56 335.228 46.14 334.734 45.62C334.254 45.0867 333.888 44.4933 333.634 43.84C333.394 43.1867 333.274 42.52 333.274 41.84V41.48C333.274 40.8 333.401 40.1333 333.654 39.48C333.908 38.8133 334.281 38.22 334.774 37.7C335.268 37.1667 335.868 36.7467 336.574 36.44C337.281 36.12 338.088 35.96 338.994 35.96C339.901 35.96 340.708 36.12 341.414 36.44C342.121 36.7467 342.721 37.1667 343.214 37.7C343.708 38.22 344.081 38.8133 344.334 39.48C344.588 40.1333 344.714 40.8 344.714 41.48V41.84C344.714 42.52 344.588 43.1867 344.334 43.84C344.094 44.4933 343.728 45.0867 343.234 45.62C342.754 46.14 342.161 46.56 341.454 46.88C340.748 47.2 339.928 47.36 338.994 47.36ZM338.994 45.64C339.794 45.64 340.474 45.4667 341.034 45.12C341.608 44.76 342.041 44.28 342.334 43.68C342.641 43.08 342.794 42.4067 342.794 41.66C342.794 40.9 342.641 40.22 342.334 39.62C342.028 39.02 341.588 38.5467 341.014 38.2C340.454 37.8533 339.781 37.68 338.994 37.68C338.221 37.68 337.548 37.8533 336.974 38.2C336.401 38.5467 335.961 39.02 335.654 39.62C335.348 40.22 335.194 40.9 335.194 41.66C335.194 42.4067 335.341 43.08 335.634 43.68C335.941 44.28 336.374 44.76 336.934 45.12C337.508 45.4667 338.194 45.64 338.994 45.64ZM347.59 47V36.32H349.11V40.9H348.87C348.87 39.8467 349.01 38.96 349.29 38.24C349.583 37.5067 350.023 36.9533 350.61 36.58C351.197 36.1933 351.937 36 352.83 36H352.91C354.257 36 355.25 36.42 355.89 37.26C356.543 38.1 356.87 39.3133 356.87 40.9V47H354.95V40.5C354.95 39.6733 354.717 39.0133 354.25 38.52C353.783 38.0133 353.143 37.76 352.33 37.76C351.49 37.76 350.81 38.02 350.29 38.54C349.77 39.06 349.51 39.7533 349.51 40.62V47H347.59ZM360.523 42.64V32.4H362.483V42.64H360.523ZM360.343 47V44.56H362.663V47H360.343Z" fill="#CAC6DD"/>
</svg>
