<svg width="446" height="40" viewBox="0 0 446 40" fill="none" xmlns="http://www.w3.org/2000/svg">
<path d="M0.509063 31L10.4691 1.8H19.7491L29.9891 31H24.1491L15.4691 5.68L17.5091 6.56H12.5091L14.5891 5.68L6.18906 31H0.509063ZM7.46906 23.24L9.26906 18.44H21.1091L22.8691 23.24H7.46906ZM46.3538 31.76C43.7138 31.76 41.4471 31.2933 39.5538 30.36C37.6604 29.4267 36.1138 28.2133 34.9138 26.72C33.7404 25.2267 32.8738 23.6 32.3138 21.84C31.7538 20.08 31.4738 18.3867 31.4738 16.76V15.88C31.4738 14.0667 31.7538 12.28 32.3138 10.52C32.9004 8.76 33.7938 7.16 34.9938 5.72C36.1938 4.28 37.7138 3.13333 39.5538 2.28C41.4204 1.4 43.6204 0.959998 46.1538 0.959998C48.7938 0.959998 51.0871 1.44 53.0338 2.4C55.0071 3.33333 56.5804 4.66667 57.7538 6.4C58.9271 8.10667 59.6338 10.1067 59.8738 12.4H54.1538C53.9404 11.0667 53.4604 9.94667 52.7138 9.04C51.9938 8.10666 51.0738 7.41333 49.9538 6.96C48.8338 6.48 47.5671 6.24 46.1538 6.24C44.7138 6.24 43.4338 6.49333 42.3138 7C41.1938 7.48 40.2604 8.17333 39.5138 9.08C38.7671 9.98667 38.1938 11.0533 37.7938 12.28C37.4204 13.5067 37.2338 14.8667 37.2338 16.36C37.2338 17.8 37.4204 19.1333 37.7938 20.36C38.1938 21.5867 38.7804 22.6667 39.5538 23.6C40.3271 24.5067 41.2738 25.2133 42.3938 25.72C43.5404 26.2267 44.8604 26.48 46.3538 26.48C48.5404 26.48 50.3804 25.9467 51.8738 24.88C53.3938 23.7867 54.3138 22.2667 54.6338 20.32H60.3538C60.0871 22.4 59.3804 24.3067 58.2338 26.04C57.0871 27.7733 55.5138 29.16 53.5138 30.2C51.5138 31.24 49.1271 31.76 46.3538 31.76ZM65.1469 31V1.8H72.9069L80.2269 19.24H80.9469L88.2269 1.8H96.1069V31H90.4669V6.08L91.1869 6.16L83.3069 25.04H77.5069L69.5869 6.16L70.3469 6.08V31H65.1469ZM111.944 31V1.8H117.504V31H111.944ZM116.704 31V26.2H129.944V31H116.704ZM116.704 18.56V13.76H128.904V18.56H116.704ZM116.704 6.6V1.8H129.624V6.6H116.704ZM139.497 31L132.697 9.28H138.417L144.937 31H139.497ZM141.137 31V26.44H147.017V31H141.137ZM143.337 31L148.937 9.28H154.297L148.417 31H143.337ZM167.747 31.76C165.881 31.76 164.241 31.44 162.827 30.8C161.441 30.16 160.281 29.3067 159.347 28.24C158.441 27.1467 157.747 25.9333 157.267 24.6C156.814 23.2667 156.587 21.9067 156.587 20.52V19.76C156.587 18.32 156.814 16.9333 157.267 15.6C157.747 14.24 158.441 13.04 159.347 12C160.281 10.9333 161.427 10.0933 162.787 9.48C164.147 8.84 165.721 8.52 167.507 8.52C169.854 8.52 171.814 9.04 173.387 10.08C174.987 11.0933 176.187 12.44 176.987 14.12C177.787 15.7733 178.187 17.56 178.187 19.48V21.48H158.947V18.08H174.707L172.987 19.76C172.987 18.3733 172.787 17.1867 172.387 16.2C171.987 15.2133 171.374 14.4533 170.547 13.92C169.747 13.3867 168.734 13.12 167.507 13.12C166.281 13.12 165.241 13.4 164.387 13.96C163.534 14.52 162.881 15.3333 162.427 16.4C162.001 17.44 161.787 18.6933 161.787 20.16C161.787 21.52 162.001 22.7333 162.427 23.8C162.854 24.84 163.507 25.6667 164.387 26.28C165.267 26.8667 166.387 27.16 167.747 27.16C169.107 27.16 170.214 26.8933 171.067 26.36C171.921 25.8 172.467 25.12 172.707 24.32H177.827C177.507 25.8133 176.894 27.12 175.987 28.24C175.081 29.36 173.921 30.2267 172.507 30.84C171.121 31.4533 169.534 31.76 167.747 31.76ZM182.832 31V9.28H187.232V18.6H186.832C186.832 16.3867 187.125 14.5467 187.712 13.08C188.299 11.5867 189.165 10.4667 190.312 9.72C191.485 8.97333 192.939 8.6 194.672 8.6H194.912C197.499 8.6 199.459 9.44 200.792 11.12C202.125 12.7733 202.792 15.2533 202.792 18.56V31H197.232V18.08C197.232 16.7467 196.845 15.6667 196.072 14.84C195.325 14.0133 194.285 13.6 192.952 13.6C191.592 13.6 190.485 14.0267 189.632 14.88C188.805 15.7067 188.392 16.8267 188.392 18.24V31H182.832ZM218.209 31.28C216.209 31.28 214.556 31.0267 213.249 30.52C211.969 29.9867 211.009 29.1067 210.369 27.88C209.729 26.6267 209.409 24.9467 209.409 22.84L209.449 3.16H214.649L214.609 23.2C214.609 24.2667 214.889 25.0933 215.449 25.68C216.036 26.24 216.863 26.52 217.929 26.52H221.329V31.28H218.209ZM205.969 13.36V9.28H221.329V13.36H205.969ZM254.229 31V1.8H259.909V31H254.229ZM235.069 31V1.8H240.749V31H235.069ZM239.709 18.88V13.88H255.269V18.88H239.709ZM267.7 31V9.28H273.26V31H267.7ZM264.66 13.44V9.28H273.26V13.44H264.66ZM269.74 6.68C268.647 6.68 267.833 6.4 267.3 5.84C266.793 5.25333 266.54 4.53333 266.54 3.68C266.54 2.77333 266.793 2.04 267.3 1.48C267.833 0.919998 268.647 0.639997 269.74 0.639997C270.833 0.639997 271.633 0.919998 272.14 1.48C272.647 2.04 272.9 2.77333 272.9 3.68C272.9 4.53333 272.647 5.25333 272.14 5.84C271.633 6.4 270.833 6.68 269.74 6.68ZM288.148 39.56C287.108 39.56 286.041 39.52 284.948 39.44C283.881 39.36 282.881 39.2533 281.948 39.12V34.48C282.908 34.5867 283.934 34.68 285.028 34.76C286.121 34.8667 287.148 34.92 288.108 34.92C289.894 34.92 291.334 34.7067 292.428 34.28C293.548 33.8533 294.361 33.1733 294.868 32.24C295.401 31.3333 295.668 30.1733 295.668 28.76V24.48L296.868 21.76C296.788 23.76 296.374 25.4667 295.628 26.88C294.881 28.2667 293.868 29.3333 292.588 30.08C291.308 30.8 289.828 31.16 288.148 31.16C286.654 31.16 285.294 30.88 284.068 30.32C282.868 29.76 281.828 28.9867 280.948 28C280.094 27.0133 279.428 25.8533 278.948 24.52C278.468 23.1867 278.228 21.76 278.228 20.24V19.4C278.228 17.88 278.468 16.4667 278.948 15.16C279.454 13.8267 280.161 12.6667 281.068 11.68C281.974 10.6933 283.054 9.93333 284.308 9.4C285.561 8.86667 286.948 8.6 288.468 8.6C290.254 8.6 291.801 8.98667 293.108 9.76C294.441 10.5333 295.481 11.6533 296.228 13.12C296.974 14.5867 297.388 16.3867 297.468 18.52L296.508 18.68V9.28H300.908V28.44C300.908 31.08 300.454 33.2133 299.548 34.84C298.641 36.4667 297.241 37.6533 295.348 38.4C293.481 39.1733 291.081 39.56 288.148 39.56ZM289.748 26.4C290.814 26.4 291.788 26.16 292.668 25.68C293.548 25.2 294.254 24.5067 294.788 23.6C295.321 22.6933 295.588 21.6 295.588 20.32V18.92C295.588 17.6933 295.308 16.6533 294.748 15.8C294.214 14.9467 293.508 14.3067 292.628 13.88C291.748 13.4267 290.788 13.2 289.748 13.2C288.574 13.2 287.534 13.48 286.628 14.04C285.748 14.5733 285.054 15.3333 284.548 16.32C284.041 17.3067 283.788 18.48 283.788 19.84C283.788 21.1733 284.041 22.3333 284.548 23.32C285.054 24.3067 285.748 25.0667 286.628 25.6C287.534 26.1333 288.574 26.4 289.748 26.4ZM306.973 31V1.8H312.533V18.84H311.573C311.573 16.6533 311.853 14.8 312.413 13.28C312.973 11.76 313.799 10.6 314.893 9.8C316.013 9 317.426 8.6 319.133 8.6H319.373C321.853 8.6 323.733 9.45333 325.013 11.16C326.293 12.8667 326.933 15.3467 326.933 18.6V31H321.373V18.08C321.373 16.6933 320.973 15.6 320.173 14.8C319.399 14 318.373 13.6 317.093 13.6C315.733 13.6 314.626 14.0533 313.773 14.96C312.946 15.84 312.533 17 312.533 18.44V31H306.973ZM333.19 31V1.8H338.75V31H333.19ZM330.47 5.96V1.8H338.75V5.96H330.47ZM346.138 31V9.28H351.698V31H346.138ZM343.098 13.44V9.28H351.698V13.44H343.098ZM348.178 6.68C347.084 6.68 346.271 6.4 345.738 5.84C345.231 5.25333 344.978 4.53333 344.978 3.68C344.978 2.77333 345.231 2.04 345.738 1.48C346.271 0.919998 347.084 0.639997 348.178 0.639997C349.271 0.639997 350.071 0.919998 350.578 1.48C351.084 2.04 351.338 2.77333 351.338 3.68C351.338 4.53333 351.084 5.25333 350.578 5.84C350.071 6.4 349.271 6.68 348.178 6.68ZM366.585 39.56C365.545 39.56 364.479 39.52 363.385 39.44C362.319 39.36 361.319 39.2533 360.385 39.12V34.48C361.345 34.5867 362.372 34.68 363.465 34.76C364.559 34.8667 365.585 34.92 366.545 34.92C368.332 34.92 369.772 34.7067 370.865 34.28C371.985 33.8533 372.799 33.1733 373.305 32.24C373.839 31.3333 374.105 30.1733 374.105 28.76V24.48L375.305 21.76C375.225 23.76 374.812 25.4667 374.065 26.88C373.319 28.2667 372.305 29.3333 371.025 30.08C369.745 30.8 368.265 31.16 366.585 31.16C365.092 31.16 363.732 30.88 362.505 30.32C361.305 29.76 360.265 28.9867 359.385 28C358.532 27.0133 357.865 25.8533 357.385 24.52C356.905 23.1867 356.665 21.76 356.665 20.24V19.4C356.665 17.88 356.905 16.4667 357.385 15.16C357.892 13.8267 358.599 12.6667 359.505 11.68C360.412 10.6933 361.492 9.93333 362.745 9.4C363.999 8.86667 365.385 8.6 366.905 8.6C368.692 8.6 370.239 8.98667 371.545 9.76C372.879 10.5333 373.919 11.6533 374.665 13.12C375.412 14.5867 375.825 16.3867 375.905 18.52L374.945 18.68V9.28H379.345V28.44C379.345 31.08 378.892 33.2133 377.985 34.84C377.079 36.4667 375.679 37.6533 373.785 38.4C371.919 39.1733 369.519 39.56 366.585 39.56ZM368.185 26.4C369.252 26.4 370.225 26.16 371.105 25.68C371.985 25.2 372.692 24.5067 373.225 23.6C373.759 22.6933 374.025 21.6 374.025 20.32V18.92C374.025 17.6933 373.745 16.6533 373.185 15.8C372.652 14.9467 371.945 14.3067 371.065 13.88C370.185 13.4267 369.225 13.2 368.185 13.2C367.012 13.2 365.972 13.48 365.065 14.04C364.185 14.5733 363.492 15.3333 362.985 16.32C362.479 17.3067 362.225 18.48 362.225 19.84C362.225 21.1733 362.479 22.3333 362.985 23.32C363.492 24.3067 364.185 25.0667 365.065 25.6C365.972 26.1333 367.012 26.4 368.185 26.4ZM385.41 31V1.8H390.97V18.84H390.01C390.01 16.6533 390.29 14.8 390.85 13.28C391.41 11.76 392.237 10.6 393.33 9.8C394.45 9 395.863 8.6 397.57 8.6H397.81C400.29 8.6 402.17 9.45333 403.45 11.16C404.73 12.8667 405.37 15.3467 405.37 18.6V31H399.81V18.08C399.81 16.6933 399.41 15.6 398.61 14.8C397.837 14 396.81 13.6 395.53 13.6C394.17 13.6 393.063 14.0533 392.21 14.96C391.383 15.84 390.97 17 390.97 18.44V31H385.41ZM420.788 31.28C418.788 31.28 417.134 31.0267 415.828 30.52C414.548 29.9867 413.588 29.1067 412.948 27.88C412.308 26.6267 411.988 24.9467 411.988 22.84L412.028 3.16H417.228L417.188 23.2C417.188 24.2667 417.468 25.0933 418.028 25.68C418.614 26.24 419.441 26.52 420.508 26.52H423.908V31.28H420.788ZM408.548 13.36V9.28H423.908V13.36H408.548ZM436.298 31.68C433.311 31.68 430.964 31.0533 429.258 29.8C427.578 28.52 426.698 26.76 426.618 24.52H431.618C431.698 25.2667 432.111 25.9467 432.858 26.56C433.604 27.1733 434.778 27.48 436.378 27.48C437.711 27.48 438.764 27.24 439.538 26.76C440.338 26.28 440.738 25.6267 440.738 24.8C440.738 24.08 440.431 23.5067 439.818 23.08C439.231 22.6533 438.218 22.3733 436.778 22.24L434.858 22.04C432.431 21.7733 430.564 21.08 429.258 19.96C427.951 18.84 427.298 17.3467 427.298 15.48C427.298 13.9867 427.671 12.7333 428.418 11.72C429.164 10.7067 430.191 9.94667 431.498 9.44C432.831 8.90667 434.351 8.64 436.058 8.64C438.724 8.64 440.884 9.22667 442.538 10.4C444.191 11.5733 445.058 13.2933 445.138 15.56H440.138C440.084 14.8133 439.711 14.1733 439.018 13.64C438.324 13.1067 437.324 12.84 436.018 12.84C434.844 12.84 433.938 13.0667 433.298 13.52C432.658 13.9733 432.338 14.56 432.338 15.28C432.338 15.9733 432.591 16.5067 433.098 16.88C433.631 17.2533 434.484 17.5067 435.658 17.64L437.578 17.84C440.138 18.1067 442.138 18.8133 443.578 19.96C445.044 21.1067 445.778 22.6533 445.778 24.6C445.778 26.04 445.378 27.2933 444.578 28.36C443.804 29.4 442.711 30.2133 441.298 30.8C439.884 31.3867 438.218 31.68 436.298 31.68Z" fill="#CAD1E9"/>
</svg>
