<svg width="58" height="11" viewBox="0 0 58 11" fill="none" xmlns="http://www.w3.org/2000/svg">
<path d="M4.33714 10.168C3.57181 10.168 2.89047 9.98133 2.29314 9.608C1.69581 9.22533 1.22447 8.67933 0.879141 7.97C0.533807 7.26067 0.361141 6.40667 0.361141 5.408C0.361141 4.41867 0.533807 3.56933 0.879141 2.86C1.23381 2.14133 1.71447 1.59533 2.32114 1.222C2.93714 0.839333 3.64181 0.647999 4.43514 0.647999C5.04181 0.647999 5.55047 0.769333 5.96114 1.012C6.37181 1.24533 6.70781 1.49733 6.96914 1.768L6.31114 2.51C6.08714 2.26733 5.82581 2.06667 5.52714 1.908C5.23781 1.74933 4.87381 1.67 4.43514 1.67C3.86581 1.67 3.36647 1.824 2.93714 2.132C2.50781 2.43067 2.17181 2.85533 1.92914 3.406C1.69581 3.95667 1.57914 4.61467 1.57914 5.38C1.57914 6.15467 1.69114 6.822 1.91514 7.382C2.13914 7.942 2.46114 8.376 2.88114 8.684C3.30114 8.992 3.80981 9.146 4.40714 9.146C4.72447 9.146 5.02781 9.09933 5.31714 9.006C5.60647 8.90333 5.83514 8.768 6.00314 8.6V6.206H4.16914V5.24H7.08114V9.104C6.79181 9.40267 6.40914 9.65467 5.93314 9.86C5.46647 10.0653 4.93447 10.168 4.33714 10.168ZM8.46167 10L11.5557 0.816H12.8717L15.9657 10H14.7337L13.1377 4.862C12.979 4.34867 12.8203 3.84 12.6617 3.336C12.5123 2.82267 12.3677 2.3 12.2277 1.768H12.1717C12.0223 2.3 11.873 2.82267 11.7237 3.336C11.5743 3.84 11.4203 4.34867 11.2617 4.862L9.65167 10H8.46167ZM10.0857 7.2V6.262H14.2997V7.2H10.0857ZM18.2842 10V0.816H19.4322V9.006H23.9822V10H18.2842ZM26.6787 10V0.816H27.8267V9.006H32.3767V10H26.6787ZM33.6453 10L36.7393 0.816H38.0553L41.1493 10H39.9173L38.3213 4.862C38.1626 4.34867 38.0039 3.84 37.8453 3.336C37.6959 2.82267 37.5513 2.3 37.4113 1.768H37.3553C37.2059 2.3 37.0566 2.82267 36.9073 3.336C36.7579 3.84 36.6039 4.34867 36.4453 4.862L34.8353 10H33.6453ZM35.2693 7.2V6.262H39.4833V7.2H35.2693ZM42.9918 10V0.816H45.8478C46.4731 0.816 47.0238 0.9 47.4998 1.068C47.9851 1.22667 48.3631 1.49733 48.6338 1.88C48.9138 2.25333 49.0538 2.75733 49.0538 3.392C49.0538 4.008 48.9138 4.51667 48.6338 4.918C48.3631 5.31933 47.9851 5.62267 47.4998 5.828C47.0238 6.024 46.4731 6.122 45.8478 6.122H44.1538V10H42.9918ZM44.1538 5.17H45.6798C46.3985 5.17 46.9445 5.02533 47.3178 4.736C47.7005 4.43733 47.8918 3.98933 47.8918 3.392C47.8918 2.79467 47.7005 2.37467 47.3178 2.132C46.9445 1.88 46.3985 1.754 45.6798 1.754H44.1538V5.17ZM45.6098 5.8L46.5338 5.184L49.3338 10H48.0038L45.6098 5.8ZM53.5983 10V6.724L50.5183 0.816H51.7503L53.1363 3.546C53.3137 3.89133 53.4863 4.24133 53.6543 4.596C53.8223 4.95067 53.9997 5.31467 54.1863 5.688H54.2423C54.429 5.31467 54.611 4.95067 54.7883 4.596C54.9657 4.24133 55.143 3.88667 55.3203 3.532L56.6503 0.816H57.8543L54.7743 6.724V10H53.5983Z" fill="#CAD1E9"/>
</svg>
