<svg width="94" height="23" viewBox="0 0 94 23" fill="none" xmlns="http://www.w3.org/2000/svg">
<path d="M0.771621 21.8887L7.46018 1.25511H11.7509L18.4395 21.8887H14.5589L11.4354 10.9093C11.141 9.81562 10.8255 8.69034 10.489 7.53352C10.1735 6.37669 9.87899 5.23038 9.60556 4.09459H9.47936C9.1849 5.23038 8.87992 6.37669 8.56442 7.53352C8.26995 8.69034 7.96497 9.81562 7.64947 10.9093L4.4945 21.8887H0.771621ZM4.71534 16.3044V13.4333H14.4011V16.3044H4.71534ZM21.7715 21.8887V1.25511H28.1761C29.5853 1.25511 30.8368 1.42338 31.9305 1.75991C33.0452 2.07541 33.9181 2.60124 34.5491 3.3374C35.1801 4.07356 35.4956 5.07264 35.4956 6.33463C35.4956 7.30215 35.2011 8.2171 34.6122 9.07946C34.0443 9.92079 33.1504 10.4992 31.9305 10.8147V10.9409C33.4238 11.1933 34.5702 11.7191 35.3694 12.5184C36.1687 13.3176 36.5683 14.4219 36.5683 15.8311C36.5683 17.1983 36.2318 18.3341 35.5587 19.2385C34.8856 20.1429 33.9497 20.816 32.7508 21.2577C31.5729 21.6783 30.2268 21.8887 28.7124 21.8887H21.7715ZM25.4312 9.742H27.8606C29.2908 9.742 30.3214 9.48961 30.9524 8.98481C31.5834 8.48001 31.8989 7.74385 31.8989 6.77632C31.8989 5.82983 31.5729 5.16728 30.9209 4.78869C30.2689 4.38906 29.2698 4.18924 27.9237 4.18924H25.4312V9.742ZM25.4312 18.9545H28.3338C29.8482 18.9545 30.9945 18.6916 31.7727 18.1658C32.572 17.6189 32.9716 16.7566 32.9716 15.5787C32.9716 14.506 32.5825 13.7278 31.8043 13.244C31.0261 12.7603 29.8692 12.5184 28.3338 12.5184H25.4312V18.9545ZM47.4407 22.2673C45.8421 22.2673 44.4329 21.8466 43.213 21.0053C41.9931 20.164 41.036 18.944 40.342 17.3455C39.6689 15.747 39.3324 13.7909 39.3324 11.4772C39.3324 9.22669 39.6689 7.31267 40.342 5.73518C41.036 4.13666 41.9931 2.92725 43.213 2.10696C44.4329 1.28666 45.8421 0.876514 47.4407 0.876514C49.0392 0.876514 50.4484 1.28666 51.6683 2.10696C52.8883 2.92725 53.8347 4.13666 54.5078 5.73518C55.2019 7.31267 55.549 9.22669 55.549 11.4772C55.549 13.7909 55.2019 15.747 54.5078 17.3455C53.8347 18.944 52.8883 20.164 51.6683 21.0053C50.4484 21.8466 49.0392 22.2673 47.4407 22.2673ZM47.4407 19.0807C48.324 19.0807 49.0918 18.7863 49.7438 18.1973C50.3958 17.6084 50.9006 16.7461 51.2582 15.6103C51.6157 14.4745 51.7945 13.0968 51.7945 11.4772C51.7945 9.89975 51.6157 8.56414 51.2582 7.47042C50.9006 6.35566 50.3958 5.51433 49.7438 4.94644C49.0918 4.35751 48.324 4.06304 47.4407 4.06304C46.5573 4.06304 45.7896 4.35751 45.1375 4.94644C44.4855 5.51433 43.9807 6.35566 43.6231 7.47042C43.2656 8.56414 43.0868 9.89975 43.0868 11.4772C43.0868 13.0968 43.2656 14.4745 43.6231 15.6103C43.9807 16.7461 44.4855 17.6084 45.1375 18.1973C45.7896 18.7863 46.5573 19.0807 47.4407 19.0807ZM66.3898 22.2673C65.254 22.2673 64.2338 22.099 63.3294 21.7625C62.446 21.4259 61.6888 20.9211 61.0578 20.2481C60.4479 19.575 59.9746 18.7232 59.6381 17.6926C59.3226 16.6409 59.1648 15.4104 59.1648 14.0012V1.25511H62.8246V14.2852C62.8246 15.3999 62.9613 16.3149 63.2348 17.03C63.5292 17.7241 63.9499 18.2394 64.4968 18.5759C65.0436 18.9125 65.6746 19.0807 66.3898 19.0807C67.1469 19.0807 67.7885 18.9125 68.3143 18.5759C68.8612 18.2394 69.2818 17.7241 69.5763 17.03C69.8918 16.3149 70.0495 15.3999 70.0495 14.2852V1.25511H73.5516V14.0012C73.5516 15.4104 73.3938 16.6409 73.0783 17.6926C72.7628 18.7232 72.2896 19.575 71.6586 20.2481C71.0486 20.9211 70.3019 21.4259 69.4185 21.7625C68.5351 22.099 67.5255 22.2673 66.3898 22.2673ZM83.4459 21.8887V4.31544H76.9466V1.25511H93.6049V4.31544H87.1056V21.8887H83.4459Z" fill="#CAD1E9"/>
</svg>
