<svg width="110" height="23" viewBox="0 0 110 23" fill="none" xmlns="http://www.w3.org/2000/svg">
<path d="M0.519159 21.8887V1.25511H13.7385V4.34699H4.17893V9.6158H12.2872V12.7077H4.17893V18.7968H14.054V21.8887H0.519159ZM23.5066 21.8887L17.0705 1.25511H20.9511L23.8537 11.635C24.2112 12.7918 24.5162 13.9066 24.7686 14.9793C25.0421 16.0309 25.347 17.1562 25.6836 18.3551H25.8098C26.1673 17.1562 26.4723 16.0309 26.7247 14.9793C26.9981 13.9066 27.2926 12.7918 27.6081 11.635L30.4791 1.25511H34.2336L27.8289 21.8887H23.5066ZM38.3543 21.8887V1.25511H51.5736V4.34699H42.014V9.6158H50.1223V12.7077H42.014V18.7968H51.8891V21.8887H38.3543ZM56.3569 21.8887V1.25511H60.2059L65.664 12.8339L67.5255 17.2509H67.6201C67.557 16.1992 67.4519 15.0529 67.3046 13.8119C67.1784 12.571 67.1153 11.3721 67.1153 10.2153V1.25511H70.6174V21.8887H66.7683L61.3102 10.2783L59.4487 5.89293H59.3541C59.4172 6.98666 59.5118 8.14348 59.638 9.36341C59.7853 10.5623 59.8589 11.7296 59.8589 12.8654V21.8887H56.3569ZM80.5748 21.8887V4.31544H74.0755V1.25511H90.7338V4.31544H84.2345V21.8887H80.5748ZM101.385 22.2673C99.934 22.2673 98.5458 22.0044 97.2207 21.4785C95.8956 20.9527 94.7178 20.206 93.6872 19.2385L95.8325 16.7461C96.6108 17.4402 97.4942 18.008 98.4827 18.4497C99.4713 18.8704 100.512 19.0807 101.606 19.0807C102.805 19.0807 103.72 18.8494 104.351 18.3866C104.982 17.9029 105.297 17.3034 105.297 16.5883C105.297 15.9783 105.15 15.4946 104.856 15.137C104.561 14.7584 104.151 14.4429 103.625 14.1905C103.121 13.9381 102.521 13.6752 101.827 13.4018L99.0191 12.1713C98.3039 11.8769 97.5993 11.4983 96.9052 11.0355C96.2322 10.5728 95.6748 9.98389 95.2331 9.26876C94.8124 8.55363 94.6021 7.69127 94.6021 6.68167C94.6021 5.58795 94.9071 4.6099 95.517 3.74754C96.127 2.86415 96.9683 2.17005 98.041 1.66526C99.1348 1.13943 100.376 0.876514 101.764 0.876514C103.026 0.876514 104.225 1.1184 105.361 1.60216C106.517 2.06489 107.527 2.69588 108.389 3.49515L106.496 5.82983C105.802 5.26193 105.066 4.83075 104.288 4.53629C103.531 4.22079 102.626 4.06304 101.575 4.06304C100.607 4.06304 99.8183 4.27337 99.2084 4.69404C98.5984 5.1147 98.2934 5.71415 98.2934 6.49238C98.2934 7.01821 98.4617 7.44939 98.7982 7.78592C99.1348 8.12245 99.5659 8.41691 100.092 8.66931C100.639 8.92171 101.217 9.16359 101.827 9.39496L104.54 10.5623C105.424 10.8988 106.202 11.309 106.875 11.7927C107.548 12.2765 108.074 12.8759 108.452 13.5911C108.831 14.2852 109.02 15.137 109.02 16.1466C109.02 17.2614 108.715 18.2815 108.105 19.2069C107.495 20.1324 106.623 20.8791 105.487 21.447C104.351 21.9938 102.984 22.2673 101.385 22.2673Z" fill="#CAD1E9"/>
</svg>
