<svg width="131" height="23" viewBox="0 0 131 23" fill="none" xmlns="http://www.w3.org/2000/svg">
<path d="M9.91052 22.2673C8.1858 22.2673 6.61883 21.8571 5.2096 21.0368C3.82141 20.2165 2.71717 19.0176 1.89688 17.4402C1.09761 15.8416 0.697983 13.9066 0.697983 11.635C0.697983 9.38444 1.10813 7.4599 1.92843 5.86138C2.74872 4.24182 3.86348 3.01138 5.2727 2.17006C6.68193 1.30769 8.28045 0.876514 10.0683 0.876514C11.4354 0.876514 12.5923 1.14995 13.5387 1.69681C14.5063 2.22264 15.295 2.81157 15.905 3.4636L13.8858 5.73518C13.4231 5.23038 12.8867 4.83075 12.2768 4.53629C11.6878 4.22079 10.9517 4.06304 10.0683 4.06304C8.97454 4.06304 8.00702 4.36802 7.16569 4.97799C6.32436 5.56692 5.66182 6.41876 5.17805 7.53352C4.71532 8.64828 4.48396 9.98389 4.48396 11.5403C4.48396 13.0968 4.69429 14.4429 5.11495 15.5787C5.55665 16.7145 6.19816 17.5874 7.03949 18.1973C7.88082 18.7863 8.91144 19.0807 10.1314 19.0807C10.6782 19.0807 11.2041 19.0071 11.7089 18.8599C12.2137 18.6916 12.6133 18.4603 12.9078 18.1658V13.7173H9.34263V10.72H16.2205V19.8064C15.5474 20.4794 14.6535 21.0579 13.5387 21.5416C12.445 22.0254 11.2356 22.2673 9.91052 22.2673ZM18.7321 21.8887L25.4207 1.25511H29.7115L36.4 21.8887H32.5194L29.396 10.9093C29.1015 9.81562 28.786 8.69034 28.4495 7.53352C28.134 6.37669 27.8395 5.23038 27.5661 4.09459H27.4399C27.1454 5.23038 26.8404 6.37669 26.5249 7.53352C26.2305 8.69034 25.9255 9.81562 25.61 10.9093L22.455 21.8887H18.7321ZM22.6759 16.3044V13.4333H32.3616V16.3044H22.6759ZM40.8047 21.8887V1.25511H44.4329V18.7968H54.1187V21.8887H40.8047ZM59.7222 21.8887V1.25511H63.3504V18.7968H73.0362V21.8887H59.7222ZM75.4848 21.8887L82.1733 1.25511H86.4641L93.1527 21.8887H89.272L86.1486 10.9093C85.8541 9.81562 85.5386 8.69034 85.2021 7.53352C84.8866 6.37669 84.5922 5.23038 84.3187 4.09459H84.1925C83.8981 5.23038 83.5931 6.37669 83.2776 7.53352C82.9831 8.69034 82.6781 9.81562 82.3626 10.9093L79.2077 21.8887H75.4848ZM79.4285 16.3044V13.4333H89.1143V16.3044H79.4285ZM96.4215 21.8887V1.25511H103.299C104.73 1.25511 106.013 1.44441 107.148 1.82301C108.305 2.2016 109.22 2.84312 109.893 3.74754C110.566 4.63094 110.903 5.84035 110.903 7.37577C110.903 8.84809 110.566 10.0575 109.893 11.004C109.22 11.9505 108.305 12.6551 107.148 13.1178C106.013 13.5806 104.73 13.8119 103.299 13.8119H100.081V21.8887H96.4215ZM100.081 10.9093H102.921C104.351 10.9093 105.434 10.6149 106.17 10.026C106.928 9.43702 107.306 8.55363 107.306 7.37577C107.306 6.19791 106.928 5.37762 106.17 4.91489C105.434 4.43112 104.351 4.18924 102.921 4.18924H100.081V10.9093ZM102.637 12.8339L105.287 10.6569L111.723 21.8887H107.59L102.637 12.8339ZM120.324 21.8887V14.7269L113.541 1.25511H117.421L120.04 6.80787C120.398 7.5861 120.745 8.36433 121.081 9.14256C121.418 9.92079 121.775 10.7306 122.154 11.5719H122.28C122.638 10.7306 122.995 9.92079 123.353 9.14256C123.731 8.36433 124.099 7.57559 124.457 6.77632L126.981 1.25511H130.767L123.984 14.7269V21.8887H120.324Z" fill="#CAD1E9"/>
</svg>
