<svg width="72" height="23" viewBox="0 0 72 23" fill="none" xmlns="http://www.w3.org/2000/svg">
<path d="M0.336715 21.8887V1.25511H4.02804V9.5527H11.0952V1.25511H14.7865V21.8887H11.0952V12.7392H4.02804V21.8887H0.336715ZM26.4792 22.2673C24.8806 22.2673 23.4714 21.8466 22.2515 21.0053C21.0316 20.164 20.0746 18.944 19.3805 17.3455C18.7074 15.747 18.3709 13.7909 18.3709 11.4772C18.3709 9.22669 18.7074 7.31267 19.3805 5.73518C20.0746 4.13666 21.0316 2.92725 22.2515 2.10696C23.4714 1.28666 24.8806 0.876514 26.4792 0.876514C28.0777 0.876514 29.4869 1.28666 30.7068 2.10696C31.9268 2.92725 32.8733 4.13666 33.5463 5.73518C34.2404 7.31267 34.5875 9.22669 34.5875 11.4772C34.5875 13.7909 34.2404 15.747 33.5463 17.3455C32.8733 18.944 31.9268 20.164 30.7068 21.0053C29.4869 21.8466 28.0777 22.2673 26.4792 22.2673ZM26.4792 19.0807C27.3626 19.0807 28.1303 18.7863 28.7823 18.1973C29.4343 17.6084 29.9391 16.7461 30.2967 15.6103C30.6543 14.4745 30.833 13.0968 30.833 11.4772C30.833 9.89975 30.6543 8.56414 30.2967 7.47042C29.9391 6.35566 29.4343 5.51433 28.7823 4.94644C28.1303 4.35751 27.3626 4.06304 26.4792 4.06304C25.5958 4.06304 24.8281 4.35751 24.176 4.94644C23.524 5.51433 23.0192 6.35566 22.6616 7.47042C22.3041 8.56414 22.1253 9.89975 22.1253 11.4772C22.1253 13.0968 22.3041 14.4745 22.6616 15.6103C23.0192 16.7461 23.524 17.6084 24.176 18.1973C24.8281 18.7863 25.5958 19.0807 26.4792 19.0807ZM37.9825 21.8887V1.25511H42.0209L44.4818 9.30031L45.3336 12.3922H45.4598L46.2801 9.30031L48.7725 1.25511H52.8109V21.8887H49.5928V13.5595C49.5928 13.0127 49.6033 12.3712 49.6244 11.635C49.6664 10.8778 49.719 10.0891 49.7821 9.26876C49.8452 8.44846 49.9083 7.68075 49.9714 6.96562C50.0345 6.22946 50.0871 5.60898 50.1292 5.10419H50.0345L48.6463 9.89975L46.3748 16.4306H44.2925L42.0524 9.89975L40.6958 5.10419H40.6011C40.6642 5.60898 40.7273 6.22946 40.7904 6.96562C40.8535 7.68075 40.9061 8.44846 40.9482 9.26876C41.0113 10.0891 41.0534 10.8778 41.0744 11.635C41.1165 12.3712 41.1375 13.0127 41.1375 13.5595V21.8887H37.9825ZM58.0989 21.8887V1.25511H71.3183V4.34699H61.7587V9.6158H69.867V12.7077H61.7587V18.7968H71.6338V21.8887H58.0989Z" fill="#CAD1E9"/>
</svg>
