<svg width="129" height="23" viewBox="0 0 129 23" fill="none" xmlns="http://www.w3.org/2000/svg">
<path d="M6.95812 22.2673C5.82233 22.2673 4.6655 22.0044 3.48764 21.4785C2.30978 20.9527 1.32122 20.0798 0.521962 18.8599L2.66735 16.5883C3.27731 17.4086 3.93986 18.0291 4.65498 18.4497C5.39115 18.8704 6.12731 19.0807 6.86347 19.0807C8.12546 19.0807 9.06144 18.7547 9.6714 18.1027C10.2814 17.4296 10.5863 16.3149 10.5863 14.7584V4.31544H2.22565V1.25511H14.2461V15.0739C14.2461 16.399 14.0148 17.6084 13.552 18.7021C13.0893 19.7748 12.3321 20.6372 11.2804 21.2892C10.2288 21.9413 8.78801 22.2673 6.95812 22.2673ZM26.696 22.2673C25.0974 22.2673 23.6882 21.8466 22.4683 21.0053C21.2484 20.164 20.2914 18.944 19.5973 17.3455C18.9242 15.747 18.5877 13.7909 18.5877 11.4772C18.5877 9.22669 18.9242 7.31267 19.5973 5.73518C20.2914 4.13666 21.2484 2.92725 22.4683 2.10696C23.6882 1.28666 25.0974 0.876514 26.696 0.876514C28.2945 0.876514 29.7037 1.28666 30.9236 2.10696C32.1436 2.92725 33.0901 4.13666 33.7631 5.73518C34.4572 7.31267 34.8043 9.22669 34.8043 11.4772C34.8043 13.7909 34.4572 15.747 33.7631 17.3455C33.0901 18.944 32.1436 20.164 30.9236 21.0053C29.7037 21.8466 28.2945 22.2673 26.696 22.2673ZM26.696 19.0807C27.5794 19.0807 28.3471 18.7863 28.9991 18.1973C29.6511 17.6084 30.1559 16.7461 30.5135 15.6103C30.871 14.4745 31.0498 13.0968 31.0498 11.4772C31.0498 9.89975 30.871 8.56414 30.5135 7.47042C30.1559 6.35566 29.6511 5.51433 28.9991 4.94644C28.3471 4.35751 27.5794 4.06304 26.696 4.06304C25.8126 4.06304 25.0449 4.35751 24.3928 4.94644C23.7408 5.51433 23.236 6.35566 22.8784 7.47042C22.5209 8.56414 22.3421 9.89975 22.3421 11.4772C22.3421 13.0968 22.5209 14.4745 22.8784 15.6103C23.236 16.7461 23.7408 17.6084 24.3928 18.1973C25.0449 18.7863 25.8126 19.0807 26.696 19.0807ZM38.7988 21.8887V18.7968H43.7836V4.34699H38.7988V1.25511H52.4283V4.34699H47.4434V18.7968H52.4283V21.8887H38.7988ZM57.4008 21.8887V1.25511H61.2499L66.708 12.8339L68.5694 17.2509H68.6641C68.601 16.1992 68.4958 15.0529 68.3486 13.8119C68.2224 12.571 68.1593 11.3721 68.1593 10.2153V1.25511H71.6613V21.8887H67.8122L62.3541 10.2783L60.4927 5.89293H60.398C60.4611 6.98666 60.5558 8.14348 60.682 9.36341C60.8292 10.5623 60.9028 11.7296 60.9028 12.8654V21.8887H57.4008ZM102.398 22.2673C101.388 22.2673 100.452 22.12 99.5898 21.8256C98.7484 21.5101 98.0123 21.0368 97.3813 20.4058C96.7503 19.7538 96.256 18.902 95.8984 17.8503C95.5619 16.7986 95.3936 15.5366 95.3936 14.0643V1.19201H98.0438V14.1274C98.0438 15.5577 98.2331 16.704 98.6117 17.5664C98.9903 18.4077 99.5056 19.0176 100.158 19.3962C100.831 19.7748 101.577 19.9641 102.398 19.9641C103.239 19.9641 103.986 19.7748 104.638 19.3962C105.311 19.0176 105.837 18.4077 106.215 17.5664C106.594 16.704 106.783 15.5577 106.783 14.1274V1.19201H109.339V14.0643C109.339 15.5366 109.16 16.7986 108.802 17.8503C108.466 18.902 107.982 19.7538 107.351 20.4058C106.741 21.0368 106.015 21.5101 105.174 21.8256C104.333 22.12 103.407 22.2673 102.398 22.2673ZM121.441 22.2673C119.927 22.2673 118.528 21.9938 117.245 21.447C115.983 20.8791 114.879 20.1324 113.933 19.2069L115.51 17.3771C116.288 18.1553 117.193 18.7863 118.223 19.27C119.275 19.7328 120.39 19.9641 121.568 19.9641C122.998 19.9641 124.102 19.6592 124.88 19.0492C125.68 18.4392 126.079 17.6505 126.079 16.683C126.079 15.9468 125.911 15.3579 125.574 14.9162C125.259 14.4745 124.817 14.1064 124.249 13.8119C123.703 13.5175 123.072 13.223 122.356 12.9285L119.391 11.635C118.697 11.3405 118.003 10.9724 117.308 10.5307C116.635 10.0891 116.067 9.53167 115.605 8.85861C115.142 8.16451 114.911 7.31267 114.911 6.30308C114.911 5.25142 115.195 4.31544 115.762 3.49515C116.351 2.65382 117.161 2.00179 118.192 1.53906C119.222 1.0553 120.39 0.813414 121.694 0.813414C122.998 0.813414 124.197 1.0553 125.291 1.53906C126.384 2.00179 127.31 2.61175 128.067 3.36895L126.679 5.07263C126.006 4.46267 125.259 3.98943 124.439 3.6529C123.618 3.29533 122.672 3.11655 121.599 3.11655C120.4 3.11655 119.433 3.38998 118.697 3.93684C117.96 4.46267 117.592 5.19883 117.592 6.14533C117.592 6.79736 117.771 7.3337 118.129 7.75437C118.507 8.17503 118.981 8.52208 119.548 8.79551C120.116 9.06894 120.695 9.33186 121.284 9.58425L124.186 10.8462C125.049 11.1828 125.827 11.5929 126.521 12.0767C127.215 12.5394 127.762 13.1178 128.162 13.8119C128.561 14.506 128.761 15.3579 128.761 16.3675C128.761 17.4612 128.467 18.4603 127.878 19.3647C127.289 20.2481 126.447 20.9527 125.354 21.4785C124.26 22.0044 122.956 22.2673 121.441 22.2673Z" fill="#CAD1E9"/>
</svg>
