<svg width="73" height="21" viewBox="0 0 73 21" fill="none" xmlns="http://www.w3.org/2000/svg">
<path d="M6.86161 20.8887V3.31544H0.362355V0.255111H17.0206V3.31544H10.5214V20.8887H6.86161ZM21.3937 20.8887V0.255111H34.6131V3.34699H25.0535V8.6158H33.1618V11.7077H25.0535V17.7968H34.9286V20.8887H21.3937ZM37.6927 20.8887L44.3812 0.255111H48.672L55.3605 20.8887H51.4799L48.3565 9.90935C48.062 8.81562 47.7465 7.69034 47.41 6.53352C47.0945 5.37669 46.8 4.23038 46.5266 3.09459H46.4004C46.1059 4.23038 45.8009 5.37669 45.4855 6.53352C45.191 7.69034 44.886 8.81562 44.5705 9.90935L41.4155 20.8887H37.6927ZM41.6364 15.3044V12.4333H51.3222V15.3044H41.6364ZM58.0299 20.8887V0.255111H62.0683L64.5292 8.30031L65.381 11.3922H65.5072L66.3275 8.30031L68.82 0.255111H72.8583V20.8887H69.6403V12.5595C69.6403 12.0127 69.6508 11.3712 69.6718 10.635C69.7139 9.8778 69.7665 9.08905 69.8296 8.26876C69.8927 7.44846 69.9558 6.68075 70.0189 5.96562C70.082 5.22946 70.1345 4.60898 70.1766 4.10419H70.082L68.6938 8.89975L66.4222 15.4306H64.3399L62.0999 8.89975L60.7432 4.10419H60.6486C60.7117 4.60898 60.7748 5.22946 60.8379 5.96562C60.901 6.68075 60.9536 7.44846 60.9956 8.26876C61.0587 9.08905 61.1008 9.8778 61.1218 10.635C61.1639 11.3712 61.1849 12.0127 61.1849 12.5595V20.8887H58.0299Z" fill="#CAD1E9"/>
</svg>
