<svg width="311" height="71" viewBox="0 0 311 71" fill="none" xmlns="http://www.w3.org/2000/svg">
<path d="M0.509604 17.8887L5.85851 0.708948H10.496L15.8449 17.8887H11.7344L9.52105 9.19341C9.31026 8.33267 9.0819 7.41923 8.83597 6.45309C8.59005 5.48695 8.36169 4.55594 8.15089 3.66007H8.0455C7.8347 4.55594 7.61512 5.48695 7.38676 6.45309C7.1584 7.41923 6.93004 8.33267 6.70168 9.19341L4.462 17.8887H0.509604ZM4.04041 13.8045V10.7744H12.2614V13.8045H4.04041ZM23.7015 18.2049C22.5421 18.2049 21.3915 17.9941 20.2497 17.5725C19.1255 17.1509 18.0979 16.5361 17.1669 15.728L19.4066 13.0668C20.0565 13.5937 20.7679 14.0241 21.5409 14.3579C22.3313 14.6916 23.1394 14.8585 23.965 14.8585C24.7906 14.8585 25.3966 14.718 25.7831 14.4369C26.1871 14.1559 26.3891 13.7958 26.3891 13.3566C26.3891 12.9526 26.2837 12.6364 26.0729 12.408C25.8621 12.1621 25.5547 11.9513 25.1507 11.7756C24.7467 11.5824 24.2724 11.3716 23.7278 11.1433L21.5145 10.1947C20.8821 9.94876 20.2849 9.62378 19.7228 9.21976C19.1606 8.79817 18.7039 8.28875 18.3526 7.6915C18.0188 7.07669 17.852 6.34769 17.852 5.50451C17.852 4.55594 18.1154 3.70398 18.6424 2.94864C19.187 2.17572 19.9248 1.56091 20.8558 1.10419C21.8043 0.629899 22.9022 0.392756 24.1494 0.392756C25.1858 0.392756 26.2047 0.585984 27.2059 0.97244C28.2072 1.3589 29.0943 1.92101 29.8672 2.65879L27.891 5.10928C27.2938 4.67012 26.6965 4.33636 26.0993 4.108C25.502 3.86208 24.7818 3.73911 23.9386 3.73911C23.3063 3.73911 22.7881 3.87086 22.384 4.13435C21.98 4.39785 21.778 4.7843 21.778 5.29372C21.778 5.62748 21.901 5.90854 22.1469 6.1369C22.3928 6.36526 22.7266 6.56727 23.1482 6.74293C23.5697 6.91859 24.0528 7.11182 24.5974 7.32261L26.679 8.21849C27.4519 8.49955 28.1106 8.85087 28.6552 9.27246C29.1997 9.67648 29.6213 10.1771 29.9199 10.7744C30.2185 11.3716 30.3679 12.0743 30.3679 12.8823C30.3679 13.8309 30.1044 14.7092 29.5774 15.5172C29.068 16.3253 28.3126 16.9752 27.3113 17.4671C26.3276 17.9589 25.1244 18.2049 23.7015 18.2049ZM39.2784 18.2049C38.1191 18.2049 36.9685 17.9941 35.8267 17.5725C34.7025 17.1509 33.6748 16.5361 32.7438 15.728L34.9835 13.0668C35.6335 13.5937 36.3449 14.0241 37.1178 14.3579C37.9083 14.6916 38.7163 14.8585 39.5419 14.8585C40.3675 14.8585 40.9736 14.718 41.36 14.4369C41.7641 14.1559 41.9661 13.7958 41.9661 13.3566C41.9661 12.9526 41.8607 12.6364 41.6499 12.408C41.4391 12.1621 41.1317 11.9513 40.7276 11.7756C40.3236 11.5824 39.8493 11.3716 39.3048 11.1433L37.0915 10.1947C36.4591 9.94876 35.8618 9.62378 35.2997 9.21976C34.7376 8.79817 34.2809 8.28875 33.9295 7.6915C33.5958 7.07669 33.4289 6.34769 33.4289 5.50451C33.4289 4.55594 33.6924 3.70398 34.2194 2.94864C34.7639 2.17572 35.5017 1.56091 36.4327 1.10419C37.3813 0.629899 38.4792 0.392756 39.7264 0.392756C40.7628 0.392756 41.7816 0.585984 42.7829 0.97244C43.7842 1.3589 44.6713 1.92101 45.4442 2.65879L43.468 5.10928C42.8707 4.67012 42.2735 4.33636 41.6762 4.108C41.079 3.86208 40.3588 3.73911 39.5156 3.73911C38.8832 3.73911 38.365 3.87086 37.961 4.13435C37.557 4.39785 37.3549 4.7843 37.3549 5.29372C37.3549 5.62748 37.4779 5.90854 37.7238 6.1369C37.9698 6.36526 38.3035 6.56727 38.7251 6.74293C39.1467 6.91859 39.6298 7.11182 40.1743 7.32261L42.2559 8.21849C43.0288 8.49955 43.6876 8.85087 44.2321 9.27246C44.7767 9.67648 45.1982 10.1771 45.4969 10.7744C45.7955 11.3716 45.9448 12.0743 45.9448 12.8823C45.9448 13.8309 45.6813 14.7092 45.1543 15.5172C44.6449 16.3253 43.8896 16.9752 42.8883 17.4671C41.9046 17.9589 40.7013 18.2049 39.2784 18.2049ZM54.9081 18.2049C53.5379 18.2049 52.3346 17.8623 51.2982 17.1772C50.2618 16.4922 49.4538 15.4909 48.8741 14.1734C48.2944 12.8384 48.0046 11.1872 48.0046 9.21976C48.0046 7.30505 48.2944 5.69774 48.8741 4.39785C49.4538 3.08038 50.2618 2.08789 51.2982 1.42038C52.3346 0.735297 53.5379 0.392756 54.9081 0.392756C56.2782 0.392756 57.4815 0.735297 58.5179 1.42038C59.5543 2.08789 60.3624 3.08038 60.9421 4.39785C61.5218 5.69774 61.8116 7.30505 61.8116 9.21976C61.8116 11.1872 61.5218 12.8384 60.9421 14.1734C60.3624 15.4909 59.5543 16.4922 58.5179 17.1772C57.4815 17.8623 56.2782 18.2049 54.9081 18.2049ZM54.9081 14.8585C55.5053 14.8585 56.0235 14.6477 56.4627 14.2261C56.9018 13.787 57.2356 13.1546 57.464 12.329C57.7099 11.4858 57.8329 10.4494 57.8329 9.21976C57.8329 8.02526 57.7099 7.02399 57.464 6.21594C57.2356 5.4079 56.9018 4.79308 56.4627 4.3715C56.0235 3.94991 55.5053 3.73911 54.9081 3.73911C54.3108 3.73911 53.7926 3.94991 53.3535 4.3715C52.9143 4.79308 52.5718 5.4079 52.3259 6.21594C52.0975 7.02399 51.9833 8.02526 51.9833 9.21976C51.9833 10.4494 52.0975 11.4858 52.3259 12.329C52.5718 13.1546 52.9143 13.787 53.3535 14.2261C53.7926 14.6477 54.3108 14.8585 54.9081 14.8585ZM71.9606 18.2049C70.8891 18.2049 69.8702 18.0204 68.9041 17.6515C67.9555 17.2826 67.1123 16.7293 66.3745 15.9915C65.6368 15.2362 65.0571 14.314 64.6355 13.2249C64.2139 12.1182 64.0031 10.8446 64.0031 9.40421C64.0031 7.50706 64.3632 5.89097 65.0834 4.55594C65.8212 3.20335 66.8049 2.17572 68.0346 1.47308C69.2818 0.752863 70.6695 0.392756 72.1977 0.392756C73.2868 0.392756 74.2705 0.621116 75.1489 1.07784C76.0272 1.51699 76.7562 2.01763 77.3358 2.57975L75.2016 4.97753C74.7975 4.59107 74.3496 4.29245 73.8577 4.08165C73.3835 3.85329 72.8301 3.73911 72.1977 3.73911C71.3897 3.73911 70.6695 3.96747 70.0371 4.42419C69.4047 4.86335 68.9041 5.49573 68.5352 6.32134C68.1663 7.14695 67.9819 8.13066 67.9819 9.27246C67.9819 10.4494 68.1663 11.4594 68.5352 12.3026C68.9041 13.1282 69.4135 13.7606 70.0634 14.1998C70.731 14.6389 71.4951 14.8585 72.3558 14.8585C72.9882 14.8585 73.5591 14.718 74.0685 14.4369C74.578 14.1559 75.0435 13.787 75.465 13.3302L77.5993 15.6753C76.8967 16.5009 76.0711 17.1333 75.1225 17.5725C74.1739 17.9941 73.12 18.2049 71.9606 18.2049ZM80.107 17.8887V14.6214H84.1121V3.97626H80.107V0.708948H92.0169V3.97626H88.0118V14.6214H92.0169V17.8887H80.107ZM93.9713 17.8887L99.3202 0.708948H103.958L109.307 17.8887H105.196L102.983 9.19341C102.772 8.33267 102.544 7.41923 102.298 6.45309C102.052 5.48695 101.823 4.55594 101.613 3.66007H101.507C101.296 4.55594 101.077 5.48695 100.848 6.45309C100.62 7.41923 100.392 8.33267 100.163 9.19341L97.9237 17.8887H93.9713ZM97.5021 13.8045V10.7744H105.723V13.8045H97.5021ZM115.266 17.8887V3.97626H110.128V0.708948H124.304V3.97626H119.166V17.8887H115.266ZM126.838 17.8887V14.6214H130.843V3.97626H126.838V0.708948H138.748V3.97626H134.743V14.6214H138.748V17.8887H126.838ZM148.37 18.2049C147 18.2049 145.796 17.8623 144.76 17.1772C143.724 16.4922 142.915 15.4909 142.336 14.1734C141.756 12.8384 141.466 11.1872 141.466 9.21976C141.466 7.30505 141.756 5.69774 142.336 4.39785C142.915 3.08038 143.724 2.08789 144.76 1.42038C145.796 0.735297 147 0.392756 148.37 0.392756C149.74 0.392756 150.943 0.735297 151.98 1.42038C153.016 2.08789 153.824 3.08038 154.404 4.39785C154.983 5.69774 155.273 7.30505 155.273 9.21976C155.273 11.1872 154.983 12.8384 154.404 14.1734C153.824 15.4909 153.016 16.4922 151.98 17.1772C150.943 17.8623 149.74 18.2049 148.37 18.2049ZM148.37 14.8585C148.967 14.8585 149.485 14.6477 149.924 14.2261C150.364 13.787 150.697 13.1546 150.926 12.329C151.172 11.4858 151.295 10.4494 151.295 9.21976C151.295 8.02526 151.172 7.02399 150.926 6.21594C150.697 5.4079 150.364 4.79308 149.924 4.3715C149.485 3.94991 148.967 3.73911 148.37 3.73911C147.773 3.73911 147.254 3.94991 146.815 4.3715C146.376 4.79308 146.033 5.4079 145.788 6.21594C145.559 7.02399 145.445 8.02526 145.445 9.21976C145.445 10.4494 145.559 11.4858 145.788 12.329C146.033 13.1546 146.376 13.787 146.815 14.2261C147.254 14.6477 147.773 14.8585 148.37 14.8585ZM157.781 17.8887V0.708948H161.76L165.37 9.24611L166.845 13.0404H166.951C166.863 12.127 166.749 11.1081 166.608 9.98389C166.467 8.85965 166.397 7.7969 166.397 6.79563V0.708948H170.112V17.8887H166.134L162.524 9.32516L161.048 5.58356H160.943C161.031 6.51457 161.145 7.53341 161.285 8.64008C161.426 9.72918 161.496 10.7832 161.496 11.802V17.8887H157.781ZM189.963 17.8887V0.708948H201.372V3.97626H193.836V7.955H200.265V11.2223H193.836V17.8887H189.963ZM210.678 18.2049C209.307 18.2049 208.104 17.8623 207.068 17.1772C206.031 16.4922 205.223 15.4909 204.644 14.1734C204.064 12.8384 203.774 11.1872 203.774 9.21976C203.774 7.30505 204.064 5.69774 204.644 4.39785C205.223 3.08038 206.031 2.08789 207.068 1.42038C208.104 0.735297 209.307 0.392756 210.678 0.392756C212.048 0.392756 213.251 0.735297 214.287 1.42038C215.324 2.08789 216.132 3.08038 216.712 4.39785C217.291 5.69774 217.581 7.30505 217.581 9.21976C217.581 11.1872 217.291 12.8384 216.712 14.1734C216.132 15.4909 215.324 16.4922 214.287 17.1772C213.251 17.8623 212.048 18.2049 210.678 18.2049ZM210.678 14.8585C211.275 14.8585 211.793 14.6477 212.232 14.2261C212.671 13.787 213.005 13.1546 213.233 12.329C213.479 11.4858 213.602 10.4494 213.602 9.21976C213.602 8.02526 213.479 7.02399 213.233 6.21594C213.005 5.4079 212.671 4.79308 212.232 4.3715C211.793 3.94991 211.275 3.73911 210.678 3.73911C210.08 3.73911 209.562 3.94991 209.123 4.3715C208.684 4.79308 208.341 5.4079 208.095 6.21594C207.867 7.02399 207.753 8.02526 207.753 9.21976C207.753 10.4494 207.867 11.4858 208.095 12.329C208.341 13.1546 208.684 13.787 209.123 14.2261C209.562 14.6477 210.08 14.8585 210.678 14.8585ZM220.194 17.8887V0.708948H226.281C227.493 0.708948 228.6 0.875826 229.601 1.20958C230.602 1.52577 231.401 2.07911 231.999 2.86959C232.613 3.6425 232.921 4.70525 232.921 6.05785C232.921 7.37531 232.613 8.44685 231.999 9.27246C231.401 10.0981 230.602 10.7129 229.601 11.1169C228.6 11.5034 227.493 11.6966 226.281 11.6966H224.068V17.8887H220.194ZM224.068 8.61373H225.965C226.984 8.61373 227.756 8.40293 228.283 7.98135C228.828 7.54219 229.1 6.90103 229.1 6.05785C229.1 5.21467 228.828 4.62621 228.283 4.29245C227.756 3.95869 226.984 3.79181 225.965 3.79181H224.068V8.61373ZM225.569 10.6953L228.257 8.19214L233.738 17.8887H229.39L225.569 10.6953ZM9.6528 44.2049C8.58126 44.2049 7.56243 44.0204 6.59629 43.6515C5.64771 43.2826 4.80454 42.7293 4.06676 41.9915C3.32898 41.2362 2.74929 40.314 2.3277 39.2249C1.90612 38.1182 1.69532 36.8446 1.69532 35.4042C1.69532 33.5071 2.05543 31.891 2.77564 30.5559C3.51342 29.2033 4.49713 28.1757 5.72676 27.4731C6.97396 26.7529 8.36169 26.3928 9.88994 26.3928C10.979 26.3928 11.9628 26.6211 12.8411 27.0778C13.7194 27.517 14.4484 28.0176 15.0281 28.5797L12.8938 30.9775C12.4897 30.5911 12.0418 30.2924 11.5499 30.0817C11.0757 29.8533 10.5223 29.7391 9.88994 29.7391C9.0819 29.7391 8.36169 29.9675 7.7293 30.4242C7.09692 30.8633 6.59629 31.4957 6.2274 32.3213C5.85851 33.147 5.67406 34.1307 5.67406 35.2725C5.67406 36.4494 5.85851 37.4594 6.2274 38.3026C6.59629 39.1282 7.10571 39.7606 7.75565 40.1998C8.42317 40.6389 9.1873 40.8585 10.048 40.8585C10.6804 40.8585 11.2513 40.718 11.7607 40.4369C12.2702 40.1559 12.7357 39.787 13.1573 39.3302L15.2915 41.6753C14.5889 42.5009 13.7633 43.1333 12.8147 43.5725C11.8661 43.9941 10.8122 44.2049 9.6528 44.2049ZM23.7542 44.2049C22.384 44.2049 21.1807 43.8623 20.1443 43.1772C19.1079 42.4922 18.2999 41.4909 17.7202 40.1734C17.1405 38.8384 16.8507 37.1872 16.8507 35.2198C16.8507 33.305 17.1405 31.6977 17.7202 30.3978C18.2999 29.0804 19.1079 28.0879 20.1443 27.4204C21.1807 26.7353 22.384 26.3928 23.7542 26.3928C25.1244 26.3928 26.3276 26.7353 27.364 27.4204C28.4004 28.0879 29.2085 29.0804 29.7882 30.3978C30.3679 31.6977 30.6577 33.305 30.6577 35.2198C30.6577 37.1872 30.3679 38.8384 29.7882 40.1734C29.2085 41.4909 28.4004 42.4922 27.364 43.1772C26.3276 43.8623 25.1244 44.2049 23.7542 44.2049ZM23.7542 40.8585C24.3514 40.8585 24.8696 40.6477 25.3088 40.2261C25.748 39.787 26.0817 39.1546 26.3101 38.329C26.556 37.4858 26.679 36.4494 26.679 35.2198C26.679 34.0253 26.556 33.024 26.3101 32.2159C26.0817 31.4079 25.748 30.7931 25.3088 30.3715C24.8696 29.9499 24.3514 29.7391 23.7542 29.7391C23.1569 29.7391 22.6387 29.9499 22.1996 30.3715C21.7604 30.7931 21.4179 31.4079 21.172 32.2159C20.9436 33.024 20.8294 34.0253 20.8294 35.2198C20.8294 36.4494 20.9436 37.4858 21.172 38.329C21.4179 39.1546 21.7604 39.787 22.1996 40.2261C22.6387 40.6477 23.1569 40.8585 23.7542 40.8585ZM32.9546 43.8887V26.7089H37.0124L38.6988 32.7956L39.2784 35.1671H39.3838L39.9635 32.7956L41.6499 26.7089H45.7077V43.8887H42.4404V38.5661C42.4404 38.0918 42.4579 37.5034 42.4931 36.8007C42.5282 36.0805 42.5721 35.3339 42.6248 34.561C42.6775 33.7881 42.7302 33.0503 42.7829 32.3477C42.8532 31.645 42.9059 31.0654 42.941 30.6086H42.8619L41.5445 35.1934L40.227 39.3302H38.3299L36.9861 35.1934L35.7476 30.6086H35.6686C35.7037 31.0654 35.7476 31.645 35.8003 32.3477C35.8706 33.0503 35.9321 33.7881 35.9848 34.561C36.0375 35.3339 36.0814 36.0805 36.1165 36.8007C36.1517 37.5034 36.1692 38.0918 36.1692 38.5661V43.8887H32.9546ZM48.9795 43.8887V26.7089H55.0662C56.3134 26.7089 57.4376 26.8846 58.4389 27.2359C59.4577 27.5697 60.2658 28.1406 60.863 28.9486C61.4778 29.7567 61.7852 30.8546 61.7852 32.2423C61.7852 33.5773 61.4778 34.6752 60.863 35.536C60.2482 36.3967 59.4314 37.0379 58.4125 37.4594C57.3937 37.8635 56.2782 38.0655 55.0662 38.0655H52.8528V43.8887H48.9795ZM52.8528 34.9826H54.829C55.9006 34.9826 56.6911 34.7455 57.2005 34.2712C57.7275 33.7969 57.9909 33.1206 57.9909 32.2423C57.9909 31.3289 57.7187 30.6965 57.1741 30.3451C56.6471 29.9763 55.8654 29.7918 54.829 29.7918H52.8528V34.9826ZM70.5377 44.2049C69.4838 44.2049 68.5615 44.0556 67.7711 43.7569C66.9981 43.4407 66.3482 42.9928 65.8212 42.4131C65.3118 41.8159 64.9253 41.0956 64.6618 40.2525C64.3984 39.3917 64.2666 38.3992 64.2666 37.275V26.7089H68.1399V37.6702C68.1399 38.3553 68.2278 38.935 68.4034 39.4093C68.5791 39.8836 68.8426 40.2437 69.1939 40.4896C69.5452 40.7355 69.9932 40.8585 70.5377 40.8585C71.0823 40.8585 71.5302 40.7355 71.8815 40.4896C72.2504 40.2437 72.5227 39.8836 72.6984 39.4093C72.874 38.935 72.9619 38.3553 72.9619 37.6702V26.7089H76.7035V37.275C76.7035 38.3992 76.5805 39.3917 76.3346 40.2525C76.0886 41.0956 75.7022 41.8159 75.1752 42.4131C74.6658 42.9928 74.0246 43.4407 73.2517 43.7569C72.4788 44.0556 71.5741 44.2049 70.5377 44.2049ZM84.1121 43.8887V29.9763H78.974V26.7089H93.1499V29.9763H88.0118V43.8887H84.1121ZM95.684 43.8887V40.6214H99.6891V29.9763H95.684V26.7089H107.594V29.9763H103.589V40.6214H107.594V43.8887H95.684ZM111.05 43.8887V26.7089H115.029L118.639 35.2461L120.114 39.0404H120.22C120.132 38.127 120.018 37.1081 119.877 35.9839C119.737 34.8597 119.666 33.7969 119.666 32.7956V26.7089H123.382V43.8887H119.403L115.793 35.3252L114.317 31.5836H114.212C114.3 32.5146 114.414 33.5334 114.555 34.6401C114.695 35.7292 114.765 36.7832 114.765 37.802V43.8887H111.05ZM133.926 44.2049C132.468 44.2049 131.142 43.8799 129.947 43.2299C128.753 42.5624 127.804 41.5787 127.101 40.2788C126.399 38.9614 126.047 37.3365 126.047 35.4042C126.047 33.4895 126.399 31.8646 127.101 30.5296C127.804 29.177 128.753 28.1494 129.947 27.4467C131.159 26.7441 132.503 26.3928 133.979 26.3928C135.138 26.3928 136.13 26.6211 136.956 27.0778C137.782 27.517 138.467 28.0176 139.011 28.5797L136.877 30.9775C136.508 30.6086 136.104 30.31 135.665 30.0817C135.226 29.8533 134.664 29.7391 133.979 29.7391C133.241 29.7391 132.573 29.9675 131.976 30.4242C131.379 30.8633 130.904 31.4957 130.553 32.3213C130.219 33.147 130.053 34.1307 130.053 35.2725C130.053 36.4494 130.202 37.4594 130.5 38.3026C130.799 39.1282 131.256 39.7606 131.871 40.1998C132.485 40.6389 133.241 40.8585 134.137 40.8585C134.47 40.8585 134.787 40.8146 135.085 40.7268C135.401 40.6389 135.647 40.5072 135.823 40.3315V37.3804H133.32V34.2185H139.301V42.1233C138.721 42.6678 137.949 43.1509 136.982 43.5725C136.034 43.9941 135.015 44.2049 133.926 44.2049ZM157.57 43.8887V26.7089H161.628L163.314 32.7956L163.894 35.1671H163.999L164.579 32.7956L166.265 26.7089H170.323V43.8887H167.056V38.5661C167.056 38.0918 167.073 37.5034 167.109 36.8007C167.144 36.0805 167.188 35.3339 167.24 34.561C167.293 33.7881 167.346 33.0503 167.398 32.3477C167.469 31.645 167.521 31.0654 167.557 30.6086H167.478L166.16 35.1934L164.843 39.3302H162.945L161.602 35.1934L160.363 30.6086H160.284C160.319 31.0654 160.363 31.645 160.416 32.3477C160.486 33.0503 160.548 33.7881 160.6 34.561C160.653 35.3339 160.697 36.0805 160.732 36.8007C160.767 37.5034 160.785 38.0918 160.785 38.5661V43.8887H157.57ZM171.856 43.8887L177.205 26.7089H181.842L187.191 43.8887H183.081L180.867 35.1934C180.657 34.3327 180.428 33.4192 180.182 32.4531C179.936 31.4869 179.708 30.5559 179.497 29.6601H179.392C179.181 30.5559 178.962 31.4869 178.733 32.4531C178.505 33.4192 178.276 34.3327 178.048 35.1934L175.808 43.8887H171.856ZM175.387 39.8045V36.7744H183.608V39.8045H175.387ZM196.576 44.2049C195.505 44.2049 194.486 44.0204 193.52 43.6515C192.571 43.2826 191.728 42.7293 190.99 41.9915C190.252 41.2362 189.673 40.314 189.251 39.2249C188.829 38.1182 188.619 36.8446 188.619 35.4042C188.619 33.5071 188.979 31.891 189.699 30.5559C190.437 29.2033 191.42 28.1757 192.65 27.4731C193.897 26.7529 195.285 26.3928 196.813 26.3928C197.902 26.3928 198.886 26.6211 199.764 27.0778C200.643 27.517 201.372 28.0176 201.951 28.5797L199.817 30.9775C199.413 30.5911 198.965 30.2924 198.473 30.0817C197.999 29.8533 197.446 29.7391 196.813 29.7391C196.005 29.7391 195.285 29.9675 194.653 30.4242C194.02 30.8633 193.52 31.4957 193.151 32.3213C192.782 33.147 192.597 34.1307 192.597 35.2725C192.597 36.4494 192.782 37.4594 193.151 38.3026C193.52 39.1282 194.029 39.7606 194.679 40.1998C195.347 40.6389 196.111 40.8585 196.971 40.8585C197.604 40.8585 198.175 40.718 198.684 40.4369C199.194 40.1559 199.659 39.787 200.081 39.3302L202.215 41.6753C201.512 42.5009 200.687 43.1333 199.738 43.5725C198.79 43.9941 197.736 44.2049 196.576 44.2049ZM204.459 43.8887V26.7089H208.332V33.349H213.023V26.7089H216.896V43.8887H213.023V36.7217H208.332V43.8887H204.459ZM220.3 43.8887V40.6214H224.305V29.9763H220.3V26.7089H232.209V29.9763H228.204V40.6214H232.209V43.8887H220.3ZM235.666 43.8887V26.7089H239.644L243.254 35.2461L244.73 39.0404H244.835C244.747 38.127 244.633 37.1081 244.493 35.9839C244.352 34.8597 244.282 33.7969 244.282 32.7956V26.7089H247.997V43.8887H244.018L240.409 35.3252L238.933 31.5836H238.828C238.915 32.5146 239.03 33.5334 239.17 34.6401C239.311 35.7292 239.381 36.7832 239.381 37.802V43.8887H235.666ZM251.928 43.8887V26.7089H263.311V29.9763H255.827V33.428H262.178V36.669H255.827V40.6214H263.574V43.8887H251.928ZM8.30899 70.2049C7.04422 70.2049 5.87607 69.9765 4.80454 69.5198C3.75056 69.0455 2.82834 68.4219 2.03786 67.649L3.35533 66.1207C4.00527 66.7707 4.76062 67.2977 5.62136 67.7017C6.49967 68.0881 7.43068 68.2814 8.41439 68.2814C9.60889 68.2814 10.5311 68.0267 11.1811 67.5172C11.8486 67.0078 12.1823 66.3491 12.1823 65.541C12.1823 64.9262 12.0418 64.4344 11.7607 64.0655C11.4973 63.6966 11.1284 63.3892 10.6541 63.1433C10.1974 62.8973 9.67037 62.6514 9.07312 62.4055L6.59629 61.3252C6.0166 61.0792 5.43692 60.7718 4.85723 60.4029C4.29512 60.034 3.82083 59.5685 3.43437 59.0064C3.04792 58.4267 2.85469 57.7153 2.85469 56.8721C2.85469 55.9938 3.09183 55.2121 3.56612 54.527C4.05797 53.8244 4.73427 53.2798 5.59501 52.8934C6.45576 52.4894 7.43068 52.2874 8.51978 52.2874C9.60889 52.2874 10.6102 52.4894 11.5236 52.8934C12.437 53.2798 13.21 53.7893 13.8423 54.4217L12.683 55.8445C12.1208 55.3351 11.4973 54.9399 10.8122 54.6588C10.1271 54.3602 9.33661 54.2109 8.44073 54.2109C7.43946 54.2109 6.63142 54.4392 6.0166 54.8959C5.40179 55.3351 5.09438 55.9499 5.09438 56.7404C5.09438 57.2849 5.24369 57.7329 5.54231 58.0842C5.85851 58.4355 6.25375 58.7254 6.72803 58.9537C7.20232 59.1821 7.68539 59.4017 8.17724 59.6125L10.6014 60.6664C11.3216 60.9475 11.9715 61.29 12.5512 61.694C13.1309 62.0805 13.5876 62.5636 13.9214 63.1433C14.2551 63.7229 14.422 64.4344 14.422 65.2775C14.422 66.191 14.1761 67.0254 13.6842 67.7807C13.1924 68.5185 12.4897 69.107 11.5763 69.5461C10.6629 69.9853 9.57375 70.2049 8.30899 70.2049ZM18.3526 69.8887V68.0179H22.6475V54.448H18.3526V52.6036H29.1558V54.448H24.8609V68.0179H29.1558V69.8887H18.3526ZM39.4629 70.2049C38.1981 70.2049 37.03 69.9765 35.9584 69.5198C34.9045 69.0455 33.9822 68.4219 33.1918 67.649L34.5092 66.1207C35.1592 66.7707 35.9145 67.2977 36.7753 67.7017C37.6536 68.0881 38.5846 68.2814 39.5683 68.2814C40.7628 68.2814 41.685 68.0267 42.335 67.5172C43.0025 67.0078 43.3362 66.3491 43.3362 65.541C43.3362 64.9262 43.1957 64.4344 42.9146 64.0655C42.6511 63.6966 42.2823 63.3892 41.808 63.1433C41.3512 62.8973 40.8243 62.6514 40.227 62.4055L37.7502 61.3252C37.1705 61.0792 36.5908 60.7718 36.0111 60.4029C35.449 60.034 34.9747 59.5685 34.5883 59.0064C34.2018 58.4267 34.0086 57.7153 34.0086 56.8721C34.0086 55.9938 34.2457 55.2121 34.72 54.527C35.2119 53.8244 35.8882 53.2798 36.7489 52.8934C37.6097 52.4894 38.5846 52.2874 39.6737 52.2874C40.7628 52.2874 41.7641 52.4894 42.6775 52.8934C43.5909 53.2798 44.3638 53.7893 44.9962 54.4217L43.8369 55.8445C43.2747 55.3351 42.6511 54.9399 41.9661 54.6588C41.281 54.3602 40.4905 54.2109 39.5946 54.2109C38.5934 54.2109 37.7853 54.4392 37.1705 54.8959C36.5557 55.3351 36.2483 55.9499 36.2483 56.7404C36.2483 57.2849 36.3976 57.7329 36.6962 58.0842C37.0124 58.4355 37.4076 58.7254 37.8819 58.9537C38.3562 59.1821 38.8393 59.4017 39.3311 59.6125L41.7553 60.6664C42.4755 60.9475 43.1254 61.29 43.7051 61.694C44.2848 62.0805 44.7415 62.5636 45.0753 63.1433C45.409 63.7229 45.5759 64.4344 45.5759 65.2775C45.5759 66.191 45.33 67.0254 44.8381 67.7807C44.3463 68.5185 43.6436 69.107 42.7302 69.5461C41.8168 69.9853 40.7276 70.2049 39.4629 70.2049ZM53.8014 69.8887V54.448H48.11V52.6036H61.7062V54.448H56.0148V69.8887H53.8014ZM86.1937 70.2049C84.929 70.2049 83.7608 69.9765 82.6893 69.5198C81.6353 69.0455 80.7131 68.4219 79.9226 67.649L81.2401 66.1207C81.89 66.7707 82.6454 67.2977 83.5061 67.7017C84.3844 68.0881 85.3154 68.2814 86.2991 68.2814C87.4936 68.2814 88.4158 68.0267 89.0658 67.5172C89.7333 67.0078 90.0671 66.3491 90.0671 65.541C90.0671 64.9262 89.9265 64.4344 89.6455 64.0655C89.382 63.6966 89.0131 63.3892 88.5388 63.1433C88.0821 62.8973 87.5551 62.6514 86.9579 62.4055L84.481 61.3252C83.9013 61.0792 83.3217 60.7718 82.742 60.4029C82.1799 60.034 81.7056 59.5685 81.3191 59.0064C80.9327 58.4267 80.7394 57.7153 80.7394 56.8721C80.7394 55.9938 80.9766 55.2121 81.4509 54.527C81.9427 53.8244 82.619 53.2798 83.4797 52.8934C84.3405 52.4894 85.3154 52.2874 86.4045 52.2874C87.4936 52.2874 88.4949 52.4894 89.4083 52.8934C90.3218 53.2798 91.0947 53.7893 91.7271 54.4217L90.5677 55.8445C90.0056 55.3351 89.382 54.9399 88.6969 54.6588C88.0118 54.3602 87.2213 54.2109 86.3255 54.2109C85.3242 54.2109 84.5162 54.4392 83.9013 54.8959C83.2865 55.3351 82.9791 55.9499 82.9791 56.7404C82.9791 57.2849 83.1284 57.7329 83.4271 58.0842C83.7432 58.4355 84.1385 58.7254 84.6128 58.9537C85.0871 59.1821 85.5701 59.4017 86.062 59.6125L88.4861 60.6664C89.2063 60.9475 89.8563 61.29 90.436 61.694C91.0156 62.0805 91.4724 62.5636 91.8061 63.1433C92.1399 63.7229 92.3068 64.4344 92.3068 65.2775C92.3068 66.191 92.0608 67.0254 91.569 67.7807C91.0771 68.5185 90.3745 69.107 89.461 69.5461C88.5476 69.9853 87.4585 70.2049 86.1937 70.2049ZM100.532 69.8887V54.448H94.8408V52.6036H108.437V54.448H102.746V69.8887H100.532ZM117.242 70.2049C116.399 70.2049 115.617 70.0819 114.897 69.836C114.194 69.5725 113.58 69.1772 113.053 68.6503C112.526 68.1057 112.113 67.3943 111.814 66.516C111.533 65.6377 111.393 64.5837 111.393 63.3541V52.6036H113.606V63.4068C113.606 64.6013 113.764 65.5586 114.08 66.2788C114.397 66.9815 114.827 67.4909 115.371 67.8071C115.934 68.1233 116.557 68.2814 117.242 68.2814C117.945 68.2814 118.568 68.1233 119.113 67.8071C119.675 67.4909 120.114 66.9815 120.43 66.2788C120.747 65.5586 120.905 64.6013 120.905 63.4068V52.6036H123.039V63.3541C123.039 64.5837 122.89 65.6377 122.591 66.516C122.31 67.3943 121.906 68.1057 121.379 68.6503C120.87 69.1772 120.264 69.5725 119.561 69.836C118.858 70.0819 118.085 70.2049 117.242 70.2049ZM127.18 69.8887V52.6036H131.449C133.188 52.6036 134.646 52.9373 135.823 53.6048C137.017 54.2548 137.922 55.2209 138.537 56.5032C139.152 57.7856 139.459 59.3402 139.459 61.1671C139.459 63.0115 139.152 64.5837 138.537 65.8836C137.94 67.1835 137.053 68.176 135.876 68.8611C134.699 69.5461 133.258 69.8887 131.554 69.8887H127.18ZM129.367 68.0969H131.291C132.608 68.0969 133.697 67.8246 134.558 67.2801C135.437 66.718 136.095 65.9275 136.534 64.9087C136.974 63.8723 137.193 62.6251 137.193 61.1671C137.193 59.7266 136.974 58.497 136.534 57.4782C136.095 56.4593 135.437 55.6952 134.558 55.1858C133.697 54.6588 132.608 54.3953 131.291 54.3953H129.367V68.0969ZM143.469 69.8887V52.6036H154.167V54.448H145.682V59.8759H152.849V61.7467H145.682V68.0179H154.43V69.8887H143.469ZM158.203 69.8887V52.6036H160.627L166.16 63.4594L167.82 67.043H167.873C167.838 66.1822 167.776 65.2863 167.688 64.3553C167.618 63.4068 167.583 62.4757 167.583 61.5623V52.6036H169.691V69.8887H167.267L161.733 59.0328L160.073 55.4493H160.021C160.056 56.3276 160.109 57.2235 160.179 58.1369C160.267 59.0503 160.311 59.955 160.311 60.8509V69.8887H158.203ZM178.417 69.8887V54.448H172.726V52.6036H186.322V54.448H180.63V69.8887H178.417ZM212.021 70.2049C210.95 70.2049 209.957 70.0029 209.044 69.5988C208.13 69.1948 207.331 68.6151 206.646 67.8598C205.961 67.0869 205.425 66.1471 205.039 65.0404C204.67 63.9162 204.485 62.6514 204.485 61.2461C204.485 59.4017 204.819 57.8119 205.487 56.4769C206.154 55.1243 207.068 54.0879 208.227 53.3677C209.386 52.6475 210.721 52.2874 212.232 52.2874C213.269 52.2874 214.191 52.5069 214.999 52.9461C215.807 53.3677 216.457 53.8507 216.949 54.3953L215.71 55.7918C215.271 55.3 214.762 54.9135 214.182 54.6324C213.602 54.3514 212.952 54.2109 212.232 54.2109C211.126 54.2109 210.159 54.5007 209.334 55.0804C208.526 55.6425 207.893 56.4418 207.437 57.4782C206.98 58.5146 206.752 59.753 206.752 61.1934C206.752 62.6514 206.98 63.9074 207.437 64.9614C207.893 66.0153 208.526 66.8322 209.334 67.4118C210.159 67.9915 211.126 68.2814 212.232 68.2814C213.023 68.2814 213.734 68.1145 214.366 67.7807C214.999 67.447 215.587 66.9727 216.132 66.3579L217.37 67.7017C216.703 68.4922 215.93 69.107 215.052 69.5461C214.173 69.9853 213.163 70.2049 212.021 70.2049ZM220.431 69.8887V52.6036H222.645V59.8496H229.864V52.6036H232.078V69.8887H229.864V61.7467H222.645V69.8887H220.431ZM234.77 69.8887L240.593 52.6036H243.07L248.893 69.8887H246.574L243.571 60.2185C243.272 59.2523 242.973 58.295 242.675 57.3464C242.394 56.3803 242.121 55.3966 241.858 54.3953H241.752C241.471 55.3966 241.19 56.3803 240.909 57.3464C240.628 58.295 240.338 59.2523 240.04 60.2185L237.01 69.8887H234.77ZM237.826 64.6188V62.8534H245.758V64.6188H237.826ZM252.191 69.8887V52.6036H257.408C258.691 52.6036 259.806 52.7704 260.755 53.1042C261.721 53.4204 262.467 53.9474 262.994 54.6851C263.539 55.4229 263.811 56.4242 263.811 57.689C263.811 58.901 263.539 59.9023 262.994 60.6928C262.467 61.4657 261.721 62.0542 260.755 62.4582C259.789 62.8446 258.673 63.0379 257.408 63.0379H254.378V69.8887H252.191ZM254.378 61.2461H257.145C258.656 61.2461 259.771 60.9563 260.491 60.3766C261.229 59.7969 261.598 58.901 261.598 57.689C261.598 56.4418 261.229 55.581 260.491 55.1067C259.753 54.6149 258.638 54.369 257.145 54.369H254.378V61.2461ZM271.879 69.8887V54.448H266.187V52.6036H279.783V54.448H274.092V69.8887H271.879ZM283.661 69.8887V52.6036H294.359V54.448H285.875V59.8759H293.042V61.7467H285.875V68.0179H294.623V69.8887H283.661ZM298.869 69.8887V52.6036H304.245C305.422 52.6036 306.458 52.7616 307.354 53.0778C308.267 53.3765 308.979 53.8859 309.488 54.6061C310.015 55.3087 310.279 56.2573 310.279 57.4518C310.279 58.6112 310.015 59.5685 309.488 60.3239C308.979 61.0792 308.267 61.6501 307.354 62.0366C306.458 62.4055 305.422 62.5899 304.245 62.5899H301.056V69.8887H298.869ZM301.056 60.7982H303.928C305.281 60.7982 306.309 60.5259 307.011 59.9813C307.732 59.4192 308.092 58.5761 308.092 57.4518C308.092 56.3276 307.732 55.5371 307.011 55.0804C306.309 54.6061 305.281 54.369 303.928 54.369H301.056V60.7982ZM303.797 61.9839L305.536 60.8245L310.806 69.8887H308.302L303.797 61.9839Z" fill="#CAD1E9"/>
</svg>
