<svg width="320" height="55" viewBox="0 0 320 55" fill="none" xmlns="http://www.w3.org/2000/svg">
<path d="M0.64 22L7.424 1.072H11.776L18.56 22H14.624L11.456 10.864C11.1573 9.75467 10.8373 8.61333 10.496 7.44C10.176 6.26667 9.87733 5.104 9.6 3.952H9.472C9.17333 5.104 8.864 6.26667 8.544 7.44C8.24533 8.61333 7.936 9.75467 7.616 10.864L4.416 22H0.64ZM4.64 16.336V13.424H14.464V16.336H4.64ZM28.5815 22.384C27.1095 22.384 25.7015 22.1173 24.3575 21.584C23.0135 21.0507 21.8188 20.2933 20.7735 19.312L22.9495 16.784C23.7388 17.488 24.6348 18.064 25.6375 18.512C26.6402 18.9387 27.6962 19.152 28.8055 19.152C30.0215 19.152 30.9495 18.9173 31.5895 18.448C32.2295 17.9573 32.5495 17.3493 32.5495 16.624C32.5495 16.0053 32.4002 15.5147 32.1015 15.152C31.8028 14.768 31.3868 14.448 30.8535 14.192C30.3415 13.936 29.7335 13.6693 29.0295 13.392L26.1815 12.144C25.4562 11.8453 24.7415 11.4613 24.0375 10.992C23.3548 10.5227 22.7895 9.92533 22.3415 9.2C21.9148 8.47467 21.7015 7.6 21.7015 6.576C21.7015 5.46667 22.0108 4.47467 22.6295 3.6C23.2482 2.704 24.1015 2 25.1895 1.488C26.2988 0.954666 27.5575 0.688 28.9655 0.688C30.2455 0.688 31.4615 0.933333 32.6135 1.424C33.7868 1.89333 34.8108 2.53333 35.6855 3.344L33.7655 5.712C33.0615 5.136 32.3148 4.69867 31.5255 4.4C30.7575 4.08 29.8402 3.92 28.7735 3.92C27.7922 3.92 26.9922 4.13333 26.3735 4.56C25.7548 4.98667 25.4455 5.59467 25.4455 6.384C25.4455 6.91733 25.6162 7.35467 25.9575 7.696C26.2988 8.03733 26.7362 8.336 27.2695 8.592C27.8242 8.848 28.4108 9.09333 29.0295 9.328L31.7815 10.512C32.6775 10.8533 33.4668 11.2693 34.1495 11.76C34.8322 12.2507 35.3655 12.8587 35.7495 13.584C36.1335 14.288 36.3255 15.152 36.3255 16.176C36.3255 17.3067 36.0162 18.3413 35.3975 19.28C34.7788 20.2187 33.8935 20.976 32.7415 21.552C31.5895 22.1067 30.2028 22.384 28.5815 22.384ZM47.499 22.384C46.027 22.384 44.619 22.1173 43.275 21.584C41.931 21.0507 40.7363 20.2933 39.691 19.312L41.867 16.784C42.6563 17.488 43.5523 18.064 44.555 18.512C45.5577 18.9387 46.6137 19.152 47.723 19.152C48.939 19.152 49.867 18.9173 50.507 18.448C51.147 17.9573 51.467 17.3493 51.467 16.624C51.467 16.0053 51.3177 15.5147 51.019 15.152C50.7203 14.768 50.3043 14.448 49.771 14.192C49.259 13.936 48.651 13.6693 47.947 13.392L45.099 12.144C44.3737 11.8453 43.659 11.4613 42.955 10.992C42.2723 10.5227 41.707 9.92533 41.259 9.2C40.8323 8.47467 40.619 7.6 40.619 6.576C40.619 5.46667 40.9283 4.47467 41.547 3.6C42.1657 2.704 43.019 2 44.107 1.488C45.2163 0.954666 46.475 0.688 47.883 0.688C49.163 0.688 50.379 0.933333 51.531 1.424C52.7043 1.89333 53.7283 2.53333 54.603 3.344L52.683 5.712C51.979 5.136 51.2323 4.69867 50.443 4.4C49.675 4.08 48.7577 3.92 47.691 3.92C46.7097 3.92 45.9097 4.13333 45.291 4.56C44.6723 4.98667 44.363 5.59467 44.363 6.384C44.363 6.91733 44.5337 7.35467 44.875 7.696C45.2163 8.03733 45.6537 8.336 46.187 8.592C46.7417 8.848 47.3283 9.09333 47.947 9.328L50.699 10.512C51.595 10.8533 52.3843 11.2693 53.067 11.76C53.7497 12.2507 54.283 12.8587 54.667 13.584C55.051 14.288 55.243 15.152 55.243 16.176C55.243 17.3067 54.9337 18.3413 54.315 19.28C53.6963 20.2187 52.811 20.976 51.659 21.552C50.507 22.1067 49.1203 22.384 47.499 22.384ZM66.3525 22.384C64.7312 22.384 63.3018 21.9573 62.0645 21.104C60.8272 20.2507 59.8565 19.0133 59.1525 17.392C58.4698 15.7707 58.1285 13.7867 58.1285 11.44C58.1285 9.15733 58.4698 7.216 59.1525 5.616C59.8565 3.99467 60.8272 2.768 62.0645 1.936C63.3018 1.104 64.7312 0.688 66.3525 0.688C67.9738 0.688 69.4032 1.104 70.6405 1.936C71.8778 2.768 72.8378 3.99467 73.5205 5.616C74.2245 7.216 74.5765 9.15733 74.5765 11.44C74.5765 13.7867 74.2245 15.7707 73.5205 17.392C72.8378 19.0133 71.8778 20.2507 70.6405 21.104C69.4032 21.9573 67.9738 22.384 66.3525 22.384ZM66.3525 19.152C67.2485 19.152 68.0272 18.8533 68.6885 18.256C69.3498 17.6587 69.8618 16.784 70.2245 15.632C70.5872 14.48 70.7685 13.0827 70.7685 11.44C70.7685 9.84 70.5872 8.48533 70.2245 7.376C69.8618 6.24533 69.3498 5.392 68.6885 4.816C68.0272 4.21867 67.2485 3.92 66.3525 3.92C65.4565 3.92 64.6778 4.21867 64.0165 4.816C63.3552 5.392 62.8432 6.24533 62.4805 7.376C62.1178 8.48533 61.9365 9.84 61.9365 11.44C61.9365 13.0827 62.1178 14.48 62.4805 15.632C62.8432 16.784 63.3552 17.6587 64.0165 18.256C64.6778 18.8533 65.4565 19.152 66.3525 19.152ZM86.998 22.384C85.6967 22.384 84.47 22.1493 83.318 21.68C82.1873 21.2107 81.1847 20.5173 80.31 19.6C79.4567 18.6827 78.7847 17.552 78.294 16.208C77.8247 14.864 77.59 13.328 77.59 11.6C77.59 9.31733 78.006 7.36533 78.838 5.744C79.6913 4.10133 80.8433 2.85333 82.294 2C83.766 1.12533 85.4193 0.688 87.254 0.688C88.5553 0.688 89.718 0.954666 90.742 1.488C91.766 2.02133 92.598 2.62933 93.238 3.312L91.19 5.616C90.678 5.08267 90.102 4.66667 89.462 4.368C88.822 4.06933 88.086 3.92 87.254 3.92C86.102 3.92 85.078 4.22933 84.182 4.848C83.3073 5.44533 82.6247 6.30933 82.134 7.44C81.6433 8.57067 81.398 9.92533 81.398 11.504C81.398 13.0827 81.6433 14.448 82.134 15.6C82.6247 16.752 83.318 17.6373 84.214 18.256C85.11 18.8533 86.1553 19.152 87.35 19.152C88.2247 19.152 89.0033 18.9707 89.686 18.608C90.3687 18.224 91.0087 17.712 91.606 17.072L93.654 19.344C92.822 20.3253 91.8513 21.0827 90.742 21.616C89.6327 22.128 88.3847 22.384 86.998 22.384ZM97.2755 22V18.864H102.332V4.208H97.2755V1.072H111.1V4.208H106.044V18.864H111.1V22H97.2755ZM114.145 22L120.929 1.072H125.281L132.065 22H128.129L124.961 10.864C124.662 9.75467 124.342 8.61333 124.001 7.44C123.681 6.26667 123.382 5.104 123.105 3.952H122.977C122.678 5.104 122.369 6.26667 122.049 7.44C121.75 8.61333 121.441 9.75467 121.121 10.864L117.921 22H114.145ZM118.145 16.336V13.424H127.969V16.336H118.145ZM140.167 22V4.176H133.575V1.072H150.471V4.176H143.879V22H140.167ZM154.028 22V18.864H159.084V4.208H154.028V1.072H167.852V4.208H162.796V18.864H167.852V22H154.028ZM179.858 22.384C178.236 22.384 176.807 21.9573 175.57 21.104C174.332 20.2507 173.362 19.0133 172.658 17.392C171.975 15.7707 171.634 13.7867 171.634 11.44C171.634 9.15733 171.975 7.216 172.658 5.616C173.362 3.99467 174.332 2.768 175.57 1.936C176.807 1.104 178.236 0.688 179.858 0.688C181.479 0.688 182.908 1.104 184.146 1.936C185.383 2.768 186.343 3.99467 187.026 5.616C187.73 7.216 188.082 9.15733 188.082 11.44C188.082 13.7867 187.73 15.7707 187.026 17.392C186.343 19.0133 185.383 20.2507 184.146 21.104C182.908 21.9573 181.479 22.384 179.858 22.384ZM179.858 19.152C180.754 19.152 181.532 18.8533 182.194 18.256C182.855 17.6587 183.367 16.784 183.73 15.632C184.092 14.48 184.274 13.0827 184.274 11.44C184.274 9.84 184.092 8.48533 183.73 7.376C183.367 6.24533 182.855 5.392 182.194 4.816C181.532 4.21867 180.754 3.92 179.858 3.92C178.962 3.92 178.183 4.21867 177.522 4.816C176.86 5.392 176.348 6.24533 175.986 7.376C175.623 8.48533 175.442 9.84 175.442 11.44C175.442 13.0827 175.623 14.48 175.986 15.632C176.348 16.784 176.86 17.6587 177.522 18.256C178.183 18.8533 178.962 19.152 179.858 19.152ZM191.543 22V1.072H195.447L200.983 12.816L202.871 17.296H202.967C202.903 16.2293 202.796 15.0667 202.647 13.808C202.519 12.5493 202.455 11.3333 202.455 10.16V1.072H206.007V22H202.103L196.567 10.224L194.679 5.776H194.583C194.647 6.88533 194.743 8.05867 194.871 9.296C195.02 10.512 195.095 11.696 195.095 12.848V22H191.543ZM230.818 22V1.072H244.194V4.208H234.53V10.128H242.754V13.264H234.53V22H230.818ZM255.528 22.384C253.906 22.384 252.477 21.9573 251.24 21.104C250.002 20.2507 249.032 19.0133 248.328 17.392C247.645 15.7707 247.304 13.7867 247.304 11.44C247.304 9.15733 247.645 7.216 248.328 5.616C249.032 3.99467 250.002 2.768 251.24 1.936C252.477 1.104 253.906 0.688 255.528 0.688C257.149 0.688 258.578 1.104 259.816 1.936C261.053 2.768 262.013 3.99467 262.696 5.616C263.4 7.216 263.752 9.15733 263.752 11.44C263.752 13.7867 263.4 15.7707 262.696 17.392C262.013 19.0133 261.053 20.2507 259.816 21.104C258.578 21.9573 257.149 22.384 255.528 22.384ZM255.528 19.152C256.424 19.152 257.202 18.8533 257.864 18.256C258.525 17.6587 259.037 16.784 259.4 15.632C259.762 14.48 259.944 13.0827 259.944 11.44C259.944 9.84 259.762 8.48533 259.4 7.376C259.037 6.24533 258.525 5.392 257.864 4.816C257.202 4.21867 256.424 3.92 255.528 3.92C254.632 3.92 253.853 4.21867 253.192 4.816C252.53 5.392 252.018 6.24533 251.656 7.376C251.293 8.48533 251.112 9.84 251.112 11.44C251.112 13.0827 251.293 14.48 251.656 15.632C252.018 16.784 252.53 17.6587 253.192 18.256C253.853 18.8533 254.632 19.152 255.528 19.152ZM267.533 22V1.072H274.509C275.96 1.072 277.261 1.264 278.413 1.648C279.586 2.032 280.514 2.68267 281.197 3.6C281.88 4.496 282.221 5.72267 282.221 7.28C282.221 8.77333 281.88 10 281.197 10.96C280.514 11.92 279.586 12.6347 278.413 13.104C277.261 13.5733 275.96 13.808 274.509 13.808H271.245V22H267.533ZM271.245 10.864H274.125C275.576 10.864 276.674 10.5653 277.421 9.968C278.189 9.37067 278.573 8.47467 278.573 7.28C278.573 6.08533 278.189 5.25333 277.421 4.784C276.674 4.29333 275.576 4.048 274.125 4.048H271.245V10.864ZM273.837 12.816L276.525 10.608L283.053 22H278.861L273.837 12.816ZM11.328 54.384C10.0267 54.384 8.8 54.1493 7.648 53.68C6.51733 53.2107 5.51467 52.5173 4.64 51.6C3.78667 50.6827 3.11467 49.552 2.624 48.208C2.15467 46.864 1.92 45.328 1.92 43.6C1.92 41.3173 2.336 39.3653 3.168 37.744C4.02133 36.1013 5.17333 34.8533 6.624 34C8.096 33.1253 9.74933 32.688 11.584 32.688C12.8853 32.688 14.048 32.9547 15.072 33.488C16.096 34.0213 16.928 34.6293 17.568 35.312L15.52 37.616C15.008 37.0827 14.432 36.6667 13.792 36.368C13.152 36.0693 12.416 35.92 11.584 35.92C10.432 35.92 9.408 36.2293 8.512 36.848C7.63733 37.4453 6.95467 38.3093 6.464 39.44C5.97333 40.5707 5.728 41.9253 5.728 43.504C5.728 45.0827 5.97333 46.448 6.464 47.6C6.95467 48.752 7.648 49.6373 8.544 50.256C9.44 50.8533 10.4853 51.152 11.68 51.152C12.5547 51.152 13.3333 50.9707 14.016 50.608C14.6987 50.224 15.3387 49.712 15.936 49.072L17.984 51.344C17.152 52.3253 16.1813 53.0827 15.072 53.616C13.9627 54.128 12.7147 54.384 11.328 54.384ZM28.5175 54.384C26.8962 54.384 25.4668 53.9573 24.2295 53.104C22.9922 52.2507 22.0215 51.0133 21.3175 49.392C20.6348 47.7707 20.2935 45.7867 20.2935 43.44C20.2935 41.1573 20.6348 39.216 21.3175 37.616C22.0215 35.9947 22.9922 34.768 24.2295 33.936C25.4668 33.104 26.8962 32.688 28.5175 32.688C30.1388 32.688 31.5682 33.104 32.8055 33.936C34.0428 34.768 35.0028 35.9947 35.6855 37.616C36.3895 39.216 36.7415 41.1573 36.7415 43.44C36.7415 45.7867 36.3895 47.7707 35.6855 49.392C35.0028 51.0133 34.0428 52.2507 32.8055 53.104C31.5682 53.9573 30.1388 54.384 28.5175 54.384ZM28.5175 51.152C29.4135 51.152 30.1922 50.8533 30.8535 50.256C31.5148 49.6587 32.0268 48.784 32.3895 47.632C32.7522 46.48 32.9335 45.0827 32.9335 43.44C32.9335 41.84 32.7522 40.4853 32.3895 39.376C32.0268 38.2453 31.5148 37.392 30.8535 36.816C30.1922 36.2187 29.4135 35.92 28.5175 35.92C27.6215 35.92 26.8428 36.2187 26.1815 36.816C25.5202 37.392 25.0082 38.2453 24.6455 39.376C24.2828 40.4853 24.1015 41.84 24.1015 43.44C24.1015 45.0827 24.2828 46.48 24.6455 47.632C25.0082 48.784 25.5202 49.6587 26.1815 50.256C26.8428 50.8533 27.6215 51.152 28.5175 51.152ZM39.915 54V33.072H44.011L46.507 41.232L47.371 44.368H47.499L48.331 41.232L50.859 33.072H54.955V54H51.691V45.552C51.691 44.9973 51.7017 44.3467 51.723 43.6C51.7657 42.832 51.819 42.032 51.883 41.2C51.947 40.368 52.011 39.5893 52.075 38.864C52.139 38.1173 52.1923 37.488 52.235 36.976H52.139L50.731 41.84L48.427 48.464H46.315L44.043 41.84L42.667 36.976H42.571C42.635 37.488 42.699 38.1173 42.763 38.864C42.827 39.5893 42.8803 40.368 42.923 41.2C42.987 42.032 43.0297 42.832 43.051 43.6C43.0937 44.3467 43.115 44.9973 43.115 45.552V54H39.915ZM59.5685 54V33.072H66.4485C67.9845 33.072 69.3498 33.2747 70.5445 33.68C71.7392 34.0853 72.6778 34.7573 73.3605 35.696C74.0645 36.6347 74.4165 37.9147 74.4165 39.536C74.4165 41.072 74.0645 42.3413 73.3605 43.344C72.6778 44.3467 71.7285 45.0933 70.5125 45.584C69.3178 46.0747 67.9632 46.32 66.4485 46.32H63.2805V54H59.5685ZM63.2805 43.344H66.1605C67.7178 43.344 68.8698 43.024 69.6165 42.384C70.3845 41.744 70.7685 40.7947 70.7685 39.536C70.7685 38.2133 70.3738 37.3067 69.5845 36.816C68.8165 36.304 67.6752 36.048 66.1605 36.048H63.2805V43.344ZM85.302 54.384C84.15 54.384 83.1153 54.2133 82.198 53.872C81.302 53.5307 80.534 53.0187 79.894 52.336C79.2753 51.6533 78.7953 50.7893 78.454 49.744C78.134 48.6773 77.974 47.4293 77.974 46V33.072H81.686V46.288C81.686 47.4187 81.8247 48.3467 82.102 49.072C82.4007 49.776 82.8273 50.2987 83.382 50.64C83.9367 50.9813 84.5767 51.152 85.302 51.152C86.07 51.152 86.7207 50.9813 87.254 50.64C87.8087 50.2987 88.2353 49.776 88.534 49.072C88.854 48.3467 89.014 47.4187 89.014 46.288V33.072H92.566V46C92.566 47.4293 92.406 48.6773 92.086 49.744C91.766 50.7893 91.286 51.6533 90.646 52.336C90.0273 53.0187 89.27 53.5307 88.374 53.872C87.478 54.2133 86.454 54.384 85.302 54.384ZM102.332 54V36.176H95.7395V33.072H112.636V36.176H106.044V54H102.332ZM116.193 54V50.864H121.249V36.208H116.193V33.072H130.017V36.208H124.961V50.864H130.017V54H116.193ZM134.791 54V33.072H138.695L144.231 44.816L146.119 49.296H146.215C146.151 48.2293 146.044 47.0667 145.895 45.808C145.767 44.5493 145.703 43.3333 145.703 42.16V33.072H149.255V54H145.351L139.815 42.224L137.927 37.776H137.831C137.895 38.8853 137.991 40.0587 138.119 41.296C138.268 42.512 138.343 43.696 138.343 44.848V54H134.791ZM162.22 54.384C160.471 54.384 158.881 53.968 157.452 53.136C156.044 52.304 154.924 51.088 154.092 49.488C153.281 47.8667 152.876 45.904 152.876 43.6C152.876 41.3173 153.292 39.3653 154.124 37.744C154.956 36.1013 156.087 34.8533 157.516 34C158.945 33.1253 160.567 32.688 162.38 32.688C163.767 32.688 164.94 32.9653 165.9 33.52C166.881 34.0533 167.681 34.6507 168.3 35.312L166.252 37.616C165.783 37.104 165.239 36.6987 164.62 36.4C164.023 36.08 163.276 35.92 162.38 35.92C161.271 35.92 160.289 36.2293 159.436 36.848C158.583 37.4453 157.911 38.3093 157.42 39.44C156.951 40.5707 156.716 41.9253 156.716 43.504C156.716 45.0827 156.929 46.448 157.356 47.6C157.804 48.752 158.455 49.6373 159.308 50.256C160.161 50.8533 161.207 51.152 162.444 51.152C162.999 51.152 163.532 51.0773 164.044 50.928C164.556 50.7573 164.961 50.5227 165.26 50.224V45.712H161.644V42.672H168.62V51.888C167.937 52.5707 167.031 53.1573 165.9 53.648C164.791 54.1387 163.564 54.384 162.22 54.384ZM191.255 54V33.072H195.351L197.847 41.232L198.711 44.368H198.839L199.671 41.232L202.199 33.072H206.295V54H203.031V45.552C203.031 44.9973 203.042 44.3467 203.063 43.6C203.106 42.832 203.159 42.032 203.223 41.2C203.287 40.368 203.351 39.5893 203.415 38.864C203.479 38.1173 203.532 37.488 203.575 36.976H203.479L202.071 41.84L199.767 48.464H197.655L195.383 41.84L194.007 36.976H193.911C193.975 37.488 194.039 38.1173 194.103 38.864C194.167 39.5893 194.22 40.368 194.263 41.2C194.327 42.032 194.37 42.832 194.391 43.6C194.434 44.3467 194.455 44.9973 194.455 45.552V54H191.255ZM208.732 54L215.516 33.072H219.868L226.653 54H222.716L219.548 42.864C219.25 41.7547 218.93 40.6133 218.588 39.44C218.268 38.2667 217.97 37.104 217.692 35.952H217.564C217.266 37.104 216.956 38.2667 216.636 39.44C216.338 40.6133 216.028 41.7547 215.708 42.864L212.508 54H208.732ZM212.732 48.336V45.424H222.556V48.336H212.732ZM238.338 54.384C237.037 54.384 235.81 54.1493 234.658 53.68C233.527 53.2107 232.525 52.5173 231.65 51.6C230.797 50.6827 230.125 49.552 229.634 48.208C229.165 46.864 228.93 45.328 228.93 43.6C228.93 41.3173 229.346 39.3653 230.178 37.744C231.031 36.1013 232.183 34.8533 233.634 34C235.106 33.1253 236.759 32.688 238.594 32.688C239.895 32.688 241.058 32.9547 242.082 33.488C243.106 34.0213 243.938 34.6293 244.578 35.312L242.53 37.616C242.018 37.0827 241.442 36.6667 240.802 36.368C240.162 36.0693 239.426 35.92 238.594 35.92C237.442 35.92 236.418 36.2293 235.522 36.848C234.647 37.4453 233.965 38.3093 233.474 39.44C232.983 40.5707 232.738 41.9253 232.738 43.504C232.738 45.0827 232.983 46.448 233.474 47.6C233.965 48.752 234.658 49.6373 235.554 50.256C236.45 50.8533 237.495 51.152 238.69 51.152C239.565 51.152 240.343 50.9707 241.026 50.608C241.709 50.224 242.349 49.712 242.946 49.072L244.994 51.344C244.162 52.3253 243.191 53.0827 242.082 53.616C240.973 54.128 239.725 54.384 238.338 54.384ZM248.2 54V33.072H251.944V41.488H259.112V33.072H262.856V54H259.112V44.72H251.944V54H248.2ZM267.533 54V50.864H272.589V36.208H267.533V33.072H281.357V36.208H276.301V50.864H281.357V54H267.533ZM286.131 54V33.072H290.035L295.571 44.816L297.459 49.296H297.555C297.491 48.2293 297.384 47.0667 297.235 45.808C297.107 44.5493 297.043 43.3333 297.043 42.16V33.072H300.595V54H296.691L291.155 42.224L289.267 37.776H289.171C289.235 38.8853 289.331 40.0587 289.459 41.296C289.608 42.512 289.683 43.696 289.683 44.848V54H286.131ZM305.976 54V33.072H319.384V36.208H309.688V41.552H317.912V44.688H309.688V50.864H319.704V54H305.976Z" fill="#CAD1E9"/>
</svg>
