<svg width="49" height="11" viewBox="0 0 49 11" fill="none" xmlns="http://www.w3.org/2000/svg">
<path d="M0.912406 10V0.816H6.59641V1.796H2.08841V4.68H5.89641V5.674H2.08841V9.006H6.73641V10H0.912406ZM11.2389 10L8.31294 0.816H9.54494L11.0289 5.772C11.1969 6.31333 11.3416 6.822 11.4629 7.298C11.5936 7.76467 11.7429 8.26867 11.9109 8.81H11.9669C12.1443 8.26867 12.2936 7.76467 12.4149 7.298C12.5456 6.822 12.6903 6.31333 12.8489 5.772L14.3189 0.816H15.5089L12.5969 10H11.2389ZM17.7015 10V0.816H23.3855V1.796H18.8775V4.68H22.6855V5.674H18.8775V9.006H23.5255V10H17.7015ZM25.648 10V0.816H26.936L29.876 6.584L30.758 8.488H30.786C30.7673 8.03067 30.7347 7.55467 30.688 7.06C30.6507 6.556 30.632 6.06133 30.632 5.576V0.816H31.752V10H30.464L27.524 4.232L26.642 2.328H26.614C26.6327 2.79467 26.6607 3.27067 26.698 3.756C26.7447 4.24133 26.768 4.722 26.768 5.198V10H25.648ZM36.5065 10V1.796H33.4825V0.816H40.7065V1.796H37.6825V10H36.5065ZM45.5591 10.168C44.8871 10.168 44.2664 10.0467 43.6971 9.804C43.1371 9.552 42.6471 9.22067 42.2271 8.81L42.9271 7.998C43.2724 8.34333 43.6737 8.62333 44.1311 8.838C44.5977 9.04333 45.0924 9.146 45.6151 9.146C46.2497 9.146 46.7397 9.01067 47.0851 8.74C47.4397 8.46933 47.6171 8.11933 47.6171 7.69C47.6171 7.36333 47.5424 7.102 47.3931 6.906C47.2531 6.71 47.0571 6.54667 46.8051 6.416C46.5624 6.28533 46.2824 6.15467 45.9651 6.024L44.6491 5.45C44.3411 5.31933 44.0331 5.156 43.7251 4.96C43.4264 4.764 43.1744 4.51667 42.9691 4.218C42.7637 3.91 42.6611 3.532 42.6611 3.084C42.6611 2.61733 42.7871 2.202 43.0391 1.838C43.3004 1.46467 43.6597 1.17533 44.1171 0.969999C44.5744 0.755333 45.0924 0.647999 45.6711 0.647999C46.2497 0.647999 46.7817 0.755333 47.2671 0.969999C47.7524 1.17533 48.1631 1.446 48.4991 1.782L47.8831 2.538C47.5844 2.26733 47.2531 2.05733 46.8891 1.908C46.5251 1.74933 46.1051 1.67 45.6291 1.67C45.0971 1.67 44.6677 1.79133 44.3411 2.034C44.0144 2.26733 43.8511 2.594 43.8511 3.014C43.8511 3.30333 43.9304 3.54133 44.0891 3.728C44.2571 3.91467 44.4671 4.06867 44.7191 4.19C44.9711 4.31133 45.2277 4.428 45.4891 4.54L46.7771 5.1C47.1597 5.24933 47.5051 5.43133 47.8131 5.646C48.1211 5.85133 48.3637 6.108 48.5411 6.416C48.7184 6.724 48.8071 7.102 48.8071 7.55C48.8071 8.03533 48.6764 8.47867 48.4151 8.88C48.1537 9.272 47.7804 9.58467 47.2951 9.818C46.8097 10.0513 46.2311 10.168 45.5591 10.168Z" fill="#CAD1E9"/>
</svg>
