<svg width="303" height="32" viewBox="0 0 303 32" fill="none" xmlns="http://www.w3.org/2000/svg">
<path d="M0.978906 31V1.8H8.73891L16.0589 19.24H16.7789L24.0589 1.8H31.9389V31H26.2989V6.08L27.0189 6.16L19.1389 25.04H13.3389L5.41891 6.16L6.17891 6.08V31H0.978906ZM48.423 31.76C46.5563 31.76 44.9163 31.44 43.503 30.8C42.1163 30.16 40.9563 29.3067 40.023 28.24C39.1163 27.1467 38.423 25.9333 37.943 24.6C37.4896 23.2667 37.263 21.9067 37.263 20.52V19.76C37.263 18.32 37.4896 16.9333 37.943 15.6C38.423 14.24 39.1163 13.04 40.023 12C40.9563 10.9333 42.103 10.0933 43.463 9.48C44.823 8.84 46.3963 8.52 48.183 8.52C50.5296 8.52 52.4896 9.04 54.063 10.08C55.663 11.0933 56.863 12.44 57.663 14.12C58.463 15.7733 58.863 17.56 58.863 19.48V21.48H39.623V18.08H55.383L53.663 19.76C53.663 18.3733 53.463 17.1867 53.063 16.2C52.663 15.2133 52.0496 14.4533 51.223 13.92C50.423 13.3867 49.4096 13.12 48.183 13.12C46.9563 13.12 45.9163 13.4 45.063 13.96C44.2096 14.52 43.5563 15.3333 43.103 16.4C42.6763 17.44 42.463 18.6933 42.463 20.16C42.463 21.52 42.6763 22.7333 43.103 23.8C43.5296 24.84 44.183 25.6667 45.063 26.28C45.943 26.8667 47.063 27.16 48.423 27.16C49.783 27.16 50.8896 26.8933 51.743 26.36C52.5963 25.8 53.143 25.12 53.383 24.32H58.503C58.183 25.8133 57.5696 27.12 56.663 28.24C55.7563 29.36 54.5963 30.2267 53.183 30.84C51.7963 31.4533 50.2096 31.76 48.423 31.76ZM73.2277 31.76C71.361 31.76 69.721 31.44 68.3077 30.8C66.921 30.16 65.761 29.3067 64.8277 28.24C63.921 27.1467 63.2277 25.9333 62.7477 24.6C62.2943 23.2667 62.0677 21.9067 62.0677 20.52V19.76C62.0677 18.32 62.2943 16.9333 62.7477 15.6C63.2277 14.24 63.921 13.04 64.8277 12C65.761 10.9333 66.9077 10.0933 68.2677 9.48C69.6277 8.84 71.201 8.52 72.9877 8.52C75.3343 8.52 77.2943 9.04 78.8677 10.08C80.4677 11.0933 81.6677 12.44 82.4677 14.12C83.2677 15.7733 83.6677 17.56 83.6677 19.48V21.48H64.4277V18.08H80.1877L78.4677 19.76C78.4677 18.3733 78.2677 17.1867 77.8677 16.2C77.4677 15.2133 76.8543 14.4533 76.0277 13.92C75.2277 13.3867 74.2143 13.12 72.9877 13.12C71.761 13.12 70.721 13.4 69.8677 13.96C69.0143 14.52 68.361 15.3333 67.9077 16.4C67.481 17.44 67.2677 18.6933 67.2677 20.16C67.2677 21.52 67.481 22.7333 67.9077 23.8C68.3343 24.84 68.9877 25.6667 69.8677 26.28C70.7477 26.8667 71.8677 27.16 73.2277 27.16C74.5877 27.16 75.6943 26.8933 76.5477 26.36C77.401 25.8 77.9477 25.12 78.1877 24.32H83.3077C82.9877 25.8133 82.3743 27.12 81.4677 28.24C80.561 29.36 79.401 30.2267 77.9877 30.84C76.601 31.4533 75.0143 31.76 73.2277 31.76ZM97.7523 31.28C95.7523 31.28 94.099 31.0267 92.7923 30.52C91.5123 29.9867 90.5523 29.1067 89.9123 27.88C89.2723 26.6267 88.9523 24.9467 88.9523 22.84L88.9923 3.16H94.1923L94.1523 23.2C94.1523 24.2667 94.4323 25.0933 94.9923 25.68C95.579 26.24 96.4057 26.52 97.4723 26.52H100.872V31.28H97.7523ZM85.5123 13.36V9.28H100.872V13.36H85.5123ZM128.332 31.76C125.692 31.76 123.398 31.2933 121.452 30.36C119.532 29.4267 117.932 28.2133 116.652 26.72C115.398 25.2 114.452 23.5733 113.812 21.84C113.198 20.08 112.892 18.3867 112.892 16.76V15.88C112.892 14.0933 113.212 12.32 113.852 10.56C114.492 8.77333 115.452 7.16 116.732 5.72C118.038 4.28 119.652 3.13333 121.572 2.28C123.492 1.4 125.745 0.959998 128.332 0.959998C130.892 0.959998 133.132 1.4 135.052 2.28C136.972 3.13333 138.572 4.28 139.852 5.72C141.158 7.16 142.132 8.77333 142.772 10.56C143.412 12.32 143.732 14.0933 143.732 15.88V16.76C143.732 18.3867 143.412 20.08 142.772 21.84C142.158 23.5733 141.212 25.2 139.932 26.72C138.678 28.2133 137.078 29.4267 135.132 30.36C133.212 31.2933 130.945 31.76 128.332 31.76ZM128.332 26.48C129.825 26.48 131.158 26.2133 132.332 25.68C133.532 25.1467 134.545 24.4133 135.372 23.48C136.225 22.52 136.865 21.44 137.292 20.24C137.745 19.0133 137.972 17.72 137.972 16.36C137.972 14.8933 137.745 13.5467 137.292 12.32C136.865 11.0933 136.225 10.0267 135.372 9.12C134.545 8.21333 133.532 7.50667 132.332 7C131.132 6.49333 129.798 6.24 128.332 6.24C126.838 6.24 125.492 6.49333 124.292 7C123.092 7.50667 122.065 8.21333 121.212 9.12C120.385 10.0267 119.745 11.0933 119.292 12.32C118.865 13.5467 118.652 14.8933 118.652 16.36C118.652 17.72 118.865 19.0133 119.292 20.24C119.745 21.44 120.385 22.52 121.212 23.48C122.065 24.4133 123.092 25.1467 124.292 25.68C125.492 26.2133 126.838 26.48 128.332 26.48ZM156.181 31.68C153.674 31.68 151.728 30.8533 150.341 29.2C148.981 27.5467 148.301 25.0933 148.301 21.84V9.24H153.861V22.32C153.861 23.6533 154.234 24.72 154.981 25.52C155.728 26.2933 156.741 26.68 158.021 26.68C159.301 26.68 160.341 26.2667 161.141 25.44C161.968 24.6133 162.381 23.4933 162.381 22.08V9.24H167.941V31H163.541V21.76H163.981C163.981 23.9467 163.701 25.7733 163.141 27.24C162.581 28.7067 161.741 29.8133 160.621 30.56C159.501 31.3067 158.101 31.68 156.421 31.68H156.181ZM174.328 31V9.28H178.728V18.48H178.608C178.608 15.36 179.275 13 180.608 11.4C181.941 9.8 183.901 9 186.488 9H187.288V13.84H185.768C183.901 13.84 182.448 14.3467 181.408 15.36C180.395 16.3467 179.888 17.7867 179.888 19.68V31H174.328ZM205.84 31V6H211.52V31H205.84ZM197.4 6.8V1.8H219.96V6.8H197.4ZM231.079 31.76C229.213 31.76 227.573 31.44 226.159 30.8C224.773 30.16 223.613 29.3067 222.679 28.24C221.773 27.1467 221.079 25.9333 220.599 24.6C220.146 23.2667 219.919 21.9067 219.919 20.52V19.76C219.919 18.32 220.146 16.9333 220.599 15.6C221.079 14.24 221.773 13.04 222.679 12C223.613 10.9333 224.759 10.0933 226.119 9.48C227.479 8.84 229.053 8.52 230.839 8.52C233.186 8.52 235.146 9.04 236.719 10.08C238.319 11.0933 239.519 12.44 240.319 14.12C241.119 15.7733 241.519 17.56 241.519 19.48V21.48H222.279V18.08H238.039L236.319 19.76C236.319 18.3733 236.119 17.1867 235.719 16.2C235.319 15.2133 234.706 14.4533 233.879 13.92C233.079 13.3867 232.066 13.12 230.839 13.12C229.613 13.12 228.573 13.4 227.719 13.96C226.866 14.52 226.213 15.3333 225.759 16.4C225.333 17.44 225.119 18.6933 225.119 20.16C225.119 21.52 225.333 22.7333 225.759 23.8C226.186 24.84 226.839 25.6667 227.719 26.28C228.599 26.8667 229.719 27.16 231.079 27.16C232.439 27.16 233.546 26.8933 234.399 26.36C235.253 25.8 235.799 25.12 236.039 24.32H241.159C240.839 25.8133 240.226 27.12 239.319 28.24C238.413 29.36 237.253 30.2267 235.839 30.84C234.453 31.4533 232.866 31.76 231.079 31.76ZM259.324 31V24.56H258.404V17.4C258.404 16.1467 258.097 15.2133 257.484 14.6C256.871 13.9867 255.924 13.68 254.644 13.68C253.977 13.68 253.177 13.6933 252.244 13.72C251.311 13.7467 250.364 13.7867 249.404 13.84C248.471 13.8667 247.631 13.9067 246.884 13.96V9.24C247.497 9.18667 248.191 9.13333 248.964 9.08C249.737 9.02667 250.524 9 251.324 9C252.151 8.97333 252.924 8.96 253.644 8.96C255.884 8.96 257.737 9.25333 259.204 9.84C260.697 10.4267 261.817 11.3467 262.564 12.6C263.337 13.8533 263.724 15.4933 263.724 17.52V31H259.324ZM252.324 31.56C250.751 31.56 249.364 31.28 248.164 30.72C246.991 30.16 246.071 29.36 245.404 28.32C244.764 27.28 244.444 26.0267 244.444 24.56C244.444 22.96 244.831 21.6533 245.604 20.64C246.404 19.6267 247.511 18.8667 248.924 18.36C250.364 17.8533 252.044 17.6 253.964 17.6H259.004V20.92H253.884C252.604 20.92 251.617 21.24 250.924 21.88C250.257 22.4933 249.924 23.2933 249.924 24.28C249.924 25.2667 250.257 26.0667 250.924 26.68C251.617 27.2933 252.604 27.6 253.884 27.6C254.657 27.6 255.364 27.4667 256.004 27.2C256.671 26.9067 257.217 26.4267 257.644 25.76C258.097 25.0667 258.351 24.1333 258.404 22.96L259.764 24.52C259.631 26.04 259.257 27.32 258.644 28.36C258.057 29.4 257.231 30.2 256.164 30.76C255.124 31.2933 253.844 31.56 252.324 31.56ZM269.68 31V9.28H274.08V18.6H273.68C273.68 16.4133 273.96 14.5867 274.52 13.12C275.08 11.6267 275.906 10.5067 277 9.76C278.12 8.98667 279.506 8.6 281.16 8.6H281.4C283.08 8.6 284.466 8.98667 285.56 9.76C286.68 10.5067 287.506 11.6267 288.04 13.12C288.6 14.5867 288.88 16.4133 288.88 18.6H287.48C287.48 16.4133 287.76 14.5867 288.32 13.12C288.906 11.6267 289.746 10.5067 290.84 9.76C291.96 8.98667 293.346 8.6 295 8.6H295.24C296.92 8.6 298.32 8.98667 299.44 9.76C300.56 10.5067 301.4 11.6267 301.96 13.12C302.546 14.5867 302.84 16.4133 302.84 18.6V31H297.28V18.08C297.28 16.72 296.933 15.64 296.24 14.84C295.546 14.0133 294.56 13.6 293.28 13.6C292 13.6 290.973 14.0267 290.2 14.88C289.426 15.7067 289.04 16.8267 289.04 18.24V31H283.48V18.08C283.48 16.72 283.133 15.64 282.44 14.84C281.746 14.0133 280.76 13.6 279.48 13.6C278.2 13.6 277.173 14.0267 276.4 14.88C275.626 15.7067 275.24 16.8267 275.24 18.24V31H269.68Z" fill="#CAD1E9"/>
</svg>
