<svg width="33" height="10" viewBox="0 0 33 10" fill="none" xmlns="http://www.w3.org/2000/svg">
<path d="M3.82294 10V1.796H0.798938V0.816H8.02294V1.796H4.99894V10H3.82294ZM10.2015 10V0.816H15.8855V1.796H11.3775V4.68H15.1855V5.674H11.3775V9.006H16.0255V10H10.2015ZM17.448 10L20.542 0.816H21.858L24.952 10H23.72L22.124 4.862C21.9653 4.34867 21.8067 3.84 21.648 3.336C21.4987 2.82267 21.354 2.3 21.214 1.768H21.158C21.0087 2.3 20.8593 2.82267 20.71 3.336C20.5607 3.84 20.4067 4.34867 20.248 4.862L18.638 10H17.448ZM19.072 7.2V6.262H23.286V7.2H19.072ZM26.4025 10V0.816H27.8305L29.1185 4.736L29.5665 6.22H29.6225L30.0565 4.736L31.3585 0.816H32.7865V10H31.6665V5.408C31.6665 5.184 31.6712 4.92733 31.6805 4.638C31.6992 4.34867 31.7179 4.05 31.7365 3.742C31.7645 3.434 31.7879 3.14467 31.8065 2.874C31.8345 2.594 31.8532 2.356 31.8625 2.16H31.8205L31.3025 3.952L29.9865 7.564H29.1465L27.8585 3.952L27.3265 2.16H27.2985C27.3172 2.356 27.3359 2.594 27.3545 2.874C27.3825 3.14467 27.4059 3.434 27.4245 3.742C27.4432 4.05 27.4572 4.34867 27.4665 4.638C27.4852 4.92733 27.4945 5.184 27.4945 5.408V10H26.4025Z" fill="#CAD1E9"/>
</svg>
