<svg width="73" height="13" viewBox="0 0 73 13" fill="none" xmlns="http://www.w3.org/2000/svg">
<path d="M0.488 12V0.832H7.144V2.016H1.832V5.76H6.68V6.944H1.832V12H0.488ZM14.1393 10.656H14.0753C13.9899 10.848 13.8833 11.04 13.7552 11.232C13.6379 11.4133 13.4886 11.5787 13.3073 11.728C13.1259 11.8667 12.9073 11.9787 12.6512 12.064C12.3953 12.1493 12.0966 12.192 11.7552 12.192C10.9019 12.192 10.2246 11.92 9.72325 11.376C9.22192 10.8213 8.97125 10.0427 8.97125 9.04V3.744H10.2513V8.816C10.2513 10.2987 10.8806 11.04 12.1393 11.04C12.3953 11.04 12.6406 11.008 12.8752 10.944C13.1206 10.88 13.3339 10.784 13.5153 10.656C13.7073 10.528 13.8566 10.368 13.9633 10.176C14.0806 9.97333 14.1393 9.73333 14.1393 9.456V3.744H15.4193V12H14.1393V10.656ZM19.665 12C19.217 12 18.8757 11.8773 18.641 11.632C18.417 11.376 18.305 11.056 18.305 10.672V0.16H19.585V10.88H20.801V12H19.665ZM24.1062 12C23.6582 12 23.3169 11.8773 23.0822 11.632C22.8582 11.376 22.7462 11.056 22.7462 10.672V0.16H24.0262V10.88H25.2422V12H24.1062ZM34.0389 5.184L32.6949 2.704H32.6469V12H31.3349V0.832H32.8869L36.9669 7.648L38.3109 10.128H38.3589V0.832H39.6709V12H38.1189L34.0389 5.184ZM48.6794 12C48.1994 12 47.8527 11.872 47.6394 11.616C47.4367 11.36 47.3087 11.04 47.2554 10.656H47.1754C46.994 11.168 46.6954 11.552 46.2794 11.808C45.8634 12.064 45.3674 12.192 44.7914 12.192C43.9167 12.192 43.234 11.968 42.7434 11.52C42.2634 11.072 42.0234 10.464 42.0234 9.696C42.0234 8.91733 42.306 8.32 42.8714 7.904C43.4474 7.488 44.338 7.28 45.5434 7.28H47.1754V6.464C47.1754 5.87733 47.0154 5.42933 46.6954 5.12C46.3754 4.81067 45.8847 4.656 45.2234 4.656C44.722 4.656 44.3007 4.768 43.9594 4.992C43.6287 5.216 43.3514 5.51467 43.1274 5.888L42.3594 5.168C42.5834 4.72 42.9407 4.34133 43.4314 4.032C43.922 3.712 44.5407 3.552 45.2874 3.552C46.29 3.552 47.0687 3.79733 47.6234 4.288C48.178 4.77867 48.4554 5.46133 48.4554 6.336V10.88H49.3994V12H48.6794ZM44.9994 11.104C45.3194 11.104 45.6127 11.0667 45.8794 10.992C46.146 10.9173 46.3754 10.8107 46.5674 10.672C46.7594 10.5333 46.9087 10.3733 47.0154 10.192C47.122 10.0107 47.1754 9.81333 47.1754 9.6V8.24H45.4794C44.7434 8.24 44.2047 8.34667 43.8634 8.56C43.5327 8.77333 43.3674 9.08267 43.3674 9.488V9.824C43.3674 10.2293 43.5114 10.544 43.7994 10.768C44.098 10.992 44.498 11.104 44.9994 11.104ZM51.3862 12V3.744H52.6662V5.088H52.7302C52.8262 4.87467 52.9329 4.67733 53.0502 4.496C53.1782 4.304 53.3276 4.13867 53.4982 4C53.6796 3.86133 53.8876 3.75467 54.1222 3.68C54.3569 3.59467 54.6342 3.552 54.9542 3.552C55.4982 3.552 55.9996 3.68533 56.4582 3.952C56.9169 4.208 57.2582 4.63467 57.4822 5.232H57.5142C57.6636 4.784 57.9409 4.39467 58.3462 4.064C58.7622 3.72267 59.3222 3.552 60.0262 3.552C60.8689 3.552 61.5249 3.82933 61.9942 4.384C62.4742 4.928 62.7142 5.70133 62.7142 6.704V12H61.4342V6.928C61.4342 6.192 61.2902 5.63733 61.0022 5.264C60.7142 4.89067 60.2556 4.704 59.6262 4.704C59.3702 4.704 59.1249 4.736 58.8902 4.8C58.6662 4.864 58.4636 4.96 58.2822 5.088C58.1009 5.216 57.9569 5.38133 57.8502 5.584C57.7436 5.776 57.6902 6.00533 57.6902 6.272V12H56.4102V6.928C56.4102 6.192 56.2662 5.63733 55.9782 5.264C55.6902 4.89067 55.2422 4.704 54.6342 4.704C54.3782 4.704 54.1329 4.736 53.8982 4.8C53.6636 4.864 53.4556 4.96 53.2742 5.088C53.0929 5.216 52.9436 5.38133 52.8262 5.584C52.7196 5.776 52.6662 6.00533 52.6662 6.272V12H51.3862ZM68.619 12.192C68.0537 12.192 67.5417 12.0907 67.083 11.888C66.635 11.6853 66.2457 11.3973 65.915 11.024C65.595 10.64 65.3443 10.1867 65.163 9.664C64.9923 9.13067 64.907 8.53333 64.907 7.872C64.907 7.22133 64.9923 6.62933 65.163 6.096C65.3443 5.56267 65.595 5.10933 65.915 4.736C66.2457 4.352 66.635 4.05867 67.083 3.856C67.5417 3.65333 68.0537 3.552 68.619 3.552C69.1737 3.552 69.6697 3.65333 70.107 3.856C70.5443 4.05867 70.9177 4.34133 71.227 4.704C71.5363 5.056 71.771 5.47733 71.931 5.968C72.1017 6.45867 72.187 6.99733 72.187 7.584V8.192H66.251V8.576C66.251 8.928 66.3043 9.25867 66.411 9.568C66.5283 9.86667 66.6883 10.128 66.891 10.352C67.1043 10.576 67.3603 10.752 67.659 10.88C67.9683 11.008 68.315 11.072 68.699 11.072C69.2217 11.072 69.675 10.9493 70.059 10.704C70.4537 10.4587 70.7577 10.1067 70.971 9.648L71.883 10.304C71.6163 10.8693 71.2003 11.328 70.635 11.68C70.0697 12.0213 69.3977 12.192 68.619 12.192ZM68.619 4.624C68.267 4.624 67.947 4.688 67.659 4.816C67.371 4.93333 67.1203 5.104 66.907 5.328C66.7043 5.552 66.5443 5.81867 66.427 6.128C66.3097 6.42667 66.251 6.75733 66.251 7.12V7.232H70.811V7.056C70.811 6.32 70.6083 5.73333 70.203 5.296C69.8083 4.848 69.2803 4.624 68.619 4.624Z" fill="white"/>
</svg>
