<svg width="460" height="48" viewBox="0 0 460 48" fill="none" xmlns="http://www.w3.org/2000/svg">
<rect x="0.5" y="0.5" width="459" height="47" rx="3.5" stroke="url(#paint0_linear_2243_130)"/>
<path d="M17.248 20.016V30H15.904V20.016H12.352V18.832H20.8V20.016H17.248ZM27.1236 21.744H28.3876L24.6916 31.92C24.5956 32.1653 24.4996 32.368 24.4036 32.528C24.3076 32.6987 24.1903 32.832 24.0516 32.928C23.913 33.024 23.737 33.0933 23.5236 33.136C23.321 33.1787 23.0703 33.2 22.7716 33.2H22.1156V32.08H23.4116L24.0356 30.32L20.9476 21.744H22.2276L24.2116 27.36L24.5956 28.704H24.6756L25.1236 27.36L27.1236 21.744ZM30.18 21.744H31.46V23.088H31.524C31.7373 22.5653 32.0467 22.1813 32.452 21.936C32.868 21.68 33.364 21.552 33.94 21.552C34.452 21.552 34.916 21.6533 35.332 21.856C35.748 22.0587 36.1 22.3467 36.388 22.72C36.6867 23.0933 36.9107 23.5467 37.06 24.08C37.22 24.6133 37.3 25.2107 37.3 25.872C37.3 26.5333 37.22 27.1307 37.06 27.664C36.9107 28.1973 36.6867 28.6507 36.388 29.024C36.1 29.3973 35.748 29.6853 35.332 29.888C34.916 30.0907 34.452 30.192 33.94 30.192C32.82 30.192 32.0147 29.68 31.524 28.656H31.46V33.2H30.18V21.744ZM33.588 29.04C34.3133 29.04 34.884 28.816 35.3 28.368C35.716 27.9093 35.924 27.312 35.924 26.576V25.168C35.924 24.432 35.716 23.84 35.3 23.392C34.884 22.9333 34.3133 22.704 33.588 22.704C33.3 22.704 33.0227 22.7467 32.756 22.832C32.5 22.9067 32.276 23.0133 32.084 23.152C31.892 23.2907 31.7373 23.4613 31.62 23.664C31.5133 23.856 31.46 24.064 31.46 24.288V27.36C31.46 27.6267 31.5133 27.8667 31.62 28.08C31.7373 28.2827 31.892 28.4587 32.084 28.608C32.276 28.7467 32.5 28.8533 32.756 28.928C33.0227 29.0027 33.3 29.04 33.588 29.04ZM42.7252 30.192C42.1599 30.192 41.6479 30.0907 41.1892 29.888C40.7412 29.6853 40.3519 29.3973 40.0212 29.024C39.7012 28.64 39.4506 28.1867 39.2692 27.664C39.0986 27.1307 39.0132 26.5333 39.0132 25.872C39.0132 25.2213 39.0986 24.6293 39.2692 24.096C39.4506 23.5627 39.7012 23.1093 40.0212 22.736C40.3519 22.352 40.7412 22.0587 41.1892 21.856C41.6479 21.6533 42.1599 21.552 42.7252 21.552C43.2799 21.552 43.7759 21.6533 44.2132 21.856C44.6506 22.0587 45.0239 22.3413 45.3333 22.704C45.6426 23.056 45.8772 23.4773 46.0373 23.968C46.2079 24.4587 46.2933 24.9973 46.2933 25.584V26.192H40.3572V26.576C40.3572 26.928 40.4106 27.2587 40.5172 27.568C40.6346 27.8667 40.7946 28.128 40.9972 28.352C41.2106 28.576 41.4666 28.752 41.7652 28.88C42.0746 29.008 42.4212 29.072 42.8052 29.072C43.3279 29.072 43.7812 28.9493 44.1652 28.704C44.5599 28.4587 44.8639 28.1067 45.0773 27.648L45.9892 28.304C45.7226 28.8693 45.3066 29.328 44.7413 29.68C44.1759 30.0213 43.5039 30.192 42.7252 30.192ZM42.7252 22.624C42.3732 22.624 42.0532 22.688 41.7652 22.816C41.4772 22.9333 41.2266 23.104 41.0132 23.328C40.8106 23.552 40.6506 23.8187 40.5332 24.128C40.4159 24.4267 40.3572 24.7573 40.3572 25.12V25.232H44.9172V25.056C44.9172 24.32 44.7146 23.7333 44.3092 23.296C43.9146 22.848 43.3866 22.624 42.7252 22.624ZM55.1917 30V25.584L51.3517 18.832H52.8877L55.8637 24.208H55.9117L58.8877 18.832H60.4237L56.5357 25.536V30H55.1917ZM64.4712 30.192C63.9166 30.192 63.4099 30.0907 62.9512 29.888C62.4926 29.6853 62.0979 29.3973 61.7672 29.024C61.4472 28.64 61.1966 28.1867 61.0152 27.664C60.8339 27.1307 60.7432 26.5333 60.7432 25.872C60.7432 25.2213 60.8339 24.6293 61.0152 24.096C61.1966 23.5627 61.4472 23.1093 61.7672 22.736C62.0979 22.352 62.4926 22.0587 62.9512 21.856C63.4099 21.6533 63.9166 21.552 64.4712 21.552C65.0259 21.552 65.5272 21.6533 65.9752 21.856C66.4339 22.0587 66.8286 22.352 67.1592 22.736C67.4899 23.1093 67.7459 23.5627 67.9272 24.096C68.1086 24.6293 68.1992 25.2213 68.1992 25.872C68.1992 26.5333 68.1086 27.1307 67.9272 27.664C67.7459 28.1867 67.4899 28.64 67.1592 29.024C66.8286 29.3973 66.4339 29.6853 65.9752 29.888C65.5272 30.0907 65.0259 30.192 64.4712 30.192ZM64.4712 29.056C65.1646 29.056 65.7299 28.8427 66.1672 28.416C66.6046 27.9893 66.8232 27.3387 66.8232 26.464V25.28C66.8232 24.4053 66.6046 23.7547 66.1672 23.328C65.7299 22.9013 65.1646 22.688 64.4712 22.688C63.7779 22.688 63.2126 22.9013 62.7752 23.328C62.3379 23.7547 62.1192 24.4053 62.1192 25.28V26.464C62.1192 27.3387 62.3379 27.9893 62.7752 28.416C63.2126 28.8427 63.7779 29.056 64.4712 29.056ZM75.5524 28.656H75.4884C75.403 28.848 75.2964 29.04 75.1684 29.232C75.051 29.4133 74.9017 29.5787 74.7204 29.728C74.539 29.8667 74.3204 29.9787 74.0644 30.064C73.8084 30.1493 73.5097 30.192 73.1684 30.192C72.315 30.192 71.6377 29.92 71.1364 29.376C70.635 28.8213 70.3844 28.0427 70.3844 27.04V21.744H71.6644V26.816C71.6644 28.2987 72.2937 29.04 73.5524 29.04C73.8084 29.04 74.0537 29.008 74.2884 28.944C74.5337 28.88 74.747 28.784 74.9284 28.656C75.1204 28.528 75.2697 28.368 75.3764 28.176C75.4937 27.9733 75.5524 27.7333 75.5524 27.456V21.744H76.8324V30H75.5524V28.656ZM79.7181 30V21.744H80.9981V23.264H81.0781C81.2275 22.8693 81.4941 22.5173 81.8781 22.208C82.2621 21.8987 82.7901 21.744 83.4621 21.744H83.9581V23.024H83.2061C82.5128 23.024 81.9688 23.1573 81.5741 23.424C81.1901 23.68 80.9981 24.0053 80.9981 24.4V30H79.7181ZM92.5264 23.184L91.1824 20.704H91.1344V30H89.8224V18.832H91.3744L95.4544 25.648L96.7984 28.128H96.8464V18.832H98.1584V30H96.6064L92.5264 23.184ZM107.167 30C106.687 30 106.34 29.872 106.127 29.616C105.924 29.36 105.796 29.04 105.743 28.656H105.663C105.482 29.168 105.183 29.552 104.767 29.808C104.351 30.064 103.855 30.192 103.279 30.192C102.404 30.192 101.722 29.968 101.231 29.52C100.751 29.072 100.511 28.464 100.511 27.696C100.511 26.9173 100.794 26.32 101.359 25.904C101.935 25.488 102.826 25.28 104.031 25.28H105.663V24.464C105.663 23.8773 105.503 23.4293 105.183 23.12C104.863 22.8107 104.372 22.656 103.711 22.656C103.21 22.656 102.788 22.768 102.447 22.992C102.116 23.216 101.839 23.5147 101.615 23.888L100.847 23.168C101.071 22.72 101.428 22.3413 101.919 22.032C102.41 21.712 103.028 21.552 103.775 21.552C104.778 21.552 105.556 21.7973 106.111 22.288C106.666 22.7787 106.943 23.4613 106.943 24.336V28.88H107.887V30H107.167ZM103.487 29.104C103.807 29.104 104.1 29.0667 104.367 28.992C104.634 28.9173 104.863 28.8107 105.055 28.672C105.247 28.5333 105.396 28.3733 105.503 28.192C105.61 28.0107 105.663 27.8133 105.663 27.6V26.24H103.967C103.231 26.24 102.692 26.3467 102.351 26.56C102.02 26.7733 101.855 27.0827 101.855 27.488V27.824C101.855 28.2293 101.999 28.544 102.287 28.768C102.586 28.992 102.986 29.104 103.487 29.104ZM109.874 30V21.744H111.154V23.088H111.218C111.314 22.8747 111.42 22.6773 111.538 22.496C111.666 22.304 111.815 22.1387 111.986 22C112.167 21.8613 112.375 21.7547 112.61 21.68C112.844 21.5947 113.122 21.552 113.442 21.552C113.986 21.552 114.487 21.6853 114.946 21.952C115.404 22.208 115.746 22.6347 115.97 23.232H116.002C116.151 22.784 116.428 22.3947 116.834 22.064C117.25 21.7227 117.81 21.552 118.514 21.552C119.356 21.552 120.012 21.8293 120.482 22.384C120.962 22.928 121.202 23.7013 121.202 24.704V30H119.922V24.928C119.922 24.192 119.778 23.6373 119.49 23.264C119.202 22.8907 118.743 22.704 118.114 22.704C117.858 22.704 117.612 22.736 117.378 22.8C117.154 22.864 116.951 22.96 116.77 23.088C116.588 23.216 116.444 23.3813 116.338 23.584C116.231 23.776 116.178 24.0053 116.178 24.272V30H114.898V24.928C114.898 24.192 114.754 23.6373 114.466 23.264C114.178 22.8907 113.73 22.704 113.122 22.704C112.866 22.704 112.62 22.736 112.386 22.8C112.151 22.864 111.943 22.96 111.762 23.088C111.58 23.216 111.431 23.3813 111.314 23.584C111.207 23.776 111.154 24.0053 111.154 24.272V30H109.874ZM127.107 30.192C126.541 30.192 126.029 30.0907 125.571 29.888C125.123 29.6853 124.733 29.3973 124.403 29.024C124.083 28.64 123.832 28.1867 123.651 27.664C123.48 27.1307 123.395 26.5333 123.395 25.872C123.395 25.2213 123.48 24.6293 123.651 24.096C123.832 23.5627 124.083 23.1093 124.403 22.736C124.733 22.352 125.123 22.0587 125.571 21.856C126.029 21.6533 126.541 21.552 127.107 21.552C127.661 21.552 128.157 21.6533 128.595 21.856C129.032 22.0587 129.405 22.3413 129.715 22.704C130.024 23.056 130.259 23.4773 130.419 23.968C130.589 24.4587 130.675 24.9973 130.675 25.584V26.192H124.739V26.576C124.739 26.928 124.792 27.2587 124.899 27.568C125.016 27.8667 125.176 28.128 125.379 28.352C125.592 28.576 125.848 28.752 126.147 28.88C126.456 29.008 126.803 29.072 127.187 29.072C127.709 29.072 128.163 28.9493 128.547 28.704C128.941 28.4587 129.245 28.1067 129.459 27.648L130.371 28.304C130.104 28.8693 129.688 29.328 129.123 29.68C128.557 30.0213 127.885 30.192 127.107 30.192ZM127.107 22.624C126.755 22.624 126.435 22.688 126.147 22.816C125.859 22.9333 125.608 23.104 125.395 23.328C125.192 23.552 125.032 23.8187 124.915 24.128C124.797 24.4267 124.739 24.7573 124.739 25.12V25.232H129.299V25.056C129.299 24.32 129.096 23.7333 128.691 23.296C128.296 22.848 127.768 22.624 127.107 22.624Z" fill="#B8BCCA"/>
<defs>
<linearGradient id="paint0_linear_2243_130" x1="9.64695e-07" y1="89" x2="460" y2="-36" gradientUnits="userSpaceOnUse">
<stop offset="0.0152174" stop-color="#090EDB"/>
<stop offset="1" stop-color="#E73DC4"/>
</linearGradient>
</defs>
</svg>
