<svg width="460" height="74" viewBox="0 0 460 74" fill="none" xmlns="http://www.w3.org/2000/svg">
<g clip-path="url(#clip0_2029_497)">
<path d="M1.488 16V4.832H8.144V6.016H2.832V9.76H7.68V10.944H2.832V16H1.488ZM15.1393 14.656H15.0753C14.9899 14.848 14.8833 15.04 14.7552 15.232C14.6379 15.4133 14.4886 15.5787 14.3073 15.728C14.1259 15.8667 13.9073 15.9787 13.6512 16.064C13.3953 16.1493 13.0966 16.192 12.7552 16.192C11.9019 16.192 11.2246 15.92 10.7232 15.376C10.2219 14.8213 9.97125 14.0427 9.97125 13.04V7.744H11.2513V12.816C11.2513 14.2987 11.8806 15.04 13.1393 15.04C13.3953 15.04 13.6406 15.008 13.8752 14.944C14.1206 14.88 14.3339 14.784 14.5153 14.656C14.7073 14.528 14.8566 14.368 14.9633 14.176C15.0806 13.9733 15.1393 13.7333 15.1393 13.456V7.744H16.4193V16H15.1393V14.656ZM20.665 16C20.217 16 19.8757 15.8773 19.641 15.632C19.417 15.376 19.305 15.056 19.305 14.672V4.16H20.585V14.88H21.801V16H20.665ZM25.1062 16C24.6582 16 24.3169 15.8773 24.0822 15.632C23.8582 15.376 23.7462 15.056 23.7462 14.672V4.16H25.0262V14.88H26.2422V16H25.1062ZM35.0389 9.184L33.6949 6.704H33.6469V16H32.3349V4.832H33.8869L37.9669 11.648L39.3109 14.128H39.3589V4.832H40.6709V16H39.1189L35.0389 9.184ZM49.6794 16C49.1994 16 48.8527 15.872 48.6394 15.616C48.4367 15.36 48.3087 15.04 48.2554 14.656H48.1754C47.994 15.168 47.6954 15.552 47.2794 15.808C46.8634 16.064 46.3674 16.192 45.7914 16.192C44.9167 16.192 44.234 15.968 43.7434 15.52C43.2634 15.072 43.0234 14.464 43.0234 13.696C43.0234 12.9173 43.306 12.32 43.8714 11.904C44.4474 11.488 45.338 11.28 46.5434 11.28H48.1754V10.464C48.1754 9.87733 48.0154 9.42933 47.6954 9.12C47.3754 8.81067 46.8847 8.656 46.2234 8.656C45.722 8.656 45.3007 8.768 44.9594 8.992C44.6287 9.216 44.3514 9.51467 44.1274 9.888L43.3594 9.168C43.5834 8.72 43.9407 8.34133 44.4314 8.032C44.922 7.712 45.5407 7.552 46.2874 7.552C47.29 7.552 48.0687 7.79733 48.6234 8.288C49.178 8.77867 49.4554 9.46133 49.4554 10.336V14.88H50.3994V16H49.6794ZM45.9994 15.104C46.3194 15.104 46.6127 15.0667 46.8794 14.992C47.146 14.9173 47.3754 14.8107 47.5674 14.672C47.7594 14.5333 47.9087 14.3733 48.0154 14.192C48.122 14.0107 48.1754 13.8133 48.1754 13.6V12.24H46.4794C45.7434 12.24 45.2047 12.3467 44.8634 12.56C44.5327 12.7733 44.3674 13.0827 44.3674 13.488V13.824C44.3674 14.2293 44.5114 14.544 44.7994 14.768C45.098 14.992 45.498 15.104 45.9994 15.104ZM52.3862 16V7.744H53.6662V9.088H53.7302C53.8262 8.87467 53.9329 8.67733 54.0502 8.496C54.1782 8.304 54.3276 8.13867 54.4982 8C54.6796 7.86133 54.8876 7.75467 55.1222 7.68C55.3569 7.59467 55.6342 7.552 55.9542 7.552C56.4982 7.552 56.9996 7.68533 57.4582 7.952C57.9169 8.208 58.2582 8.63467 58.4822 9.232H58.5142C58.6636 8.784 58.9409 8.39467 59.3462 8.064C59.7622 7.72267 60.3222 7.552 61.0262 7.552C61.8689 7.552 62.5249 7.82933 62.9942 8.384C63.4742 8.928 63.7142 9.70133 63.7142 10.704V16H62.4342V10.928C62.4342 10.192 62.2902 9.63733 62.0022 9.264C61.7142 8.89067 61.2556 8.704 60.6262 8.704C60.3702 8.704 60.1249 8.736 59.8902 8.8C59.6662 8.864 59.4636 8.96 59.2822 9.088C59.1009 9.216 58.9569 9.38133 58.8502 9.584C58.7436 9.776 58.6902 10.0053 58.6902 10.272V16H57.4102V10.928C57.4102 10.192 57.2662 9.63733 56.9782 9.264C56.6902 8.89067 56.2422 8.704 55.6342 8.704C55.3782 8.704 55.1329 8.736 54.8982 8.8C54.6636 8.864 54.4556 8.96 54.2742 9.088C54.0929 9.216 53.9436 9.38133 53.8262 9.584C53.7196 9.776 53.6662 10.0053 53.6662 10.272V16H52.3862ZM69.619 16.192C69.0537 16.192 68.5417 16.0907 68.083 15.888C67.635 15.6853 67.2457 15.3973 66.915 15.024C66.595 14.64 66.3443 14.1867 66.163 13.664C65.9923 13.1307 65.907 12.5333 65.907 11.872C65.907 11.2213 65.9923 10.6293 66.163 10.096C66.3443 9.56267 66.595 9.10933 66.915 8.736C67.2457 8.352 67.635 8.05867 68.083 7.856C68.5417 7.65333 69.0537 7.552 69.619 7.552C70.1737 7.552 70.6697 7.65333 71.107 7.856C71.5443 8.05867 71.9177 8.34133 72.227 8.704C72.5363 9.056 72.771 9.47733 72.931 9.968C73.1017 10.4587 73.187 10.9973 73.187 11.584V12.192H67.251V12.576C67.251 12.928 67.3043 13.2587 67.411 13.568C67.5283 13.8667 67.6883 14.128 67.891 14.352C68.1043 14.576 68.3603 14.752 68.659 14.88C68.9683 15.008 69.315 15.072 69.699 15.072C70.2217 15.072 70.675 14.9493 71.059 14.704C71.4537 14.4587 71.7577 14.1067 71.971 13.648L72.883 14.304C72.6163 14.8693 72.2003 15.328 71.635 15.68C71.0697 16.0213 70.3977 16.192 69.619 16.192ZM69.619 8.624C69.267 8.624 68.947 8.688 68.659 8.816C68.371 8.93333 68.1203 9.104 67.907 9.328C67.7043 9.552 67.5443 9.81867 67.427 10.128C67.3097 10.4267 67.251 10.7573 67.251 11.12V11.232H71.811V11.056C71.811 10.32 71.6083 9.73333 71.203 9.296C70.8083 8.848 70.2803 8.624 69.619 8.624Z" fill="white"/>
<rect x="0.5" y="26.5" width="459" height="47" rx="3.5" stroke="url(#paint0_linear_2029_497)"/>
<path d="M17.248 46.016V56H15.904V46.016H12.352V44.832H20.8V46.016H17.248ZM27.1236 47.744H28.3876L24.6916 57.92C24.5956 58.1653 24.4996 58.368 24.4036 58.528C24.3076 58.6987 24.1903 58.832 24.0516 58.928C23.913 59.024 23.737 59.0933 23.5236 59.136C23.321 59.1787 23.0703 59.2 22.7716 59.2H22.1156V58.08H23.4116L24.0356 56.32L20.9476 47.744H22.2276L24.2116 53.36L24.5956 54.704H24.6756L25.1236 53.36L27.1236 47.744ZM30.18 47.744H31.46V49.088H31.524C31.7373 48.5653 32.0467 48.1813 32.452 47.936C32.868 47.68 33.364 47.552 33.94 47.552C34.452 47.552 34.916 47.6533 35.332 47.856C35.748 48.0587 36.1 48.3467 36.388 48.72C36.6867 49.0933 36.9107 49.5467 37.06 50.08C37.22 50.6133 37.3 51.2107 37.3 51.872C37.3 52.5333 37.22 53.1307 37.06 53.664C36.9107 54.1973 36.6867 54.6507 36.388 55.024C36.1 55.3973 35.748 55.6853 35.332 55.888C34.916 56.0907 34.452 56.192 33.94 56.192C32.82 56.192 32.0147 55.68 31.524 54.656H31.46V59.2H30.18V47.744ZM33.588 55.04C34.3133 55.04 34.884 54.816 35.3 54.368C35.716 53.9093 35.924 53.312 35.924 52.576V51.168C35.924 50.432 35.716 49.84 35.3 49.392C34.884 48.9333 34.3133 48.704 33.588 48.704C33.3 48.704 33.0227 48.7467 32.756 48.832C32.5 48.9067 32.276 49.0133 32.084 49.152C31.892 49.2907 31.7373 49.4613 31.62 49.664C31.5133 49.856 31.46 50.064 31.46 50.288V53.36C31.46 53.6267 31.5133 53.8667 31.62 54.08C31.7373 54.2827 31.892 54.4587 32.084 54.608C32.276 54.7467 32.5 54.8533 32.756 54.928C33.0227 55.0027 33.3 55.04 33.588 55.04ZM42.7252 56.192C42.1599 56.192 41.6479 56.0907 41.1892 55.888C40.7412 55.6853 40.3519 55.3973 40.0212 55.024C39.7012 54.64 39.4506 54.1867 39.2692 53.664C39.0986 53.1307 39.0132 52.5333 39.0132 51.872C39.0132 51.2213 39.0986 50.6293 39.2692 50.096C39.4506 49.5627 39.7012 49.1093 40.0212 48.736C40.3519 48.352 40.7412 48.0587 41.1892 47.856C41.6479 47.6533 42.1599 47.552 42.7252 47.552C43.2799 47.552 43.7759 47.6533 44.2132 47.856C44.6506 48.0587 45.0239 48.3413 45.3333 48.704C45.6426 49.056 45.8772 49.4773 46.0373 49.968C46.2079 50.4587 46.2933 50.9973 46.2933 51.584V52.192H40.3572V52.576C40.3572 52.928 40.4106 53.2587 40.5172 53.568C40.6346 53.8667 40.7946 54.128 40.9972 54.352C41.2106 54.576 41.4666 54.752 41.7652 54.88C42.0746 55.008 42.4212 55.072 42.8052 55.072C43.3279 55.072 43.7812 54.9493 44.1652 54.704C44.5599 54.4587 44.8639 54.1067 45.0773 53.648L45.9892 54.304C45.7226 54.8693 45.3066 55.328 44.7413 55.68C44.1759 56.0213 43.5039 56.192 42.7252 56.192ZM42.7252 48.624C42.3732 48.624 42.0532 48.688 41.7652 48.816C41.4772 48.9333 41.2266 49.104 41.0132 49.328C40.8106 49.552 40.6506 49.8187 40.5332 50.128C40.4159 50.4267 40.3572 50.7573 40.3572 51.12V51.232H44.9172V51.056C44.9172 50.32 44.7146 49.7333 44.3092 49.296C43.9146 48.848 43.3866 48.624 42.7252 48.624ZM55.1917 56V51.584L51.3517 44.832H52.8877L55.8637 50.208H55.9117L58.8877 44.832H60.4237L56.5357 51.536V56H55.1917ZM64.4712 56.192C63.9166 56.192 63.4099 56.0907 62.9512 55.888C62.4926 55.6853 62.0979 55.3973 61.7672 55.024C61.4472 54.64 61.1966 54.1867 61.0152 53.664C60.8339 53.1307 60.7432 52.5333 60.7432 51.872C60.7432 51.2213 60.8339 50.6293 61.0152 50.096C61.1966 49.5627 61.4472 49.1093 61.7672 48.736C62.0979 48.352 62.4926 48.0587 62.9512 47.856C63.4099 47.6533 63.9166 47.552 64.4712 47.552C65.0259 47.552 65.5272 47.6533 65.9752 47.856C66.4339 48.0587 66.8286 48.352 67.1592 48.736C67.4899 49.1093 67.7459 49.5627 67.9272 50.096C68.1086 50.6293 68.1992 51.2213 68.1992 51.872C68.1992 52.5333 68.1086 53.1307 67.9272 53.664C67.7459 54.1867 67.4899 54.64 67.1592 55.024C66.8286 55.3973 66.4339 55.6853 65.9752 55.888C65.5272 56.0907 65.0259 56.192 64.4712 56.192ZM64.4712 55.056C65.1646 55.056 65.7299 54.8427 66.1672 54.416C66.6046 53.9893 66.8232 53.3387 66.8232 52.464V51.28C66.8232 50.4053 66.6046 49.7547 66.1672 49.328C65.7299 48.9013 65.1646 48.688 64.4712 48.688C63.7779 48.688 63.2126 48.9013 62.7752 49.328C62.3379 49.7547 62.1192 50.4053 62.1192 51.28V52.464C62.1192 53.3387 62.3379 53.9893 62.7752 54.416C63.2126 54.8427 63.7779 55.056 64.4712 55.056ZM75.5524 54.656H75.4884C75.403 54.848 75.2964 55.04 75.1684 55.232C75.051 55.4133 74.9017 55.5787 74.7204 55.728C74.539 55.8667 74.3204 55.9787 74.0644 56.064C73.8084 56.1493 73.5097 56.192 73.1684 56.192C72.315 56.192 71.6377 55.92 71.1364 55.376C70.635 54.8213 70.3844 54.0427 70.3844 53.04V47.744H71.6644V52.816C71.6644 54.2987 72.2937 55.04 73.5524 55.04C73.8084 55.04 74.0537 55.008 74.2884 54.944C74.5337 54.88 74.747 54.784 74.9284 54.656C75.1204 54.528 75.2697 54.368 75.3764 54.176C75.4937 53.9733 75.5524 53.7333 75.5524 53.456V47.744H76.8324V56H75.5524V54.656ZM79.7181 56V47.744H80.9981V49.264H81.0781C81.2275 48.8693 81.4941 48.5173 81.8781 48.208C82.2621 47.8987 82.7901 47.744 83.4621 47.744H83.9581V49.024H83.2061C82.5128 49.024 81.9688 49.1573 81.5741 49.424C81.1901 49.68 80.9981 50.0053 80.9981 50.4V56H79.7181ZM92.5264 49.184L91.1824 46.704H91.1344V56H89.8224V44.832H91.3744L95.4544 51.648L96.7984 54.128H96.8464V44.832H98.1584V56H96.6064L92.5264 49.184ZM107.167 56C106.687 56 106.34 55.872 106.127 55.616C105.924 55.36 105.796 55.04 105.743 54.656H105.663C105.482 55.168 105.183 55.552 104.767 55.808C104.351 56.064 103.855 56.192 103.279 56.192C102.404 56.192 101.722 55.968 101.231 55.52C100.751 55.072 100.511 54.464 100.511 53.696C100.511 52.9173 100.794 52.32 101.359 51.904C101.935 51.488 102.826 51.28 104.031 51.28H105.663V50.464C105.663 49.8773 105.503 49.4293 105.183 49.12C104.863 48.8107 104.372 48.656 103.711 48.656C103.21 48.656 102.788 48.768 102.447 48.992C102.116 49.216 101.839 49.5147 101.615 49.888L100.847 49.168C101.071 48.72 101.428 48.3413 101.919 48.032C102.41 47.712 103.028 47.552 103.775 47.552C104.778 47.552 105.556 47.7973 106.111 48.288C106.666 48.7787 106.943 49.4613 106.943 50.336V54.88H107.887V56H107.167ZM103.487 55.104C103.807 55.104 104.1 55.0667 104.367 54.992C104.634 54.9173 104.863 54.8107 105.055 54.672C105.247 54.5333 105.396 54.3733 105.503 54.192C105.61 54.0107 105.663 53.8133 105.663 53.6V52.24H103.967C103.231 52.24 102.692 52.3467 102.351 52.56C102.02 52.7733 101.855 53.0827 101.855 53.488V53.824C101.855 54.2293 101.999 54.544 102.287 54.768C102.586 54.992 102.986 55.104 103.487 55.104ZM109.874 56V47.744H111.154V49.088H111.218C111.314 48.8747 111.42 48.6773 111.538 48.496C111.666 48.304 111.815 48.1387 111.986 48C112.167 47.8613 112.375 47.7547 112.61 47.68C112.844 47.5947 113.122 47.552 113.442 47.552C113.986 47.552 114.487 47.6853 114.946 47.952C115.404 48.208 115.746 48.6347 115.97 49.232H116.002C116.151 48.784 116.428 48.3947 116.834 48.064C117.25 47.7227 117.81 47.552 118.514 47.552C119.356 47.552 120.012 47.8293 120.482 48.384C120.962 48.928 121.202 49.7013 121.202 50.704V56H119.922V50.928C119.922 50.192 119.778 49.6373 119.49 49.264C119.202 48.8907 118.743 48.704 118.114 48.704C117.858 48.704 117.612 48.736 117.378 48.8C117.154 48.864 116.951 48.96 116.77 49.088C116.588 49.216 116.444 49.3813 116.338 49.584C116.231 49.776 116.178 50.0053 116.178 50.272V56H114.898V50.928C114.898 50.192 114.754 49.6373 114.466 49.264C114.178 48.8907 113.73 48.704 113.122 48.704C112.866 48.704 112.62 48.736 112.386 48.8C112.151 48.864 111.943 48.96 111.762 49.088C111.58 49.216 111.431 49.3813 111.314 49.584C111.207 49.776 111.154 50.0053 111.154 50.272V56H109.874ZM127.107 56.192C126.541 56.192 126.029 56.0907 125.571 55.888C125.123 55.6853 124.733 55.3973 124.403 55.024C124.083 54.64 123.832 54.1867 123.651 53.664C123.48 53.1307 123.395 52.5333 123.395 51.872C123.395 51.2213 123.48 50.6293 123.651 50.096C123.832 49.5627 124.083 49.1093 124.403 48.736C124.733 48.352 125.123 48.0587 125.571 47.856C126.029 47.6533 126.541 47.552 127.107 47.552C127.661 47.552 128.157 47.6533 128.595 47.856C129.032 48.0587 129.405 48.3413 129.715 48.704C130.024 49.056 130.259 49.4773 130.419 49.968C130.589 50.4587 130.675 50.9973 130.675 51.584V52.192H124.739V52.576C124.739 52.928 124.792 53.2587 124.899 53.568C125.016 53.8667 125.176 54.128 125.379 54.352C125.592 54.576 125.848 54.752 126.147 54.88C126.456 55.008 126.803 55.072 127.187 55.072C127.709 55.072 128.163 54.9493 128.547 54.704C128.941 54.4587 129.245 54.1067 129.459 53.648L130.371 54.304C130.104 54.8693 129.688 55.328 129.123 55.68C128.557 56.0213 127.885 56.192 127.107 56.192ZM127.107 48.624C126.755 48.624 126.435 48.688 126.147 48.816C125.859 48.9333 125.608 49.104 125.395 49.328C125.192 49.552 125.032 49.8187 124.915 50.128C124.797 50.4267 124.739 50.7573 124.739 51.12V51.232H129.299V51.056C129.299 50.32 129.096 49.7333 128.691 49.296C128.296 48.848 127.768 48.624 127.107 48.624Z" fill="#B8BCCA"/>
</g>
<defs>
<linearGradient id="paint0_linear_2029_497" x1="9.64695e-07" y1="115" x2="460" y2="-10" gradientUnits="userSpaceOnUse">
<stop offset="0.0152174" stop-color="#090EDB"/>
<stop offset="1" stop-color="#E73DC4"/>
</linearGradient>
<clipPath id="clip0_2029_497">
<rect width="460" height="74" fill="white"/>
</clipPath>
</defs>
</svg>
