<svg width="119" height="16" viewBox="0 0 119 16" fill="none" xmlns="http://www.w3.org/2000/svg">
<path d="M5.248 2.016V12H3.904V2.016H0.352V0.832H8.8V2.016H5.248ZM15.1236 3.744H16.3876L12.6916 13.92C12.5956 14.1653 12.4996 14.368 12.4036 14.528C12.3076 14.6987 12.1903 14.832 12.0516 14.928C11.913 15.024 11.737 15.0933 11.5236 15.136C11.321 15.1787 11.0703 15.2 10.7716 15.2H10.1156V14.08H11.4116L12.0356 12.32L8.94762 3.744H10.2276L12.2116 9.36L12.5956 10.704H12.6756L13.1236 9.36L15.1236 3.744ZM18.18 3.744H19.46V5.088H19.524C19.7373 4.56533 20.0467 4.18133 20.452 3.936C20.868 3.68 21.364 3.552 21.94 3.552C22.452 3.552 22.916 3.65333 23.332 3.856C23.748 4.05867 24.1 4.34667 24.388 4.72C24.6867 5.09333 24.9107 5.54667 25.06 6.08C25.22 6.61333 25.3 7.21067 25.3 7.872C25.3 8.53333 25.22 9.13067 25.06 9.664C24.9107 10.1973 24.6867 10.6507 24.388 11.024C24.1 11.3973 23.748 11.6853 23.332 11.888C22.916 12.0907 22.452 12.192 21.94 12.192C20.82 12.192 20.0147 11.68 19.524 10.656H19.46V15.2H18.18V3.744ZM21.588 11.04C22.3133 11.04 22.884 10.816 23.3 10.368C23.716 9.90933 23.924 9.312 23.924 8.576V7.168C23.924 6.432 23.716 5.84 23.3 5.392C22.884 4.93333 22.3133 4.704 21.588 4.704C21.3 4.704 21.0227 4.74667 20.756 4.832C20.5 4.90667 20.276 5.01333 20.084 5.152C19.892 5.29067 19.7373 5.46133 19.62 5.664C19.5133 5.856 19.46 6.064 19.46 6.288V9.36C19.46 9.62667 19.5133 9.86667 19.62 10.08C19.7373 10.2827 19.892 10.4587 20.084 10.608C20.276 10.7467 20.5 10.8533 20.756 10.928C21.0227 11.0027 21.3 11.04 21.588 11.04ZM30.7252 12.192C30.1599 12.192 29.6479 12.0907 29.1892 11.888C28.7412 11.6853 28.3519 11.3973 28.0212 11.024C27.7012 10.64 27.4506 10.1867 27.2692 9.664C27.0986 9.13067 27.0132 8.53333 27.0132 7.872C27.0132 7.22133 27.0986 6.62933 27.2692 6.096C27.4506 5.56267 27.7012 5.10933 28.0212 4.736C28.3519 4.352 28.7412 4.05867 29.1892 3.856C29.6479 3.65333 30.1599 3.552 30.7252 3.552C31.2799 3.552 31.7759 3.65333 32.2132 3.856C32.6506 4.05867 33.0239 4.34133 33.3333 4.704C33.6426 5.056 33.8772 5.47733 34.0373 5.968C34.2079 6.45867 34.2933 6.99733 34.2933 7.584V8.192H28.3572V8.576C28.3572 8.928 28.4106 9.25867 28.5172 9.568C28.6346 9.86667 28.7946 10.128 28.9972 10.352C29.2106 10.576 29.4666 10.752 29.7652 10.88C30.0746 11.008 30.4212 11.072 30.8052 11.072C31.3279 11.072 31.7812 10.9493 32.1652 10.704C32.5599 10.4587 32.8639 10.1067 33.0773 9.648L33.9892 10.304C33.7226 10.8693 33.3066 11.328 32.7413 11.68C32.1759 12.0213 31.5039 12.192 30.7252 12.192ZM30.7252 4.624C30.3732 4.624 30.0532 4.688 29.7652 4.816C29.4772 4.93333 29.2266 5.104 29.0132 5.328C28.8106 5.552 28.6506 5.81867 28.5332 6.128C28.4159 6.42667 28.3572 6.75733 28.3572 7.12V7.232H32.9172V7.056C32.9172 6.32 32.7146 5.73333 32.3092 5.296C31.9146 4.848 31.3866 4.624 30.7252 4.624ZM43.1917 12V7.584L39.3517 0.832H40.8877L43.8637 6.208H43.9117L46.8877 0.832H48.4237L44.5357 7.536V12H43.1917ZM52.4712 12.192C51.9166 12.192 51.4099 12.0907 50.9512 11.888C50.4926 11.6853 50.0979 11.3973 49.7672 11.024C49.4472 10.64 49.1966 10.1867 49.0152 9.664C48.8339 9.13067 48.7432 8.53333 48.7432 7.872C48.7432 7.22133 48.8339 6.62933 49.0152 6.096C49.1966 5.56267 49.4472 5.10933 49.7672 4.736C50.0979 4.352 50.4926 4.05867 50.9512 3.856C51.4099 3.65333 51.9166 3.552 52.4712 3.552C53.0259 3.552 53.5272 3.65333 53.9752 3.856C54.4339 4.05867 54.8286 4.352 55.1592 4.736C55.4899 5.10933 55.7459 5.56267 55.9272 6.096C56.1086 6.62933 56.1992 7.22133 56.1992 7.872C56.1992 8.53333 56.1086 9.13067 55.9272 9.664C55.7459 10.1867 55.4899 10.64 55.1592 11.024C54.8286 11.3973 54.4339 11.6853 53.9752 11.888C53.5272 12.0907 53.0259 12.192 52.4712 12.192ZM52.4712 11.056C53.1646 11.056 53.7299 10.8427 54.1672 10.416C54.6046 9.98933 54.8232 9.33867 54.8232 8.464V7.28C54.8232 6.40533 54.6046 5.75467 54.1672 5.328C53.7299 4.90133 53.1646 4.688 52.4712 4.688C51.7779 4.688 51.2126 4.90133 50.7752 5.328C50.3379 5.75467 50.1192 6.40533 50.1192 7.28V8.464C50.1192 9.33867 50.3379 9.98933 50.7752 10.416C51.2126 10.8427 51.7779 11.056 52.4712 11.056ZM63.5524 10.656H63.4884C63.403 10.848 63.2964 11.04 63.1684 11.232C63.051 11.4133 62.9017 11.5787 62.7204 11.728C62.539 11.8667 62.3204 11.9787 62.0644 12.064C61.8084 12.1493 61.5097 12.192 61.1684 12.192C60.315 12.192 59.6377 11.92 59.1364 11.376C58.635 10.8213 58.3844 10.0427 58.3844 9.04V3.744H59.6644V8.816C59.6644 10.2987 60.2937 11.04 61.5524 11.04C61.8084 11.04 62.0537 11.008 62.2884 10.944C62.5337 10.88 62.747 10.784 62.9284 10.656C63.1204 10.528 63.2697 10.368 63.3764 10.176C63.4937 9.97333 63.5524 9.73333 63.5524 9.456V3.744H64.8324V12H63.5524V10.656ZM67.7181 12V3.744H68.9981V5.264H69.0781C69.2275 4.86933 69.4941 4.51733 69.8781 4.208C70.2621 3.89867 70.7901 3.744 71.4621 3.744H71.9581V5.024H71.2061C70.5128 5.024 69.9688 5.15733 69.5741 5.424C69.1901 5.68 68.9981 6.00533 68.9981 6.4V12H67.7181ZM80.5264 5.184L79.1824 2.704H79.1344V12H77.8224V0.832H79.3744L83.4544 7.648L84.7984 10.128H84.8464V0.832H86.1584V12H84.6064L80.5264 5.184ZM95.1669 12C94.6869 12 94.3402 11.872 94.1269 11.616C93.9242 11.36 93.7962 11.04 93.7429 10.656H93.6629C93.4815 11.168 93.1829 11.552 92.7669 11.808C92.3509 12.064 91.8549 12.192 91.2789 12.192C90.4042 12.192 89.7215 11.968 89.2309 11.52C88.7509 11.072 88.5109 10.464 88.5109 9.696C88.5109 8.91733 88.7935 8.32 89.3589 7.904C89.9349 7.488 90.8255 7.28 92.0309 7.28H93.6629V6.464C93.6629 5.87733 93.5029 5.42933 93.1829 5.12C92.8629 4.81067 92.3722 4.656 91.7109 4.656C91.2095 4.656 90.7882 4.768 90.4469 4.992C90.1162 5.216 89.8389 5.51467 89.6149 5.888L88.8469 5.168C89.0709 4.72 89.4282 4.34133 89.9189 4.032C90.4095 3.712 91.0282 3.552 91.7749 3.552C92.7775 3.552 93.5562 3.79733 94.1109 4.288C94.6655 4.77867 94.9429 5.46133 94.9429 6.336V10.88H95.8869V12H95.1669ZM91.4869 11.104C91.8069 11.104 92.1002 11.0667 92.3669 10.992C92.6335 10.9173 92.8629 10.8107 93.0549 10.672C93.2469 10.5333 93.3962 10.3733 93.5029 10.192C93.6095 10.0107 93.6629 9.81333 93.6629 9.6V8.24H91.9669C91.2309 8.24 90.6922 8.34667 90.3509 8.56C90.0202 8.77333 89.8549 9.08267 89.8549 9.488V9.824C89.8549 10.2293 89.9989 10.544 90.2869 10.768C90.5855 10.992 90.9855 11.104 91.4869 11.104ZM97.8737 12V3.744H99.1537V5.088H99.2177C99.3137 4.87467 99.4204 4.67733 99.5377 4.496C99.6657 4.304 99.8151 4.13867 99.9857 4C100.167 3.86133 100.375 3.75467 100.61 3.68C100.844 3.59467 101.122 3.552 101.442 3.552C101.986 3.552 102.487 3.68533 102.946 3.952C103.404 4.208 103.746 4.63467 103.97 5.232H104.002C104.151 4.784 104.428 4.39467 104.834 4.064C105.25 3.72267 105.81 3.552 106.514 3.552C107.356 3.552 108.012 3.82933 108.482 4.384C108.962 4.928 109.202 5.70133 109.202 6.704V12H107.922V6.928C107.922 6.192 107.778 5.63733 107.49 5.264C107.202 4.89067 106.743 4.704 106.114 4.704C105.858 4.704 105.612 4.736 105.378 4.8C105.154 4.864 104.951 4.96 104.77 5.088C104.588 5.216 104.444 5.38133 104.338 5.584C104.231 5.776 104.178 6.00533 104.178 6.272V12H102.898V6.928C102.898 6.192 102.754 5.63733 102.466 5.264C102.178 4.89067 101.73 4.704 101.122 4.704C100.866 4.704 100.62 4.736 100.386 4.8C100.151 4.864 99.9431 4.96 99.7617 5.088C99.5804 5.216 99.4311 5.38133 99.3137 5.584C99.2071 5.776 99.1537 6.00533 99.1537 6.272V12H97.8737ZM115.107 12.192C114.541 12.192 114.029 12.0907 113.571 11.888C113.123 11.6853 112.733 11.3973 112.403 11.024C112.083 10.64 111.832 10.1867 111.651 9.664C111.48 9.13067 111.395 8.53333 111.395 7.872C111.395 7.22133 111.48 6.62933 111.651 6.096C111.832 5.56267 112.083 5.10933 112.403 4.736C112.733 4.352 113.123 4.05867 113.571 3.856C114.029 3.65333 114.541 3.552 115.107 3.552C115.661 3.552 116.157 3.65333 116.595 3.856C117.032 4.05867 117.405 4.34133 117.715 4.704C118.024 5.056 118.259 5.47733 118.419 5.968C118.589 6.45867 118.675 6.99733 118.675 7.584V8.192H112.739V8.576C112.739 8.928 112.792 9.25867 112.899 9.568C113.016 9.86667 113.176 10.128 113.379 10.352C113.592 10.576 113.848 10.752 114.147 10.88C114.456 11.008 114.803 11.072 115.187 11.072C115.709 11.072 116.163 10.9493 116.547 10.704C116.941 10.4587 117.245 10.1067 117.459 9.648L118.371 10.304C118.104 10.8693 117.688 11.328 117.123 11.68C116.557 12.0213 115.885 12.192 115.107 12.192ZM115.107 4.624C114.755 4.624 114.435 4.688 114.147 4.816C113.859 4.93333 113.608 5.104 113.395 5.328C113.192 5.552 113.032 5.81867 112.915 6.128C112.797 6.42667 112.739 6.75733 112.739 7.12V7.232H117.299V7.056C117.299 6.32 117.096 5.73333 116.691 5.296C116.296 4.848 115.768 4.624 115.107 4.624Z" fill="#B8BCCA"/>
</svg>
