<svg width="181" height="16" viewBox="0 0 181 16" fill="none" xmlns="http://www.w3.org/2000/svg">
<path d="M5.248 2.016V12H3.904V2.016H0.352V0.832H8.8V2.016H5.248ZM15.1236 3.744H16.3876L12.6916 13.92C12.5956 14.1653 12.4996 14.368 12.4036 14.528C12.3076 14.6987 12.1903 14.832 12.0516 14.928C11.913 15.024 11.737 15.0933 11.5236 15.136C11.321 15.1787 11.0703 15.2 10.7716 15.2H10.1156V14.08H11.4116L12.0356 12.32L8.94762 3.744H10.2276L12.2116 9.36L12.5956 10.704H12.6756L13.1236 9.36L15.1236 3.744ZM18.18 3.744H19.46V5.088H19.524C19.7373 4.56533 20.0467 4.18133 20.452 3.936C20.868 3.68 21.364 3.552 21.94 3.552C22.452 3.552 22.916 3.65333 23.332 3.856C23.748 4.05867 24.1 4.34667 24.388 4.72C24.6867 5.09333 24.9107 5.54667 25.06 6.08C25.22 6.61333 25.3 7.21067 25.3 7.872C25.3 8.53333 25.22 9.13067 25.06 9.664C24.9107 10.1973 24.6867 10.6507 24.388 11.024C24.1 11.3973 23.748 11.6853 23.332 11.888C22.916 12.0907 22.452 12.192 21.94 12.192C20.82 12.192 20.0147 11.68 19.524 10.656H19.46V15.2H18.18V3.744ZM21.588 11.04C22.3133 11.04 22.884 10.816 23.3 10.368C23.716 9.90933 23.924 9.312 23.924 8.576V7.168C23.924 6.432 23.716 5.84 23.3 5.392C22.884 4.93333 22.3133 4.704 21.588 4.704C21.3 4.704 21.0227 4.74667 20.756 4.832C20.5 4.90667 20.276 5.01333 20.084 5.152C19.892 5.29067 19.7373 5.46133 19.62 5.664C19.5133 5.856 19.46 6.064 19.46 6.288V9.36C19.46 9.62667 19.5133 9.86667 19.62 10.08C19.7373 10.2827 19.892 10.4587 20.084 10.608C20.276 10.7467 20.5 10.8533 20.756 10.928C21.0227 11.0027 21.3 11.04 21.588 11.04ZM30.7252 12.192C30.1599 12.192 29.6479 12.0907 29.1892 11.888C28.7412 11.6853 28.3519 11.3973 28.0212 11.024C27.7012 10.64 27.4506 10.1867 27.2692 9.664C27.0986 9.13067 27.0132 8.53333 27.0132 7.872C27.0132 7.22133 27.0986 6.62933 27.2692 6.096C27.4506 5.56267 27.7012 5.10933 28.0212 4.736C28.3519 4.352 28.7412 4.05867 29.1892 3.856C29.6479 3.65333 30.1599 3.552 30.7252 3.552C31.2799 3.552 31.7759 3.65333 32.2132 3.856C32.6506 4.05867 33.0239 4.34133 33.3333 4.704C33.6426 5.056 33.8772 5.47733 34.0373 5.968C34.2079 6.45867 34.2933 6.99733 34.2933 7.584V8.192H28.3572V8.576C28.3572 8.928 28.4106 9.25867 28.5172 9.568C28.6346 9.86667 28.7946 10.128 28.9972 10.352C29.2106 10.576 29.4666 10.752 29.7652 10.88C30.0746 11.008 30.4212 11.072 30.8052 11.072C31.3279 11.072 31.7812 10.9493 32.1652 10.704C32.5599 10.4587 32.8639 10.1067 33.0773 9.648L33.9892 10.304C33.7226 10.8693 33.3066 11.328 32.7413 11.68C32.1759 12.0213 31.5039 12.192 30.7252 12.192ZM30.7252 4.624C30.3732 4.624 30.0532 4.688 29.7652 4.816C29.4772 4.93333 29.2266 5.104 29.0132 5.328C28.8106 5.552 28.6506 5.81867 28.5332 6.128C28.4159 6.42667 28.3572 6.75733 28.3572 7.12V7.232H32.9172V7.056C32.9172 6.32 32.7146 5.73333 32.3092 5.296C31.9146 4.848 31.3866 4.624 30.7252 4.624ZM43.1917 12V7.584L39.3517 0.832H40.8877L43.8637 6.208H43.9117L46.8877 0.832H48.4237L44.5357 7.536V12H43.1917ZM52.4712 12.192C51.9166 12.192 51.4099 12.0907 50.9512 11.888C50.4926 11.6853 50.0979 11.3973 49.7672 11.024C49.4472 10.64 49.1966 10.1867 49.0152 9.664C48.8339 9.13067 48.7432 8.53333 48.7432 7.872C48.7432 7.22133 48.8339 6.62933 49.0152 6.096C49.1966 5.56267 49.4472 5.10933 49.7672 4.736C50.0979 4.352 50.4926 4.05867 50.9512 3.856C51.4099 3.65333 51.9166 3.552 52.4712 3.552C53.0259 3.552 53.5272 3.65333 53.9752 3.856C54.4339 4.05867 54.8286 4.352 55.1592 4.736C55.4899 5.10933 55.7459 5.56267 55.9272 6.096C56.1086 6.62933 56.1992 7.22133 56.1992 7.872C56.1992 8.53333 56.1086 9.13067 55.9272 9.664C55.7459 10.1867 55.4899 10.64 55.1592 11.024C54.8286 11.3973 54.4339 11.6853 53.9752 11.888C53.5272 12.0907 53.0259 12.192 52.4712 12.192ZM52.4712 11.056C53.1646 11.056 53.7299 10.8427 54.1672 10.416C54.6046 9.98933 54.8232 9.33867 54.8232 8.464V7.28C54.8232 6.40533 54.6046 5.75467 54.1672 5.328C53.7299 4.90133 53.1646 4.688 52.4712 4.688C51.7779 4.688 51.2126 4.90133 50.7752 5.328C50.3379 5.75467 50.1192 6.40533 50.1192 7.28V8.464C50.1192 9.33867 50.3379 9.98933 50.7752 10.416C51.2126 10.8427 51.7779 11.056 52.4712 11.056ZM63.5524 10.656H63.4884C63.403 10.848 63.2964 11.04 63.1684 11.232C63.051 11.4133 62.9017 11.5787 62.7204 11.728C62.539 11.8667 62.3204 11.9787 62.0644 12.064C61.8084 12.1493 61.5097 12.192 61.1684 12.192C60.315 12.192 59.6377 11.92 59.1364 11.376C58.635 10.8213 58.3844 10.0427 58.3844 9.04V3.744H59.6644V8.816C59.6644 10.2987 60.2937 11.04 61.5524 11.04C61.8084 11.04 62.0537 11.008 62.2884 10.944C62.5337 10.88 62.747 10.784 62.9284 10.656C63.1204 10.528 63.2697 10.368 63.3764 10.176C63.4937 9.97333 63.5524 9.73333 63.5524 9.456V3.744H64.8324V12H63.5524V10.656ZM67.7181 12V3.744H68.9981V5.264H69.0781C69.2275 4.86933 69.4941 4.51733 69.8781 4.208C70.2621 3.89867 70.7901 3.744 71.4621 3.744H71.9581V5.024H71.2061C70.5128 5.024 69.9688 5.15733 69.5741 5.424C69.1901 5.68 68.9981 6.00533 68.9981 6.4V12H67.7181ZM77.8224 12V0.832H84.6384V2.016H79.1664V5.76H84.3184V6.944H79.1664V10.816H84.6384V12H77.8224ZM87.1825 12V3.744H88.4625V5.088H88.5265C88.6225 4.87467 88.7292 4.67733 88.8465 4.496C88.9745 4.304 89.1238 4.13867 89.2945 4C89.4758 3.86133 89.6838 3.75467 89.9185 3.68C90.1532 3.59467 90.4305 3.552 90.7505 3.552C91.2945 3.552 91.7958 3.68533 92.2545 3.952C92.7132 4.208 93.0545 4.63467 93.2785 5.232H93.3105C93.4598 4.784 93.7372 4.39467 94.1425 4.064C94.5585 3.72267 95.1185 3.552 95.8225 3.552C96.6652 3.552 97.3212 3.82933 97.7905 4.384C98.2705 4.928 98.5105 5.70133 98.5105 6.704V12H97.2305V6.928C97.2305 6.192 97.0865 5.63733 96.7985 5.264C96.5105 4.89067 96.0518 4.704 95.4225 4.704C95.1665 4.704 94.9212 4.736 94.6865 4.8C94.4625 4.864 94.2598 4.96 94.0785 5.088C93.8972 5.216 93.7532 5.38133 93.6465 5.584C93.5398 5.776 93.4865 6.00533 93.4865 6.272V12H92.2065V6.928C92.2065 6.192 92.0625 5.63733 91.7745 5.264C91.4865 4.89067 91.0385 4.704 90.4305 4.704C90.1745 4.704 89.9292 4.736 89.6945 4.8C89.4598 4.864 89.2518 4.96 89.0705 5.088C88.8892 5.216 88.7398 5.38133 88.6225 5.584C88.5158 5.776 88.4625 6.00533 88.4625 6.272V12H87.1825ZM107.311 12C106.831 12 106.485 11.872 106.271 11.616C106.069 11.36 105.941 11.04 105.887 10.656H105.807C105.626 11.168 105.327 11.552 104.911 11.808C104.495 12.064 103.999 12.192 103.423 12.192C102.549 12.192 101.866 11.968 101.375 11.52C100.895 11.072 100.655 10.464 100.655 9.696C100.655 8.91733 100.938 8.32 101.503 7.904C102.079 7.488 102.97 7.28 104.175 7.28H105.807V6.464C105.807 5.87733 105.647 5.42933 105.327 5.12C105.007 4.81067 104.517 4.656 103.855 4.656C103.354 4.656 102.933 4.768 102.591 4.992C102.261 5.216 101.983 5.51467 101.759 5.888L100.991 5.168C101.215 4.72 101.573 4.34133 102.063 4.032C102.554 3.712 103.173 3.552 103.919 3.552C104.922 3.552 105.701 3.79733 106.255 4.288C106.81 4.77867 107.087 5.46133 107.087 6.336V10.88H108.031V12H107.311ZM103.631 11.104C103.951 11.104 104.245 11.0667 104.511 10.992C104.778 10.9173 105.007 10.8107 105.199 10.672C105.391 10.5333 105.541 10.3733 105.647 10.192C105.754 10.0107 105.807 9.81333 105.807 9.6V8.24H104.111C103.375 8.24 102.837 8.34667 102.495 8.56C102.165 8.77333 101.999 9.08267 101.999 9.488V9.824C101.999 10.2293 102.143 10.544 102.431 10.768C102.73 10.992 103.13 11.104 103.631 11.104ZM110.658 1.808C110.381 1.808 110.178 1.744 110.05 1.616C109.933 1.47733 109.874 1.30133 109.874 1.088V0.879999C109.874 0.666666 109.933 0.495999 110.05 0.367999C110.178 0.229333 110.381 0.16 110.658 0.16C110.935 0.16 111.133 0.229333 111.25 0.367999C111.378 0.495999 111.442 0.666666 111.442 0.879999V1.088C111.442 1.30133 111.378 1.47733 111.25 1.616C111.133 1.744 110.935 1.808 110.658 1.808ZM110.018 3.744H111.298V12H110.018V3.744ZM115.538 12C115.09 12 114.749 11.8773 114.514 11.632C114.29 11.376 114.178 11.056 114.178 10.672V0.16H115.458V10.88H116.674V12H115.538ZM129.759 12L128.639 8.704H124.127L123.007 12H121.647L125.551 0.832H127.263L131.167 12H129.759ZM126.415 2.08H126.335L124.447 7.52H128.303L126.415 2.08ZM138.329 10.656H138.265C137.763 11.68 136.958 12.192 135.849 12.192C135.337 12.192 134.873 12.0907 134.457 11.888C134.041 11.6853 133.683 11.3973 133.385 11.024C133.097 10.6507 132.873 10.1973 132.713 9.664C132.563 9.13067 132.489 8.53333 132.489 7.872C132.489 7.21067 132.563 6.61333 132.713 6.08C132.873 5.54667 133.097 5.09333 133.385 4.72C133.683 4.34667 134.041 4.05867 134.457 3.856C134.873 3.65333 135.337 3.552 135.849 3.552C136.425 3.552 136.915 3.68 137.321 3.936C137.737 4.18133 138.051 4.56533 138.265 5.088H138.329V0.16H139.609V12H138.329V10.656ZM136.201 11.04C136.489 11.04 136.761 11.0027 137.017 10.928C137.283 10.8533 137.513 10.7467 137.705 10.608C137.897 10.4587 138.046 10.2827 138.153 10.08C138.27 9.86667 138.329 9.62667 138.329 9.36V6.288C138.329 6.064 138.27 5.856 138.153 5.664C138.046 5.46133 137.897 5.29067 137.705 5.152C137.513 5.01333 137.283 4.90667 137.017 4.832C136.761 4.74667 136.489 4.704 136.201 4.704C135.475 4.704 134.905 4.93333 134.489 5.392C134.073 5.84 133.865 6.432 133.865 7.168V8.576C133.865 9.312 134.073 9.90933 134.489 10.368C134.905 10.816 135.475 11.04 136.201 11.04ZM147.77 10.656H147.706C147.205 11.68 146.399 12.192 145.29 12.192C144.778 12.192 144.314 12.0907 143.898 11.888C143.482 11.6853 143.125 11.3973 142.826 11.024C142.538 10.6507 142.314 10.1973 142.154 9.664C142.005 9.13067 141.93 8.53333 141.93 7.872C141.93 7.21067 142.005 6.61333 142.154 6.08C142.314 5.54667 142.538 5.09333 142.826 4.72C143.125 4.34667 143.482 4.05867 143.898 3.856C144.314 3.65333 144.778 3.552 145.29 3.552C145.866 3.552 146.357 3.68 146.762 3.936C147.178 4.18133 147.493 4.56533 147.706 5.088H147.77V0.16H149.05V12H147.77V10.656ZM145.642 11.04C145.93 11.04 146.202 11.0027 146.458 10.928C146.725 10.8533 146.954 10.7467 147.146 10.608C147.338 10.4587 147.487 10.2827 147.594 10.08C147.711 9.86667 147.77 9.62667 147.77 9.36V6.288C147.77 6.064 147.711 5.856 147.594 5.664C147.487 5.46133 147.338 5.29067 147.146 5.152C146.954 5.01333 146.725 4.90667 146.458 4.832C146.202 4.74667 145.93 4.704 145.642 4.704C144.917 4.704 144.346 4.93333 143.93 5.392C143.514 5.84 143.306 6.432 143.306 7.168V8.576C143.306 9.312 143.514 9.90933 143.93 10.368C144.346 10.816 144.917 11.04 145.642 11.04ZM151.931 12V3.744H153.211V5.264H153.291C153.441 4.86933 153.707 4.51733 154.091 4.208C154.475 3.89867 155.003 3.744 155.675 3.744H156.171V5.024H155.419C154.726 5.024 154.182 5.15733 153.787 5.424C153.403 5.68 153.211 6.00533 153.211 6.4V12H151.931ZM160.992 12.192C160.427 12.192 159.915 12.0907 159.456 11.888C159.008 11.6853 158.619 11.3973 158.288 11.024C157.968 10.64 157.717 10.1867 157.536 9.664C157.365 9.13067 157.28 8.53333 157.28 7.872C157.28 7.22133 157.365 6.62933 157.536 6.096C157.717 5.56267 157.968 5.10933 158.288 4.736C158.619 4.352 159.008 4.05867 159.456 3.856C159.915 3.65333 160.427 3.552 160.992 3.552C161.547 3.552 162.043 3.65333 162.48 3.856C162.917 4.05867 163.291 4.34133 163.6 4.704C163.909 5.056 164.144 5.47733 164.304 5.968C164.475 6.45867 164.56 6.99733 164.56 7.584V8.192H158.624V8.576C158.624 8.928 158.677 9.25867 158.784 9.568C158.901 9.86667 159.061 10.128 159.264 10.352C159.477 10.576 159.733 10.752 160.032 10.88C160.341 11.008 160.688 11.072 161.072 11.072C161.595 11.072 162.048 10.9493 162.432 10.704C162.827 10.4587 163.131 10.1067 163.344 9.648L164.256 10.304C163.989 10.8693 163.573 11.328 163.008 11.68C162.443 12.0213 161.771 12.192 160.992 12.192ZM160.992 4.624C160.64 4.624 160.32 4.688 160.032 4.816C159.744 4.93333 159.493 5.104 159.28 5.328C159.077 5.552 158.917 5.81867 158.8 6.128C158.683 6.42667 158.624 6.75733 158.624 7.12V7.232H163.184V7.056C163.184 6.32 162.981 5.73333 162.576 5.296C162.181 4.848 161.653 4.624 160.992 4.624ZM169.309 12.192C168.541 12.192 167.896 12.048 167.373 11.76C166.861 11.4613 166.419 11.0667 166.045 10.576L166.957 9.84C167.277 10.2453 167.635 10.56 168.029 10.784C168.424 10.9973 168.883 11.104 169.405 11.104C169.949 11.104 170.371 10.9867 170.669 10.752C170.979 10.5173 171.133 10.1867 171.133 9.76C171.133 9.44 171.027 9.168 170.813 8.944C170.611 8.70933 170.237 8.54933 169.693 8.464L169.037 8.368C168.653 8.31467 168.301 8.23467 167.981 8.128C167.661 8.01067 167.379 7.86133 167.133 7.68C166.899 7.488 166.712 7.25333 166.573 6.976C166.445 6.69867 166.381 6.368 166.381 5.984C166.381 5.57867 166.456 5.22667 166.605 4.928C166.755 4.61867 166.957 4.36267 167.213 4.16C167.48 3.95733 167.795 3.808 168.157 3.712C168.52 3.60533 168.909 3.552 169.325 3.552C169.997 3.552 170.557 3.66933 171.005 3.904C171.464 4.13867 171.864 4.464 172.205 4.88L171.357 5.648C171.176 5.392 170.909 5.16267 170.557 4.96C170.205 4.74667 169.763 4.64 169.229 4.64C168.696 4.64 168.291 4.75733 168.013 4.992C167.747 5.216 167.613 5.52533 167.613 5.92C167.613 6.32533 167.747 6.61867 168.013 6.8C168.291 6.98133 168.685 7.11467 169.197 7.2L169.837 7.296C170.755 7.43467 171.405 7.70133 171.789 8.096C172.173 8.48 172.365 8.98667 172.365 9.616C172.365 10.416 172.093 11.0453 171.549 11.504C171.005 11.9627 170.259 12.192 169.309 12.192ZM177.173 12.192C176.405 12.192 175.759 12.048 175.237 11.76C174.725 11.4613 174.282 11.0667 173.909 10.576L174.821 9.84C175.141 10.2453 175.498 10.56 175.893 10.784C176.287 10.9973 176.746 11.104 177.269 11.104C177.813 11.104 178.234 10.9867 178.533 10.752C178.842 10.5173 178.997 10.1867 178.997 9.76C178.997 9.44 178.89 9.168 178.677 8.944C178.474 8.70933 178.101 8.54933 177.557 8.464L176.901 8.368C176.517 8.31467 176.165 8.23467 175.845 8.128C175.525 8.01067 175.242 7.86133 174.997 7.68C174.762 7.488 174.575 7.25333 174.437 6.976C174.309 6.69867 174.245 6.368 174.245 5.984C174.245 5.57867 174.319 5.22667 174.469 4.928C174.618 4.61867 174.821 4.36267 175.077 4.16C175.343 3.95733 175.658 3.808 176.021 3.712C176.383 3.60533 176.773 3.552 177.189 3.552C177.861 3.552 178.421 3.66933 178.869 3.904C179.327 4.13867 179.727 4.464 180.069 4.88L179.221 5.648C179.039 5.392 178.773 5.16267 178.421 4.96C178.069 4.74667 177.626 4.64 177.093 4.64C176.559 4.64 176.154 4.75733 175.877 4.992C175.61 5.216 175.477 5.52533 175.477 5.92C175.477 6.32533 175.61 6.61867 175.877 6.8C176.154 6.98133 176.549 7.11467 177.061 7.2L177.701 7.296C178.618 7.43467 179.269 7.70133 179.653 8.096C180.037 8.48 180.229 8.98667 180.229 9.616C180.229 10.416 179.957 11.0453 179.413 11.504C178.869 11.9627 178.122 12.192 177.173 12.192Z" fill="#B8BCCA"/>
</svg>
