<svg width="78" height="13" viewBox="0 0 78 13" fill="none" xmlns="http://www.w3.org/2000/svg">
<path d="M4.048 12V7.584L0.208 0.832H1.744L4.72 6.208H4.768L7.744 0.832H9.28L5.392 7.536V12H4.048ZM13.3275 12.192C12.7728 12.192 12.2662 12.0907 11.8075 11.888C11.3488 11.6853 10.9542 11.3973 10.6235 11.024C10.3035 10.64 10.0528 10.1867 9.8715 9.664C9.69017 9.13067 9.5995 8.53333 9.5995 7.872C9.5995 7.22133 9.69017 6.62933 9.8715 6.096C10.0528 5.56267 10.3035 5.10933 10.6235 4.736C10.9542 4.352 11.3488 4.05867 11.8075 3.856C12.2662 3.65333 12.7728 3.552 13.3275 3.552C13.8822 3.552 14.3835 3.65333 14.8315 3.856C15.2902 4.05867 15.6848 4.352 16.0155 4.736C16.3462 5.10933 16.6022 5.56267 16.7835 6.096C16.9648 6.62933 17.0555 7.22133 17.0555 7.872C17.0555 8.53333 16.9648 9.13067 16.7835 9.664C16.6022 10.1867 16.3462 10.64 16.0155 11.024C15.6848 11.3973 15.2902 11.6853 14.8315 11.888C14.3835 12.0907 13.8822 12.192 13.3275 12.192ZM13.3275 11.056C14.0208 11.056 14.5862 10.8427 15.0235 10.416C15.4608 9.98933 15.6795 9.33867 15.6795 8.464V7.28C15.6795 6.40533 15.4608 5.75467 15.0235 5.328C14.5862 4.90133 14.0208 4.688 13.3275 4.688C12.6342 4.688 12.0688 4.90133 11.6315 5.328C11.1942 5.75467 10.9755 6.40533 10.9755 7.28V8.464C10.9755 9.33867 11.1942 9.98933 11.6315 10.416C12.0688 10.8427 12.6342 11.056 13.3275 11.056ZM24.4086 10.656H24.3446C24.2593 10.848 24.1526 11.04 24.0246 11.232C23.9073 11.4133 23.758 11.5787 23.5766 11.728C23.3953 11.8667 23.1766 11.9787 22.9206 12.064C22.6646 12.1493 22.366 12.192 22.0246 12.192C21.1713 12.192 20.494 11.92 19.9926 11.376C19.4913 10.8213 19.2406 10.0427 19.2406 9.04V3.744H20.5206V8.816C20.5206 10.2987 21.15 11.04 22.4086 11.04C22.6646 11.04 22.91 11.008 23.1446 10.944C23.39 10.88 23.6033 10.784 23.7846 10.656C23.9766 10.528 24.126 10.368 24.2326 10.176C24.35 9.97333 24.4086 9.73333 24.4086 9.456V3.744H25.6886V12H24.4086V10.656ZM28.5744 12V3.744H29.8544V5.264H29.9344C30.0837 4.86933 30.3504 4.51733 30.7344 4.208C31.1184 3.89867 31.6464 3.744 32.3184 3.744H32.8144V5.024H32.0624C31.369 5.024 30.825 5.15733 30.4304 5.424C30.0464 5.68 29.8544 6.00533 29.8544 6.4V12H28.5744ZM38.6786 12V0.832H45.4946V2.016H40.0226V5.76H45.1746V6.944H40.0226V10.816H45.4946V12H38.6786ZM48.0387 12V3.744H49.3187V5.088H49.3827C49.4787 4.87467 49.5854 4.67733 49.7027 4.496C49.8307 4.304 49.9801 4.13867 50.1507 4C50.3321 3.86133 50.5401 3.75467 50.7747 3.68C51.0094 3.59467 51.2867 3.552 51.6067 3.552C52.1507 3.552 52.6521 3.68533 53.1107 3.952C53.5694 4.208 53.9107 4.63467 54.1347 5.232H54.1667C54.3161 4.784 54.5934 4.39467 54.9987 4.064C55.4147 3.72267 55.9747 3.552 56.6787 3.552C57.5214 3.552 58.1774 3.82933 58.6467 4.384C59.1267 4.928 59.3667 5.70133 59.3667 6.704V12H58.0868V6.928C58.0868 6.192 57.9427 5.63733 57.6547 5.264C57.3667 4.89067 56.9081 4.704 56.2787 4.704C56.0227 4.704 55.7774 4.736 55.5427 4.8C55.3187 4.864 55.1161 4.96 54.9347 5.088C54.7534 5.216 54.6094 5.38133 54.5027 5.584C54.3961 5.776 54.3427 6.00533 54.3427 6.272V12H53.0627V6.928C53.0627 6.192 52.9187 5.63733 52.6307 5.264C52.3427 4.89067 51.8947 4.704 51.2867 4.704C51.0307 4.704 50.7854 4.736 50.5507 4.8C50.3161 4.864 50.1081 4.96 49.9267 5.088C49.7454 5.216 49.5961 5.38133 49.4787 5.584C49.3721 5.776 49.3187 6.00533 49.3187 6.272V12H48.0387ZM68.1675 12C67.6875 12 67.3408 11.872 67.1275 11.616C66.9248 11.36 66.7968 11.04 66.7435 10.656H66.6635C66.4822 11.168 66.1835 11.552 65.7675 11.808C65.3515 12.064 64.8555 12.192 64.2795 12.192C63.4048 12.192 62.7222 11.968 62.2315 11.52C61.7515 11.072 61.5115 10.464 61.5115 9.696C61.5115 8.91733 61.7942 8.32 62.3595 7.904C62.9355 7.488 63.8262 7.28 65.0315 7.28H66.6635V6.464C66.6635 5.87733 66.5035 5.42933 66.1835 5.12C65.8635 4.81067 65.3728 4.656 64.7115 4.656C64.2102 4.656 63.7888 4.768 63.4475 4.992C63.1168 5.216 62.8395 5.51467 62.6155 5.888L61.8475 5.168C62.0715 4.72 62.4288 4.34133 62.9195 4.032C63.4102 3.712 64.0288 3.552 64.7755 3.552C65.7782 3.552 66.5568 3.79733 67.1115 4.288C67.6662 4.77867 67.9435 5.46133 67.9435 6.336V10.88H68.8875V12H68.1675ZM64.4875 11.104C64.8075 11.104 65.1008 11.0667 65.3675 10.992C65.6342 10.9173 65.8635 10.8107 66.0555 10.672C66.2475 10.5333 66.3968 10.3733 66.5035 10.192C66.6102 10.0107 66.6635 9.81333 66.6635 9.6V8.24H64.9675C64.2315 8.24 63.6928 8.34667 63.3515 8.56C63.0208 8.77333 62.8555 9.08267 62.8555 9.488V9.824C62.8555 10.2293 62.9995 10.544 63.2875 10.768C63.5862 10.992 63.9862 11.104 64.4875 11.104ZM71.5144 1.808C71.237 1.808 71.0344 1.744 70.9064 1.616C70.789 1.47733 70.7304 1.30133 70.7304 1.088V0.879999C70.7304 0.666666 70.789 0.495999 70.9064 0.367999C71.0344 0.229333 71.237 0.16 71.5144 0.16C71.7917 0.16 71.989 0.229333 72.1064 0.367999C72.2344 0.495999 72.2984 0.666666 72.2984 0.879999V1.088C72.2984 1.30133 72.2344 1.47733 72.1064 1.616C71.989 1.744 71.7917 1.808 71.5144 1.808ZM70.8744 3.744H72.1544V12H70.8744V3.744ZM76.3944 12C75.9464 12 75.605 11.8773 75.3704 11.632C75.1464 11.376 75.0344 11.056 75.0344 10.672V0.16H76.3144V10.88H77.5304V12H76.3944Z" fill="white"/>
</svg>
