<svg width="460" height="48" viewBox="0 0 460 48" fill="none" xmlns="http://www.w3.org/2000/svg">
<rect x="0.5" y="0.5" width="459" height="47" rx="3.5" stroke="url(#paint0_linear_2243_121)"/>
<path d="M17.248 20.016V30H15.904V20.016H12.352V18.832H20.8V20.016H17.248ZM27.1236 21.744H28.3876L24.6916 31.92C24.5956 32.1653 24.4996 32.368 24.4036 32.528C24.3076 32.6987 24.1903 32.832 24.0516 32.928C23.913 33.024 23.737 33.0933 23.5236 33.136C23.321 33.1787 23.0703 33.2 22.7716 33.2H22.1156V32.08H23.4116L24.0356 30.32L20.9476 21.744H22.2276L24.2116 27.36L24.5956 28.704H24.6756L25.1236 27.36L27.1236 21.744ZM30.18 21.744H31.46V23.088H31.524C31.7373 22.5653 32.0467 22.1813 32.452 21.936C32.868 21.68 33.364 21.552 33.94 21.552C34.452 21.552 34.916 21.6533 35.332 21.856C35.748 22.0587 36.1 22.3467 36.388 22.72C36.6867 23.0933 36.9107 23.5467 37.06 24.08C37.22 24.6133 37.3 25.2107 37.3 25.872C37.3 26.5333 37.22 27.1307 37.06 27.664C36.9107 28.1973 36.6867 28.6507 36.388 29.024C36.1 29.3973 35.748 29.6853 35.332 29.888C34.916 30.0907 34.452 30.192 33.94 30.192C32.82 30.192 32.0147 29.68 31.524 28.656H31.46V33.2H30.18V21.744ZM33.588 29.04C34.3133 29.04 34.884 28.816 35.3 28.368C35.716 27.9093 35.924 27.312 35.924 26.576V25.168C35.924 24.432 35.716 23.84 35.3 23.392C34.884 22.9333 34.3133 22.704 33.588 22.704C33.3 22.704 33.0227 22.7467 32.756 22.832C32.5 22.9067 32.276 23.0133 32.084 23.152C31.892 23.2907 31.7373 23.4613 31.62 23.664C31.5133 23.856 31.46 24.064 31.46 24.288V27.36C31.46 27.6267 31.5133 27.8667 31.62 28.08C31.7373 28.2827 31.892 28.4587 32.084 28.608C32.276 28.7467 32.5 28.8533 32.756 28.928C33.0227 29.0027 33.3 29.04 33.588 29.04ZM42.7252 30.192C42.1599 30.192 41.6479 30.0907 41.1892 29.888C40.7412 29.6853 40.3519 29.3973 40.0212 29.024C39.7012 28.64 39.4506 28.1867 39.2692 27.664C39.0986 27.1307 39.0132 26.5333 39.0132 25.872C39.0132 25.2213 39.0986 24.6293 39.2692 24.096C39.4506 23.5627 39.7012 23.1093 40.0212 22.736C40.3519 22.352 40.7412 22.0587 41.1892 21.856C41.6479 21.6533 42.1599 21.552 42.7252 21.552C43.2799 21.552 43.7759 21.6533 44.2132 21.856C44.6506 22.0587 45.0239 22.3413 45.3333 22.704C45.6426 23.056 45.8772 23.4773 46.0373 23.968C46.2079 24.4587 46.2933 24.9973 46.2933 25.584V26.192H40.3572V26.576C40.3572 26.928 40.4106 27.2587 40.5172 27.568C40.6346 27.8667 40.7946 28.128 40.9972 28.352C41.2106 28.576 41.4666 28.752 41.7652 28.88C42.0746 29.008 42.4212 29.072 42.8052 29.072C43.3279 29.072 43.7812 28.9493 44.1652 28.704C44.5599 28.4587 44.8639 28.1067 45.0773 27.648L45.9892 28.304C45.7226 28.8693 45.3066 29.328 44.7413 29.68C44.1759 30.0213 43.5039 30.192 42.7252 30.192ZM42.7252 22.624C42.3732 22.624 42.0532 22.688 41.7652 22.816C41.4772 22.9333 41.2266 23.104 41.0132 23.328C40.8106 23.552 40.6506 23.8187 40.5332 24.128C40.4159 24.4267 40.3572 24.7573 40.3572 25.12V25.232H44.9172V25.056C44.9172 24.32 44.7146 23.7333 44.3092 23.296C43.9146 22.848 43.3866 22.624 42.7252 22.624ZM55.1917 30V25.584L51.3517 18.832H52.8877L55.8637 24.208H55.9117L58.8877 18.832H60.4237L56.5357 25.536V30H55.1917ZM64.4712 30.192C63.9166 30.192 63.4099 30.0907 62.9512 29.888C62.4926 29.6853 62.0979 29.3973 61.7672 29.024C61.4472 28.64 61.1966 28.1867 61.0152 27.664C60.8339 27.1307 60.7432 26.5333 60.7432 25.872C60.7432 25.2213 60.8339 24.6293 61.0152 24.096C61.1966 23.5627 61.4472 23.1093 61.7672 22.736C62.0979 22.352 62.4926 22.0587 62.9512 21.856C63.4099 21.6533 63.9166 21.552 64.4712 21.552C65.0259 21.552 65.5272 21.6533 65.9752 21.856C66.4339 22.0587 66.8286 22.352 67.1592 22.736C67.4899 23.1093 67.7459 23.5627 67.9272 24.096C68.1086 24.6293 68.1992 25.2213 68.1992 25.872C68.1992 26.5333 68.1086 27.1307 67.9272 27.664C67.7459 28.1867 67.4899 28.64 67.1592 29.024C66.8286 29.3973 66.4339 29.6853 65.9752 29.888C65.5272 30.0907 65.0259 30.192 64.4712 30.192ZM64.4712 29.056C65.1646 29.056 65.7299 28.8427 66.1672 28.416C66.6046 27.9893 66.8232 27.3387 66.8232 26.464V25.28C66.8232 24.4053 66.6046 23.7547 66.1672 23.328C65.7299 22.9013 65.1646 22.688 64.4712 22.688C63.7779 22.688 63.2126 22.9013 62.7752 23.328C62.3379 23.7547 62.1192 24.4053 62.1192 25.28V26.464C62.1192 27.3387 62.3379 27.9893 62.7752 28.416C63.2126 28.8427 63.7779 29.056 64.4712 29.056ZM75.5524 28.656H75.4884C75.403 28.848 75.2964 29.04 75.1684 29.232C75.051 29.4133 74.9017 29.5787 74.7204 29.728C74.539 29.8667 74.3204 29.9787 74.0644 30.064C73.8084 30.1493 73.5097 30.192 73.1684 30.192C72.315 30.192 71.6377 29.92 71.1364 29.376C70.635 28.8213 70.3844 28.0427 70.3844 27.04V21.744H71.6644V26.816C71.6644 28.2987 72.2937 29.04 73.5524 29.04C73.8084 29.04 74.0537 29.008 74.2884 28.944C74.5337 28.88 74.747 28.784 74.9284 28.656C75.1204 28.528 75.2697 28.368 75.3764 28.176C75.4937 27.9733 75.5524 27.7333 75.5524 27.456V21.744H76.8324V30H75.5524V28.656ZM79.7181 30V21.744H80.9981V23.264H81.0781C81.2275 22.8693 81.4941 22.5173 81.8781 22.208C82.2621 21.8987 82.7901 21.744 83.4621 21.744H83.9581V23.024H83.2061C82.5128 23.024 81.9688 23.1573 81.5741 23.424C81.1901 23.68 80.9981 24.0053 80.9981 24.4V30H79.7181ZM89.8224 30V18.832H96.6384V20.016H91.1664V23.76H96.3184V24.944H91.1664V28.816H96.6384V30H89.8224ZM99.1825 30V21.744H100.463V23.088H100.527C100.623 22.8747 100.729 22.6773 100.847 22.496C100.975 22.304 101.124 22.1387 101.295 22C101.476 21.8613 101.684 21.7547 101.919 21.68C102.153 21.5947 102.431 21.552 102.751 21.552C103.295 21.552 103.796 21.6853 104.255 21.952C104.713 22.208 105.055 22.6347 105.279 23.232H105.311C105.46 22.784 105.737 22.3947 106.143 22.064C106.559 21.7227 107.119 21.552 107.823 21.552C108.665 21.552 109.321 21.8293 109.791 22.384C110.271 22.928 110.511 23.7013 110.511 24.704V30H109.231V24.928C109.231 24.192 109.087 23.6373 108.799 23.264C108.511 22.8907 108.052 22.704 107.423 22.704C107.167 22.704 106.921 22.736 106.687 22.8C106.463 22.864 106.26 22.96 106.079 23.088C105.897 23.216 105.753 23.3813 105.647 23.584C105.54 23.776 105.487 24.0053 105.487 24.272V30H104.207V24.928C104.207 24.192 104.063 23.6373 103.775 23.264C103.487 22.8907 103.039 22.704 102.431 22.704C102.175 22.704 101.929 22.736 101.695 22.8C101.46 22.864 101.252 22.96 101.071 23.088C100.889 23.216 100.74 23.3813 100.623 23.584C100.516 23.776 100.463 24.0053 100.463 24.272V30H99.1825ZM119.311 30C118.831 30 118.485 29.872 118.271 29.616C118.069 29.36 117.941 29.04 117.887 28.656H117.807C117.626 29.168 117.327 29.552 116.911 29.808C116.495 30.064 115.999 30.192 115.423 30.192C114.549 30.192 113.866 29.968 113.375 29.52C112.895 29.072 112.655 28.464 112.655 27.696C112.655 26.9173 112.938 26.32 113.503 25.904C114.079 25.488 114.97 25.28 116.175 25.28H117.807V24.464C117.807 23.8773 117.647 23.4293 117.327 23.12C117.007 22.8107 116.517 22.656 115.855 22.656C115.354 22.656 114.933 22.768 114.591 22.992C114.261 23.216 113.983 23.5147 113.759 23.888L112.991 23.168C113.215 22.72 113.573 22.3413 114.063 22.032C114.554 21.712 115.173 21.552 115.919 21.552C116.922 21.552 117.701 21.7973 118.255 22.288C118.81 22.7787 119.087 23.4613 119.087 24.336V28.88H120.031V30H119.311ZM115.631 29.104C115.951 29.104 116.245 29.0667 116.511 28.992C116.778 28.9173 117.007 28.8107 117.199 28.672C117.391 28.5333 117.541 28.3733 117.647 28.192C117.754 28.0107 117.807 27.8133 117.807 27.6V26.24H116.111C115.375 26.24 114.837 26.3467 114.495 26.56C114.165 26.7733 113.999 27.0827 113.999 27.488V27.824C113.999 28.2293 114.143 28.544 114.431 28.768C114.73 28.992 115.13 29.104 115.631 29.104ZM122.658 19.808C122.381 19.808 122.178 19.744 122.05 19.616C121.933 19.4773 121.874 19.3013 121.874 19.088V18.88C121.874 18.6667 121.933 18.496 122.05 18.368C122.178 18.2293 122.381 18.16 122.658 18.16C122.935 18.16 123.133 18.2293 123.25 18.368C123.378 18.496 123.442 18.6667 123.442 18.88V19.088C123.442 19.3013 123.378 19.4773 123.25 19.616C123.133 19.744 122.935 19.808 122.658 19.808ZM122.018 21.744H123.298V30H122.018V21.744ZM127.538 30C127.09 30 126.749 29.8773 126.514 29.632C126.29 29.376 126.178 29.056 126.178 28.672V18.16H127.458V28.88H128.674V30H127.538ZM141.759 30L140.639 26.704H136.127L135.007 30H133.647L137.551 18.832H139.263L143.167 30H141.759ZM138.415 20.08H138.335L136.447 25.52H140.303L138.415 20.08ZM150.329 28.656H150.265C149.763 29.68 148.958 30.192 147.849 30.192C147.337 30.192 146.873 30.0907 146.457 29.888C146.041 29.6853 145.683 29.3973 145.385 29.024C145.097 28.6507 144.873 28.1973 144.713 27.664C144.563 27.1307 144.489 26.5333 144.489 25.872C144.489 25.2107 144.563 24.6133 144.713 24.08C144.873 23.5467 145.097 23.0933 145.385 22.72C145.683 22.3467 146.041 22.0587 146.457 21.856C146.873 21.6533 147.337 21.552 147.849 21.552C148.425 21.552 148.915 21.68 149.321 21.936C149.737 22.1813 150.051 22.5653 150.265 23.088H150.329V18.16H151.609V30H150.329V28.656ZM148.201 29.04C148.489 29.04 148.761 29.0027 149.017 28.928C149.283 28.8533 149.513 28.7467 149.705 28.608C149.897 28.4587 150.046 28.2827 150.153 28.08C150.27 27.8667 150.329 27.6267 150.329 27.36V24.288C150.329 24.064 150.27 23.856 150.153 23.664C150.046 23.4613 149.897 23.2907 149.705 23.152C149.513 23.0133 149.283 22.9067 149.017 22.832C148.761 22.7467 148.489 22.704 148.201 22.704C147.475 22.704 146.905 22.9333 146.489 23.392C146.073 23.84 145.865 24.432 145.865 25.168V26.576C145.865 27.312 146.073 27.9093 146.489 28.368C146.905 28.816 147.475 29.04 148.201 29.04ZM159.77 28.656H159.706C159.205 29.68 158.399 30.192 157.29 30.192C156.778 30.192 156.314 30.0907 155.898 29.888C155.482 29.6853 155.125 29.3973 154.826 29.024C154.538 28.6507 154.314 28.1973 154.154 27.664C154.005 27.1307 153.93 26.5333 153.93 25.872C153.93 25.2107 154.005 24.6133 154.154 24.08C154.314 23.5467 154.538 23.0933 154.826 22.72C155.125 22.3467 155.482 22.0587 155.898 21.856C156.314 21.6533 156.778 21.552 157.29 21.552C157.866 21.552 158.357 21.68 158.762 21.936C159.178 22.1813 159.493 22.5653 159.706 23.088H159.77V18.16H161.05V30H159.77V28.656ZM157.642 29.04C157.93 29.04 158.202 29.0027 158.458 28.928C158.725 28.8533 158.954 28.7467 159.146 28.608C159.338 28.4587 159.487 28.2827 159.594 28.08C159.711 27.8667 159.77 27.6267 159.77 27.36V24.288C159.77 24.064 159.711 23.856 159.594 23.664C159.487 23.4613 159.338 23.2907 159.146 23.152C158.954 23.0133 158.725 22.9067 158.458 22.832C158.202 22.7467 157.93 22.704 157.642 22.704C156.917 22.704 156.346 22.9333 155.93 23.392C155.514 23.84 155.306 24.432 155.306 25.168V26.576C155.306 27.312 155.514 27.9093 155.93 28.368C156.346 28.816 156.917 29.04 157.642 29.04ZM163.931 30V21.744H165.211V23.264H165.291C165.441 22.8693 165.707 22.5173 166.091 22.208C166.475 21.8987 167.003 21.744 167.675 21.744H168.171V23.024H167.419C166.726 23.024 166.182 23.1573 165.787 23.424C165.403 23.68 165.211 24.0053 165.211 24.4V30H163.931ZM172.992 30.192C172.427 30.192 171.915 30.0907 171.456 29.888C171.008 29.6853 170.619 29.3973 170.288 29.024C169.968 28.64 169.717 28.1867 169.536 27.664C169.365 27.1307 169.28 26.5333 169.28 25.872C169.28 25.2213 169.365 24.6293 169.536 24.096C169.717 23.5627 169.968 23.1093 170.288 22.736C170.619 22.352 171.008 22.0587 171.456 21.856C171.915 21.6533 172.427 21.552 172.992 21.552C173.547 21.552 174.043 21.6533 174.48 21.856C174.917 22.0587 175.291 22.3413 175.6 22.704C175.909 23.056 176.144 23.4773 176.304 23.968C176.475 24.4587 176.56 24.9973 176.56 25.584V26.192H170.624V26.576C170.624 26.928 170.677 27.2587 170.784 27.568C170.901 27.8667 171.061 28.128 171.264 28.352C171.477 28.576 171.733 28.752 172.032 28.88C172.341 29.008 172.688 29.072 173.072 29.072C173.595 29.072 174.048 28.9493 174.432 28.704C174.827 28.4587 175.131 28.1067 175.344 27.648L176.256 28.304C175.989 28.8693 175.573 29.328 175.008 29.68C174.443 30.0213 173.771 30.192 172.992 30.192ZM172.992 22.624C172.64 22.624 172.32 22.688 172.032 22.816C171.744 22.9333 171.493 23.104 171.28 23.328C171.077 23.552 170.917 23.8187 170.8 24.128C170.683 24.4267 170.624 24.7573 170.624 25.12V25.232H175.184V25.056C175.184 24.32 174.981 23.7333 174.576 23.296C174.181 22.848 173.653 22.624 172.992 22.624ZM181.309 30.192C180.541 30.192 179.896 30.048 179.373 29.76C178.861 29.4613 178.419 29.0667 178.045 28.576L178.957 27.84C179.277 28.2453 179.635 28.56 180.029 28.784C180.424 28.9973 180.883 29.104 181.405 29.104C181.949 29.104 182.371 28.9867 182.669 28.752C182.979 28.5173 183.133 28.1867 183.133 27.76C183.133 27.44 183.027 27.168 182.813 26.944C182.611 26.7093 182.237 26.5493 181.693 26.464L181.037 26.368C180.653 26.3147 180.301 26.2347 179.981 26.128C179.661 26.0107 179.379 25.8613 179.133 25.68C178.899 25.488 178.712 25.2533 178.573 24.976C178.445 24.6987 178.381 24.368 178.381 23.984C178.381 23.5787 178.456 23.2267 178.605 22.928C178.755 22.6187 178.957 22.3627 179.213 22.16C179.48 21.9573 179.795 21.808 180.157 21.712C180.52 21.6053 180.909 21.552 181.325 21.552C181.997 21.552 182.557 21.6693 183.005 21.904C183.464 22.1387 183.864 22.464 184.205 22.88L183.357 23.648C183.176 23.392 182.909 23.1627 182.557 22.96C182.205 22.7467 181.763 22.64 181.229 22.64C180.696 22.64 180.291 22.7573 180.013 22.992C179.747 23.216 179.613 23.5253 179.613 23.92C179.613 24.3253 179.747 24.6187 180.013 24.8C180.291 24.9813 180.685 25.1147 181.197 25.2L181.837 25.296C182.755 25.4347 183.405 25.7013 183.789 26.096C184.173 26.48 184.365 26.9867 184.365 27.616C184.365 28.416 184.093 29.0453 183.549 29.504C183.005 29.9627 182.259 30.192 181.309 30.192ZM189.173 30.192C188.405 30.192 187.759 30.048 187.237 29.76C186.725 29.4613 186.282 29.0667 185.909 28.576L186.821 27.84C187.141 28.2453 187.498 28.56 187.893 28.784C188.287 28.9973 188.746 29.104 189.269 29.104C189.813 29.104 190.234 28.9867 190.533 28.752C190.842 28.5173 190.997 28.1867 190.997 27.76C190.997 27.44 190.89 27.168 190.677 26.944C190.474 26.7093 190.101 26.5493 189.557 26.464L188.901 26.368C188.517 26.3147 188.165 26.2347 187.845 26.128C187.525 26.0107 187.242 25.8613 186.997 25.68C186.762 25.488 186.575 25.2533 186.437 24.976C186.309 24.6987 186.245 24.368 186.245 23.984C186.245 23.5787 186.319 23.2267 186.469 22.928C186.618 22.6187 186.821 22.3627 187.077 22.16C187.343 21.9573 187.658 21.808 188.021 21.712C188.383 21.6053 188.773 21.552 189.189 21.552C189.861 21.552 190.421 21.6693 190.869 21.904C191.327 22.1387 191.727 22.464 192.069 22.88L191.221 23.648C191.039 23.392 190.773 23.1627 190.421 22.96C190.069 22.7467 189.626 22.64 189.093 22.64C188.559 22.64 188.154 22.7573 187.877 22.992C187.61 23.216 187.477 23.5253 187.477 23.92C187.477 24.3253 187.61 24.6187 187.877 24.8C188.154 24.9813 188.549 25.1147 189.061 25.2L189.701 25.296C190.618 25.4347 191.269 25.7013 191.653 26.096C192.037 26.48 192.229 26.9867 192.229 27.616C192.229 28.416 191.957 29.0453 191.413 29.504C190.869 29.9627 190.122 30.192 189.173 30.192Z" fill="#B8BCCA"/>
<defs>
<linearGradient id="paint0_linear_2243_121" x1="9.64695e-07" y1="89" x2="460" y2="-36" gradientUnits="userSpaceOnUse">
<stop offset="0.0152174" stop-color="#090EDB"/>
<stop offset="1" stop-color="#E73DC4"/>
</linearGradient>
</defs>
</svg>
