<svg width="460" height="74" viewBox="0 0 460 74" fill="none" xmlns="http://www.w3.org/2000/svg">
<g clip-path="url(#clip0_2029_502)">
<path d="M4.048 16V11.584L0.208 4.832H1.744L4.72 10.208H4.768L7.744 4.832H9.28L5.392 11.536V16H4.048ZM13.3275 16.192C12.7728 16.192 12.2662 16.0907 11.8075 15.888C11.3488 15.6853 10.9542 15.3973 10.6235 15.024C10.3035 14.64 10.0528 14.1867 9.8715 13.664C9.69017 13.1307 9.5995 12.5333 9.5995 11.872C9.5995 11.2213 9.69017 10.6293 9.8715 10.096C10.0528 9.56267 10.3035 9.10933 10.6235 8.736C10.9542 8.352 11.3488 8.05867 11.8075 7.856C12.2662 7.65333 12.7728 7.552 13.3275 7.552C13.8822 7.552 14.3835 7.65333 14.8315 7.856C15.2902 8.05867 15.6848 8.352 16.0155 8.736C16.3462 9.10933 16.6022 9.56267 16.7835 10.096C16.9648 10.6293 17.0555 11.2213 17.0555 11.872C17.0555 12.5333 16.9648 13.1307 16.7835 13.664C16.6022 14.1867 16.3462 14.64 16.0155 15.024C15.6848 15.3973 15.2902 15.6853 14.8315 15.888C14.3835 16.0907 13.8822 16.192 13.3275 16.192ZM13.3275 15.056C14.0208 15.056 14.5862 14.8427 15.0235 14.416C15.4608 13.9893 15.6795 13.3387 15.6795 12.464V11.28C15.6795 10.4053 15.4608 9.75467 15.0235 9.328C14.5862 8.90133 14.0208 8.688 13.3275 8.688C12.6342 8.688 12.0688 8.90133 11.6315 9.328C11.1942 9.75467 10.9755 10.4053 10.9755 11.28V12.464C10.9755 13.3387 11.1942 13.9893 11.6315 14.416C12.0688 14.8427 12.6342 15.056 13.3275 15.056ZM24.4086 14.656H24.3446C24.2593 14.848 24.1526 15.04 24.0246 15.232C23.9073 15.4133 23.758 15.5787 23.5766 15.728C23.3953 15.8667 23.1766 15.9787 22.9206 16.064C22.6646 16.1493 22.366 16.192 22.0246 16.192C21.1713 16.192 20.494 15.92 19.9926 15.376C19.4913 14.8213 19.2406 14.0427 19.2406 13.04V7.744H20.5206V12.816C20.5206 14.2987 21.15 15.04 22.4086 15.04C22.6646 15.04 22.91 15.008 23.1446 14.944C23.39 14.88 23.6033 14.784 23.7846 14.656C23.9766 14.528 24.126 14.368 24.2326 14.176C24.35 13.9733 24.4086 13.7333 24.4086 13.456V7.744H25.6886V16H24.4086V14.656ZM28.5744 16V7.744H29.8544V9.264H29.9344C30.0837 8.86933 30.3504 8.51733 30.7344 8.208C31.1184 7.89867 31.6464 7.744 32.3184 7.744H32.8144V9.024H32.0624C31.369 9.024 30.825 9.15733 30.4304 9.424C30.0464 9.68 29.8544 10.0053 29.8544 10.4V16H28.5744ZM38.6786 16V4.832H45.4946V6.016H40.0226V9.76H45.1746V10.944H40.0226V14.816H45.4946V16H38.6786ZM48.0387 16V7.744H49.3187V9.088H49.3827C49.4787 8.87467 49.5854 8.67733 49.7027 8.496C49.8307 8.304 49.9801 8.13867 50.1507 8C50.3321 7.86133 50.5401 7.75467 50.7747 7.68C51.0094 7.59467 51.2867 7.552 51.6067 7.552C52.1507 7.552 52.6521 7.68533 53.1107 7.952C53.5694 8.208 53.9107 8.63467 54.1347 9.232H54.1667C54.3161 8.784 54.5934 8.39467 54.9987 8.064C55.4147 7.72267 55.9747 7.552 56.6787 7.552C57.5214 7.552 58.1774 7.82933 58.6467 8.384C59.1267 8.928 59.3667 9.70133 59.3667 10.704V16H58.0868V10.928C58.0868 10.192 57.9427 9.63733 57.6547 9.264C57.3667 8.89067 56.9081 8.704 56.2787 8.704C56.0227 8.704 55.7774 8.736 55.5427 8.8C55.3187 8.864 55.1161 8.96 54.9347 9.088C54.7534 9.216 54.6094 9.38133 54.5027 9.584C54.3961 9.776 54.3427 10.0053 54.3427 10.272V16H53.0627V10.928C53.0627 10.192 52.9187 9.63733 52.6307 9.264C52.3427 8.89067 51.8947 8.704 51.2867 8.704C51.0307 8.704 50.7854 8.736 50.5507 8.8C50.3161 8.864 50.1081 8.96 49.9267 9.088C49.7454 9.216 49.5961 9.38133 49.4787 9.584C49.3721 9.776 49.3187 10.0053 49.3187 10.272V16H48.0387ZM68.1675 16C67.6875 16 67.3408 15.872 67.1275 15.616C66.9248 15.36 66.7968 15.04 66.7435 14.656H66.6635C66.4822 15.168 66.1835 15.552 65.7675 15.808C65.3515 16.064 64.8555 16.192 64.2795 16.192C63.4048 16.192 62.7222 15.968 62.2315 15.52C61.7515 15.072 61.5115 14.464 61.5115 13.696C61.5115 12.9173 61.7942 12.32 62.3595 11.904C62.9355 11.488 63.8262 11.28 65.0315 11.28H66.6635V10.464C66.6635 9.87733 66.5035 9.42933 66.1835 9.12C65.8635 8.81067 65.3728 8.656 64.7115 8.656C64.2102 8.656 63.7888 8.768 63.4475 8.992C63.1168 9.216 62.8395 9.51467 62.6155 9.888L61.8475 9.168C62.0715 8.72 62.4288 8.34133 62.9195 8.032C63.4102 7.712 64.0288 7.552 64.7755 7.552C65.7782 7.552 66.5568 7.79733 67.1115 8.288C67.6662 8.77867 67.9435 9.46133 67.9435 10.336V14.88H68.8875V16H68.1675ZM64.4875 15.104C64.8075 15.104 65.1008 15.0667 65.3675 14.992C65.6342 14.9173 65.8635 14.8107 66.0555 14.672C66.2475 14.5333 66.3968 14.3733 66.5035 14.192C66.6102 14.0107 66.6635 13.8133 66.6635 13.6V12.24H64.9675C64.2315 12.24 63.6928 12.3467 63.3515 12.56C63.0208 12.7733 62.8555 13.0827 62.8555 13.488V13.824C62.8555 14.2293 62.9995 14.544 63.2875 14.768C63.5862 14.992 63.9862 15.104 64.4875 15.104ZM71.5144 5.808C71.237 5.808 71.0344 5.744 70.9064 5.616C70.789 5.47733 70.7304 5.30133 70.7304 5.088V4.88C70.7304 4.66667 70.789 4.496 70.9064 4.368C71.0344 4.22933 71.237 4.16 71.5144 4.16C71.7917 4.16 71.989 4.22933 72.1064 4.368C72.2344 4.496 72.2984 4.66667 72.2984 4.88V5.088C72.2984 5.30133 72.2344 5.47733 72.1064 5.616C71.989 5.744 71.7917 5.808 71.5144 5.808ZM70.8744 7.744H72.1544V16H70.8744V7.744ZM76.3944 16C75.9464 16 75.605 15.8773 75.3704 15.632C75.1464 15.376 75.0344 15.056 75.0344 14.672V4.16H76.3144V14.88H77.5304V16H76.3944Z" fill="white"/>
<rect x="0.5" y="26.5" width="459" height="47" rx="3.5" stroke="url(#paint0_linear_2029_502)"/>
<path d="M17.248 46.016V56H15.904V46.016H12.352V44.832H20.8V46.016H17.248ZM27.1236 47.744H28.3876L24.6916 57.92C24.5956 58.1653 24.4996 58.368 24.4036 58.528C24.3076 58.6987 24.1903 58.832 24.0516 58.928C23.913 59.024 23.737 59.0933 23.5236 59.136C23.321 59.1787 23.0703 59.2 22.7716 59.2H22.1156V58.08H23.4116L24.0356 56.32L20.9476 47.744H22.2276L24.2116 53.36L24.5956 54.704H24.6756L25.1236 53.36L27.1236 47.744ZM30.18 47.744H31.46V49.088H31.524C31.7373 48.5653 32.0467 48.1813 32.452 47.936C32.868 47.68 33.364 47.552 33.94 47.552C34.452 47.552 34.916 47.6533 35.332 47.856C35.748 48.0587 36.1 48.3467 36.388 48.72C36.6867 49.0933 36.9107 49.5467 37.06 50.08C37.22 50.6133 37.3 51.2107 37.3 51.872C37.3 52.5333 37.22 53.1307 37.06 53.664C36.9107 54.1973 36.6867 54.6507 36.388 55.024C36.1 55.3973 35.748 55.6853 35.332 55.888C34.916 56.0907 34.452 56.192 33.94 56.192C32.82 56.192 32.0147 55.68 31.524 54.656H31.46V59.2H30.18V47.744ZM33.588 55.04C34.3133 55.04 34.884 54.816 35.3 54.368C35.716 53.9093 35.924 53.312 35.924 52.576V51.168C35.924 50.432 35.716 49.84 35.3 49.392C34.884 48.9333 34.3133 48.704 33.588 48.704C33.3 48.704 33.0227 48.7467 32.756 48.832C32.5 48.9067 32.276 49.0133 32.084 49.152C31.892 49.2907 31.7373 49.4613 31.62 49.664C31.5133 49.856 31.46 50.064 31.46 50.288V53.36C31.46 53.6267 31.5133 53.8667 31.62 54.08C31.7373 54.2827 31.892 54.4587 32.084 54.608C32.276 54.7467 32.5 54.8533 32.756 54.928C33.0227 55.0027 33.3 55.04 33.588 55.04ZM42.7252 56.192C42.1599 56.192 41.6479 56.0907 41.1892 55.888C40.7412 55.6853 40.3519 55.3973 40.0212 55.024C39.7012 54.64 39.4506 54.1867 39.2692 53.664C39.0986 53.1307 39.0132 52.5333 39.0132 51.872C39.0132 51.2213 39.0986 50.6293 39.2692 50.096C39.4506 49.5627 39.7012 49.1093 40.0212 48.736C40.3519 48.352 40.7412 48.0587 41.1892 47.856C41.6479 47.6533 42.1599 47.552 42.7252 47.552C43.2799 47.552 43.7759 47.6533 44.2132 47.856C44.6506 48.0587 45.0239 48.3413 45.3333 48.704C45.6426 49.056 45.8772 49.4773 46.0373 49.968C46.2079 50.4587 46.2933 50.9973 46.2933 51.584V52.192H40.3572V52.576C40.3572 52.928 40.4106 53.2587 40.5172 53.568C40.6346 53.8667 40.7946 54.128 40.9972 54.352C41.2106 54.576 41.4666 54.752 41.7652 54.88C42.0746 55.008 42.4212 55.072 42.8052 55.072C43.3279 55.072 43.7812 54.9493 44.1652 54.704C44.5599 54.4587 44.8639 54.1067 45.0773 53.648L45.9892 54.304C45.7226 54.8693 45.3066 55.328 44.7413 55.68C44.1759 56.0213 43.5039 56.192 42.7252 56.192ZM42.7252 48.624C42.3732 48.624 42.0532 48.688 41.7652 48.816C41.4772 48.9333 41.2266 49.104 41.0132 49.328C40.8106 49.552 40.6506 49.8187 40.5332 50.128C40.4159 50.4267 40.3572 50.7573 40.3572 51.12V51.232H44.9172V51.056C44.9172 50.32 44.7146 49.7333 44.3092 49.296C43.9146 48.848 43.3866 48.624 42.7252 48.624ZM55.1917 56V51.584L51.3517 44.832H52.8877L55.8637 50.208H55.9117L58.8877 44.832H60.4237L56.5357 51.536V56H55.1917ZM64.4712 56.192C63.9166 56.192 63.4099 56.0907 62.9512 55.888C62.4926 55.6853 62.0979 55.3973 61.7672 55.024C61.4472 54.64 61.1966 54.1867 61.0152 53.664C60.8339 53.1307 60.7432 52.5333 60.7432 51.872C60.7432 51.2213 60.8339 50.6293 61.0152 50.096C61.1966 49.5627 61.4472 49.1093 61.7672 48.736C62.0979 48.352 62.4926 48.0587 62.9512 47.856C63.4099 47.6533 63.9166 47.552 64.4712 47.552C65.0259 47.552 65.5272 47.6533 65.9752 47.856C66.4339 48.0587 66.8286 48.352 67.1592 48.736C67.4899 49.1093 67.7459 49.5627 67.9272 50.096C68.1086 50.6293 68.1992 51.2213 68.1992 51.872C68.1992 52.5333 68.1086 53.1307 67.9272 53.664C67.7459 54.1867 67.4899 54.64 67.1592 55.024C66.8286 55.3973 66.4339 55.6853 65.9752 55.888C65.5272 56.0907 65.0259 56.192 64.4712 56.192ZM64.4712 55.056C65.1646 55.056 65.7299 54.8427 66.1672 54.416C66.6046 53.9893 66.8232 53.3387 66.8232 52.464V51.28C66.8232 50.4053 66.6046 49.7547 66.1672 49.328C65.7299 48.9013 65.1646 48.688 64.4712 48.688C63.7779 48.688 63.2126 48.9013 62.7752 49.328C62.3379 49.7547 62.1192 50.4053 62.1192 51.28V52.464C62.1192 53.3387 62.3379 53.9893 62.7752 54.416C63.2126 54.8427 63.7779 55.056 64.4712 55.056ZM75.5524 54.656H75.4884C75.403 54.848 75.2964 55.04 75.1684 55.232C75.051 55.4133 74.9017 55.5787 74.7204 55.728C74.539 55.8667 74.3204 55.9787 74.0644 56.064C73.8084 56.1493 73.5097 56.192 73.1684 56.192C72.315 56.192 71.6377 55.92 71.1364 55.376C70.635 54.8213 70.3844 54.0427 70.3844 53.04V47.744H71.6644V52.816C71.6644 54.2987 72.2937 55.04 73.5524 55.04C73.8084 55.04 74.0537 55.008 74.2884 54.944C74.5337 54.88 74.747 54.784 74.9284 54.656C75.1204 54.528 75.2697 54.368 75.3764 54.176C75.4937 53.9733 75.5524 53.7333 75.5524 53.456V47.744H76.8324V56H75.5524V54.656ZM79.7181 56V47.744H80.9981V49.264H81.0781C81.2275 48.8693 81.4941 48.5173 81.8781 48.208C82.2621 47.8987 82.7901 47.744 83.4621 47.744H83.9581V49.024H83.2061C82.5128 49.024 81.9688 49.1573 81.5741 49.424C81.1901 49.68 80.9981 50.0053 80.9981 50.4V56H79.7181ZM89.8224 56V44.832H96.6384V46.016H91.1664V49.76H96.3184V50.944H91.1664V54.816H96.6384V56H89.8224ZM99.1825 56V47.744H100.463V49.088H100.527C100.623 48.8747 100.729 48.6773 100.847 48.496C100.975 48.304 101.124 48.1387 101.295 48C101.476 47.8613 101.684 47.7547 101.919 47.68C102.153 47.5947 102.431 47.552 102.751 47.552C103.295 47.552 103.796 47.6853 104.255 47.952C104.713 48.208 105.055 48.6347 105.279 49.232H105.311C105.46 48.784 105.737 48.3947 106.143 48.064C106.559 47.7227 107.119 47.552 107.823 47.552C108.665 47.552 109.321 47.8293 109.791 48.384C110.271 48.928 110.511 49.7013 110.511 50.704V56H109.231V50.928C109.231 50.192 109.087 49.6373 108.799 49.264C108.511 48.8907 108.052 48.704 107.423 48.704C107.167 48.704 106.921 48.736 106.687 48.8C106.463 48.864 106.26 48.96 106.079 49.088C105.897 49.216 105.753 49.3813 105.647 49.584C105.54 49.776 105.487 50.0053 105.487 50.272V56H104.207V50.928C104.207 50.192 104.063 49.6373 103.775 49.264C103.487 48.8907 103.039 48.704 102.431 48.704C102.175 48.704 101.929 48.736 101.695 48.8C101.46 48.864 101.252 48.96 101.071 49.088C100.889 49.216 100.74 49.3813 100.623 49.584C100.516 49.776 100.463 50.0053 100.463 50.272V56H99.1825ZM119.311 56C118.831 56 118.485 55.872 118.271 55.616C118.069 55.36 117.941 55.04 117.887 54.656H117.807C117.626 55.168 117.327 55.552 116.911 55.808C116.495 56.064 115.999 56.192 115.423 56.192C114.549 56.192 113.866 55.968 113.375 55.52C112.895 55.072 112.655 54.464 112.655 53.696C112.655 52.9173 112.938 52.32 113.503 51.904C114.079 51.488 114.97 51.28 116.175 51.28H117.807V50.464C117.807 49.8773 117.647 49.4293 117.327 49.12C117.007 48.8107 116.517 48.656 115.855 48.656C115.354 48.656 114.933 48.768 114.591 48.992C114.261 49.216 113.983 49.5147 113.759 49.888L112.991 49.168C113.215 48.72 113.573 48.3413 114.063 48.032C114.554 47.712 115.173 47.552 115.919 47.552C116.922 47.552 117.701 47.7973 118.255 48.288C118.81 48.7787 119.087 49.4613 119.087 50.336V54.88H120.031V56H119.311ZM115.631 55.104C115.951 55.104 116.245 55.0667 116.511 54.992C116.778 54.9173 117.007 54.8107 117.199 54.672C117.391 54.5333 117.541 54.3733 117.647 54.192C117.754 54.0107 117.807 53.8133 117.807 53.6V52.24H116.111C115.375 52.24 114.837 52.3467 114.495 52.56C114.165 52.7733 113.999 53.0827 113.999 53.488V53.824C113.999 54.2293 114.143 54.544 114.431 54.768C114.73 54.992 115.13 55.104 115.631 55.104ZM122.658 45.808C122.381 45.808 122.178 45.744 122.05 45.616C121.933 45.4773 121.874 45.3013 121.874 45.088V44.88C121.874 44.6667 121.933 44.496 122.05 44.368C122.178 44.2293 122.381 44.16 122.658 44.16C122.935 44.16 123.133 44.2293 123.25 44.368C123.378 44.496 123.442 44.6667 123.442 44.88V45.088C123.442 45.3013 123.378 45.4773 123.25 45.616C123.133 45.744 122.935 45.808 122.658 45.808ZM122.018 47.744H123.298V56H122.018V47.744ZM127.538 56C127.09 56 126.749 55.8773 126.514 55.632C126.29 55.376 126.178 55.056 126.178 54.672V44.16H127.458V54.88H128.674V56H127.538ZM141.759 56L140.639 52.704H136.127L135.007 56H133.647L137.551 44.832H139.263L143.167 56H141.759ZM138.415 46.08H138.335L136.447 51.52H140.303L138.415 46.08ZM150.329 54.656H150.265C149.763 55.68 148.958 56.192 147.849 56.192C147.337 56.192 146.873 56.0907 146.457 55.888C146.041 55.6853 145.683 55.3973 145.385 55.024C145.097 54.6507 144.873 54.1973 144.713 53.664C144.563 53.1307 144.489 52.5333 144.489 51.872C144.489 51.2107 144.563 50.6133 144.713 50.08C144.873 49.5467 145.097 49.0933 145.385 48.72C145.683 48.3467 146.041 48.0587 146.457 47.856C146.873 47.6533 147.337 47.552 147.849 47.552C148.425 47.552 148.915 47.68 149.321 47.936C149.737 48.1813 150.051 48.5653 150.265 49.088H150.329V44.16H151.609V56H150.329V54.656ZM148.201 55.04C148.489 55.04 148.761 55.0027 149.017 54.928C149.283 54.8533 149.513 54.7467 149.705 54.608C149.897 54.4587 150.046 54.2827 150.153 54.08C150.27 53.8667 150.329 53.6267 150.329 53.36V50.288C150.329 50.064 150.27 49.856 150.153 49.664C150.046 49.4613 149.897 49.2907 149.705 49.152C149.513 49.0133 149.283 48.9067 149.017 48.832C148.761 48.7467 148.489 48.704 148.201 48.704C147.475 48.704 146.905 48.9333 146.489 49.392C146.073 49.84 145.865 50.432 145.865 51.168V52.576C145.865 53.312 146.073 53.9093 146.489 54.368C146.905 54.816 147.475 55.04 148.201 55.04ZM159.77 54.656H159.706C159.205 55.68 158.399 56.192 157.29 56.192C156.778 56.192 156.314 56.0907 155.898 55.888C155.482 55.6853 155.125 55.3973 154.826 55.024C154.538 54.6507 154.314 54.1973 154.154 53.664C154.005 53.1307 153.93 52.5333 153.93 51.872C153.93 51.2107 154.005 50.6133 154.154 50.08C154.314 49.5467 154.538 49.0933 154.826 48.72C155.125 48.3467 155.482 48.0587 155.898 47.856C156.314 47.6533 156.778 47.552 157.29 47.552C157.866 47.552 158.357 47.68 158.762 47.936C159.178 48.1813 159.493 48.5653 159.706 49.088H159.77V44.16H161.05V56H159.77V54.656ZM157.642 55.04C157.93 55.04 158.202 55.0027 158.458 54.928C158.725 54.8533 158.954 54.7467 159.146 54.608C159.338 54.4587 159.487 54.2827 159.594 54.08C159.711 53.8667 159.77 53.6267 159.77 53.36V50.288C159.77 50.064 159.711 49.856 159.594 49.664C159.487 49.4613 159.338 49.2907 159.146 49.152C158.954 49.0133 158.725 48.9067 158.458 48.832C158.202 48.7467 157.93 48.704 157.642 48.704C156.917 48.704 156.346 48.9333 155.93 49.392C155.514 49.84 155.306 50.432 155.306 51.168V52.576C155.306 53.312 155.514 53.9093 155.93 54.368C156.346 54.816 156.917 55.04 157.642 55.04ZM163.931 56V47.744H165.211V49.264H165.291C165.441 48.8693 165.707 48.5173 166.091 48.208C166.475 47.8987 167.003 47.744 167.675 47.744H168.171V49.024H167.419C166.726 49.024 166.182 49.1573 165.787 49.424C165.403 49.68 165.211 50.0053 165.211 50.4V56H163.931ZM172.992 56.192C172.427 56.192 171.915 56.0907 171.456 55.888C171.008 55.6853 170.619 55.3973 170.288 55.024C169.968 54.64 169.717 54.1867 169.536 53.664C169.365 53.1307 169.28 52.5333 169.28 51.872C169.28 51.2213 169.365 50.6293 169.536 50.096C169.717 49.5627 169.968 49.1093 170.288 48.736C170.619 48.352 171.008 48.0587 171.456 47.856C171.915 47.6533 172.427 47.552 172.992 47.552C173.547 47.552 174.043 47.6533 174.48 47.856C174.917 48.0587 175.291 48.3413 175.6 48.704C175.909 49.056 176.144 49.4773 176.304 49.968C176.475 50.4587 176.56 50.9973 176.56 51.584V52.192H170.624V52.576C170.624 52.928 170.677 53.2587 170.784 53.568C170.901 53.8667 171.061 54.128 171.264 54.352C171.477 54.576 171.733 54.752 172.032 54.88C172.341 55.008 172.688 55.072 173.072 55.072C173.595 55.072 174.048 54.9493 174.432 54.704C174.827 54.4587 175.131 54.1067 175.344 53.648L176.256 54.304C175.989 54.8693 175.573 55.328 175.008 55.68C174.443 56.0213 173.771 56.192 172.992 56.192ZM172.992 48.624C172.64 48.624 172.32 48.688 172.032 48.816C171.744 48.9333 171.493 49.104 171.28 49.328C171.077 49.552 170.917 49.8187 170.8 50.128C170.683 50.4267 170.624 50.7573 170.624 51.12V51.232H175.184V51.056C175.184 50.32 174.981 49.7333 174.576 49.296C174.181 48.848 173.653 48.624 172.992 48.624ZM181.309 56.192C180.541 56.192 179.896 56.048 179.373 55.76C178.861 55.4613 178.419 55.0667 178.045 54.576L178.957 53.84C179.277 54.2453 179.635 54.56 180.029 54.784C180.424 54.9973 180.883 55.104 181.405 55.104C181.949 55.104 182.371 54.9867 182.669 54.752C182.979 54.5173 183.133 54.1867 183.133 53.76C183.133 53.44 183.027 53.168 182.813 52.944C182.611 52.7093 182.237 52.5493 181.693 52.464L181.037 52.368C180.653 52.3147 180.301 52.2347 179.981 52.128C179.661 52.0107 179.379 51.8613 179.133 51.68C178.899 51.488 178.712 51.2533 178.573 50.976C178.445 50.6987 178.381 50.368 178.381 49.984C178.381 49.5787 178.456 49.2267 178.605 48.928C178.755 48.6187 178.957 48.3627 179.213 48.16C179.48 47.9573 179.795 47.808 180.157 47.712C180.52 47.6053 180.909 47.552 181.325 47.552C181.997 47.552 182.557 47.6693 183.005 47.904C183.464 48.1387 183.864 48.464 184.205 48.88L183.357 49.648C183.176 49.392 182.909 49.1627 182.557 48.96C182.205 48.7467 181.763 48.64 181.229 48.64C180.696 48.64 180.291 48.7573 180.013 48.992C179.747 49.216 179.613 49.5253 179.613 49.92C179.613 50.3253 179.747 50.6187 180.013 50.8C180.291 50.9813 180.685 51.1147 181.197 51.2L181.837 51.296C182.755 51.4347 183.405 51.7013 183.789 52.096C184.173 52.48 184.365 52.9867 184.365 53.616C184.365 54.416 184.093 55.0453 183.549 55.504C183.005 55.9627 182.259 56.192 181.309 56.192ZM189.173 56.192C188.405 56.192 187.759 56.048 187.237 55.76C186.725 55.4613 186.282 55.0667 185.909 54.576L186.821 53.84C187.141 54.2453 187.498 54.56 187.893 54.784C188.287 54.9973 188.746 55.104 189.269 55.104C189.813 55.104 190.234 54.9867 190.533 54.752C190.842 54.5173 190.997 54.1867 190.997 53.76C190.997 53.44 190.89 53.168 190.677 52.944C190.474 52.7093 190.101 52.5493 189.557 52.464L188.901 52.368C188.517 52.3147 188.165 52.2347 187.845 52.128C187.525 52.0107 187.242 51.8613 186.997 51.68C186.762 51.488 186.575 51.2533 186.437 50.976C186.309 50.6987 186.245 50.368 186.245 49.984C186.245 49.5787 186.319 49.2267 186.469 48.928C186.618 48.6187 186.821 48.3627 187.077 48.16C187.343 47.9573 187.658 47.808 188.021 47.712C188.383 47.6053 188.773 47.552 189.189 47.552C189.861 47.552 190.421 47.6693 190.869 47.904C191.327 48.1387 191.727 48.464 192.069 48.88L191.221 49.648C191.039 49.392 190.773 49.1627 190.421 48.96C190.069 48.7467 189.626 48.64 189.093 48.64C188.559 48.64 188.154 48.7573 187.877 48.992C187.61 49.216 187.477 49.5253 187.477 49.92C187.477 50.3253 187.61 50.6187 187.877 50.8C188.154 50.9813 188.549 51.1147 189.061 51.2L189.701 51.296C190.618 51.4347 191.269 51.7013 191.653 52.096C192.037 52.48 192.229 52.9867 192.229 53.616C192.229 54.416 191.957 55.0453 191.413 55.504C190.869 55.9627 190.122 56.192 189.173 56.192Z" fill="#B8BCCA"/>
</g>
<defs>
<linearGradient id="paint0_linear_2029_502" x1="9.64695e-07" y1="115" x2="460" y2="-10" gradientUnits="userSpaceOnUse">
<stop offset="0.0152174" stop-color="#090EDB"/>
<stop offset="1" stop-color="#E73DC4"/>
</linearGradient>
<clipPath id="clip0_2029_502">
<rect width="460" height="74" fill="white"/>
</clipPath>
</defs>
</svg>
