<svg width="538" height="71" viewBox="0 0 538 71" fill="none" xmlns="http://www.w3.org/2000/svg">
<path d="M3.78 27L0.324 3.384H4.248L5.688 17.604C5.76 18.276 5.82 18.9 5.868 19.476C5.916 20.028 5.952 20.592 5.976 21.168C6.024 21.744 6.06 22.416 6.084 23.184H6.192C6.336 22.416 6.468 21.744 6.588 21.168C6.708 20.592 6.828 20.028 6.948 19.476C7.068 18.9 7.2 18.288 7.344 17.64L9.468 9.432H12.492L14.508 17.64C14.676 18.288 14.82 18.888 14.94 19.44C15.06 19.992 15.18 20.568 15.3 21.168C15.42 21.744 15.54 22.416 15.66 23.184H15.804C15.852 22.416 15.888 21.744 15.912 21.168C15.936 20.568 15.972 19.992 16.02 19.44C16.068 18.888 16.116 18.288 16.164 17.64L17.568 3.384H21.312L18 27H13.752L11.664 18.072C11.52 17.352 11.376 16.632 11.232 15.912C11.088 15.192 10.968 14.472 10.872 13.752H10.764C10.668 14.472 10.56 15.192 10.44 15.912C10.32 16.632 10.164 17.352 9.972 18.072L7.92 27H3.78ZM30.2619 27.432C29.1339 27.432 28.1139 27.228 27.2019 26.82C26.3139 26.388 25.6059 25.8 25.0779 25.056C24.5739 24.288 24.3219 23.388 24.3219 22.356C24.3219 20.388 25.2819 18.888 27.2019 17.856C29.1459 16.824 32.3259 16.14 36.7419 15.804C36.7179 15.084 36.5499 14.424 36.2379 13.824C35.9499 13.224 35.4819 12.756 34.8339 12.42C34.2099 12.06 33.3819 11.88 32.3499 11.88C31.6299 11.88 30.9219 11.976 30.2259 12.168C29.5299 12.336 28.8579 12.576 28.2099 12.888C27.5619 13.2 26.9499 13.524 26.3739 13.86L25.0419 11.448C25.6899 11.064 26.4339 10.68 27.2739 10.296C28.1139 9.888 29.0139 9.564 29.9739 9.324C30.9579 9.084 31.9539 8.964 32.9619 8.964C34.5939 8.964 35.9499 9.264 37.0299 9.864C38.1099 10.464 38.9259 11.316 39.4779 12.42C40.0299 13.524 40.3059 14.856 40.3059 16.416V27H37.3899L37.1019 24.732H36.9939C36.0579 25.452 35.0019 26.088 33.8259 26.64C32.6499 27.168 31.4619 27.432 30.2619 27.432ZM31.2699 24.588C32.2059 24.588 33.1299 24.384 34.0419 23.976C34.9539 23.568 35.8539 22.992 36.7419 22.248V18.072C34.4379 18.24 32.6259 18.504 31.3059 18.864C30.0099 19.224 29.0979 19.68 28.5699 20.232C28.0419 20.76 27.7779 21.384 27.7779 22.104C27.7779 22.68 27.9339 23.16 28.2459 23.544C28.5819 23.904 29.0139 24.168 29.5419 24.336C30.0699 24.504 30.6459 24.588 31.2699 24.588ZM46.3399 27V9.396H49.2559L49.5439 12.24H49.6879C50.5759 11.328 51.5359 10.56 52.5679 9.936C53.5999 9.288 54.7999 8.964 56.1679 8.964C58.2079 8.964 59.7079 9.588 60.6679 10.836C61.6519 12.06 62.1439 13.812 62.1439 16.092V27H58.5799V16.56C58.5799 15.024 58.2919 13.896 57.7159 13.176C57.1639 12.432 56.2279 12.06 54.9079 12.06C53.9719 12.06 53.1319 12.3 52.3879 12.78C51.6439 13.236 50.8159 13.932 49.9039 14.868V27H46.3399ZM67.9258 27V9.396H70.8418L71.1298 12.24H71.2738C72.1618 11.328 73.1218 10.56 74.1538 9.936C75.1858 9.288 76.3858 8.964 77.7538 8.964C79.7938 8.964 81.2938 9.588 82.2538 10.836C83.2378 12.06 83.7298 13.812 83.7298 16.092V27H80.1658V16.56C80.1658 15.024 79.8778 13.896 79.3018 13.176C78.7498 12.432 77.8138 12.06 76.4938 12.06C75.5578 12.06 74.7178 12.3 73.9738 12.78C73.2298 13.236 72.4018 13.932 71.4898 14.868V27H67.9258ZM95.0198 27.432C93.8918 27.432 92.8718 27.228 91.9598 26.82C91.0718 26.388 90.3638 25.8 89.8358 25.056C89.3318 24.288 89.0798 23.388 89.0798 22.356C89.0798 20.388 90.0398 18.888 91.9598 17.856C93.9038 16.824 97.0838 16.14 101.5 15.804C101.476 15.084 101.308 14.424 100.996 13.824C100.708 13.224 100.24 12.756 99.5918 12.42C98.9678 12.06 98.1398 11.88 97.1078 11.88C96.3878 11.88 95.6798 11.976 94.9838 12.168C94.2878 12.336 93.6158 12.576 92.9678 12.888C92.3198 13.2 91.7078 13.524 91.1318 13.86L89.7998 11.448C90.4478 11.064 91.1918 10.68 92.0318 10.296C92.8718 9.888 93.7718 9.564 94.7318 9.324C95.7158 9.084 96.7118 8.964 97.7198 8.964C99.3518 8.964 100.708 9.264 101.788 9.864C102.868 10.464 103.684 11.316 104.236 12.42C104.788 13.524 105.064 14.856 105.064 16.416V27H102.148L101.86 24.732H101.752C100.816 25.452 99.7598 26.088 98.5838 26.64C97.4078 27.168 96.2198 27.432 95.0198 27.432ZM96.0278 24.588C96.9638 24.588 97.8878 24.384 98.7998 23.976C99.7118 23.568 100.612 22.992 101.5 22.248V18.072C99.1958 18.24 97.3838 18.504 96.0638 18.864C94.7678 19.224 93.8558 19.68 93.3278 20.232C92.7998 20.76 92.5358 21.384 92.5358 22.104C92.5358 22.68 92.6918 23.16 93.0038 23.544C93.3398 23.904 93.7718 24.168 94.2998 24.336C94.8278 24.504 95.4038 24.588 96.0278 24.588ZM136.5 34.632C135.54 34.632 134.616 34.512 133.728 34.272C132.864 34.056 132.084 33.768 131.388 33.408L132.504 30.816C133.152 31.128 133.8 31.356 134.448 31.5C135.12 31.668 135.768 31.752 136.392 31.752C137.496 31.752 138.336 31.572 138.912 31.212C139.512 30.876 139.932 30.372 140.172 29.7C140.412 29.028 140.532 28.212 140.532 27.252V12.276H132.648V9.396H144.096V27.036C144.096 28.116 143.976 29.112 143.736 30.024C143.496 30.96 143.088 31.764 142.512 32.436C141.936 33.132 141.156 33.672 140.172 34.056C139.188 34.44 137.964 34.632 136.5 34.632ZM142.008 5.976C141.24 5.976 140.604 5.748 140.1 5.292C139.596 4.812 139.344 4.188 139.344 3.42C139.344 2.652 139.596 2.04 140.1 1.584C140.604 1.104 141.24 0.864 142.008 0.864C142.776 0.864 143.412 1.104 143.916 1.584C144.42 2.04 144.672 2.652 144.672 3.42C144.672 4.188 144.42 4.812 143.916 5.292C143.412 5.748 142.776 5.976 142.008 5.976ZM161.902 27.432C160.366 27.432 158.926 27.072 157.582 26.352C156.262 25.632 155.182 24.588 154.342 23.22C153.526 21.828 153.118 20.16 153.118 18.216C153.118 16.272 153.526 14.616 154.342 13.248C155.182 11.856 156.262 10.8 157.582 10.08C158.926 9.336 160.366 8.964 161.902 8.964C163.438 8.964 164.866 9.336 166.186 10.08C167.53 10.8 168.61 11.856 169.426 13.248C170.266 14.616 170.686 16.272 170.686 18.216C170.686 20.16 170.266 21.828 169.426 23.22C168.61 24.588 167.53 25.632 166.186 26.352C164.866 27.072 163.438 27.432 161.902 27.432ZM161.902 24.516C162.934 24.516 163.834 24.252 164.602 23.724C165.37 23.196 165.958 22.464 166.366 21.528C166.798 20.592 167.014 19.488 167.014 18.216C167.014 16.968 166.798 15.876 166.366 14.94C165.958 13.98 165.37 13.236 164.602 12.708C163.834 12.18 162.934 11.916 161.902 11.916C160.87 11.916 159.97 12.18 159.202 12.708C158.434 13.236 157.834 13.98 157.402 14.94C156.994 15.876 156.79 16.968 156.79 18.216C156.79 19.488 156.994 20.592 157.402 21.528C157.834 22.464 158.434 23.196 159.202 23.724C159.97 24.252 160.87 24.516 161.902 24.516ZM183.704 27V12.276H175.82V9.396H187.268V27H183.704ZM185.18 5.976C184.412 5.976 183.776 5.748 183.271 5.292C182.768 4.812 182.516 4.188 182.516 3.42C182.516 2.652 182.768 2.04 183.271 1.584C183.776 1.104 184.412 0.864 185.18 0.864C185.948 0.864 186.584 1.104 187.088 1.584C187.592 2.04 187.844 2.652 187.844 3.42C187.844 4.188 187.592 4.812 187.088 5.292C186.584 5.748 185.948 5.976 185.18 5.976ZM197.441 27V9.396H200.357L200.645 12.24H200.789C201.677 11.328 202.637 10.56 203.669 9.936C204.701 9.288 205.901 8.964 207.269 8.964C209.309 8.964 210.809 9.588 211.769 10.836C212.753 12.06 213.245 13.812 213.245 16.092V27H209.681V16.56C209.681 15.024 209.393 13.896 208.817 13.176C208.265 12.432 207.329 12.06 206.009 12.06C205.073 12.06 204.233 12.3 203.489 12.78C202.745 13.236 201.917 13.932 201.005 14.868V27H197.441ZM238.381 27L246.157 3.42H250.333L258.109 27H254.293L250.477 14.148C250.093 12.852 249.709 11.556 249.325 10.26C248.965 8.94 248.605 7.62 248.245 6.3H248.101C247.765 7.62 247.405 8.94 247.021 10.26C246.661 11.556 246.289 12.852 245.905 14.148L242.053 27H238.381ZM242.737 20.232V17.388H253.681V20.232H242.737ZM271.703 27.432C270.239 27.432 268.871 27.168 267.599 26.64C266.351 26.088 265.247 25.296 264.287 24.264C263.351 23.208 262.607 21.924 262.055 20.412C261.527 18.9 261.263 17.184 261.263 15.264C261.263 12.696 261.731 10.5 262.667 8.676C263.603 6.828 264.875 5.424 266.483 4.464C268.091 3.48 269.927 2.988 271.991 2.988C273.431 2.988 274.715 3.288 275.843 3.888C276.971 4.464 277.895 5.136 278.615 5.904L276.599 8.172C275.999 7.524 275.315 7.02 274.547 6.66C273.803 6.3 272.951 6.12 271.991 6.12C270.599 6.12 269.375 6.492 268.319 7.236C267.263 7.956 266.435 8.988 265.835 10.332C265.259 11.676 264.971 13.284 264.971 15.156C264.971 17.028 265.259 18.648 265.835 20.016C266.435 21.384 267.263 22.44 268.319 23.184C269.399 23.928 270.647 24.3 272.063 24.3C273.095 24.3 274.019 24.084 274.835 23.652C275.651 23.196 276.407 22.584 277.103 21.816L279.119 24.012C278.207 25.092 277.139 25.932 275.915 26.532C274.691 27.132 273.287 27.432 271.703 27.432ZM283.065 27V3.42H287.241L290.301 13.032L291.345 16.704H291.489L292.533 13.032L295.593 3.42H299.769V27H296.457V16.38C296.457 15.78 296.481 15.084 296.529 14.292C296.577 13.476 296.625 12.636 296.673 11.772C296.745 10.908 296.805 10.092 296.853 9.324C296.925 8.556 296.985 7.896 297.033 7.344H296.925L295.449 12.42L292.461 20.736H290.229L287.277 12.42L285.837 7.344H285.729C285.801 7.896 285.861 8.556 285.909 9.324C285.981 10.092 286.041 10.908 286.089 11.772C286.137 12.636 286.185 13.476 286.233 14.292C286.281 15.084 286.305 15.78 286.305 16.38V27H283.065ZM310.699 18.432C310.531 17.424 310.603 16.536 310.915 15.768C311.227 15 311.659 14.328 312.211 13.752C312.787 13.152 313.375 12.588 313.975 12.06C314.599 11.532 315.115 10.992 315.523 10.44C315.931 9.864 316.135 9.228 316.135 8.532C316.135 7.62 315.823 6.864 315.199 6.264C314.575 5.664 313.675 5.364 312.499 5.364C311.635 5.364 310.831 5.544 310.087 5.904C309.367 6.264 308.695 6.744 308.071 7.344L306.019 5.472C306.859 4.584 307.843 3.864 308.971 3.312C310.099 2.736 311.359 2.448 312.751 2.448C314.095 2.448 315.283 2.676 316.315 3.132C317.347 3.588 318.151 4.248 318.727 5.112C319.303 5.952 319.591 6.96 319.591 8.136C319.591 9.096 319.375 9.936 318.943 10.656C318.535 11.352 318.019 11.988 317.395 12.564C316.795 13.14 316.195 13.704 315.595 14.256C315.019 14.784 314.551 15.384 314.191 16.056C313.831 16.728 313.711 17.52 313.831 18.432H310.699ZM312.499 27.432C311.707 27.432 311.023 27.156 310.447 26.604C309.895 26.052 309.619 25.32 309.619 24.408C309.619 23.496 309.895 22.776 310.447 22.248C311.023 21.696 311.707 21.42 312.499 21.42C313.315 21.42 313.999 21.696 314.551 22.248C315.103 22.776 315.379 23.496 315.379 24.408C315.379 25.32 315.103 26.052 314.551 26.604C313.999 27.156 313.315 27.432 312.499 27.432ZM349.947 27V3.42H353.511V23.976H364.851V27H349.947ZM378.841 27.432C377.065 27.432 375.445 27.072 373.981 26.352C372.541 25.632 371.401 24.576 370.561 23.184C369.721 21.792 369.301 20.124 369.301 18.18C369.301 16.26 369.721 14.616 370.561 13.248C371.425 11.88 372.541 10.824 373.909 10.08C375.277 9.336 376.741 8.964 378.301 8.964C380.029 8.964 381.493 9.324 382.693 10.044C383.893 10.74 384.805 11.712 385.429 12.96C386.077 14.184 386.401 15.624 386.401 17.28C386.401 17.64 386.389 18 386.365 18.36C386.341 18.696 386.305 18.984 386.257 19.224H371.785V16.596H384.025L383.233 17.46C383.233 15.564 382.801 14.148 381.937 13.212C381.073 12.252 379.897 11.772 378.409 11.772C377.377 11.772 376.429 12.024 375.565 12.528C374.725 13.008 374.053 13.728 373.549 14.688C373.045 15.624 372.793 16.788 372.793 18.18C372.793 19.62 373.069 20.82 373.621 21.78C374.197 22.716 374.965 23.424 375.925 23.904C376.909 24.384 378.037 24.624 379.309 24.624C380.293 24.624 381.193 24.492 382.009 24.228C382.825 23.94 383.629 23.556 384.421 23.076L385.681 25.344C384.793 25.944 383.773 26.448 382.621 26.856C381.469 27.24 380.209 27.432 378.841 27.432ZM402.695 27.432C400.919 27.432 399.515 27.12 398.483 26.496C397.475 25.872 396.755 25.008 396.323 23.904C395.891 22.8 395.675 21.516 395.675 20.052V12.276H390.851V9.612L395.819 9.396L396.287 3.852H399.239V9.396H407.555V12.276H399.239V20.052C399.239 21.036 399.371 21.876 399.635 22.572C399.899 23.244 400.343 23.748 400.967 24.084C401.591 24.396 402.431 24.552 403.487 24.552C404.279 24.552 404.999 24.492 405.647 24.372C406.295 24.228 406.919 24.048 407.519 23.832L408.239 26.424C407.447 26.688 406.595 26.916 405.683 27.108C404.795 27.324 403.799 27.432 402.695 27.432ZM418.917 14.976L417.801 12.96C419.049 12.288 419.997 11.448 420.645 10.44C421.317 9.432 421.653 8.256 421.653 6.912L421.077 3.96L423.093 6.516C422.781 6.828 422.409 7.092 421.977 7.308C421.569 7.524 421.161 7.632 420.753 7.632C419.937 7.632 419.277 7.38 418.773 6.876C418.269 6.348 418.017 5.676 418.017 4.86C418.017 3.972 418.281 3.252 418.809 2.7C419.337 2.148 420.021 1.872 420.861 1.872C421.893 1.872 422.733 2.292 423.381 3.132C424.029 3.948 424.353 5.1 424.353 6.588C424.353 8.436 423.873 10.08 422.913 11.52C421.977 12.96 420.645 14.112 418.917 14.976ZM442.735 27.432C441.079 27.432 439.495 27.156 437.983 26.604C436.471 26.052 435.187 25.416 434.131 24.696L435.715 22.392C436.747 23.112 437.863 23.676 439.063 24.084C440.287 24.492 441.667 24.696 443.203 24.696C444.547 24.696 445.543 24.456 446.191 23.976C446.863 23.496 447.199 22.932 447.199 22.284C447.199 21.972 447.127 21.684 446.983 21.42C446.863 21.156 446.623 20.916 446.263 20.7C445.927 20.46 445.411 20.232 444.715 20.016C444.043 19.8 443.155 19.572 442.051 19.332C439.723 18.852 437.995 18.192 436.867 17.352C435.763 16.512 435.211 15.432 435.211 14.112C435.211 12.624 435.847 11.4 437.119 10.44C438.415 9.456 440.287 8.964 442.735 8.964C444.127 8.964 445.447 9.204 446.695 9.684C447.967 10.14 449.047 10.668 449.935 11.268L448.279 13.5C447.439 12.948 446.515 12.516 445.507 12.204C444.523 11.868 443.491 11.7 442.411 11.7C441.523 11.7 440.815 11.808 440.287 12.024C439.759 12.216 439.375 12.48 439.135 12.816C438.895 13.152 438.775 13.524 438.775 13.932C438.775 14.604 439.147 15.132 439.891 15.516C440.659 15.876 441.895 16.236 443.599 16.596C445.519 17.004 446.995 17.46 448.027 17.964C449.083 18.468 449.803 19.056 450.187 19.728C450.595 20.376 450.799 21.156 450.799 22.068C450.799 23.052 450.487 23.952 449.863 24.768C449.239 25.584 448.327 26.232 447.127 26.712C445.951 27.192 444.487 27.432 442.735 27.432ZM485.367 34.956C483.711 34.956 482.271 34.764 481.047 34.38C479.847 34.02 478.923 33.48 478.275 32.76C477.627 32.064 477.303 31.2 477.303 30.168C477.303 29.448 477.543 28.752 478.023 28.08C478.503 27.432 479.211 26.856 480.147 26.352V26.208C479.691 25.92 479.271 25.548 478.887 25.092C478.527 24.636 478.347 24.036 478.347 23.292C478.347 22.716 478.527 22.14 478.887 21.564C479.271 20.964 479.787 20.436 480.435 19.98V19.836C479.835 19.38 479.319 18.768 478.887 18C478.455 17.232 478.239 16.332 478.239 15.3C478.239 13.98 478.563 12.852 479.211 11.916C479.883 10.98 480.747 10.26 481.803 9.756C482.883 9.228 484.059 8.964 485.331 8.964C486.339 8.964 487.227 9.108 487.995 9.396H495.231V12.204H490.947C491.307 12.588 491.607 13.068 491.847 13.644C492.111 14.196 492.243 14.784 492.243 15.408C492.243 16.704 491.931 17.796 491.307 18.684C490.707 19.572 489.879 20.256 488.823 20.736C487.791 21.192 486.627 21.42 485.331 21.42C484.899 21.42 484.431 21.372 483.927 21.276C483.447 21.18 482.967 21.036 482.487 20.844C482.103 21.108 481.803 21.384 481.587 21.672C481.371 21.96 481.263 22.296 481.263 22.68C481.263 23.304 481.563 23.772 482.163 24.084C482.763 24.372 483.627 24.516 484.755 24.516H488.499C490.779 24.516 492.483 24.84 493.611 25.488C494.763 26.136 495.339 27.216 495.339 28.728C495.339 29.856 494.931 30.888 494.115 31.824C493.299 32.784 492.147 33.54 490.659 34.092C489.171 34.668 487.407 34.956 485.367 34.956ZM485.331 19.116C486.003 19.116 486.615 18.972 487.167 18.684C487.719 18.372 488.163 17.928 488.499 17.352C488.835 16.776 489.003 16.092 489.003 15.3C489.003 14.532 488.835 13.872 488.499 13.32C488.163 12.744 487.719 12.3 487.167 11.988C486.615 11.652 486.003 11.484 485.331 11.484C484.659 11.484 484.035 11.652 483.459 11.988C482.907 12.3 482.463 12.744 482.127 13.32C481.791 13.872 481.623 14.532 481.623 15.3C481.623 16.092 481.791 16.776 482.127 17.352C482.463 17.928 482.907 18.372 483.459 18.684C484.035 18.972 484.659 19.116 485.331 19.116ZM485.727 32.472C486.999 32.472 488.091 32.316 489.003 32.004C489.915 31.716 490.611 31.332 491.091 30.852C491.595 30.396 491.847 29.892 491.847 29.34C491.847 28.548 491.535 28.02 490.911 27.756C490.287 27.516 489.351 27.396 488.103 27.396H484.971C484.419 27.396 483.927 27.372 483.495 27.324C483.063 27.276 482.667 27.204 482.307 27.108C481.563 27.516 481.035 27.936 480.723 28.368C480.435 28.824 480.291 29.28 480.291 29.736C480.291 30.576 480.759 31.236 481.695 31.716C482.631 32.22 483.975 32.472 485.727 32.472ZM508.357 27.432C506.581 27.432 504.961 27.072 503.497 26.352C502.057 25.632 500.917 24.576 500.077 23.184C499.237 21.792 498.817 20.124 498.817 18.18C498.817 16.26 499.237 14.616 500.077 13.248C500.941 11.88 502.057 10.824 503.425 10.08C504.793 9.336 506.257 8.964 507.817 8.964C509.545 8.964 511.009 9.324 512.209 10.044C513.409 10.74 514.321 11.712 514.945 12.96C515.593 14.184 515.917 15.624 515.917 17.28C515.917 17.64 515.905 18 515.881 18.36C515.857 18.696 515.821 18.984 515.773 19.224H501.301V16.596H513.541L512.749 17.46C512.749 15.564 512.317 14.148 511.453 13.212C510.589 12.252 509.413 11.772 507.925 11.772C506.893 11.772 505.945 12.024 505.081 12.528C504.241 13.008 503.569 13.728 503.065 14.688C502.561 15.624 502.309 16.788 502.309 18.18C502.309 19.62 502.585 20.82 503.137 21.78C503.713 22.716 504.481 23.424 505.441 23.904C506.425 24.384 507.553 24.624 508.825 24.624C509.809 24.624 510.709 24.492 511.525 24.228C512.341 23.94 513.145 23.556 513.937 23.076L515.197 25.344C514.309 25.944 513.289 26.448 512.137 26.856C510.985 27.24 509.725 27.432 508.357 27.432ZM532.211 27.432C530.435 27.432 529.031 27.12 527.999 26.496C526.991 25.872 526.271 25.008 525.839 23.904C525.407 22.8 525.191 21.516 525.191 20.052V12.276H520.367V9.612L525.335 9.396L525.803 3.852H528.755V9.396H537.07V12.276H528.755V20.052C528.755 21.036 528.887 21.876 529.151 22.572C529.415 23.244 529.859 23.748 530.483 24.084C531.107 24.396 531.947 24.552 533.003 24.552C533.795 24.552 534.515 24.492 535.163 24.372C535.811 24.228 536.435 24.048 537.035 23.832L537.755 26.424C536.963 26.688 536.111 26.916 535.199 27.108C534.311 27.324 533.315 27.432 532.211 27.432ZM11.016 70.432C9.36 70.432 7.776 70.156 6.264 69.604C4.752 69.052 3.468 68.416 2.412 67.696L3.996 65.392C5.028 66.112 6.144 66.676 7.344 67.084C8.568 67.492 9.948 67.696 11.484 67.696C12.828 67.696 13.824 67.456 14.472 66.976C15.144 66.496 15.48 65.932 15.48 65.284C15.48 64.972 15.408 64.684 15.264 64.42C15.144 64.156 14.904 63.916 14.544 63.7C14.208 63.46 13.692 63.232 12.996 63.016C12.324 62.8 11.436 62.572 10.332 62.332C8.004 61.852 6.276 61.192 5.148 60.352C4.044 59.512 3.492 58.432 3.492 57.112C3.492 55.624 4.128 54.4 5.4 53.44C6.696 52.456 8.568 51.964 11.016 51.964C12.408 51.964 13.728 52.204 14.976 52.684C16.248 53.14 17.328 53.668 18.216 54.268L16.56 56.5C15.72 55.948 14.796 55.516 13.788 55.204C12.804 54.868 11.772 54.7 10.692 54.7C9.804 54.7 9.096 54.808 8.568 55.024C8.04 55.216 7.656 55.48 7.416 55.816C7.176 56.152 7.056 56.524 7.056 56.932C7.056 57.604 7.428 58.132 8.172 58.516C8.94 58.876 10.176 59.236 11.88 59.596C13.8 60.004 15.276 60.46 16.308 60.964C17.364 61.468 18.084 62.056 18.468 62.728C18.876 63.376 19.08 64.156 19.08 65.068C19.08 66.052 18.768 66.952 18.144 67.768C17.52 68.584 16.608 69.232 15.408 69.712C14.232 70.192 12.768 70.432 11.016 70.432ZM35.7339 70.432C33.9579 70.432 32.5539 70.12 31.5219 69.496C30.5139 68.872 29.7939 68.008 29.3619 66.904C28.9299 65.8 28.7139 64.516 28.7139 63.052V55.276H23.8899V52.612L28.8579 52.396L29.3259 46.852H32.2779V52.396H40.5939V55.276H32.2779V63.052C32.2779 64.036 32.4099 64.876 32.6739 65.572C32.9379 66.244 33.3819 66.748 34.0059 67.084C34.6299 67.396 35.4699 67.552 36.5259 67.552C37.3179 67.552 38.0379 67.492 38.6859 67.372C39.3339 67.228 39.9579 67.048 40.5579 66.832L41.2779 69.424C40.4859 69.688 39.6339 69.916 38.7219 70.108C37.8339 70.324 36.8379 70.432 35.7339 70.432ZM51.8479 70.432C50.7199 70.432 49.6999 70.228 48.7879 69.82C47.8999 69.388 47.1919 68.8 46.6639 68.056C46.1599 67.288 45.9079 66.388 45.9079 65.356C45.9079 63.388 46.8679 61.888 48.7879 60.856C50.7319 59.824 53.9119 59.14 58.3279 58.804C58.3039 58.084 58.1359 57.424 57.8239 56.824C57.5359 56.224 57.0679 55.756 56.4199 55.42C55.7959 55.06 54.9679 54.88 53.9359 54.88C53.2159 54.88 52.5079 54.976 51.8119 55.168C51.1159 55.336 50.4439 55.576 49.7959 55.888C49.1479 56.2 48.5359 56.524 47.9599 56.86L46.6279 54.448C47.2759 54.064 48.0199 53.68 48.8599 53.296C49.6999 52.888 50.5999 52.564 51.5599 52.324C52.5439 52.084 53.5399 51.964 54.5479 51.964C56.1799 51.964 57.5359 52.264 58.6159 52.864C59.6959 53.464 60.5119 54.316 61.0639 55.42C61.6159 56.524 61.8919 57.856 61.8919 59.416V70H58.9759L58.6879 67.732H58.5799C57.6439 68.452 56.5879 69.088 55.4119 69.64C54.2359 70.168 53.0479 70.432 51.8479 70.432ZM52.8559 67.588C53.7919 67.588 54.7159 67.384 55.6279 66.976C56.5399 66.568 57.4399 65.992 58.3279 65.248V61.072C56.0239 61.24 54.2119 61.504 52.8919 61.864C51.5959 62.224 50.6839 62.68 50.1559 63.232C49.6279 63.76 49.3639 64.384 49.3639 65.104C49.3639 65.68 49.5199 66.16 49.8319 66.544C50.1679 66.904 50.5999 67.168 51.1279 67.336C51.6559 67.504 52.2319 67.588 52.8559 67.588ZM69.7258 70V52.396H72.6778L72.9658 56.5H73.0738C73.9858 55.06 75.1018 53.944 76.4218 53.152C77.7418 52.36 79.1818 51.964 80.7418 51.964C81.4138 51.964 82.0258 52.024 82.5778 52.144C83.1298 52.264 83.6698 52.444 84.1978 52.684L83.4058 55.744C82.8058 55.528 82.2898 55.384 81.8578 55.312C81.4258 55.216 80.8738 55.168 80.2018 55.168C78.9298 55.168 77.7058 55.528 76.5298 56.248C75.3538 56.968 74.2738 58.216 73.2898 59.992V70H69.7258ZM100.492 70.432C98.7158 70.432 97.3118 70.12 96.2798 69.496C95.2718 68.872 94.5518 68.008 94.1198 66.904C93.6878 65.8 93.4718 64.516 93.4718 63.052V55.276H88.6478V52.612L93.6158 52.396L94.0838 46.852H97.0358V52.396H105.352V55.276H97.0358V63.052C97.0358 64.036 97.1678 64.876 97.4318 65.572C97.6958 66.244 98.1398 66.748 98.7638 67.084C99.3878 67.396 100.228 67.552 101.284 67.552C102.076 67.552 102.796 67.492 103.444 67.372C104.092 67.228 104.716 67.048 105.316 66.832L106.036 69.424C105.244 69.688 104.392 69.916 103.48 70.108C102.592 70.324 101.596 70.432 100.492 70.432ZM119.81 70.432C118.034 70.432 116.414 70.072 114.95 69.352C113.51 68.632 112.37 67.576 111.53 66.184C110.69 64.792 110.27 63.124 110.27 61.18C110.27 59.26 110.69 57.616 111.53 56.248C112.394 54.88 113.51 53.824 114.878 53.08C116.246 52.336 117.71 51.964 119.27 51.964C120.998 51.964 122.462 52.324 123.662 53.044C124.862 53.74 125.774 54.712 126.398 55.96C127.046 57.184 127.37 58.624 127.37 60.28C127.37 60.64 127.358 61 127.334 61.36C127.31 61.696 127.274 61.984 127.226 62.224H112.754V59.596H124.994L124.202 60.46C124.202 58.564 123.77 57.148 122.906 56.212C122.042 55.252 120.866 54.772 119.378 54.772C118.346 54.772 117.398 55.024 116.534 55.528C115.694 56.008 115.022 56.728 114.518 57.688C114.014 58.624 113.762 59.788 113.762 61.18C113.762 62.62 114.038 63.82 114.59 64.78C115.166 65.716 115.934 66.424 116.894 66.904C117.878 67.384 119.006 67.624 120.278 67.624C121.262 67.624 122.162 67.492 122.978 67.228C123.794 66.94 124.598 66.556 125.39 66.076L126.65 68.344C125.762 68.944 124.742 69.448 123.59 69.856C122.438 70.24 121.178 70.432 119.81 70.432ZM139.128 70.432C136.848 70.432 135.012 69.628 133.62 68.02C132.228 66.388 131.532 64.12 131.532 61.216C131.532 59.32 131.904 57.688 132.648 56.32C133.416 54.928 134.4 53.86 135.6 53.116C136.8 52.348 138.072 51.964 139.416 51.964C140.448 51.964 141.372 52.156 142.188 52.54C143.004 52.924 143.76 53.464 144.456 54.16H144.564L144.384 51.028V44.476H147.948V70H145.032L144.744 67.84H144.636C143.94 68.536 143.112 69.148 142.152 69.676C141.192 70.18 140.184 70.432 139.128 70.432ZM139.956 67.48C140.748 67.48 141.504 67.288 142.224 66.904C142.968 66.496 143.688 65.896 144.384 65.104V56.752C143.688 56.104 142.992 55.648 142.296 55.384C141.6 55.096 140.904 54.952 140.208 54.952C139.296 54.952 138.456 55.204 137.688 55.708C136.944 56.212 136.344 56.932 135.888 57.868C135.432 58.804 135.204 59.908 135.204 61.18C135.204 63.196 135.624 64.756 136.464 65.86C137.304 66.94 138.468 67.48 139.956 67.48ZM160.714 61.432L160.246 49.624L160.138 45.88H163.666L163.558 49.624L163.09 61.432H160.714ZM161.902 70.432C161.11 70.432 160.426 70.156 159.85 69.604C159.298 69.052 159.022 68.32 159.022 67.408C159.022 66.496 159.298 65.776 159.85 65.248C160.426 64.696 161.11 64.42 161.902 64.42C162.718 64.42 163.402 64.696 163.954 65.248C164.506 65.776 164.782 66.496 164.782 67.408C164.782 68.32 164.506 69.052 163.954 69.604C163.402 70.156 162.718 70.432 161.902 70.432Z" fill="#E2E2E2"/>
</svg>
