<svg width="102" height="40" viewBox="0 0 102 40" fill="none" xmlns="http://www.w3.org/2000/svg">
<g filter="url(#filter0_b_2032_134)">
<rect width="102" height="40" rx="12" fill="url(#paint0_linear_2032_134)"/>
<rect x="0.5" y="0.5" width="101" height="39" rx="11.5" stroke="url(#paint1_linear_2032_134)" stroke-opacity="0.3"/>
<path d="M24.672 25.288C23.9147 25.288 23.2267 25.128 22.608 24.808C21.9893 24.488 21.4987 24.0133 21.136 23.384C20.784 22.7547 20.608 21.9707 20.608 21.032V20.632H22.176V21.32C22.176 22.12 22.4107 22.744 22.88 23.192C23.3493 23.6293 23.9467 23.848 24.672 23.848C25.3973 23.848 25.9947 23.6293 26.464 23.192C26.9333 22.744 27.168 22.12 27.168 21.32V14.408H28.736V21.032C28.736 21.9707 28.5547 22.7547 28.192 23.384C27.84 24.0133 27.3547 24.488 26.736 24.808C26.128 25.128 25.44 25.288 24.672 25.288ZM22.144 14.728V13.32H28.736V14.728H22.144ZM35.6424 25.288C34.8957 25.288 34.2397 25.16 33.6744 24.904C33.109 24.648 32.629 24.312 32.2344 23.896C31.8504 23.4693 31.557 22.9947 31.3544 22.472C31.1624 21.9493 31.0664 21.416 31.0664 20.872V20.584C31.0664 20.04 31.1677 19.5067 31.3704 18.984C31.573 18.4507 31.8717 17.976 32.2664 17.56C32.661 17.1333 33.141 16.7973 33.7064 16.552C34.2717 16.296 34.917 16.168 35.6424 16.168C36.3677 16.168 37.013 16.296 37.5784 16.552C38.1437 16.7973 38.6237 17.1333 39.0184 17.56C39.413 17.976 39.7117 18.4507 39.9144 18.984C40.117 19.5067 40.2184 20.04 40.2184 20.584V20.872C40.2184 21.416 40.117 21.9493 39.9144 22.472C39.7224 22.9947 39.429 23.4693 39.0344 23.896C38.6504 24.312 38.1757 24.648 37.6104 24.904C37.045 25.16 36.389 25.288 35.6424 25.288ZM35.6424 23.912C36.2824 23.912 36.8264 23.7733 37.2744 23.496C37.733 23.208 38.0797 22.824 38.3144 22.344C38.5597 21.864 38.6824 21.3253 38.6824 20.728C38.6824 20.12 38.5597 19.576 38.3144 19.096C38.069 18.616 37.717 18.2373 37.2584 17.96C36.8104 17.6827 36.2717 17.544 35.6424 17.544C35.0237 17.544 34.485 17.6827 34.0264 17.96C33.5677 18.2373 33.2157 18.616 32.9704 19.096C32.725 19.576 32.6024 20.12 32.6024 20.728C32.6024 21.3253 32.7197 21.864 32.9544 22.344C33.1997 22.824 33.5464 23.208 33.9944 23.496C34.453 23.7733 35.0024 23.912 35.6424 23.912ZM42.9349 25V16.456H44.4709V25H42.9349ZM41.6229 17.672V16.456H44.4709V17.672H41.6229ZM43.3669 15.08C43.0255 15.08 42.7695 14.9893 42.5989 14.808C42.4389 14.6267 42.3589 14.3973 42.3589 14.12C42.3589 13.8427 42.4389 13.6133 42.5989 13.432C42.7695 13.2507 43.0255 13.16 43.3669 13.16C43.7082 13.16 43.9589 13.2507 44.1189 13.432C44.2895 13.6133 44.3749 13.8427 44.3749 14.12C44.3749 14.3973 44.2895 14.6267 44.1189 14.808C43.9589 14.9893 43.7082 15.08 43.3669 15.08ZM47.4408 25V16.456H48.6568V20.12H48.4648C48.4648 19.2773 48.5768 18.568 48.8008 17.992C49.0354 17.4053 49.3874 16.9627 49.8568 16.664C50.3261 16.3547 50.9181 16.2 51.6328 16.2H51.6968C52.7741 16.2 53.5688 16.536 54.0808 17.208C54.6034 17.88 54.8648 18.8507 54.8648 20.12V25H53.3288V19.8C53.3288 19.1387 53.1421 18.6107 52.7688 18.216C52.3954 17.8107 51.8834 17.608 51.2328 17.608C50.5608 17.608 50.0168 17.816 49.6008 18.232C49.1848 18.648 48.9768 19.2027 48.9768 19.896V25H47.4408ZM66.1638 25.288C65.1078 25.288 64.2171 25.0853 63.4918 24.68C62.7771 24.264 62.2331 23.688 61.8598 22.952C61.4971 22.2053 61.3158 21.3413 61.3158 20.36V13.32H62.8838V20.552C62.8838 21.2027 63.0064 21.7787 63.2518 22.28C63.5078 22.7707 63.8811 23.1547 64.3718 23.432C64.8624 23.7093 65.4598 23.848 66.1638 23.848C66.8678 23.848 67.4598 23.7147 67.9398 23.448C68.4304 23.1707 68.7984 22.7867 69.0438 22.296C69.2998 21.7947 69.4278 21.2133 69.4278 20.552V13.32H70.9958V20.36C70.9958 21.3413 70.8144 22.2053 70.4518 22.952C70.0891 23.688 69.5504 24.264 68.8358 24.68C68.1211 25.0853 67.2304 25.288 66.1638 25.288ZM76.7408 25.256C75.6208 25.256 74.7514 25.016 74.1328 24.536C73.5248 24.056 73.2101 23.4 73.1888 22.568H74.6288C74.6501 22.8987 74.8154 23.2133 75.1248 23.512C75.4448 23.8 75.9834 23.944 76.7408 23.944C77.4234 23.944 77.9461 23.8107 78.3088 23.544C78.6714 23.2667 78.8528 22.9307 78.8528 22.536C78.8528 22.184 78.7194 21.912 78.4528 21.72C78.1861 21.5173 77.7541 21.384 77.1568 21.32L76.2288 21.224C75.4181 21.1387 74.7568 20.8987 74.2448 20.504C73.7328 20.0987 73.4768 19.5333 73.4768 18.808C73.4768 18.264 73.6154 17.8 73.8928 17.416C74.1701 17.0213 74.5541 16.7227 75.0448 16.52C75.5354 16.3067 76.1008 16.2 76.7408 16.2C77.7008 16.2 78.4794 16.4133 79.0768 16.84C79.6741 17.2667 79.9834 17.9013 80.0048 18.744H78.5648C78.5541 18.4027 78.3941 18.1147 78.0848 17.88C77.7861 17.6347 77.3381 17.512 76.7408 17.512C76.1434 17.512 75.6901 17.6347 75.3808 17.88C75.0714 18.1253 74.9168 18.4347 74.9168 18.808C74.9168 19.128 75.0234 19.384 75.2368 19.576C75.4608 19.768 75.8234 19.8907 76.3248 19.944L77.2528 20.04C78.1701 20.136 78.9061 20.392 79.4608 20.808C80.0154 21.2133 80.2928 21.7893 80.2928 22.536C80.2928 23.0693 80.1381 23.544 79.8288 23.96C79.5301 24.3653 79.1141 24.6853 78.5808 24.92C78.0474 25.144 77.4341 25.256 76.7408 25.256Z" fill="white"/>
</g>
<defs>
<filter id="filter0_b_2032_134" x="-4" y="-4" width="110" height="48" filterUnits="userSpaceOnUse" color-interpolation-filters="sRGB">
<feFlood flood-opacity="0" result="BackgroundImageFix"/>
<feGaussianBlur in="BackgroundImageFix" stdDeviation="2"/>
<feComposite in2="SourceAlpha" operator="in" result="effect1_backgroundBlur_2032_134"/>
<feBlend mode="normal" in="SourceGraphic" in2="effect1_backgroundBlur_2032_134" result="shape"/>
</filter>
<linearGradient id="paint0_linear_2032_134" x1="8.81151" y1="35" x2="88.3238" y2="25.882" gradientUnits="userSpaceOnUse">
<stop stop-color="#090EDB"/>
<stop offset="1" stop-color="#DA24BB"/>
</linearGradient>
<linearGradient id="paint1_linear_2032_134" x1="1.74359" y1="2" x2="137.617" y2="45.0032" gradientUnits="userSpaceOnUse">
<stop offset="0.00365253" stop-color="#FFE1E1"/>
<stop offset="0.860625" stop-color="white" stop-opacity="0.38"/>
</linearGradient>
</defs>
</svg>
