<svg width="691" height="224" viewBox="0 0 691 224" fill="none" xmlns="http://www.w3.org/2000/svg">
<path d="M7.47359 56.3V49.46H18.4536C20.4536 49.46 21.9736 48.92 23.0136 47.84C24.0536 46.72 24.5736 45.2 24.5736 43.28C24.5736 41.36 24.0536 39.88 23.0136 38.84C21.9736 37.76 20.4536 37.22 18.4536 37.22H7.47359V32H17.8536C20.7736 32 23.3736 32.36 25.6536 33.08C27.9736 33.76 29.7736 34.92 31.0536 36.56C32.3736 38.2 33.0336 40.4 33.0336 43.16V44C33.0336 46.6 32.4536 48.82 31.2936 50.66C30.1736 52.46 28.4736 53.86 26.1936 54.86C23.9536 55.82 21.1736 56.3 17.8536 56.3H7.47359ZM0.333594 56.3V11.9H8.67359V56.3H0.333594ZM7.47359 35.84V30.62H16.8336C18.8736 30.62 20.3736 30.08 21.3336 29C22.2936 27.92 22.7736 26.48 22.7736 24.68C22.7736 22.88 22.2936 21.44 21.3336 20.36C20.3736 19.28 18.8736 18.74 16.8336 18.74H7.47359V11.9H16.0536C21.0136 11.9 24.7736 12.94 27.3336 15.02C29.9336 17.1 31.2336 20.08 31.2336 23.96V24.8C31.2336 27.52 30.5736 29.7 29.2536 31.34C27.9736 32.94 26.1936 34.1 23.9136 34.82C21.6336 35.5 19.0136 35.84 16.0536 35.84H7.47359ZM55.2692 57.14C52.4692 57.14 50.0092 56.66 47.8892 55.7C45.8092 54.74 44.0692 53.46 42.6692 51.86C41.3092 50.22 40.2692 48.4 39.5492 46.4C38.8692 44.4 38.5292 42.36 38.5292 40.28V39.14C38.5292 36.98 38.8692 34.9 39.5492 32.9C40.2692 30.86 41.3092 29.06 42.6692 27.5C44.0692 25.9 45.7892 24.64 47.8292 23.72C49.8692 22.76 52.2292 22.28 54.9092 22.28C58.4292 22.28 61.3692 23.06 63.7292 24.62C66.1292 26.14 67.9292 28.16 69.1292 30.68C70.3292 33.16 70.9292 35.84 70.9292 38.72V41.72H42.0692V36.62H65.7092L63.1292 39.14C63.1292 37.06 62.8292 35.28 62.2292 33.8C61.6292 32.32 60.7092 31.18 59.4692 30.38C58.2692 29.58 56.7492 29.18 54.9092 29.18C53.0692 29.18 51.5092 29.6 50.2292 30.44C48.9492 31.28 47.9692 32.5 47.2892 34.1C46.6492 35.66 46.3292 37.54 46.3292 39.74C46.3292 41.78 46.6492 43.6 47.2892 45.2C47.9292 46.76 48.9092 48 50.2292 48.92C51.5492 49.8 53.2292 50.24 55.2692 50.24C57.3092 50.24 58.9692 49.84 60.2492 49.04C61.5292 48.2 62.3492 47.18 62.7092 45.98H70.3892C69.9092 48.22 68.9892 50.18 67.6292 51.86C66.2692 53.54 64.5292 54.84 62.4092 55.76C60.3292 56.68 57.9492 57.14 55.2692 57.14ZM90.8455 68V23.42H97.4455V37.46L96.4255 37.4C96.5855 34.08 97.2655 31.3 98.4655 29.06C99.7055 26.82 101.345 25.16 103.385 24.08C105.425 22.96 107.705 22.4 110.225 22.4C112.545 22.4 114.625 22.82 116.465 23.66C118.345 24.5 119.945 25.68 121.265 27.2C122.625 28.72 123.665 30.5 124.385 32.54C125.105 34.54 125.465 36.7 125.465 39.02V40.28C125.465 42.64 125.105 44.84 124.385 46.88C123.705 48.88 122.685 50.66 121.325 52.22C120.005 53.74 118.405 54.94 116.525 55.82C114.645 56.66 112.545 57.08 110.225 57.08C107.785 57.08 105.545 56.58 103.505 55.58C101.505 54.54 99.8855 52.96 98.6455 50.84C97.4055 48.68 96.7055 45.9 96.5455 42.5L99.1855 46.52V68H90.8455ZM108.125 50.06C109.925 50.06 111.485 49.62 112.805 48.74C114.165 47.86 115.225 46.64 115.985 45.08C116.745 43.48 117.125 41.68 117.125 39.68C117.125 37.6 116.745 35.8 115.985 34.28C115.225 32.76 114.165 31.58 112.805 30.74C111.485 29.86 109.925 29.42 108.125 29.42C106.485 29.42 104.965 29.78 103.565 30.5C102.205 31.22 101.085 32.28 100.205 33.68C99.3655 35.08 98.9455 36.76 98.9455 38.72V41.12C98.9455 43 99.3855 44.6 100.265 45.92C101.145 47.24 102.285 48.26 103.685 48.98C105.085 49.7 106.565 50.06 108.125 50.06ZM152.539 56V46.34H151.159V35.6C151.159 33.72 150.699 32.32 149.779 31.4C148.859 30.48 147.439 30.02 145.519 30.02C144.519 30.02 143.319 30.04 141.919 30.08C140.519 30.12 139.099 30.18 137.659 30.26C136.259 30.3 134.999 30.36 133.879 30.44V23.36C134.799 23.28 135.839 23.2 136.999 23.12C138.159 23.04 139.339 23 140.539 23C141.779 22.96 142.939 22.94 144.019 22.94C147.379 22.94 150.159 23.38 152.359 24.26C154.599 25.14 156.279 26.52 157.399 28.4C158.559 30.28 159.139 32.74 159.139 35.78V56H152.539ZM142.039 56.84C139.679 56.84 137.599 56.42 135.799 55.58C134.039 54.74 132.659 53.54 131.659 51.98C130.699 50.42 130.219 48.54 130.219 46.34C130.219 43.94 130.799 41.98 131.959 40.46C133.159 38.94 134.819 37.8 136.939 37.04C139.099 36.28 141.619 35.9 144.499 35.9H152.059V40.88H144.379C142.459 40.88 140.979 41.36 139.939 42.32C138.939 43.24 138.439 44.44 138.439 45.92C138.439 47.4 138.939 48.6 139.939 49.52C140.979 50.44 142.459 50.9 144.379 50.9C145.539 50.9 146.599 50.7 147.559 50.3C148.559 49.86 149.379 49.14 150.019 48.14C150.699 47.1 151.079 45.7 151.159 43.94L153.199 46.28C152.999 48.56 152.439 50.48 151.519 52.04C150.639 53.6 149.399 54.8 147.799 55.64C146.239 56.44 144.319 56.84 142.039 56.84ZM168.072 56V23.42H174.672V37.22H174.492C174.492 32.54 175.492 29 177.492 26.6C179.492 24.2 182.432 23 186.312 23H187.512V30.26H185.232C182.432 30.26 180.252 31.02 178.692 32.54C177.172 34.02 176.412 36.18 176.412 39.02V56H168.072ZM207.955 56.42C204.955 56.42 202.475 56.04 200.515 55.28C198.595 54.48 197.155 53.16 196.195 51.32C195.235 49.44 194.755 46.92 194.755 43.76L194.815 14.24H202.615L202.555 44.3C202.555 45.9 202.975 47.14 203.815 48.02C204.695 48.86 205.935 49.28 207.535 49.28H212.635V56.42H207.955ZM189.595 29.54V23.42H212.635V29.54H189.595ZM248.244 57.14C245.364 57.14 242.824 56.68 240.624 55.76C238.424 54.84 236.564 53.6 235.044 52.04C233.524 50.44 232.364 48.64 231.564 46.64C230.804 44.64 230.424 42.56 230.424 40.4V39.14C230.424 36.9 230.824 34.78 231.624 32.78C232.464 30.74 233.644 28.94 235.164 27.38C236.724 25.78 238.604 24.54 240.804 23.66C243.004 22.74 245.484 22.28 248.244 22.28C251.004 22.28 253.484 22.74 255.684 23.66C257.884 24.54 259.744 25.78 261.264 27.38C262.824 28.94 264.004 30.74 264.804 32.78C265.604 34.78 266.004 36.9 266.004 39.14V40.4C266.004 42.56 265.604 44.64 264.804 46.64C264.044 48.64 262.904 50.44 261.384 52.04C259.864 53.6 258.004 54.84 255.804 55.76C253.604 56.68 251.084 57.14 248.244 57.14ZM248.244 50C250.284 50 252.004 49.56 253.404 48.68C254.804 47.76 255.864 46.54 256.584 45.02C257.304 43.46 257.664 41.7 257.664 39.74C257.664 37.74 257.284 35.98 256.524 34.46C255.804 32.9 254.724 31.68 253.284 30.8C251.884 29.88 250.204 29.42 248.244 29.42C246.284 29.42 244.584 29.88 243.144 30.8C241.744 31.68 240.664 32.9 239.904 34.46C239.144 35.98 238.764 37.74 238.764 39.74C238.764 41.7 239.124 43.46 239.844 45.02C240.604 46.54 241.684 47.76 243.084 48.68C244.484 49.56 246.204 50 248.244 50ZM274.086 56V22.64C274.086 18.92 275.106 16.18 277.146 14.42C279.226 12.62 282.286 11.72 286.326 11.72H290.406V18.14H285.726C284.486 18.14 283.526 18.48 282.846 19.16C282.206 19.8 281.886 20.72 281.886 21.92V56H274.086ZM270.006 30.08V23.96H290.946V30.08H270.006ZM323.267 56.42C320.267 56.42 317.787 56.04 315.827 55.28C313.907 54.48 312.467 53.16 311.507 51.32C310.547 49.44 310.067 46.92 310.067 43.76L310.127 14.24H317.927L317.867 44.3C317.867 45.9 318.287 47.14 319.127 48.02C320.007 48.86 321.247 49.28 322.847 49.28H327.947V56.42H323.267ZM304.907 29.54V23.42H327.947V29.54H304.907ZM334.947 56V12.2H343.287V37.76H341.847C341.847 34.48 342.267 31.7 343.107 29.42C343.947 27.14 345.187 25.4 346.827 24.2C348.507 23 350.627 22.4 353.187 22.4H353.547C357.267 22.4 360.087 23.68 362.007 26.24C363.927 28.8 364.887 32.52 364.887 37.4V56H356.547V36.62C356.547 34.54 355.947 32.9 354.747 31.7C353.587 30.5 352.047 29.9 350.127 29.9C348.087 29.9 346.427 30.58 345.147 31.94C343.907 33.26 343.287 35 343.287 37.16V56H334.947ZM388.433 57.14C385.633 57.14 383.173 56.66 381.053 55.7C378.973 54.74 377.233 53.46 375.833 51.86C374.473 50.22 373.433 48.4 372.713 46.4C372.033 44.4 371.693 42.36 371.693 40.28V39.14C371.693 36.98 372.033 34.9 372.713 32.9C373.433 30.86 374.473 29.06 375.833 27.5C377.233 25.9 378.953 24.64 380.993 23.72C383.033 22.76 385.393 22.28 388.073 22.28C391.593 22.28 394.533 23.06 396.893 24.62C399.293 26.14 401.093 28.16 402.293 30.68C403.493 33.16 404.093 35.84 404.093 38.72V41.72H375.233V36.62H398.873L396.293 39.14C396.293 37.06 395.993 35.28 395.393 33.8C394.793 32.32 393.873 31.18 392.633 30.38C391.433 29.58 389.913 29.18 388.073 29.18C386.233 29.18 384.673 29.6 383.393 30.44C382.113 31.28 381.133 32.5 380.453 34.1C379.813 35.66 379.493 37.54 379.493 39.74C379.493 41.78 379.813 43.6 380.453 45.2C381.093 46.76 382.073 48 383.393 48.92C384.713 49.8 386.393 50.24 388.433 50.24C390.473 50.24 392.133 49.84 393.413 49.04C394.693 48.2 395.513 47.18 395.873 45.98H403.553C403.073 48.22 402.153 50.18 400.793 51.86C399.433 53.54 397.693 54.84 395.573 55.76C393.493 56.68 391.113 57.14 388.433 57.14ZM424.79 56V22.64C424.79 18.92 425.81 16.18 427.85 14.42C429.93 12.62 432.99 11.72 437.03 11.72H441.11V18.14H436.43C435.19 18.14 434.23 18.48 433.55 19.16C432.91 19.8 432.59 20.72 432.59 21.92V56H424.79ZM420.71 30.08V23.96H441.65V30.08H420.71ZM457.961 57.02C454.201 57.02 451.281 55.78 449.201 53.3C447.161 50.82 446.141 47.14 446.141 42.26V23.36H454.481V42.98C454.481 44.98 455.041 46.58 456.161 47.78C457.281 48.94 458.801 49.52 460.721 49.52C462.641 49.52 464.201 48.9 465.401 47.66C466.641 46.42 467.261 44.74 467.261 42.62V23.36H475.601V56H469.001V42.14H469.661C469.661 45.42 469.241 48.16 468.401 50.36C467.561 52.56 466.301 54.22 464.621 55.34C462.941 56.46 460.841 57.02 458.321 57.02H457.961ZM499.341 56.42C496.341 56.42 493.861 56.04 491.901 55.28C489.981 54.48 488.541 53.16 487.581 51.32C486.621 49.44 486.141 46.92 486.141 43.76L486.201 14.24H494.001L493.941 44.3C493.941 45.9 494.361 47.14 495.201 48.02C496.081 48.86 497.321 49.28 498.921 49.28H504.021V56.42H499.341ZM480.981 29.54V23.42H504.021V29.54H480.981ZM522.121 57.02C518.361 57.02 515.441 55.78 513.361 53.3C511.321 50.82 510.301 47.14 510.301 42.26V23.36H518.641V42.98C518.641 44.98 519.201 46.58 520.321 47.78C521.441 48.94 522.961 49.52 524.881 49.52C526.801 49.52 528.361 48.9 529.561 47.66C530.801 46.42 531.421 44.74 531.421 42.62V23.36H539.761V56H533.161V42.14H533.821C533.821 45.42 533.401 48.16 532.561 50.36C531.721 52.56 530.461 54.22 528.781 55.34C527.101 56.46 525.001 57.02 522.481 57.02H522.121ZM549.342 56V23.42H555.942V37.22H555.762C555.762 32.54 556.762 29 558.762 26.6C560.762 24.2 563.702 23 567.582 23H568.782V30.26H566.502C563.702 30.26 561.522 31.02 559.962 32.54C558.442 34.02 557.682 36.18 557.682 39.02V56H549.342ZM588.707 57.14C585.907 57.14 583.447 56.66 581.327 55.7C579.247 54.74 577.507 53.46 576.107 51.86C574.747 50.22 573.707 48.4 572.987 46.4C572.307 44.4 571.967 42.36 571.967 40.28V39.14C571.967 36.98 572.307 34.9 572.987 32.9C573.707 30.86 574.747 29.06 576.107 27.5C577.507 25.9 579.227 24.64 581.267 23.72C583.307 22.76 585.667 22.28 588.347 22.28C591.867 22.28 594.807 23.06 597.167 24.62C599.567 26.14 601.367 28.16 602.567 30.68C603.767 33.16 604.367 35.84 604.367 38.72V41.72H575.507V36.62H599.147L596.567 39.14C596.567 37.06 596.267 35.28 595.667 33.8C595.067 32.32 594.147 31.18 592.907 30.38C591.707 29.58 590.187 29.18 588.347 29.18C586.507 29.18 584.947 29.6 583.667 30.44C582.387 31.28 581.407 32.5 580.727 34.1C580.087 35.66 579.767 37.54 579.767 39.74C579.767 41.78 580.087 43.6 580.727 45.2C581.367 46.76 582.347 48 583.667 48.92C584.987 49.8 586.667 50.24 588.707 50.24C590.747 50.24 592.407 49.84 593.687 49.04C594.967 48.2 595.787 47.18 596.147 45.98H603.827C603.347 48.22 602.427 50.18 601.067 51.86C599.707 53.54 597.967 54.84 595.847 55.76C593.767 56.68 591.387 57.14 588.707 57.14ZM639.943 57.14C637.063 57.14 634.523 56.68 632.323 55.76C630.123 54.84 628.263 53.6 626.743 52.04C625.223 50.44 624.063 48.64 623.263 46.64C622.503 44.64 622.123 42.56 622.123 40.4V39.14C622.123 36.9 622.523 34.78 623.323 32.78C624.163 30.74 625.343 28.94 626.863 27.38C628.423 25.78 630.303 24.54 632.503 23.66C634.703 22.74 637.183 22.28 639.943 22.28C642.703 22.28 645.183 22.74 647.383 23.66C649.583 24.54 651.443 25.78 652.963 27.38C654.523 28.94 655.703 30.74 656.503 32.78C657.303 34.78 657.703 36.9 657.703 39.14V40.4C657.703 42.56 657.303 44.64 656.503 46.64C655.743 48.64 654.603 50.44 653.083 52.04C651.563 53.6 649.703 54.84 647.503 55.76C645.303 56.68 642.783 57.14 639.943 57.14ZM639.943 50C641.983 50 643.703 49.56 645.103 48.68C646.503 47.76 647.563 46.54 648.283 45.02C649.003 43.46 649.363 41.7 649.363 39.74C649.363 37.74 648.983 35.98 648.223 34.46C647.503 32.9 646.423 31.68 644.983 30.8C643.583 29.88 641.903 29.42 639.943 29.42C637.983 29.42 636.283 29.88 634.843 30.8C633.443 31.68 632.363 32.9 631.603 34.46C630.843 35.98 630.463 37.74 630.463 39.74C630.463 41.7 630.823 43.46 631.543 45.02C632.303 46.54 633.383 47.76 634.783 48.68C636.183 49.56 637.903 50 639.943 50ZM665.786 56V22.64C665.786 18.92 666.806 16.18 668.846 14.42C670.926 12.62 673.986 11.72 678.026 11.72H682.106V18.14H677.426C676.186 18.14 675.226 18.48 674.546 19.16C673.906 19.8 673.586 20.72 673.586 21.92V56H665.786ZM661.706 30.08V23.96H682.646V30.08H661.706ZM197.225 128L212.165 84.2H226.085L241.445 128H232.685L219.665 90.02L222.725 91.34H215.225L218.345 90.02L205.745 128H197.225ZM207.665 116.36L210.365 109.16H228.125L230.765 116.36H207.665ZM265.992 129.14C262.032 129.14 258.632 128.44 255.792 127.04C252.952 125.64 250.632 123.82 248.832 121.58C247.072 119.34 245.772 116.9 244.932 114.26C244.092 111.62 243.672 109.08 243.672 106.64V105.32C243.672 102.6 244.092 99.92 244.932 97.28C245.812 94.64 247.152 92.24 248.952 90.08C250.752 87.92 253.032 86.2 255.792 84.92C258.592 83.6 261.892 82.94 265.692 82.94C269.652 82.94 273.092 83.66 276.012 85.1C278.972 86.5 281.332 88.5 283.092 91.1C284.852 93.66 285.912 96.66 286.272 100.1H277.692C277.372 98.1 276.652 96.42 275.532 95.06C274.452 93.66 273.072 92.62 271.392 91.94C269.712 91.22 267.812 90.86 265.692 90.86C263.532 90.86 261.612 91.24 259.932 92C258.252 92.72 256.852 93.76 255.732 95.12C254.612 96.48 253.752 98.08 253.152 99.92C252.592 101.76 252.312 103.8 252.312 106.04C252.312 108.2 252.592 110.2 253.152 112.04C253.752 113.88 254.632 115.5 255.792 116.9C256.952 118.26 258.372 119.32 260.052 120.08C261.772 120.84 263.752 121.22 265.992 121.22C269.272 121.22 272.032 120.42 274.272 118.82C276.552 117.18 277.932 114.9 278.412 111.98H286.992C286.592 115.1 285.532 117.96 283.812 120.56C282.092 123.16 279.732 125.24 276.732 126.8C273.732 128.36 270.152 129.14 265.992 129.14ZM294.181 128V84.2H305.821L316.801 110.36H317.881L328.801 84.2H340.621V128H332.161V90.62L333.241 90.74L321.421 119.06H312.721L300.841 90.74L301.981 90.62V128H294.181ZM379.317 129.14C375.437 129.14 372.157 128.52 369.477 127.28C366.837 126.04 364.817 124.34 363.417 122.18C362.017 119.98 361.317 117.5 361.317 114.74H369.657C369.657 115.9 369.977 117.04 370.617 118.16C371.257 119.24 372.277 120.12 373.677 120.8C375.117 121.48 376.997 121.82 379.317 121.82C381.397 121.82 383.137 121.52 384.537 120.92C385.937 120.32 386.977 119.54 387.657 118.58C388.337 117.58 388.677 116.46 388.677 115.22C388.677 113.66 388.017 112.42 386.697 111.5C385.377 110.54 383.337 109.94 380.577 109.7L376.737 109.4C372.537 109.04 369.177 107.74 366.657 105.5C364.177 103.22 362.937 100.22 362.937 96.5C362.937 93.7 363.597 91.3 364.917 89.3C366.237 87.26 368.077 85.7 370.437 84.62C372.837 83.5 375.637 82.94 378.837 82.94C382.157 82.94 385.017 83.52 387.417 84.68C389.817 85.84 391.677 87.48 392.997 89.6C394.317 91.68 394.977 94.14 394.977 96.98H386.637C386.637 95.78 386.337 94.68 385.737 93.68C385.177 92.64 384.317 91.82 383.157 91.22C382.037 90.58 380.597 90.26 378.837 90.26C377.157 90.26 375.757 90.54 374.637 91.1C373.517 91.66 372.677 92.42 372.117 93.38C371.557 94.34 371.277 95.38 371.277 96.5C371.277 97.86 371.777 99.06 372.777 100.1C373.777 101.1 375.357 101.68 377.517 101.84L381.357 102.2C384.477 102.44 387.217 103.1 389.577 104.18C391.937 105.26 393.757 106.72 395.037 108.56C396.357 110.4 397.017 112.62 397.017 115.22C397.017 117.98 396.297 120.42 394.857 122.54C393.417 124.62 391.357 126.24 388.677 127.4C386.037 128.56 382.917 129.14 379.317 129.14ZM404.926 128V84.2H413.446V128H404.926ZM439.317 129.14C435.437 129.14 432.157 128.52 429.477 127.28C426.837 126.04 424.817 124.34 423.417 122.18C422.017 119.98 421.317 117.5 421.317 114.74H429.657C429.657 115.9 429.977 117.04 430.617 118.16C431.257 119.24 432.277 120.12 433.677 120.8C435.117 121.48 436.997 121.82 439.317 121.82C441.397 121.82 443.137 121.52 444.537 120.92C445.937 120.32 446.977 119.54 447.657 118.58C448.337 117.58 448.677 116.46 448.677 115.22C448.677 113.66 448.017 112.42 446.697 111.5C445.377 110.54 443.337 109.94 440.577 109.7L436.737 109.4C432.537 109.04 429.177 107.74 426.657 105.5C424.177 103.22 422.937 100.22 422.937 96.5C422.937 93.7 423.597 91.3 424.917 89.3C426.237 87.26 428.077 85.7 430.437 84.62C432.837 83.5 435.637 82.94 438.837 82.94C442.157 82.94 445.017 83.52 447.417 84.68C449.817 85.84 451.677 87.48 452.997 89.6C454.317 91.68 454.977 94.14 454.977 96.98H446.637C446.637 95.78 446.337 94.68 445.737 93.68C445.177 92.64 444.317 91.82 443.157 91.22C442.037 90.58 440.597 90.26 438.837 90.26C437.157 90.26 435.757 90.54 434.637 91.1C433.517 91.66 432.677 92.42 432.117 93.38C431.557 94.34 431.277 95.38 431.277 96.5C431.277 97.86 431.777 99.06 432.777 100.1C433.777 101.1 435.357 101.68 437.517 101.84L441.357 102.2C444.477 102.44 447.217 103.1 449.577 104.18C451.937 105.26 453.757 106.72 455.037 108.56C456.357 110.4 457.017 112.62 457.017 115.22C457.017 117.98 456.297 120.42 454.857 122.54C453.417 124.62 451.357 126.24 448.677 127.4C446.037 128.56 442.917 129.14 439.317 129.14ZM472.274 128V90.5H480.794V128H472.274ZM459.614 91.7V84.2H493.454V91.7H459.614Z" fill="white"/>
<path d="M42.2086 191.36C40.8886 191.36 39.7753 191.107 38.8686 190.6C37.9753 190.08 37.2953 189.36 36.8286 188.44C36.3753 187.507 36.1486 186.427 36.1486 185.2V176.4H38.1086V185.44C38.1086 186.253 38.2619 186.973 38.5686 187.6C38.8886 188.213 39.3553 188.693 39.9686 189.04C40.5819 189.387 41.3286 189.56 42.2086 189.56C43.0886 189.56 43.8286 189.393 44.4286 189.06C45.0419 188.713 45.5019 188.233 45.8086 187.62C46.1286 186.993 46.2886 186.267 46.2886 185.44V176.4H48.2486V185.2C48.2486 186.427 48.0219 187.507 47.5686 188.44C47.1153 189.36 46.4419 190.08 45.5486 190.6C44.6553 191.107 43.5419 191.36 42.2086 191.36ZM51.9298 191V180.32H53.4498V184.9H53.2098C53.2098 183.847 53.3498 182.96 53.6298 182.24C53.9232 181.507 54.3632 180.953 54.9498 180.58C55.5365 180.193 56.2765 180 57.1698 180H57.2498C58.5965 180 59.5898 180.42 60.2298 181.26C60.8832 182.1 61.2098 183.313 61.2098 184.9V191H59.2898V184.5C59.2898 183.673 59.0565 183.013 58.5898 182.52C58.1232 182.013 57.4832 181.76 56.6698 181.76C55.8298 181.76 55.1498 182.02 54.6298 182.54C54.1098 183.06 53.8498 183.753 53.8498 184.62V191H51.9298ZM64.8428 191V176.4H66.7628V191H64.8428ZM63.3628 177.92V176.4H66.7628V177.92H63.3628ZM74.9855 191.36C74.0521 191.36 73.2455 191.2 72.5655 190.88C71.8855 190.56 71.3321 190.14 70.9055 189.62C70.4788 189.087 70.1588 188.493 69.9455 187.84C69.7455 187.187 69.6455 186.52 69.6455 185.84V185.48C69.6455 184.787 69.7455 184.113 69.9455 183.46C70.1588 182.807 70.4788 182.22 70.9055 181.7C71.3321 181.167 71.8721 180.747 72.5255 180.44C73.1921 180.12 73.9721 179.96 74.8655 179.96C76.0255 179.96 76.9788 180.213 77.7255 180.72C78.4855 181.213 79.0455 181.853 79.4055 182.64C79.7788 183.427 79.9655 184.267 79.9655 185.16V186.02H70.4855V184.58H78.5655L78.1255 185.36C78.1255 184.6 78.0055 183.947 77.7655 183.4C77.5255 182.84 77.1655 182.407 76.6855 182.1C76.2055 181.793 75.5988 181.64 74.8655 181.64C74.1055 181.64 73.4721 181.813 72.9655 182.16C72.4721 182.507 72.0988 182.98 71.8455 183.58C71.6055 184.18 71.4855 184.873 71.4855 185.66C71.4855 186.42 71.6055 187.107 71.8455 187.72C72.0988 188.32 72.4855 188.8 73.0055 189.16C73.5255 189.507 74.1855 189.68 74.9855 189.68C75.8255 189.68 76.5055 189.493 77.0255 189.12C77.5588 188.747 77.8788 188.313 77.9855 187.82H79.7855C79.6388 188.553 79.3455 189.187 78.9055 189.72C78.4655 190.253 77.9121 190.66 77.2455 190.94C76.5788 191.22 75.8255 191.36 74.9855 191.36ZM89.1516 191V187.8H88.8316V184.1C88.8316 183.367 88.6382 182.813 88.2516 182.44C87.8782 182.067 87.3249 181.88 86.5916 181.88C86.1782 181.88 85.7516 181.887 85.3116 181.9C84.8716 181.913 84.4516 181.927 84.0516 181.94C83.6516 181.953 83.3049 181.973 83.0116 182V180.32C83.3049 180.293 83.6116 180.273 83.9316 180.26C84.2649 180.233 84.6049 180.22 84.9516 180.22C85.2982 180.207 85.6316 180.2 85.9516 180.2C87.0449 180.2 87.9382 180.333 88.6316 180.6C89.3249 180.853 89.8382 181.273 90.1716 181.86C90.5049 182.447 90.6716 183.24 90.6716 184.24V191H89.1516ZM85.6516 191.28C84.8516 191.28 84.1582 191.147 83.5716 190.88C82.9982 190.6 82.5516 190.2 82.2316 189.68C81.9249 189.16 81.7716 188.533 81.7716 187.8C81.7716 187.04 81.9382 186.407 82.2716 185.9C82.6182 185.393 83.1182 185.013 83.7716 184.76C84.4249 184.493 85.2116 184.36 86.1316 184.36H89.0316V185.8H86.0516C85.2782 185.8 84.6849 185.987 84.2716 186.36C83.8582 186.733 83.6516 187.213 83.6516 187.8C83.6516 188.387 83.8582 188.86 84.2716 189.22C84.6849 189.58 85.2782 189.76 86.0516 189.76C86.5049 189.76 86.9382 189.68 87.3516 189.52C87.7649 189.347 88.1049 189.067 88.3716 188.68C88.6516 188.28 88.8049 187.733 88.8316 187.04L89.3516 187.8C89.2849 188.56 89.0982 189.2 88.7916 189.72C88.4982 190.227 88.0849 190.613 87.5516 190.88C87.0316 191.147 86.3982 191.28 85.6516 191.28ZM97.6955 191.32C96.2955 191.32 95.2088 191.02 94.4355 190.42C93.6755 189.82 93.2821 189 93.2555 187.96H95.0555C95.0821 188.373 95.2888 188.767 95.6755 189.14C96.0755 189.5 96.7488 189.68 97.6955 189.68C98.5488 189.68 99.2021 189.513 99.6555 189.18C100.109 188.833 100.335 188.413 100.335 187.92C100.335 187.48 100.169 187.14 99.8355 186.9C99.5021 186.647 98.9621 186.48 98.2155 186.4L97.0555 186.28C96.0421 186.173 95.2155 185.873 94.5755 185.38C93.9355 184.873 93.6155 184.167 93.6155 183.26C93.6155 182.58 93.7888 182 94.1355 181.52C94.4821 181.027 94.9621 180.653 95.5755 180.4C96.1888 180.133 96.8955 180 97.6955 180C98.8955 180 99.8688 180.267 100.615 180.8C101.362 181.333 101.749 182.127 101.775 183.18H99.9755C99.9621 182.753 99.7621 182.393 99.3755 182.1C99.0021 181.793 98.4421 181.64 97.6955 181.64C96.9488 181.64 96.3821 181.793 95.9955 182.1C95.6088 182.407 95.4155 182.793 95.4155 183.26C95.4155 183.66 95.5488 183.98 95.8155 184.22C96.0955 184.46 96.5488 184.613 97.1755 184.68L98.3355 184.8C99.4821 184.92 100.402 185.24 101.095 185.76C101.789 186.267 102.135 186.987 102.135 187.92C102.135 188.587 101.942 189.18 101.555 189.7C101.182 190.207 100.662 190.607 99.9955 190.9C99.3288 191.18 98.5621 191.32 97.6955 191.32ZM104.918 191V176.4H106.838V185.12H106.358C106.358 184.067 106.491 183.16 106.758 182.4C107.038 181.627 107.465 181.033 108.038 180.62C108.611 180.207 109.345 180 110.238 180H110.318C111.598 180 112.565 180.427 113.218 181.28C113.871 182.12 114.198 183.327 114.198 184.9V191H112.278V184.5C112.278 183.633 112.031 182.96 111.538 182.48C111.058 182 110.431 181.76 109.658 181.76C108.805 181.76 108.118 182.047 107.598 182.62C107.091 183.18 106.838 183.92 106.838 184.84V191H104.918ZM121.542 195.16V193.44H123.082C123.535 193.44 123.915 193.38 124.222 193.26C124.542 193.153 124.802 192.967 125.002 192.7C125.215 192.433 125.389 192.08 125.522 191.64L128.882 180.32H130.762L127.202 192.14C126.989 192.847 126.689 193.42 126.302 193.86C125.915 194.313 125.442 194.64 124.882 194.84C124.335 195.053 123.695 195.16 122.962 195.16H121.542ZM124.802 190.76V189.16H127.122V190.76H124.802ZM124.602 190.76L120.782 180.32H122.742L126.402 190.76H124.602ZM137.924 191.36C136.991 191.36 136.171 191.2 135.464 190.88C134.757 190.56 134.157 190.14 133.664 189.62C133.184 189.087 132.817 188.493 132.564 187.84C132.324 187.187 132.204 186.52 132.204 185.84V185.48C132.204 184.8 132.331 184.133 132.584 183.48C132.837 182.813 133.211 182.22 133.704 181.7C134.197 181.167 134.797 180.747 135.504 180.44C136.211 180.12 137.017 179.96 137.924 179.96C138.831 179.96 139.637 180.12 140.344 180.44C141.051 180.747 141.651 181.167 142.144 181.7C142.637 182.22 143.011 182.813 143.264 183.48C143.517 184.133 143.644 184.8 143.644 185.48V185.84C143.644 186.52 143.517 187.187 143.264 187.84C143.024 188.493 142.657 189.087 142.164 189.62C141.684 190.14 141.091 190.56 140.384 190.88C139.677 191.2 138.857 191.36 137.924 191.36ZM137.924 189.64C138.724 189.64 139.404 189.467 139.964 189.12C140.537 188.76 140.971 188.28 141.264 187.68C141.571 187.08 141.724 186.407 141.724 185.66C141.724 184.9 141.571 184.22 141.264 183.62C140.957 183.02 140.517 182.547 139.944 182.2C139.384 181.853 138.711 181.68 137.924 181.68C137.151 181.68 136.477 181.853 135.904 182.2C135.331 182.547 134.891 183.02 134.584 183.62C134.277 184.22 134.124 184.9 134.124 185.66C134.124 186.407 134.271 187.08 134.564 187.68C134.871 188.28 135.304 188.76 135.864 189.12C136.437 189.467 137.124 189.64 137.924 189.64ZM150.22 191.32C148.953 191.32 147.98 190.907 147.3 190.08C146.62 189.253 146.28 188.06 146.28 186.5V180.3H148.2V186.88C148.2 187.72 148.426 188.38 148.88 188.86C149.333 189.327 149.946 189.56 150.72 189.56C151.52 189.56 152.173 189.307 152.68 188.8C153.186 188.28 153.44 187.573 153.44 186.68V180.3H155.36V191H153.84V186.42H154.08C154.08 187.473 153.94 188.367 153.66 189.1C153.38 189.82 152.96 190.373 152.4 190.76C151.853 191.133 151.153 191.32 150.3 191.32H150.22ZM159.078 191V180.32H160.598V184.72H160.518C160.518 183.16 160.858 182.02 161.538 181.3C162.232 180.567 163.265 180.2 164.638 180.2H164.998V181.92H164.318C163.252 181.92 162.432 182.207 161.858 182.78C161.285 183.34 160.998 184.153 160.998 185.22V191H159.078ZM171.832 195V180.32H173.352V184.94L172.992 184.9C173.059 183.753 173.299 182.82 173.712 182.1C174.139 181.367 174.692 180.827 175.372 180.48C176.052 180.133 176.792 179.96 177.592 179.96C178.366 179.96 179.066 180.107 179.692 180.4C180.332 180.693 180.879 181.093 181.332 181.6C181.786 182.107 182.132 182.693 182.372 183.36C182.612 184.027 182.732 184.733 182.732 185.48V185.84C182.732 186.587 182.606 187.293 182.352 187.96C182.099 188.627 181.739 189.213 181.272 189.72C180.819 190.227 180.272 190.627 179.632 190.92C179.006 191.213 178.312 191.36 177.552 191.36C176.792 191.36 176.066 191.193 175.372 190.86C174.679 190.527 174.106 189.987 173.652 189.24C173.199 188.493 172.939 187.513 172.872 186.3L173.752 187.9V195H171.832ZM177.252 189.68C177.972 189.68 178.599 189.513 179.132 189.18C179.666 188.833 180.079 188.36 180.372 187.76C180.666 187.147 180.812 186.447 180.812 185.66C180.812 184.86 180.666 184.16 180.372 183.56C180.079 182.96 179.666 182.493 179.132 182.16C178.599 181.813 177.972 181.64 177.252 181.64C176.612 181.64 176.019 181.787 175.472 182.08C174.926 182.36 174.486 182.773 174.152 183.32C173.832 183.853 173.672 184.5 173.672 185.26V186.18C173.672 186.913 173.839 187.54 174.172 188.06C174.506 188.58 174.946 188.98 175.492 189.26C176.039 189.54 176.626 189.68 177.252 189.68ZM190.541 191.36C189.608 191.36 188.788 191.2 188.081 190.88C187.375 190.56 186.775 190.14 186.281 189.62C185.801 189.087 185.435 188.493 185.181 187.84C184.941 187.187 184.821 186.52 184.821 185.84V185.48C184.821 184.8 184.948 184.133 185.201 183.48C185.455 182.813 185.828 182.22 186.321 181.7C186.815 181.167 187.415 180.747 188.121 180.44C188.828 180.12 189.635 179.96 190.541 179.96C191.448 179.96 192.255 180.12 192.961 180.44C193.668 180.747 194.268 181.167 194.761 181.7C195.255 182.22 195.628 182.813 195.881 183.48C196.135 184.133 196.261 184.8 196.261 185.48V185.84C196.261 186.52 196.135 187.187 195.881 187.84C195.641 188.493 195.275 189.087 194.781 189.62C194.301 190.14 193.708 190.56 193.001 190.88C192.295 191.2 191.475 191.36 190.541 191.36ZM190.541 189.64C191.341 189.64 192.021 189.467 192.581 189.12C193.155 188.76 193.588 188.28 193.881 187.68C194.188 187.08 194.341 186.407 194.341 185.66C194.341 184.9 194.188 184.22 193.881 183.62C193.575 183.02 193.135 182.547 192.561 182.2C192.001 181.853 191.328 181.68 190.541 181.68C189.768 181.68 189.095 181.853 188.521 182.2C187.948 182.547 187.508 183.02 187.201 183.62C186.895 184.22 186.741 184.9 186.741 185.66C186.741 186.407 186.888 187.08 187.181 187.68C187.488 188.28 187.921 188.76 188.481 189.12C189.055 189.467 189.741 189.64 190.541 189.64ZM203.297 191.12C202.497 191.12 201.804 191.007 201.217 190.78C200.644 190.553 200.197 190.167 199.877 189.62C199.57 189.06 199.417 188.307 199.417 187.36V177.08H201.257V187.6C201.257 188.173 201.41 188.62 201.717 188.94C202.037 189.247 202.484 189.4 203.057 189.4H204.937V191.12H203.297ZM197.577 181.76V180.32H204.937V181.76H197.577ZM212.114 191.36C211.181 191.36 210.374 191.2 209.694 190.88C209.014 190.56 208.461 190.14 208.034 189.62C207.608 189.087 207.288 188.493 207.074 187.84C206.874 187.187 206.774 186.52 206.774 185.84V185.48C206.774 184.787 206.874 184.113 207.074 183.46C207.288 182.807 207.608 182.22 208.034 181.7C208.461 181.167 209.001 180.747 209.654 180.44C210.321 180.12 211.101 179.96 211.994 179.96C213.154 179.96 214.108 180.213 214.854 180.72C215.614 181.213 216.174 181.853 216.534 182.64C216.908 183.427 217.094 184.267 217.094 185.16V186.02H207.614V184.58H215.694L215.254 185.36C215.254 184.6 215.134 183.947 214.894 183.4C214.654 182.84 214.294 182.407 213.814 182.1C213.334 181.793 212.728 181.64 211.994 181.64C211.234 181.64 210.601 181.813 210.094 182.16C209.601 182.507 209.228 182.98 208.974 183.58C208.734 184.18 208.614 184.873 208.614 185.66C208.614 186.42 208.734 187.107 208.974 187.72C209.228 188.32 209.614 188.8 210.134 189.16C210.654 189.507 211.314 189.68 212.114 189.68C212.954 189.68 213.634 189.493 214.154 189.12C214.688 188.747 215.008 188.313 215.114 187.82H216.914C216.768 188.553 216.474 189.187 216.034 189.72C215.594 190.253 215.041 190.66 214.374 190.94C213.708 191.22 212.954 191.36 212.114 191.36ZM219.82 191V180.32H221.34V184.9H221.1C221.1 183.847 221.24 182.96 221.52 182.24C221.814 181.507 222.254 180.953 222.84 180.58C223.427 180.193 224.167 180 225.06 180H225.14C226.487 180 227.48 180.42 228.12 181.26C228.774 182.1 229.1 183.313 229.1 184.9V191H227.18V184.5C227.18 183.673 226.947 183.013 226.48 182.52C226.014 182.013 225.374 181.76 224.56 181.76C223.72 181.76 223.04 182.02 222.52 182.54C222 183.06 221.74 183.753 221.74 184.62V191H219.82ZM236.773 191.12C235.973 191.12 235.28 191.007 234.693 190.78C234.12 190.553 233.673 190.167 233.353 189.62C233.047 189.06 232.893 188.307 232.893 187.36V177.08H234.733V187.6C234.733 188.173 234.887 188.62 235.193 188.94C235.513 189.247 235.96 189.4 236.533 189.4H238.413V191.12H236.773ZM231.053 181.76V180.32H238.413V181.76H231.053ZM241.649 191V180.32H243.569V191H241.649ZM240.009 181.84V180.32H243.569V181.84H240.009ZM242.189 178.6C241.762 178.6 241.442 178.487 241.229 178.26C241.029 178.033 240.929 177.747 240.929 177.4C240.929 177.053 241.029 176.767 241.229 176.54C241.442 176.313 241.762 176.2 242.189 176.2C242.616 176.2 242.929 176.313 243.129 176.54C243.342 176.767 243.449 177.053 243.449 177.4C243.449 177.747 243.342 178.033 243.129 178.26C242.929 178.487 242.616 178.6 242.189 178.6ZM253.741 191V187.8H253.421V184.1C253.421 183.367 253.228 182.813 252.841 182.44C252.468 182.067 251.915 181.88 251.181 181.88C250.768 181.88 250.341 181.887 249.901 181.9C249.461 181.913 249.041 181.927 248.641 181.94C248.241 181.953 247.895 181.973 247.601 182V180.32C247.895 180.293 248.201 180.273 248.521 180.26C248.855 180.233 249.195 180.22 249.541 180.22C249.888 180.207 250.221 180.2 250.541 180.2C251.635 180.2 252.528 180.333 253.221 180.6C253.915 180.853 254.428 181.273 254.761 181.86C255.095 182.447 255.261 183.24 255.261 184.24V191H253.741ZM250.241 191.28C249.441 191.28 248.748 191.147 248.161 190.88C247.588 190.6 247.141 190.2 246.821 189.68C246.515 189.16 246.361 188.533 246.361 187.8C246.361 187.04 246.528 186.407 246.861 185.9C247.208 185.393 247.708 185.013 248.361 184.76C249.015 184.493 249.801 184.36 250.721 184.36H253.621V185.8H250.641C249.868 185.8 249.275 185.987 248.861 186.36C248.448 186.733 248.241 187.213 248.241 187.8C248.241 188.387 248.448 188.86 248.861 189.22C249.275 189.58 249.868 189.76 250.641 189.76C251.095 189.76 251.528 189.68 251.941 189.52C252.355 189.347 252.695 189.067 252.961 188.68C253.241 188.28 253.395 187.733 253.421 187.04L253.941 187.8C253.875 188.56 253.688 189.2 253.381 189.72C253.088 190.227 252.675 190.613 252.141 190.88C251.621 191.147 250.988 191.28 250.241 191.28ZM258.905 191V176.4H260.825V191H258.905ZM257.425 177.92V176.4H260.825V177.92H257.425ZM263.028 186.26V184.62H280.308V186.26H263.028ZM280.519 195.08V193.36H281.639C282.145 193.36 282.532 193.22 282.799 192.94C283.079 192.66 283.219 192.273 283.219 191.78V180.32H285.059V191.5C285.059 192.393 284.932 193.1 284.679 193.62C284.439 194.14 284.045 194.513 283.499 194.74C282.965 194.967 282.252 195.08 281.359 195.08H280.519ZM281.539 181.84V180.32H285.059V181.84H281.539ZM283.679 178.44C283.252 178.44 282.932 178.327 282.719 178.1C282.519 177.873 282.419 177.587 282.419 177.24C282.419 176.893 282.519 176.607 282.719 176.38C282.932 176.153 283.252 176.04 283.679 176.04C284.105 176.04 284.419 176.153 284.619 176.38C284.832 176.607 284.939 176.893 284.939 177.24C284.939 177.587 284.832 177.873 284.619 178.1C284.419 178.327 284.105 178.44 283.679 178.44ZM293.666 191.36C292.733 191.36 291.913 191.2 291.206 190.88C290.5 190.56 289.9 190.14 289.406 189.62C288.926 189.087 288.56 188.493 288.306 187.84C288.066 187.187 287.946 186.52 287.946 185.84V185.48C287.946 184.8 288.073 184.133 288.326 183.48C288.58 182.813 288.953 182.22 289.446 181.7C289.94 181.167 290.54 180.747 291.246 180.44C291.953 180.12 292.76 179.96 293.666 179.96C294.573 179.96 295.38 180.12 296.086 180.44C296.793 180.747 297.393 181.167 297.886 181.7C298.38 182.22 298.753 182.813 299.006 183.48C299.26 184.133 299.386 184.8 299.386 185.48V185.84C299.386 186.52 299.26 187.187 299.006 187.84C298.766 188.493 298.4 189.087 297.906 189.62C297.426 190.14 296.833 190.56 296.126 190.88C295.42 191.2 294.6 191.36 293.666 191.36ZM293.666 189.64C294.466 189.64 295.146 189.467 295.706 189.12C296.28 188.76 296.713 188.28 297.006 187.68C297.313 187.08 297.466 186.407 297.466 185.66C297.466 184.9 297.313 184.22 297.006 183.62C296.7 183.02 296.26 182.547 295.686 182.2C295.126 181.853 294.453 181.68 293.666 181.68C292.893 181.68 292.22 181.853 291.646 182.2C291.073 182.547 290.633 183.02 290.326 183.62C290.02 184.22 289.866 184.9 289.866 185.66C289.866 186.407 290.013 187.08 290.306 187.68C290.613 188.28 291.046 188.76 291.606 189.12C292.18 189.467 292.866 189.64 293.666 189.64ZM302.782 191V180.32H304.702V191H302.782ZM301.142 181.84V180.32H304.702V181.84H301.142ZM303.322 178.6C302.895 178.6 302.575 178.487 302.362 178.26C302.162 178.033 302.062 177.747 302.062 177.4C302.062 177.053 302.162 176.767 302.362 176.54C302.575 176.313 302.895 176.2 303.322 176.2C303.749 176.2 304.062 176.313 304.262 176.54C304.475 176.767 304.582 177.053 304.582 177.4C304.582 177.747 304.475 178.033 304.262 178.26C304.062 178.487 303.749 178.6 303.322 178.6ZM308.414 191V180.32H309.934V184.9H309.694C309.694 183.847 309.834 182.96 310.114 182.24C310.408 181.507 310.848 180.953 311.434 180.58C312.021 180.193 312.761 180 313.654 180H313.734C315.081 180 316.074 180.42 316.714 181.26C317.368 182.1 317.694 183.313 317.694 184.9V191H315.774V184.5C315.774 183.673 315.541 183.013 315.074 182.52C314.608 182.013 313.968 181.76 313.154 181.76C312.314 181.76 311.634 182.02 311.114 182.54C310.594 183.06 310.334 183.753 310.334 184.62V191H308.414ZM324.478 191L329.738 176.4H333.058L338.478 191H336.458L331.558 177.68L332.518 178.16H330.158L331.178 177.68L326.438 191H324.478ZM327.618 186.64L328.278 184.88H334.578L335.238 186.64H327.618ZM347.026 191.36C345.693 191.36 344.553 191.127 343.606 190.66C342.673 190.193 341.92 189.587 341.346 188.84C340.773 188.093 340.353 187.287 340.086 186.42C339.82 185.54 339.686 184.693 339.686 183.88V183.44C339.686 182.56 339.82 181.68 340.086 180.8C340.366 179.92 340.793 179.12 341.366 178.4C341.94 177.68 342.686 177.1 343.606 176.66C344.526 176.22 345.626 176 346.906 176C348.213 176 349.333 176.227 350.266 176.68C351.2 177.133 351.94 177.767 352.486 178.58C353.033 179.393 353.366 180.353 353.486 181.46H351.486C351.38 180.633 351.113 179.953 350.686 179.42C350.26 178.873 349.72 178.467 349.066 178.2C348.426 177.933 347.706 177.8 346.906 177.8C346.04 177.8 345.28 177.953 344.626 178.26C343.973 178.553 343.426 178.973 342.986 179.52C342.56 180.053 342.233 180.673 342.006 181.38C341.793 182.087 341.686 182.853 341.686 183.68C341.686 184.467 341.793 185.213 342.006 185.92C342.233 186.627 342.566 187.253 343.006 187.8C343.46 188.347 344.02 188.78 344.686 189.1C345.353 189.407 346.133 189.56 347.026 189.56C348.28 189.56 349.333 189.247 350.186 188.62C351.04 187.993 351.56 187.087 351.746 185.9H353.746C353.613 186.9 353.273 187.813 352.726 188.64C352.193 189.467 351.446 190.127 350.486 190.62C349.54 191.113 348.386 191.36 347.026 191.36ZM356.585 191V176.4H359.185L363.505 186.14H363.825L368.125 176.4H370.745V191H368.785V178.54L368.925 178.58L364.785 187.98H362.385L358.225 178.58L358.385 178.54V191H356.585ZM384.274 191.36C383.061 191.36 382.027 191.16 381.174 190.76C380.321 190.36 379.667 189.807 379.214 189.1C378.761 188.393 378.534 187.593 378.534 186.7H380.494C380.494 187.14 380.607 187.58 380.834 188.02C381.074 188.46 381.467 188.827 382.014 189.12C382.574 189.413 383.327 189.56 384.274 189.56C385.154 189.56 385.874 189.433 386.434 189.18C386.994 188.913 387.407 188.573 387.674 188.16C387.941 187.733 388.074 187.273 388.074 186.78C388.074 186.18 387.814 185.687 387.294 185.3C386.774 184.9 386.014 184.653 385.014 184.56L383.394 184.42C382.101 184.313 381.067 183.913 380.294 183.22C379.521 182.527 379.134 181.613 379.134 180.48C379.134 179.587 379.347 178.807 379.774 178.14C380.214 177.473 380.821 176.953 381.594 176.58C382.367 176.193 383.267 176 384.294 176C385.307 176 386.201 176.187 386.974 176.56C387.747 176.933 388.347 177.46 388.774 178.14C389.214 178.807 389.434 179.607 389.434 180.54H387.474C387.474 180.073 387.361 179.633 387.134 179.22C386.921 178.807 386.581 178.467 386.114 178.2C385.647 177.933 385.041 177.8 384.294 177.8C383.574 177.8 382.974 177.927 382.494 178.18C382.027 178.433 381.674 178.767 381.434 179.18C381.207 179.58 381.094 180.013 381.094 180.48C381.094 181.013 381.301 181.487 381.714 181.9C382.127 182.313 382.741 182.553 383.554 182.62L385.174 182.76C386.174 182.84 387.034 183.053 387.754 183.4C388.487 183.733 389.047 184.187 389.434 184.76C389.834 185.32 390.034 185.993 390.034 186.78C390.034 187.673 389.794 188.467 389.314 189.16C388.834 189.853 388.161 190.393 387.294 190.78C386.427 191.167 385.421 191.36 384.274 191.36ZM393.363 191V176.4H395.323V191H393.363ZM404.352 191.36C403.139 191.36 402.106 191.16 401.252 190.76C400.399 190.36 399.746 189.807 399.292 189.1C398.839 188.393 398.612 187.593 398.612 186.7H400.572C400.572 187.14 400.686 187.58 400.912 188.02C401.152 188.46 401.546 188.827 402.092 189.12C402.652 189.413 403.406 189.56 404.352 189.56C405.232 189.56 405.952 189.433 406.512 189.18C407.072 188.913 407.486 188.573 407.752 188.16C408.019 187.733 408.152 187.273 408.152 186.78C408.152 186.18 407.892 185.687 407.372 185.3C406.852 184.9 406.092 184.653 405.092 184.56L403.472 184.42C402.179 184.313 401.146 183.913 400.372 183.22C399.599 182.527 399.212 181.613 399.212 180.48C399.212 179.587 399.426 178.807 399.852 178.14C400.292 177.473 400.899 176.953 401.672 176.58C402.446 176.193 403.346 176 404.372 176C405.386 176 406.279 176.187 407.052 176.56C407.826 176.933 408.426 177.46 408.852 178.14C409.292 178.807 409.512 179.607 409.512 180.54H407.552C407.552 180.073 407.439 179.633 407.212 179.22C406.999 178.807 406.659 178.467 406.192 178.2C405.726 177.933 405.119 177.8 404.372 177.8C403.652 177.8 403.052 177.927 402.572 178.18C402.106 178.433 401.752 178.767 401.512 179.18C401.286 179.58 401.172 180.013 401.172 180.48C401.172 181.013 401.379 181.487 401.792 181.9C402.206 182.313 402.819 182.553 403.632 182.62L405.252 182.76C406.252 182.84 407.112 183.053 407.832 183.4C408.566 183.733 409.126 184.187 409.512 184.76C409.912 185.32 410.112 185.993 410.112 186.78C410.112 187.673 409.872 188.467 409.392 189.16C408.912 189.853 408.239 190.393 407.372 190.78C406.506 191.167 405.499 191.36 404.352 191.36ZM415.89 191V177.76H417.85V191H415.89ZM411.45 178.16V176.4H422.29V178.16H411.45ZM435.655 191V187.8H435.335V184.1C435.335 183.367 435.142 182.813 434.755 182.44C434.382 182.067 433.829 181.88 433.095 181.88C432.682 181.88 432.255 181.887 431.815 181.9C431.375 181.913 430.955 181.927 430.555 181.94C430.155 181.953 429.809 181.973 429.515 182V180.32C429.809 180.293 430.115 180.273 430.435 180.26C430.769 180.233 431.109 180.22 431.455 180.22C431.802 180.207 432.135 180.2 432.455 180.2C433.549 180.2 434.442 180.333 435.135 180.6C435.829 180.853 436.342 181.273 436.675 181.86C437.009 182.447 437.175 183.24 437.175 184.24V191H435.655ZM432.155 191.28C431.355 191.28 430.662 191.147 430.075 190.88C429.502 190.6 429.055 190.2 428.735 189.68C428.429 189.16 428.275 188.533 428.275 187.8C428.275 187.04 428.442 186.407 428.775 185.9C429.122 185.393 429.622 185.013 430.275 184.76C430.929 184.493 431.715 184.36 432.635 184.36H435.535V185.8H432.555C431.782 185.8 431.189 185.987 430.775 186.36C430.362 186.733 430.155 187.213 430.155 187.8C430.155 188.387 430.362 188.86 430.775 189.22C431.189 189.58 431.782 189.76 432.555 189.76C433.009 189.76 433.442 189.68 433.855 189.52C434.269 189.347 434.609 189.067 434.875 188.68C435.155 188.28 435.309 187.733 435.335 187.04L435.855 187.8C435.789 188.56 435.602 189.2 435.295 189.72C435.002 190.227 434.589 190.613 434.055 190.88C433.535 191.147 432.902 191.28 432.155 191.28ZM440.699 191V180.32H442.219V184.9H441.979C441.979 183.847 442.119 182.96 442.399 182.24C442.693 181.507 443.133 180.953 443.719 180.58C444.306 180.193 445.046 180 445.939 180H446.019C447.366 180 448.359 180.42 448.999 181.26C449.653 182.1 449.979 183.313 449.979 184.9V191H448.059V184.5C448.059 183.673 447.826 183.013 447.359 182.52C446.893 182.013 446.253 181.76 445.439 181.76C444.599 181.76 443.919 182.02 443.399 182.54C442.879 183.06 442.619 183.753 442.619 184.62V191H440.699ZM457.952 191.36C457.192 191.36 456.492 191.22 455.852 190.94C455.212 190.66 454.652 190.267 454.172 189.76C453.706 189.253 453.339 188.667 453.072 188C452.819 187.333 452.692 186.613 452.692 185.84V185.48C452.692 184.72 452.819 184.007 453.072 183.34C453.326 182.673 453.679 182.087 454.132 181.58C454.599 181.073 455.146 180.68 455.772 180.4C456.412 180.107 457.119 179.96 457.892 179.96C458.706 179.96 459.446 180.133 460.112 180.48C460.779 180.813 461.326 181.34 461.752 182.06C462.179 182.78 462.419 183.713 462.472 184.86L461.672 183.58V176.4H463.592V191H462.072V186.26H462.632C462.579 187.473 462.326 188.46 461.872 189.22C461.419 189.967 460.846 190.513 460.152 190.86C459.472 191.193 458.739 191.36 457.952 191.36ZM458.212 189.68C458.866 189.68 459.459 189.533 459.992 189.24C460.526 188.947 460.952 188.527 461.272 187.98C461.592 187.42 461.752 186.767 461.752 186.02V185.1C461.752 184.367 461.586 183.747 461.252 183.24C460.932 182.72 460.499 182.327 459.952 182.06C459.419 181.78 458.832 181.64 458.192 181.64C457.486 181.64 456.859 181.807 456.312 182.14C455.779 182.473 455.359 182.94 455.052 183.54C454.759 184.14 454.612 184.847 454.612 185.66C454.612 186.473 454.766 187.187 455.072 187.8C455.379 188.4 455.806 188.867 456.352 189.2C456.899 189.52 457.519 189.68 458.212 189.68ZM477.472 191.36C476.592 191.36 475.806 191.167 475.112 190.78C474.432 190.393 473.892 189.833 473.492 189.1C473.092 188.353 472.872 187.46 472.832 186.42H473.352V191H471.832V176.4H473.752V183.5L473.072 184.96C473.126 183.8 473.359 182.853 473.772 182.12C474.186 181.387 474.726 180.847 475.392 180.5C476.072 180.14 476.819 179.96 477.632 179.96C478.392 179.96 479.086 180.107 479.712 180.4C480.339 180.68 480.879 181.073 481.332 181.58C481.786 182.073 482.132 182.653 482.372 183.32C482.612 183.973 482.732 184.68 482.732 185.44V185.8C482.732 186.56 482.606 187.273 482.352 187.94C482.112 188.607 481.759 189.2 481.292 189.72C480.826 190.227 480.266 190.627 479.612 190.92C478.972 191.213 478.259 191.36 477.472 191.36ZM477.252 189.68C477.972 189.68 478.599 189.507 479.132 189.16C479.666 188.813 480.079 188.34 480.372 187.74C480.666 187.127 480.812 186.42 480.812 185.62C480.812 184.82 480.659 184.12 480.352 183.52C480.059 182.92 479.646 182.46 479.112 182.14C478.579 181.807 477.959 181.64 477.252 181.64C476.612 181.64 476.019 181.787 475.472 182.08C474.926 182.36 474.486 182.773 474.152 183.32C473.832 183.853 473.672 184.5 473.672 185.26V186.18C473.672 186.913 473.839 187.54 474.172 188.06C474.506 188.58 474.946 188.98 475.492 189.26C476.039 189.54 476.626 189.68 477.252 189.68ZM490.161 191.36C489.228 191.36 488.421 191.2 487.741 190.88C487.061 190.56 486.508 190.14 486.081 189.62C485.655 189.087 485.335 188.493 485.121 187.84C484.921 187.187 484.821 186.52 484.821 185.84V185.48C484.821 184.787 484.921 184.113 485.121 183.46C485.335 182.807 485.655 182.22 486.081 181.7C486.508 181.167 487.048 180.747 487.701 180.44C488.368 180.12 489.148 179.96 490.041 179.96C491.201 179.96 492.155 180.213 492.901 180.72C493.661 181.213 494.221 181.853 494.581 182.64C494.955 183.427 495.141 184.267 495.141 185.16V186.02H485.661V184.58H493.741L493.301 185.36C493.301 184.6 493.181 183.947 492.941 183.4C492.701 182.84 492.341 182.407 491.861 182.1C491.381 181.793 490.775 181.64 490.041 181.64C489.281 181.64 488.648 181.813 488.141 182.16C487.648 182.507 487.275 182.98 487.021 183.58C486.781 184.18 486.661 184.873 486.661 185.66C486.661 186.42 486.781 187.107 487.021 187.72C487.275 188.32 487.661 188.8 488.181 189.16C488.701 189.507 489.361 189.68 490.161 189.68C491.001 189.68 491.681 189.493 492.201 189.12C492.735 188.747 493.055 188.313 493.161 187.82H494.961C494.815 188.553 494.521 189.187 494.081 189.72C493.641 190.253 493.088 190.66 492.421 190.94C491.755 191.22 491.001 191.36 490.161 191.36ZM502.418 195V180.32H503.938V184.94L503.578 184.9C503.645 183.753 503.885 182.82 504.298 182.1C504.725 181.367 505.278 180.827 505.958 180.48C506.638 180.133 507.378 179.96 508.178 179.96C508.951 179.96 509.651 180.107 510.278 180.4C510.918 180.693 511.465 181.093 511.918 181.6C512.371 182.107 512.718 182.693 512.958 183.36C513.198 184.027 513.318 184.733 513.318 185.48V185.84C513.318 186.587 513.191 187.293 512.938 187.96C512.685 188.627 512.325 189.213 511.858 189.72C511.405 190.227 510.858 190.627 510.218 190.92C509.591 191.213 508.898 191.36 508.138 191.36C507.378 191.36 506.651 191.193 505.958 190.86C505.265 190.527 504.691 189.987 504.238 189.24C503.785 188.493 503.525 187.513 503.458 186.3L504.338 187.9V195H502.418ZM507.838 189.68C508.558 189.68 509.185 189.513 509.718 189.18C510.251 188.833 510.665 188.36 510.958 187.76C511.251 187.147 511.398 186.447 511.398 185.66C511.398 184.86 511.251 184.16 510.958 183.56C510.665 182.96 510.251 182.493 509.718 182.16C509.185 181.813 508.558 181.64 507.838 181.64C507.198 181.64 506.605 181.787 506.058 182.08C505.511 182.36 505.071 182.773 504.738 183.32C504.418 183.853 504.258 184.5 504.258 185.26V186.18C504.258 186.913 504.425 187.54 504.758 188.06C505.091 188.58 505.531 188.98 506.078 189.26C506.625 189.54 507.211 189.68 507.838 189.68ZM522.667 191V187.8H522.347V184.1C522.347 183.367 522.154 182.813 521.767 182.44C521.394 182.067 520.841 181.88 520.107 181.88C519.694 181.88 519.267 181.887 518.827 181.9C518.387 181.913 517.967 181.927 517.567 181.94C517.167 181.953 516.821 181.973 516.527 182V180.32C516.821 180.293 517.127 180.273 517.447 180.26C517.781 180.233 518.121 180.22 518.467 180.22C518.814 180.207 519.147 180.2 519.467 180.2C520.561 180.2 521.454 180.333 522.147 180.6C522.841 180.853 523.354 181.273 523.687 181.86C524.021 182.447 524.187 183.24 524.187 184.24V191H522.667ZM519.167 191.28C518.367 191.28 517.674 191.147 517.087 190.88C516.514 190.6 516.067 190.2 515.747 189.68C515.441 189.16 515.287 188.533 515.287 187.8C515.287 187.04 515.454 186.407 515.787 185.9C516.134 185.393 516.634 185.013 517.287 184.76C517.941 184.493 518.727 184.36 519.647 184.36H522.547V185.8H519.567C518.794 185.8 518.201 185.987 517.787 186.36C517.374 186.733 517.167 187.213 517.167 187.8C517.167 188.387 517.374 188.86 517.787 189.22C518.201 189.58 518.794 189.76 519.567 189.76C520.021 189.76 520.454 189.68 520.867 189.52C521.281 189.347 521.621 189.067 521.887 188.68C522.167 188.28 522.321 187.733 522.347 187.04L522.867 187.8C522.801 188.56 522.614 189.2 522.307 189.72C522.014 190.227 521.601 190.613 521.067 190.88C520.547 191.147 519.914 191.28 519.167 191.28ZM527.711 191V180.32H529.231V184.72H529.151C529.151 183.16 529.491 182.02 530.171 181.3C530.864 180.567 531.898 180.2 533.271 180.2H533.631V181.92H532.951C531.884 181.92 531.064 182.207 530.491 182.78C529.918 183.34 529.631 184.153 529.631 185.22V191H527.711ZM540.27 191.12C539.47 191.12 538.776 191.007 538.19 190.78C537.616 190.553 537.17 190.167 536.85 189.62C536.543 189.06 536.39 188.307 536.39 187.36V177.08H538.23V187.6C538.23 188.173 538.383 188.62 538.69 188.94C539.01 189.247 539.456 189.4 540.03 189.4H541.91V191.12H540.27ZM534.55 181.76V180.32H541.91V181.76H534.55ZM554.096 191.36C553.163 191.36 552.343 191.2 551.636 190.88C550.929 190.56 550.329 190.14 549.836 189.62C549.356 189.087 548.989 188.493 548.736 187.84C548.496 187.187 548.376 186.52 548.376 185.84V185.48C548.376 184.8 548.503 184.133 548.756 183.48C549.009 182.813 549.383 182.22 549.876 181.7C550.369 181.167 550.969 180.747 551.676 180.44C552.383 180.12 553.189 179.96 554.096 179.96C555.003 179.96 555.809 180.12 556.516 180.44C557.223 180.747 557.823 181.167 558.316 181.7C558.809 182.22 559.183 182.813 559.436 183.48C559.689 184.133 559.816 184.8 559.816 185.48V185.84C559.816 186.52 559.689 187.187 559.436 187.84C559.196 188.493 558.829 189.087 558.336 189.62C557.856 190.14 557.263 190.56 556.556 190.88C555.849 191.2 555.029 191.36 554.096 191.36ZM554.096 189.64C554.896 189.64 555.576 189.467 556.136 189.12C556.709 188.76 557.143 188.28 557.436 187.68C557.743 187.08 557.896 186.407 557.896 185.66C557.896 184.9 557.743 184.22 557.436 183.62C557.129 183.02 556.689 182.547 556.116 182.2C555.556 181.853 554.883 181.68 554.096 181.68C553.323 181.68 552.649 181.853 552.076 182.2C551.503 182.547 551.063 183.02 550.756 183.62C550.449 184.22 550.296 184.9 550.296 185.66C550.296 186.407 550.443 187.08 550.736 187.68C551.043 188.28 551.476 188.76 552.036 189.12C552.609 189.467 553.296 189.64 554.096 189.64ZM562.972 191V179.78C562.972 178.593 563.285 177.72 563.912 177.16C564.538 176.6 565.458 176.32 566.672 176.32H567.992V177.92H566.352C565.858 177.92 565.478 178.06 565.212 178.34C564.945 178.607 564.812 178.98 564.812 179.46V191H562.972ZM561.492 181.88V180.44H568.192V181.88H561.492ZM578.98 191.12C578.18 191.12 577.487 191.007 576.9 190.78C576.327 190.553 575.88 190.167 575.56 189.62C575.254 189.06 575.1 188.307 575.1 187.36V177.08H576.94V187.6C576.94 188.173 577.094 188.62 577.4 188.94C577.72 189.247 578.167 189.4 578.74 189.4H580.62V191.12H578.98ZM573.26 181.76V180.32H580.62V181.76H573.26ZM583.336 191V176.4H585.256V185.12H584.776C584.776 184.067 584.909 183.16 585.176 182.4C585.456 181.627 585.883 181.033 586.456 180.62C587.029 180.207 587.763 180 588.656 180H588.736C590.016 180 590.983 180.427 591.636 181.28C592.289 182.12 592.616 183.327 592.616 184.9V191H590.696V184.5C590.696 183.633 590.449 182.96 589.956 182.48C589.476 182 588.849 181.76 588.076 181.76C587.223 181.76 586.536 182.047 586.016 182.62C585.509 183.18 585.256 183.92 585.256 184.84V191H583.336ZM600.669 191.36C599.736 191.36 598.929 191.2 598.249 190.88C597.569 190.56 597.016 190.14 596.589 189.62C596.162 189.087 595.842 188.493 595.629 187.84C595.429 187.187 595.329 186.52 595.329 185.84V185.48C595.329 184.787 595.429 184.113 595.629 183.46C595.842 182.807 596.162 182.22 596.589 181.7C597.016 181.167 597.556 180.747 598.209 180.44C598.876 180.12 599.656 179.96 600.549 179.96C601.709 179.96 602.662 180.213 603.409 180.72C604.169 181.213 604.729 181.853 605.089 182.64C605.462 183.427 605.649 184.267 605.649 185.16V186.02H596.169V184.58H604.249L603.809 185.36C603.809 184.6 603.689 183.947 603.449 183.4C603.209 182.84 602.849 182.407 602.369 182.1C601.889 181.793 601.282 181.64 600.549 181.64C599.789 181.64 599.156 181.813 598.649 182.16C598.156 182.507 597.782 182.98 597.529 183.58C597.289 184.18 597.169 184.873 597.169 185.66C597.169 186.42 597.289 187.107 597.529 187.72C597.782 188.32 598.169 188.8 598.689 189.16C599.209 189.507 599.869 189.68 600.669 189.68C601.509 189.68 602.189 189.493 602.709 189.12C603.242 188.747 603.562 188.313 603.669 187.82H605.469C605.322 188.553 605.029 189.187 604.589 189.72C604.149 190.253 603.596 190.66 602.929 190.94C602.262 191.22 601.509 191.36 600.669 191.36ZM617.086 191.12C616.286 191.12 615.593 191.007 615.006 190.78C614.433 190.553 613.986 190.167 613.666 189.62C613.359 189.06 613.206 188.307 613.206 187.36V177.08H615.046V187.6C615.046 188.173 615.199 188.62 615.506 188.94C615.826 189.247 616.273 189.4 616.846 189.4H618.726V191.12H617.086ZM611.366 181.76V180.32H618.726V181.76H611.366ZM625.903 191.36C624.97 191.36 624.163 191.2 623.483 190.88C622.803 190.56 622.25 190.14 621.823 189.62C621.397 189.087 621.077 188.493 620.863 187.84C620.663 187.187 620.563 186.52 620.563 185.84V185.48C620.563 184.787 620.663 184.113 620.863 183.46C621.077 182.807 621.397 182.22 621.823 181.7C622.25 181.167 622.79 180.747 623.443 180.44C624.11 180.12 624.89 179.96 625.783 179.96C626.943 179.96 627.897 180.213 628.643 180.72C629.403 181.213 629.963 181.853 630.323 182.64C630.697 183.427 630.883 184.267 630.883 185.16V186.02H621.403V184.58H629.483L629.043 185.36C629.043 184.6 628.923 183.947 628.683 183.4C628.443 182.84 628.083 182.407 627.603 182.1C627.123 181.793 626.517 181.64 625.783 181.64C625.023 181.64 624.39 181.813 623.883 182.16C623.39 182.507 623.017 182.98 622.763 183.58C622.523 184.18 622.403 184.873 622.403 185.66C622.403 186.42 622.523 187.107 622.763 187.72C623.017 188.32 623.403 188.8 623.923 189.16C624.443 189.507 625.103 189.68 625.903 189.68C626.743 189.68 627.423 189.493 627.943 189.12C628.477 188.747 628.797 188.313 628.903 187.82H630.703C630.557 188.553 630.263 189.187 629.823 189.72C629.383 190.253 628.83 190.66 628.163 190.94C627.497 191.22 626.743 191.36 625.903 191.36ZM638.19 191.36C637.27 191.36 636.47 191.2 635.79 190.88C635.123 190.56 634.57 190.133 634.13 189.6C633.69 189.053 633.356 188.453 633.13 187.8C632.916 187.147 632.81 186.493 632.81 185.84V185.48C632.81 184.8 632.916 184.133 633.13 183.48C633.356 182.827 633.69 182.24 634.13 181.72C634.583 181.187 635.143 180.76 635.81 180.44C636.476 180.12 637.256 179.96 638.15 179.96C639.043 179.96 639.843 180.127 640.55 180.46C641.27 180.793 641.843 181.267 642.27 181.88C642.71 182.48 642.956 183.193 643.01 184.02H641.17C641.076 183.353 640.77 182.8 640.25 182.36C639.73 181.907 639.03 181.68 638.15 181.68C637.39 181.68 636.756 181.853 636.25 182.2C635.743 182.547 635.363 183.02 635.11 183.62C634.856 184.22 634.73 184.9 634.73 185.66C634.73 186.393 634.856 187.067 635.11 187.68C635.363 188.28 635.743 188.76 636.25 189.12C636.77 189.467 637.416 189.64 638.19 189.64C638.79 189.64 639.31 189.533 639.75 189.32C640.19 189.107 640.543 188.82 640.81 188.46C641.076 188.1 641.236 187.693 641.29 187.24H643.13C643.09 188.08 642.843 188.807 642.39 189.42C641.95 190.033 641.363 190.513 640.63 190.86C639.91 191.193 639.096 191.36 638.19 191.36ZM645.738 191V176.4H647.658V185.12H647.178C647.178 184.067 647.312 183.16 647.578 182.4C647.858 181.627 648.285 181.033 648.858 180.62C649.432 180.207 650.165 180 651.058 180H651.138C652.418 180 653.385 180.427 654.038 181.28C654.692 182.12 655.018 183.327 655.018 184.9V191H653.098V184.5C653.098 183.633 652.852 182.96 652.358 182.48C651.878 182 651.252 181.76 650.478 181.76C649.625 181.76 648.938 182.047 648.418 182.62C647.912 183.18 647.658 183.92 647.658 184.84V191H645.738ZM292.379 223V212.32H293.899V216.72H293.819C293.819 215.16 294.159 214.02 294.839 213.3C295.532 212.567 296.566 212.2 297.939 212.2H298.299V213.92H297.619C296.552 213.92 295.732 214.207 295.159 214.78C294.586 215.34 294.299 216.153 294.299 217.22V223H292.379ZM305.005 223.36C304.072 223.36 303.265 223.2 302.585 222.88C301.905 222.56 301.352 222.14 300.925 221.62C300.498 221.087 300.178 220.493 299.965 219.84C299.765 219.187 299.665 218.52 299.665 217.84V217.48C299.665 216.787 299.765 216.113 299.965 215.46C300.178 214.807 300.498 214.22 300.925 213.7C301.352 213.167 301.892 212.747 302.545 212.44C303.212 212.12 303.992 211.96 304.885 211.96C306.045 211.96 306.998 212.213 307.745 212.72C308.505 213.213 309.065 213.853 309.425 214.64C309.798 215.427 309.985 216.267 309.985 217.16V218.02H300.505V216.58H308.585L308.145 217.36C308.145 216.6 308.025 215.947 307.785 215.4C307.545 214.84 307.185 214.407 306.705 214.1C306.225 213.793 305.618 213.64 304.885 213.64C304.125 213.64 303.492 213.813 302.985 214.16C302.492 214.507 302.118 214.98 301.865 215.58C301.625 216.18 301.505 216.873 301.505 217.66C301.505 218.42 301.625 219.107 301.865 219.72C302.118 220.32 302.505 220.8 303.025 221.16C303.545 221.507 304.205 221.68 305.005 221.68C305.845 221.68 306.525 221.493 307.045 221.12C307.578 220.747 307.898 220.313 308.005 219.82H309.805C309.658 220.553 309.365 221.187 308.925 221.72C308.485 222.253 307.932 222.66 307.265 222.94C306.598 223.22 305.845 223.36 305.005 223.36ZM314.913 223L311.273 212.32H313.273L316.833 223H314.913ZM315.393 223V221.48H317.713V223H315.393ZM316.313 223L319.413 212.32H321.293L318.133 223H316.313ZM328.53 223.36C327.596 223.36 326.776 223.2 326.07 222.88C325.363 222.56 324.763 222.14 324.27 221.62C323.79 221.087 323.423 220.493 323.17 219.84C322.93 219.187 322.81 218.52 322.81 217.84V217.48C322.81 216.8 322.936 216.133 323.19 215.48C323.443 214.813 323.816 214.22 324.31 213.7C324.803 213.167 325.403 212.747 326.11 212.44C326.816 212.12 327.623 211.96 328.53 211.96C329.436 211.96 330.243 212.12 330.95 212.44C331.656 212.747 332.256 213.167 332.75 213.7C333.243 214.22 333.616 214.813 333.87 215.48C334.123 216.133 334.25 216.8 334.25 217.48V217.84C334.25 218.52 334.123 219.187 333.87 219.84C333.63 220.493 333.263 221.087 332.77 221.62C332.29 222.14 331.696 222.56 330.99 222.88C330.283 223.2 329.463 223.36 328.53 223.36ZM328.53 221.64C329.33 221.64 330.01 221.467 330.57 221.12C331.143 220.76 331.576 220.28 331.87 219.68C332.176 219.08 332.33 218.407 332.33 217.66C332.33 216.9 332.176 216.22 331.87 215.62C331.563 215.02 331.123 214.547 330.55 214.2C329.99 213.853 329.316 213.68 328.53 213.68C327.756 213.68 327.083 213.853 326.51 214.2C325.936 214.547 325.496 215.02 325.19 215.62C324.883 216.22 324.73 216.9 324.73 217.66C324.73 218.407 324.876 219.08 325.17 219.68C325.476 220.28 325.91 220.76 326.47 221.12C327.043 221.467 327.73 221.64 328.53 221.64ZM337.245 223V208.4H339.165V223H337.245ZM335.765 209.92V208.4H339.165V209.92H335.765ZM346.548 223.32C345.281 223.32 344.308 222.907 343.628 222.08C342.948 221.253 342.608 220.06 342.608 218.5V212.3H344.528V218.88C344.528 219.72 344.754 220.38 345.208 220.86C345.661 221.327 346.274 221.56 347.048 221.56C347.848 221.56 348.501 221.307 349.008 220.8C349.514 220.28 349.768 219.573 349.768 218.68V212.3H351.688V223H350.168V218.42H350.408C350.408 219.473 350.268 220.367 349.988 221.1C349.708 221.82 349.288 222.373 348.728 222.76C348.181 223.133 347.481 223.32 346.628 223.32H346.548ZM359.566 223.12C358.766 223.12 358.073 223.007 357.486 222.78C356.913 222.553 356.466 222.167 356.146 221.62C355.84 221.06 355.686 220.307 355.686 219.36V209.08H357.526V219.6C357.526 220.173 357.68 220.62 357.986 220.94C358.306 221.247 358.753 221.4 359.326 221.4H361.206V223.12H359.566ZM353.846 213.76V212.32H361.206V213.76H353.846ZM364.442 223V212.32H366.362V223H364.442ZM362.802 213.84V212.32H366.362V213.84H362.802ZM364.982 210.6C364.555 210.6 364.235 210.487 364.022 210.26C363.822 210.033 363.722 209.747 363.722 209.4C363.722 209.053 363.822 208.767 364.022 208.54C364.235 208.313 364.555 208.2 364.982 208.2C365.409 208.2 365.722 208.313 365.922 208.54C366.135 208.767 366.242 209.053 366.242 209.4C366.242 209.747 366.135 210.033 365.922 210.26C365.722 210.487 365.409 210.6 364.982 210.6ZM374.994 223.36C374.061 223.36 373.241 223.2 372.534 222.88C371.828 222.56 371.228 222.14 370.734 221.62C370.254 221.087 369.888 220.493 369.634 219.84C369.394 219.187 369.274 218.52 369.274 217.84V217.48C369.274 216.8 369.401 216.133 369.654 215.48C369.908 214.813 370.281 214.22 370.774 213.7C371.268 213.167 371.868 212.747 372.574 212.44C373.281 212.12 374.088 211.96 374.994 211.96C375.901 211.96 376.708 212.12 377.414 212.44C378.121 212.747 378.721 213.167 379.214 213.7C379.708 214.22 380.081 214.813 380.334 215.48C380.588 216.133 380.714 216.8 380.714 217.48V217.84C380.714 218.52 380.588 219.187 380.334 219.84C380.094 220.493 379.728 221.087 379.234 221.62C378.754 222.14 378.161 222.56 377.454 222.88C376.748 223.2 375.928 223.36 374.994 223.36ZM374.994 221.64C375.794 221.64 376.474 221.467 377.034 221.12C377.608 220.76 378.041 220.28 378.334 219.68C378.641 219.08 378.794 218.407 378.794 217.66C378.794 216.9 378.641 216.22 378.334 215.62C378.028 215.02 377.588 214.547 377.014 214.2C376.454 213.853 375.781 213.68 374.994 213.68C374.221 213.68 373.548 213.853 372.974 214.2C372.401 214.547 371.961 215.02 371.654 215.62C371.348 216.22 371.194 216.9 371.194 217.66C371.194 218.407 371.341 219.08 371.634 219.68C371.941 220.28 372.374 220.76 372.934 221.12C373.508 221.467 374.194 221.64 374.994 221.64ZM383.59 223V212.32H385.11V216.9H384.87C384.87 215.847 385.01 214.96 385.29 214.24C385.583 213.507 386.023 212.953 386.61 212.58C387.197 212.193 387.937 212 388.83 212H388.91C390.257 212 391.25 212.42 391.89 213.26C392.543 214.1 392.87 215.313 392.87 216.9V223H390.95V216.5C390.95 215.673 390.717 215.013 390.25 214.52C389.783 214.013 389.143 213.76 388.33 213.76C387.49 213.76 386.81 214.02 386.29 214.54C385.77 215.06 385.51 215.753 385.51 216.62V223H383.59ZM396.523 218.64V208.4H398.483V218.64H396.523ZM396.343 223V220.56H398.663V223H396.343Z" fill="#CAC6DD"/>
</svg>
