<svg width="42" height="11" viewBox="0 0 42 11" fill="none" xmlns="http://www.w3.org/2000/svg">
<path d="M0.461672 10L3.55567 0.816H4.87167L7.96567 10H6.73367L5.13767 4.862C4.97901 4.34867 4.82034 3.84 4.66167 3.336C4.51234 2.82267 4.36767 2.3 4.22767 1.768H4.17167C4.02234 2.3 3.87301 2.82267 3.72367 3.336C3.57434 3.84 3.42034 4.34867 3.26167 4.862L1.65167 10H0.461672ZM2.08567 7.2V6.262H6.29967V7.2H2.08567ZM9.7942 10V0.816H12.3982C13.0235 0.816 13.5695 0.890666 14.0362 1.04C14.5122 1.18933 14.8809 1.42733 15.1422 1.754C15.4129 2.08067 15.5482 2.51467 15.5482 3.056C15.5482 3.51333 15.4175 3.92867 15.1562 4.302C14.8949 4.666 14.4889 4.918 13.9382 5.058V5.114C14.6102 5.21667 15.1329 5.45 15.5062 5.814C15.8795 6.178 16.0662 6.67733 16.0662 7.312C16.0662 7.90933 15.9215 8.40867 15.6322 8.81C15.3429 9.21133 14.9369 9.51 14.4142 9.706C13.9009 9.902 13.2989 10 12.6082 10H9.7942ZM10.9562 4.68H12.2022C12.9862 4.68 13.5462 4.554 13.8822 4.302C14.2275 4.05 14.4002 3.66733 14.4002 3.154C14.4002 2.65933 14.2182 2.30933 13.8542 2.104C13.4995 1.89867 12.9675 1.796 12.2582 1.796H10.9562V4.68ZM10.9562 9.02H12.4402C13.2242 9.02 13.8309 8.88467 14.2602 8.614C14.6989 8.334 14.9182 7.88133 14.9182 7.256C14.9182 6.68667 14.7035 6.28067 14.2742 6.038C13.8542 5.786 13.2429 5.66 12.4402 5.66H10.9562V9.02ZM21.0027 10.168C20.3121 10.168 19.7007 9.97667 19.1687 9.594C18.6367 9.21133 18.2214 8.66533 17.9227 7.956C17.6241 7.23733 17.4747 6.374 17.4747 5.366C17.4747 4.37667 17.6241 3.532 17.9227 2.832C18.2214 2.12267 18.6367 1.58133 19.1687 1.208C19.7007 0.834666 20.3121 0.647999 21.0027 0.647999C21.6934 0.647999 22.3047 0.834666 22.8367 1.208C23.3687 1.58133 23.7841 2.12267 24.0827 2.832C24.3814 3.532 24.5307 4.37667 24.5307 5.366C24.5307 6.374 24.3814 7.23733 24.0827 7.956C23.7841 8.66533 23.3687 9.21133 22.8367 9.594C22.3047 9.97667 21.6934 10.168 21.0027 10.168ZM21.0027 9.146C21.4694 9.146 21.8754 8.99667 22.2207 8.698C22.5754 8.39 22.8461 7.956 23.0327 7.396C23.2287 6.82667 23.3267 6.15 23.3267 5.366C23.3267 4.59133 23.2287 3.92867 23.0327 3.378C22.8461 2.82733 22.5754 2.40733 22.2207 2.118C21.8754 1.81933 21.4694 1.67 21.0027 1.67C20.5361 1.67 20.1254 1.81933 19.7707 2.118C19.4254 2.40733 19.1547 2.82733 18.9587 3.378C18.7721 3.92867 18.6787 4.59133 18.6787 5.366C18.6787 6.15 18.7721 6.82667 18.9587 7.396C19.1547 7.956 19.4254 8.39 19.7707 8.698C20.1254 8.99667 20.5361 9.146 21.0027 9.146ZM29.4113 10.168C28.9633 10.168 28.5479 10.1027 28.1653 9.972C27.7919 9.832 27.4653 9.622 27.1853 9.342C26.9053 9.05267 26.6859 8.67467 26.5273 8.208C26.3779 7.74133 26.3033 7.18133 26.3033 6.528V0.816H27.4793V6.556C27.4793 7.19067 27.5633 7.69933 27.7313 8.082C27.8993 8.45533 28.1279 8.726 28.4173 8.894C28.7159 9.062 29.0473 9.146 29.4113 9.146C29.7846 9.146 30.1159 9.062 30.4053 8.894C30.7039 8.726 30.9373 8.45533 31.1053 8.082C31.2733 7.69933 31.3573 7.19067 31.3573 6.556V0.816H32.4913V6.528C32.4913 7.18133 32.4119 7.74133 32.2533 8.208C32.1039 8.67467 31.8893 9.05267 31.6093 9.342C31.3386 9.622 31.0166 9.832 30.6433 9.972C30.2699 10.1027 29.8593 10.168 29.4113 10.168ZM37.2038 10V1.796H34.1798V0.816H41.4038V1.796H38.3798V10H37.2038Z" fill="#CAD1E9"/>
</svg>
