<svg width="163" height="24" viewBox="0 0 163 24" fill="none" xmlns="http://www.w3.org/2000/svg">
<path d="M0.307352 23.5137L7.23984 1.24774H13.2503L20.1828 23.5137H14.8553L11.9867 12.2441C11.7135 11.1285 11.4175 9.94466 11.0988 8.69249C10.7801 7.44031 10.4841 6.23367 10.2109 5.07257H10.0743C9.80111 6.23367 9.51652 7.44031 9.22055 8.69249C8.92458 9.94466 8.62862 11.1285 8.33265 12.2441L5.42988 23.5137H0.307352ZM4.88348 18.2204V14.2931H15.5383V18.2204H4.88348ZM32.6342 23.9235C31.2455 23.9235 29.925 23.6844 28.6728 23.2063C27.4434 22.7282 26.3506 22.0111 25.3944 21.0549C24.4382 20.0759 23.6869 18.8806 23.1405 17.4691C22.5941 16.0348 22.3209 14.3842 22.3209 12.5173C22.3209 10.0585 22.7876 7.96395 23.721 6.23367C24.6773 4.48063 25.9522 3.14877 27.5459 2.2381C29.1623 1.30466 30.9609 0.837941 32.9416 0.837941C34.3531 0.837941 35.6281 1.13391 36.7664 1.72585C37.9048 2.29502 38.8496 2.94387 39.6009 3.67241L36.8347 6.78008C36.3111 6.27921 35.7305 5.89217 35.0931 5.61897C34.4784 5.323 33.7612 5.17502 32.9416 5.17502C31.8943 5.17502 30.9609 5.47098 30.1413 6.06292C29.3217 6.63209 28.6728 7.4517 28.1947 8.52174C27.7166 9.59177 27.4776 10.8667 27.4776 12.3466C27.4776 13.8719 27.7166 15.181 28.1947 16.2738C28.6728 17.3439 29.3331 18.1635 30.1754 18.7326C31.0406 19.3018 32.0309 19.5864 33.1465 19.5864C33.9661 19.5864 34.706 19.4043 35.3663 19.04C36.0265 18.6757 36.6298 18.1976 37.1762 17.6057L39.9424 20.6451C39.0317 21.7151 37.9617 22.5347 36.7323 23.1039C35.5029 23.6503 34.1369 23.9235 32.6342 23.9235ZM42.9343 23.5137V1.24774H48.1934L50.379 9.13644L51.1303 12.21H51.2669L52.0182 9.13644L54.2038 1.24774H59.463V23.5137H55.2283V16.6153C55.2283 16.0006 55.2511 15.2379 55.2966 14.3273C55.3422 13.3938 55.3991 12.4262 55.4674 11.4245C55.5357 10.4228 55.604 9.46656 55.6723 8.55589C55.7634 7.64521 55.8317 6.89391 55.8772 6.30197H55.7747L54.0672 12.2441L52.3597 17.6057H49.9009L48.1592 12.2441L46.5542 6.30197H46.4517C46.4973 6.89391 46.5542 7.64521 46.6225 8.55589C46.7136 9.46656 46.7932 10.4228 46.8615 11.4245C46.9298 12.4262 46.9868 13.3938 47.0323 14.3273C47.0778 15.2379 47.1006 16.0006 47.1006 16.6153V23.5137H42.9343ZM92.0839 23.9235C90.5813 23.9235 89.09 23.6503 87.6102 23.1039C86.1531 22.5575 84.8213 21.7606 83.6146 20.7134L86.5174 17.2642C87.3598 17.9472 88.2818 18.505 89.2836 18.9375C90.3081 19.3701 91.3553 19.5864 92.4254 19.5864C93.4954 19.5864 94.2809 19.4043 94.7817 19.04C95.3054 18.6757 95.5672 18.209 95.5672 17.6398C95.5672 17.1162 95.4306 16.7064 95.1574 16.4104C94.8842 16.0917 94.4858 15.8185 93.9621 15.5908C93.4385 15.3404 92.8238 15.0672 92.118 14.7712L89.2494 13.5418C88.4298 13.2231 87.6557 12.8019 86.9272 12.2783C86.1987 11.7319 85.6067 11.0716 85.1514 10.2975C84.7188 9.50071 84.5025 8.55589 84.5025 7.46308C84.5025 6.23367 84.844 5.12948 85.527 4.15051C86.2328 3.14877 87.189 2.35193 88.3956 1.76C89.6251 1.14529 91.048 0.837941 92.6644 0.837941C94.0077 0.837941 95.3281 1.08838 96.6258 1.58925C97.9236 2.09012 99.0733 2.81865 100.075 3.77486L97.5138 6.95083C96.7397 6.38166 95.9656 5.94909 95.1915 5.65312C94.4175 5.33438 93.484 5.17502 92.3912 5.17502C91.5716 5.17502 90.9 5.34577 90.3764 5.68727C89.8527 6.02877 89.5909 6.52964 89.5909 7.18988C89.5909 7.62245 89.7503 7.98672 90.069 8.28268C90.3877 8.57865 90.8203 8.84047 91.3667 9.06814C91.9131 9.29581 92.5392 9.54624 93.245 9.81944L95.9428 10.9805C96.9446 11.3448 97.7983 11.8002 98.5041 12.3466C99.2099 12.8702 99.7563 13.519 100.143 14.2931C100.53 15.0672 100.724 15.9779 100.724 17.0251C100.724 18.2545 100.382 19.3929 99.6994 20.4402C99.0391 21.4874 98.0602 22.3298 96.7624 22.9673C95.4875 23.6047 93.928 23.9235 92.0839 23.9235ZM104.911 23.5137V19.279H110.102V5.48237H104.911V1.24774H120.347V5.48237H115.156V19.279H120.347V23.5137H104.911ZM133.037 23.9235C131.535 23.9235 130.044 23.6503 128.564 23.1039C127.107 22.5575 125.775 21.7606 124.568 20.7134L127.471 17.2642C128.313 17.9472 129.235 18.505 130.237 18.9375C131.262 19.3701 132.309 19.5864 133.379 19.5864C134.449 19.5864 135.234 19.4043 135.735 19.04C136.259 18.6757 136.521 18.209 136.521 17.6398C136.521 17.1162 136.384 16.7064 136.111 16.4104C135.838 16.0917 135.439 15.8185 134.916 15.5908C134.392 15.3404 133.777 15.0672 133.072 14.7712L130.203 13.5418C129.383 13.2231 128.609 12.8019 127.881 12.2783C127.152 11.7319 126.56 11.0716 126.105 10.2975C125.672 9.50071 125.456 8.55589 125.456 7.46308C125.456 6.23367 125.798 5.12948 126.481 4.15051C127.186 3.14877 128.143 2.35193 129.349 1.76C130.579 1.14529 132.002 0.837941 133.618 0.837941C134.961 0.837941 136.282 1.08838 137.579 1.58925C138.877 2.09012 140.027 2.81865 141.029 3.77486L138.467 6.95083C137.693 6.38166 136.919 5.94909 136.145 5.65312C135.371 5.33438 134.438 5.17502 133.345 5.17502C132.525 5.17502 131.854 5.34577 131.33 5.68727C130.806 6.02877 130.544 6.52964 130.544 7.18988C130.544 7.62245 130.704 7.98672 131.023 8.28268C131.341 8.57865 131.774 8.84047 132.32 9.06814C132.867 9.29581 133.493 9.54624 134.199 9.81944L136.896 10.9805C137.898 11.3448 138.752 11.8002 139.458 12.3466C140.163 12.8702 140.71 13.519 141.097 14.2931C141.484 15.0672 141.677 15.9779 141.677 17.0251C141.677 18.2545 141.336 19.3929 140.653 20.4402C139.993 21.4874 139.014 22.3298 137.716 22.9673C136.441 23.6047 134.882 23.9235 133.037 23.9235ZM151.055 23.5137V5.48237H144.396V1.24774H162.769V5.48237H156.11V23.5137H151.055Z" fill="url(#paint0_linear_5_5901)"/>
<defs>
<linearGradient id="paint0_linear_5_5901" x1="0" y1="11.0137" x2="858.498" y2="11.0137" gradientUnits="userSpaceOnUse">
<stop stop-color="#410FD7"/>
<stop offset="0.316832" stop-color="#FF359D"/>
</linearGradient>
</defs>
</svg>
