<svg width="514" height="86" viewBox="0 0 514 86" fill="none" xmlns="http://www.w3.org/2000/svg">
<path d="M50.2471 30V1.20744H55.8479V30H50.2471ZM62.5992 30V8.58307H66.9378V17.773H66.5434C66.5434 15.5906 66.8326 13.7762 67.4111 12.33C67.9896 10.8576 68.8442 9.75318 69.9748 9.01693C71.1318 8.28068 72.5648 7.91256 74.274 7.91256H74.5106C77.0612 7.91256 78.9939 8.74084 80.3086 10.3974C81.6233 12.0277 82.2807 14.4731 82.2807 17.7336V30H76.7983V17.2603C76.7983 15.9455 76.417 14.8806 75.6545 14.0655C74.9182 13.2504 73.8927 12.8428 72.578 12.8428C71.237 12.8428 70.1457 13.2635 69.3043 14.1049C68.4892 14.9201 68.0816 16.0244 68.0816 17.418V30H62.5992ZM95.9448 30.6705C92.9998 30.6705 90.6859 30.0526 89.0031 28.8167C87.3465 27.5546 86.4788 25.8192 86.3999 23.6104H91.3301C91.409 24.3467 91.8166 25.0172 92.5528 25.622C93.2891 26.2267 94.446 26.5291 96.0237 26.5291C97.3384 26.5291 98.3771 26.2925 99.1396 25.8192C99.9285 25.3459 100.323 24.7016 100.323 23.8865C100.323 23.1766 100.02 22.6112 99.4157 22.1905C98.8372 21.7698 97.838 21.4937 96.4181 21.3622L94.5249 21.165C92.1321 20.9021 90.2915 20.2184 89.0031 19.114C87.7146 18.0097 87.0704 16.5372 87.0704 14.6966C87.0704 13.2241 87.4385 11.9882 88.1748 10.989C88.911 9.98983 89.9234 9.24043 91.2118 8.74084C92.5265 8.21495 94.0253 7.952 95.7082 7.952C98.3376 7.952 100.467 8.53048 102.098 9.68744C103.728 10.8444 104.583 12.5404 104.661 14.7754H99.7312C99.6787 14.0392 99.3105 13.4081 98.6269 12.8822C97.9432 12.3563 96.9572 12.0934 95.6687 12.0934C94.5118 12.0934 93.6178 12.3169 92.9867 12.7639C92.3556 13.2109 92.0401 13.7894 92.0401 14.4993C92.0401 15.183 92.2899 15.7089 92.7895 16.077C93.3154 16.4451 94.1568 16.6949 95.3138 16.8264L97.207 17.0236C99.7312 17.2866 101.703 17.9834 103.123 19.114C104.569 20.2447 105.293 21.7698 105.293 23.6893C105.293 25.1092 104.898 26.3451 104.109 27.3968C103.347 28.4223 102.269 29.2243 100.875 29.8028C99.4814 30.3813 97.838 30.6705 95.9448 30.6705ZM109.822 37.8884V8.58307H114.16V17.8125L113.49 17.773C113.595 15.5906 114.042 13.7631 114.831 12.2906C115.646 10.8181 116.724 9.72688 118.065 9.01693C119.406 8.28068 120.905 7.91256 122.561 7.91256C124.086 7.91256 125.454 8.18865 126.663 8.74084C127.899 9.29302 128.951 10.0687 129.819 11.0679C130.713 12.0671 131.396 13.2372 131.87 14.5782C132.343 15.893 132.58 17.3129 132.58 18.838V19.6662C132.58 21.2176 132.343 22.6638 131.87 24.0048C131.423 25.3196 130.752 26.4897 129.858 27.5152C128.99 28.5144 127.939 29.3032 126.703 29.8817C125.467 30.4339 124.086 30.71 122.561 30.71C120.957 30.71 119.485 30.3813 118.144 29.7239C116.829 29.0402 115.764 28.0016 114.949 26.608C114.134 25.1881 113.674 23.3606 113.569 21.1256L115.304 23.7682V37.8884H109.822ZM121.181 26.0953C122.364 26.0953 123.39 25.806 124.257 25.2275C125.151 24.6491 125.848 23.8471 126.348 22.8216C126.847 21.7698 127.097 20.5865 127.097 19.2718C127.097 17.9045 126.847 16.7212 126.348 15.722C125.848 14.7229 125.151 13.9472 124.257 13.395C123.39 12.8165 122.364 12.5273 121.181 12.5273C120.103 12.5273 119.104 12.7639 118.183 13.2372C117.289 13.7105 116.553 14.4073 115.975 15.3276C115.422 16.2479 115.146 17.3523 115.146 18.6407V20.2184C115.146 21.4543 115.435 22.506 116.014 23.3738C116.592 24.2415 117.342 24.912 118.262 25.3853C119.182 25.8586 120.155 26.0953 121.181 26.0953ZM138.426 30V8.58307H143.908V30H138.426ZM135.428 12.685V8.58307H143.908V12.685H135.428ZM140.437 6.01935C139.359 6.01935 138.557 5.74325 138.031 5.19107C137.532 4.61259 137.282 3.90263 137.282 3.06121C137.282 2.16719 137.532 1.44409 138.031 0.891906C138.557 0.339719 139.359 0.0636256 140.437 0.0636256C141.515 0.0636256 142.304 0.339719 142.804 0.891906C143.303 1.44409 143.553 2.16719 143.553 3.06121C143.553 3.90263 143.303 4.61259 142.804 5.19107C142.304 5.74325 141.515 6.01935 140.437 6.01935ZM150.226 30V8.58307H154.565V17.6547H154.447C154.447 14.5782 155.104 12.2512 156.419 10.6735C157.733 9.09581 159.666 8.30698 162.217 8.30698H163.006V13.0794H161.507C159.666 13.0794 158.233 13.579 157.208 14.5782C156.208 15.5511 155.709 16.971 155.709 18.838V30H150.226ZM167.699 30V8.58307H173.181V30H167.699ZM164.701 12.685V8.58307H173.181V12.685H164.701ZM169.71 6.01935C168.632 6.01935 167.83 5.74325 167.304 5.19107C166.805 4.61259 166.555 3.90263 166.555 3.06121C166.555 2.16719 166.805 1.44409 167.304 0.891906C167.83 0.339719 168.632 0.0636256 169.71 0.0636256C170.788 0.0636256 171.577 0.339719 172.077 0.891906C172.576 1.44409 172.826 2.16719 172.826 3.06121C172.826 3.90263 172.576 4.61259 172.077 5.19107C171.577 5.74325 170.788 6.01935 169.71 6.01935ZM179.5 30V8.58307H183.838V17.773H183.444C183.444 15.5906 183.733 13.7762 184.312 12.33C184.89 10.8576 185.745 9.75318 186.875 9.01693C188.032 8.28068 189.465 7.91256 191.174 7.91256H191.411C193.962 7.91256 195.894 8.74084 197.209 10.3974C198.524 12.0277 199.181 14.4731 199.181 17.7336V30H193.699V17.2603C193.699 15.9455 193.317 14.8806 192.555 14.0655C191.819 13.2504 190.793 12.8428 189.478 12.8428C188.137 12.8428 187.046 13.2635 186.205 14.1049C185.39 14.9201 184.982 16.0244 184.982 17.418V30H179.5ZM213.437 38.4406C212.411 38.4406 211.36 38.4011 210.282 38.3222C209.23 38.2433 208.244 38.1382 207.323 38.0067V33.4314C208.27 33.5366 209.282 33.6287 210.36 33.7075C211.438 33.8127 212.451 33.8653 213.397 33.8653C215.159 33.8653 216.579 33.6549 217.657 33.2342C218.762 32.8135 219.564 32.143 220.063 31.2227C220.589 30.3287 220.852 29.1849 220.852 27.7913V23.571L222.035 20.8889C221.956 22.861 221.549 24.5439 220.812 25.9375C220.076 27.3048 219.077 28.3566 217.815 29.0928C216.553 29.8028 215.093 30.1578 213.437 30.1578C211.964 30.1578 210.623 29.8817 209.414 29.3295C208.231 28.7773 207.205 28.0148 206.337 27.0419C205.496 26.069 204.839 24.9251 204.365 23.6104C203.892 22.2957 203.655 20.8889 203.655 19.3901V18.5619C203.655 17.0631 203.892 15.6695 204.365 14.381C204.865 13.0663 205.562 11.9225 206.456 10.9496C207.35 9.97668 208.415 9.22729 209.65 8.70139C210.886 8.1755 212.254 7.91256 213.752 7.91256C215.514 7.91256 217.039 8.29383 218.328 9.05637C219.642 9.81891 220.668 10.9233 221.404 12.3695C222.14 13.8157 222.548 15.5906 222.627 17.6941L221.68 17.8519V8.58307H226.019V27.4757C226.019 30.0789 225.572 32.1824 224.678 33.7864C223.784 35.3904 222.403 36.5605 220.536 37.2967C218.696 38.0593 216.329 38.4406 213.437 38.4406ZM215.015 25.4642C216.066 25.4642 217.026 25.2275 217.894 24.7542C218.762 24.2809 219.458 23.5973 219.984 22.7033C220.51 21.8092 220.773 20.7312 220.773 19.469V18.0886C220.773 16.879 220.497 15.8535 219.945 15.0121C219.419 14.1707 218.722 13.5396 217.854 13.1189C216.987 12.6719 216.04 12.4484 215.015 12.4484C213.858 12.4484 212.832 12.7245 211.938 13.2767C211.07 13.8025 210.387 14.5519 209.887 15.5248C209.388 16.4977 209.138 17.6547 209.138 18.9957C209.138 20.3104 209.388 21.4543 209.887 22.4272C210.387 23.4001 211.07 24.1495 211.938 24.6753C212.832 25.2012 213.858 25.4642 215.015 25.4642ZM241.537 30V8.58307H247.019V30H241.537ZM238.539 12.685V8.58307H247.019V12.685H238.539ZM243.548 6.01935C242.47 6.01935 241.668 5.74325 241.142 5.19107C240.643 4.61259 240.393 3.90263 240.393 3.06121C240.393 2.16719 240.643 1.44409 241.142 0.891906C241.668 0.339719 242.47 0.0636256 243.548 0.0636256C244.626 0.0636256 245.415 0.339719 245.915 0.891906C246.414 1.44409 246.664 2.16719 246.664 3.06121C246.664 3.90263 246.414 4.61259 245.915 5.19107C245.415 5.74325 244.626 6.01935 243.548 6.01935ZM253.338 30V8.58307H257.676V17.773H257.282C257.282 15.5906 257.571 13.7762 258.149 12.33C258.728 10.8576 259.583 9.75318 260.713 9.01693C261.87 8.28068 263.303 7.91256 265.012 7.91256H265.249C267.8 7.91256 269.732 8.74084 271.047 10.3974C272.362 12.0277 273.019 14.4731 273.019 17.7336V30H267.537V17.2603C267.537 15.9455 267.155 14.8806 266.393 14.0655C265.657 13.2504 264.631 12.8428 263.316 12.8428C261.975 12.8428 260.884 13.2635 260.043 14.1049C259.228 14.9201 258.82 16.0244 258.82 17.418V30H253.338ZM278.913 30V8.58307H283.252V17.773H282.857C282.857 15.5906 283.147 13.7762 283.725 12.33C284.304 10.8576 285.158 9.75318 286.289 9.01693C287.446 8.28068 288.879 7.91256 290.588 7.91256H290.825C293.375 7.91256 295.308 8.74084 296.623 10.3974C297.937 12.0277 298.595 14.4731 298.595 17.7336V30H293.112V17.2603C293.112 15.9455 292.731 14.8806 291.968 14.0655C291.232 13.2504 290.207 12.8428 288.892 12.8428C287.551 12.8428 286.46 13.2635 285.618 14.1049C284.803 14.9201 284.396 16.0244 284.396 17.418V30H278.913ZM314.783 30.7494C312.89 30.7494 311.22 30.447 309.774 29.8422C308.328 29.2375 307.105 28.4223 306.106 27.3968C305.107 26.3451 304.344 25.1618 303.818 23.8471C303.319 22.5323 303.069 21.165 303.069 19.7451V18.9168C303.069 17.4443 303.332 16.0507 303.858 14.736C304.41 13.395 305.186 12.2117 306.185 11.1862C307.21 10.1344 308.446 9.31932 309.892 8.74084C311.338 8.13606 312.969 7.83367 314.783 7.83367C316.597 7.83367 318.228 8.13606 319.674 8.74084C321.12 9.31932 322.343 10.1344 323.342 11.1862C324.367 12.2117 325.143 13.395 325.669 14.736C326.195 16.0507 326.458 17.4443 326.458 18.9168V19.7451C326.458 21.165 326.195 22.5323 325.669 23.8471C325.169 25.1618 324.42 26.3451 323.421 27.3968C322.422 28.4223 321.199 29.2375 319.753 29.8422C318.307 30.447 316.65 30.7494 314.783 30.7494ZM314.783 26.0558C316.124 26.0558 317.255 25.7666 318.175 25.1881C319.095 24.5833 319.792 23.7813 320.265 22.7821C320.739 21.7567 320.975 20.5997 320.975 19.3113C320.975 17.9965 320.726 16.8396 320.226 15.8404C319.753 14.8149 319.043 14.0129 318.096 13.4344C317.176 12.8296 316.071 12.5273 314.783 12.5273C313.495 12.5273 312.377 12.8296 311.43 13.4344C310.51 14.0129 309.8 14.8149 309.301 15.8404C308.801 16.8396 308.551 17.9965 308.551 19.3113C308.551 20.5997 308.788 21.7567 309.261 22.7821C309.761 23.7813 310.471 24.5833 311.391 25.1881C312.311 25.7666 313.442 26.0558 314.783 26.0558ZM335.095 30L328.39 8.58307H334.03L340.459 30H335.095ZM336.712 30V25.5036H342.51V30H336.712ZM338.882 30L344.404 8.58307H349.689L343.891 30H338.882ZM366.536 30V23.6499H365.629V16.5898C365.629 15.3539 365.327 14.4336 364.722 13.8288C364.117 13.2241 363.184 12.9217 361.922 12.9217C361.264 12.9217 360.475 12.9348 359.555 12.9611C358.635 12.9874 357.701 13.0269 356.755 13.0794C355.834 13.1057 355.006 13.1452 354.27 13.1978V8.54363C354.875 8.49104 355.558 8.43845 356.321 8.38586C357.083 8.33327 357.859 8.30698 358.648 8.30698C359.463 8.28068 360.226 8.26754 360.936 8.26754C363.144 8.26754 364.972 8.55677 366.418 9.13525C367.89 9.71374 368.995 10.6209 369.731 11.8567C370.494 13.0926 370.875 14.7097 370.875 16.7081V30H366.536ZM359.634 30.5522C358.083 30.5522 356.715 30.2761 355.532 29.7239C354.375 29.1717 353.468 28.3829 352.811 27.3574C352.179 26.3319 351.864 25.0961 351.864 23.6499C351.864 22.0722 352.245 20.7838 353.008 19.7846C353.797 18.7854 354.888 18.036 356.281 17.5364C357.701 17.0368 359.358 16.787 361.251 16.787H366.221V20.0607H361.172C359.91 20.0607 358.937 20.3762 358.254 21.0073C357.596 21.612 357.267 22.4009 357.267 23.3738C357.267 24.3467 357.596 25.1355 358.254 25.7403C358.937 26.3451 359.91 26.6474 361.172 26.6474C361.935 26.6474 362.632 26.516 363.263 26.253C363.92 25.9638 364.459 25.4905 364.88 24.8331C365.327 24.1495 365.577 23.2291 365.629 22.0722L366.97 23.6104C366.839 25.1092 366.471 26.3713 365.866 27.3968C365.287 28.4223 364.472 29.2112 363.42 29.7633C362.395 30.2892 361.133 30.5522 359.634 30.5522ZM386.056 30.2761C384.084 30.2761 382.453 30.0263 381.165 29.5267C379.903 29.0008 378.956 28.1331 378.325 26.9235C377.694 25.6877 377.379 24.0311 377.379 21.9539L377.418 2.54846H382.545L382.506 22.3088C382.506 23.3606 382.782 24.1758 383.334 24.7542C383.913 25.3064 384.728 25.5825 385.78 25.5825H389.132V30.2761H386.056ZM373.987 12.6061V8.58307H389.132V12.6061H373.987ZM394.759 30V8.58307H400.242V30H394.759ZM391.762 12.685V8.58307H400.242V12.685H391.762ZM396.771 6.01935C395.693 6.01935 394.891 5.74325 394.365 5.19107C393.865 4.61259 393.615 3.90263 393.615 3.06121C393.615 2.16719 393.865 1.44409 394.365 0.891906C394.891 0.339719 395.693 0.0636256 396.771 0.0636256C397.849 0.0636256 398.638 0.339719 399.137 0.891906C399.637 1.44409 399.887 2.16719 399.887 3.06121C399.887 3.90263 399.637 4.61259 399.137 5.19107C398.638 5.74325 397.849 6.01935 396.771 6.01935ZM416.854 30.7494C414.961 30.7494 413.291 30.447 411.845 29.8422C410.399 29.2375 409.176 28.4223 408.177 27.3968C407.178 26.3451 406.415 25.1618 405.889 23.8471C405.39 22.5323 405.14 21.165 405.14 19.7451V18.9168C405.14 17.4443 405.403 16.0507 405.929 14.736C406.481 13.395 407.257 12.2117 408.256 11.1862C409.281 10.1344 410.517 9.31932 411.963 8.74084C413.41 8.13606 415.04 7.83367 416.854 7.83367C418.669 7.83367 420.299 8.13606 421.745 8.74084C423.191 9.31932 424.414 10.1344 425.413 11.1862C426.439 12.2117 427.214 13.395 427.74 14.736C428.266 16.0507 428.529 17.4443 428.529 18.9168V19.7451C428.529 21.165 428.266 22.5323 427.74 23.8471C427.241 25.1618 426.491 26.3451 425.492 27.3968C424.493 28.4223 423.27 29.2375 421.824 29.8422C420.378 30.447 418.721 30.7494 416.854 30.7494ZM416.854 26.0558C418.195 26.0558 419.326 25.7666 420.246 25.1881C421.167 24.5833 421.863 23.7813 422.337 22.7821C422.81 21.7567 423.047 20.5997 423.047 19.3113C423.047 17.9965 422.797 16.8396 422.297 15.8404C421.824 14.8149 421.114 14.0129 420.167 13.4344C419.247 12.8296 418.143 12.5273 416.854 12.5273C415.566 12.5273 414.448 12.8296 413.502 13.4344C412.581 14.0129 411.871 14.8149 411.372 15.8404C410.872 16.8396 410.622 17.9965 410.622 19.3113C410.622 20.5997 410.859 21.7567 411.332 22.7821C411.832 23.7813 412.542 24.5833 413.462 25.1881C414.383 25.7666 415.513 26.0558 416.854 26.0558ZM433.33 30V8.58307H437.668V17.773H437.274C437.274 15.5906 437.563 13.7762 438.141 12.33C438.72 10.8576 439.575 9.75318 440.705 9.01693C441.862 8.28068 443.295 7.91256 445.004 7.91256H445.241C447.792 7.91256 449.724 8.74084 451.039 10.3974C452.354 12.0277 453.011 14.4731 453.011 17.7336V30H447.529V17.2603C447.529 15.9455 447.147 14.8806 446.385 14.0655C445.649 13.2504 444.623 12.8428 443.308 12.8428C441.967 12.8428 440.876 13.2635 440.035 14.1049C439.22 14.9201 438.812 16.0244 438.812 17.418V30H433.33ZM460.562 36.5473L456.302 34.9302L460.325 23.4921L464.9 25.1881L460.562 36.5473ZM11.2682 77.7494C9.42762 77.7494 7.81051 77.4339 6.41689 76.8028C5.04958 76.1717 3.90576 75.3303 2.98545 74.2785C2.09144 73.2004 1.40778 72.004 0.934474 70.6893C0.487467 69.3746 0.263963 68.0335 0.263963 66.6662V65.9168C0.263963 64.4969 0.487467 63.1296 0.934474 61.8149C1.40778 60.4739 2.09144 59.2906 2.98545 58.2651C3.90576 57.2133 5.03643 56.3851 6.37745 55.7803C7.71847 55.1492 9.26985 54.8337 11.0316 54.8337C13.3455 54.8337 15.2782 55.3464 16.8295 56.3719C18.4072 57.3711 19.5905 58.699 20.3793 60.3555C21.1681 61.9858 21.5626 63.7475 21.5626 65.6407V67.6128H2.59103V64.2603H18.1311L16.4351 65.9168C16.4351 64.5495 16.2379 63.3794 15.8435 62.4065C15.4491 61.4336 14.8443 60.6842 14.0292 60.1583C13.2403 59.6324 12.2411 59.3695 11.0316 59.3695C9.82204 59.3695 8.79655 59.6456 7.95513 60.1978C7.1137 60.75 6.46948 61.5519 6.02247 62.6037C5.60176 63.6292 5.3914 64.8651 5.3914 66.3113C5.3914 67.6523 5.60176 68.8487 6.02247 69.9005C6.44319 70.926 7.0874 71.7411 7.95513 72.3459C8.82285 72.9243 9.92722 73.2136 11.2682 73.2136C12.6093 73.2136 13.7005 72.9506 14.5419 72.4247C15.3833 71.8726 15.9224 71.202 16.159 70.4132H21.2076C20.8921 71.8857 20.2873 73.1741 19.3933 74.2785C18.4992 75.3829 17.3554 76.2375 15.9618 76.8422C14.5945 77.447 13.03 77.7494 11.2682 77.7494ZM26.1424 77V55.5831H30.481V64.773H30.0866C30.0866 62.6169 30.3627 60.8157 30.9149 59.3695C31.4671 57.897 32.2822 56.7926 33.3603 56.0564C34.4647 55.2938 35.832 54.9126 37.4623 54.9126H37.6989C39.3555 54.9126 40.7228 55.2938 41.8009 56.0564C42.9052 56.7926 43.7204 57.897 44.2463 59.3695C44.7984 60.8157 45.0745 62.6169 45.0745 64.773H43.6941C43.6941 62.6169 43.9702 60.8157 44.5223 59.3695C45.1008 57.897 45.9291 56.7926 47.0072 56.0564C48.1116 55.2938 49.4789 54.9126 51.1091 54.9126H51.3458C53.0023 54.9126 54.3828 55.2938 55.4872 56.0564C56.5916 56.7926 57.4198 57.897 57.972 59.3695C58.5505 60.8157 58.8397 62.6169 58.8397 64.773V77H53.3573V64.2603C53.3573 62.9193 53.0155 61.8543 52.3318 61.0655C51.6482 60.2504 50.6753 59.8428 49.4131 59.8428C48.151 59.8428 47.1387 60.2635 46.3761 61.1049C45.6136 61.9201 45.2323 63.0244 45.2323 64.418V77H39.7499V64.2603C39.7499 62.9193 39.4081 61.8543 38.7244 61.0655C38.0407 60.2504 37.0678 59.8428 35.8057 59.8428C34.5436 59.8428 33.5312 60.2635 32.7687 61.1049C32.0061 61.9201 31.6249 63.0244 31.6249 64.418V77H26.1424ZM64.6984 84.8884V55.5831H69.037V64.8125L68.3665 64.773C68.4717 62.5906 68.9187 60.7631 69.7075 59.2906C70.5226 57.8181 71.6007 56.7269 72.9417 56.0169C74.2828 55.2807 75.7816 54.9126 77.4381 54.9126C78.9632 54.9126 80.3305 55.1887 81.5401 55.7408C82.7759 56.293 83.8277 57.0687 84.6954 58.0679C85.5894 59.0671 86.2731 60.2372 86.7464 61.5782C87.2197 62.893 87.4564 64.3129 87.4564 65.838V66.6662C87.4564 68.2176 87.2197 69.6638 86.7464 71.0048C86.2994 72.3196 85.6289 73.4897 84.7349 74.5152C83.8671 75.5144 82.8154 76.3032 81.5795 76.8817C80.3437 77.4339 78.9632 77.71 77.4381 77.71C75.8341 77.71 74.3617 77.3813 73.0206 76.7239C71.7059 76.0402 70.641 75.0016 69.8258 73.608C69.0107 72.1881 68.5506 70.3606 68.4454 68.1256L70.1808 70.7682V84.8884H64.6984ZM76.0577 73.0953C77.2409 73.0953 78.2664 72.806 79.1341 72.2275C80.0281 71.6491 80.7249 70.8471 81.2245 69.8216C81.7241 68.7698 81.9739 67.5865 81.9739 66.2718C81.9739 64.9045 81.7241 63.7212 81.2245 62.722C80.7249 61.7229 80.0281 60.9472 79.1341 60.395C78.2664 59.8165 77.2409 59.5273 76.0577 59.5273C74.9796 59.5273 73.9804 59.7639 73.0601 60.2372C72.1661 60.7105 71.4298 61.4073 70.8513 62.3276C70.2991 63.2479 70.023 64.3523 70.023 65.6407V67.2184C70.023 68.4543 70.3123 69.506 70.8908 70.3738C71.4692 71.2415 72.2186 71.912 73.139 72.3853C74.0593 72.8586 75.0322 73.0953 76.0577 73.0953ZM102.571 77.7494C100.678 77.7494 99.0083 77.447 97.5621 76.8422C96.1159 76.2375 94.8932 75.4223 93.894 74.3968C92.8948 73.3451 92.1323 72.1618 91.6064 70.8471C91.1068 69.5323 90.857 68.165 90.857 66.7451V65.9168C90.857 64.4443 91.1199 63.0507 91.6458 61.736C92.198 60.395 92.9737 59.2117 93.9729 58.1862C94.9984 57.1344 96.2342 56.3193 97.6804 55.7408C99.1266 55.1361 100.757 54.8337 102.571 54.8337C104.386 54.8337 106.016 55.1361 107.462 55.7408C108.908 56.3193 110.131 57.1344 111.13 58.1862C112.156 59.2117 112.931 60.395 113.457 61.736C113.983 63.0507 114.246 64.4443 114.246 65.9168V66.7451C114.246 68.165 113.983 69.5323 113.457 70.8471C112.958 72.1618 112.208 73.3451 111.209 74.3968C110.21 75.4223 108.987 76.2375 107.541 76.8422C106.095 77.447 104.438 77.7494 102.571 77.7494ZM102.571 73.0558C103.912 73.0558 105.043 72.7666 105.963 72.1881C106.884 71.5833 107.58 70.7813 108.054 69.7821C108.527 68.7567 108.764 67.5997 108.764 66.3113C108.764 64.9965 108.514 63.8396 108.014 62.8404C107.541 61.8149 106.831 61.0129 105.884 60.4344C104.964 59.8296 103.86 59.5273 102.571 59.5273C101.283 59.5273 100.165 59.8296 99.2187 60.4344C98.2983 61.0129 97.5884 61.8149 97.0888 62.8404C96.5892 63.8396 96.3394 64.9965 96.3394 66.3113C96.3394 67.5997 96.5761 68.7567 97.0494 69.7821C97.5489 70.7813 98.2589 71.5833 99.1792 72.1881C100.1 72.7666 101.23 73.0558 102.571 73.0558ZM125.92 77L129.983 56.293H136.294L140.987 77H136.649L131.876 56.4113H134.164L129.944 77H125.92ZM124.303 77L124.264 72.5036H128.642V77H124.303ZM122.095 77L116.257 55.5831H121.582L127.143 77H122.095ZM138.029 77V72.5036H142.407L142.368 77H138.029ZM139.765 77L144.695 55.5831H149.664L144.498 77H139.765ZM163.104 77.7494C161.263 77.7494 159.646 77.4339 158.253 76.8028C156.885 76.1717 155.742 75.3303 154.821 74.2785C153.927 73.2004 153.244 72.004 152.77 70.6893C152.323 69.3746 152.1 68.0335 152.1 66.6662V65.9168C152.1 64.4969 152.323 63.1296 152.77 61.8149C153.244 60.4739 153.927 59.2906 154.821 58.2651C155.742 57.2133 156.872 56.3851 158.213 55.7803C159.554 55.1492 161.106 54.8337 162.867 54.8337C165.181 54.8337 167.114 55.3464 168.665 56.3719C170.243 57.3711 171.426 58.699 172.215 60.3555C173.004 61.9858 173.398 63.7475 173.398 65.6407V67.6128H154.427V64.2603H169.967L168.271 65.9168C168.271 64.5495 168.074 63.3794 167.679 62.4065C167.285 61.4336 166.68 60.6842 165.865 60.1583C165.076 59.6324 164.077 59.3695 162.867 59.3695C161.658 59.3695 160.632 59.6456 159.791 60.1978C158.949 60.75 158.305 61.5519 157.858 62.6037C157.438 63.6292 157.227 64.8651 157.227 66.3113C157.227 67.6523 157.438 68.8487 157.858 69.9005C158.279 70.926 158.923 71.7411 159.791 72.3459C160.659 72.9243 161.763 73.2136 163.104 73.2136C164.445 73.2136 165.536 72.9506 166.378 72.4247C167.219 71.8726 167.758 71.202 167.995 70.4132H173.043C172.728 71.8857 172.123 73.1741 171.229 74.2785C170.335 75.3829 169.191 76.2375 167.798 76.8422C166.43 77.447 164.866 77.7494 163.104 77.7494ZM177.978 77V55.5831H182.317V64.6547H182.198C182.198 61.5782 182.856 59.2512 184.171 57.6735C185.485 56.0958 187.418 55.307 189.969 55.307H190.757V60.0794H189.259C187.418 60.0794 185.985 60.579 184.959 61.5782C183.96 62.5511 183.461 63.971 183.461 65.838V77H177.978ZM195.451 77V55.5831H200.933V77H195.451ZM192.453 59.685V55.5831H200.933V59.685H192.453ZM197.462 53.0193C196.384 53.0193 195.582 52.7433 195.056 52.1911C194.557 51.6126 194.307 50.9026 194.307 50.0612C194.307 49.1672 194.557 48.4441 195.056 47.8919C195.582 47.3397 196.384 47.0636 197.462 47.0636C198.54 47.0636 199.329 47.3397 199.829 47.8919C200.328 48.4441 200.578 49.1672 200.578 50.0612C200.578 50.9026 200.328 51.6126 199.829 52.1911C199.329 52.7433 198.54 53.0193 197.462 53.0193ZM207.251 77V55.5831H211.59V64.773H211.196C211.196 62.5906 211.485 60.7762 212.063 59.33C212.642 57.8576 213.496 56.7532 214.627 56.0169C215.784 55.2807 217.217 54.9126 218.926 54.9126H219.163C221.713 54.9126 223.646 55.7408 224.961 57.3974C226.276 59.0277 226.933 61.4731 226.933 64.7336V77H221.451V64.2603C221.451 62.9455 221.069 61.8806 220.307 61.0655C219.57 60.2504 218.545 59.8428 217.23 59.8428C215.889 59.8428 214.798 60.2635 213.957 61.1049C213.141 61.9201 212.734 63.0244 212.734 64.418V77H207.251ZM241.189 85.4406C240.163 85.4406 239.111 85.4011 238.033 85.3222C236.982 85.2433 235.996 85.1382 235.075 85.0067V80.4314C236.022 80.5366 237.034 80.6287 238.112 80.7075C239.19 80.8127 240.203 80.8653 241.149 80.8653C242.911 80.8653 244.331 80.6549 245.409 80.2342C246.513 79.8135 247.315 79.143 247.815 78.2227C248.341 77.3287 248.604 76.1849 248.604 74.7913V70.571L249.787 67.8889C249.708 69.861 249.301 71.5439 248.564 72.9375C247.828 74.3048 246.829 75.3566 245.567 76.0928C244.305 76.8028 242.845 77.1578 241.189 77.1578C239.716 77.1578 238.375 76.8817 237.166 76.3295C235.982 75.7773 234.957 75.0148 234.089 74.0419C233.248 73.069 232.59 71.9251 232.117 70.6104C231.644 69.2957 231.407 67.8889 231.407 66.3901V65.5619C231.407 64.0631 231.644 62.6695 232.117 61.381C232.617 60.0663 233.313 58.9225 234.207 57.9496C235.102 56.9767 236.166 56.2273 237.402 55.7014C238.638 55.1755 240.005 54.9126 241.504 54.9126C243.266 54.9126 244.791 55.2938 246.079 56.0564C247.394 56.8189 248.42 57.9233 249.156 59.3695C249.892 60.8157 250.3 62.5906 250.379 64.6941L249.432 64.8519V55.5831H253.771V74.4757C253.771 77.0789 253.324 79.1824 252.43 80.7864C251.536 82.3904 250.155 83.5605 248.288 84.2967C246.448 85.0593 244.081 85.4406 241.189 85.4406ZM242.766 72.4642C243.818 72.4642 244.778 72.2275 245.646 71.7542C246.513 71.2809 247.21 70.5973 247.736 69.7033C248.262 68.8092 248.525 67.7312 248.525 66.469V65.0886C248.525 63.879 248.249 62.8535 247.697 62.0121C247.171 61.1707 246.474 60.5396 245.606 60.1189C244.738 59.6719 243.792 59.4484 242.766 59.4484C241.609 59.4484 240.584 59.7245 239.69 60.2767C238.822 60.8025 238.139 61.5519 237.639 62.5248C237.139 63.4977 236.89 64.6547 236.89 65.9957C236.89 67.3104 237.139 68.4543 237.639 69.4272C238.139 70.4001 238.822 71.1495 239.69 71.6753C240.584 72.2012 241.609 72.4642 242.766 72.4642ZM277.571 77.2761C275.599 77.2761 273.969 77.0263 272.681 76.5267C271.418 76.0008 270.472 75.1331 269.841 73.9235C269.21 72.6877 268.894 71.0311 268.894 68.9539L268.934 49.5485H274.061L274.022 69.3088C274.022 70.3606 274.298 71.1758 274.85 71.7542C275.428 72.3064 276.243 72.5825 277.295 72.5825H280.648V77.2761H277.571ZM265.502 59.6061V55.5831H280.648V59.6061H265.502ZM294.718 77.7494C292.877 77.7494 291.26 77.4339 289.867 76.8028C288.499 76.1717 287.356 75.3303 286.435 74.2785C285.541 73.2004 284.858 72.004 284.384 70.6893C283.937 69.3746 283.714 68.0335 283.714 66.6662V65.9168C283.714 64.4969 283.937 63.1296 284.384 61.8149C284.858 60.4739 285.541 59.2906 286.435 58.2651C287.356 57.2133 288.486 56.3851 289.827 55.7803C291.168 55.1492 292.72 54.8337 294.481 54.8337C296.795 54.8337 298.728 55.3464 300.279 56.3719C301.857 57.3711 303.04 58.699 303.829 60.3555C304.618 61.9858 305.012 63.7475 305.012 65.6407V67.6128H286.041V64.2603H301.581L299.885 65.9168C299.885 64.5495 299.688 63.3794 299.293 62.4065C298.899 61.4336 298.294 60.6842 297.479 60.1583C296.69 59.6324 295.691 59.3695 294.481 59.3695C293.272 59.3695 292.246 59.6456 291.405 60.1978C290.564 60.75 289.919 61.5519 289.472 62.6037C289.052 63.6292 288.841 64.8651 288.841 66.3113C288.841 67.6523 289.052 68.8487 289.472 69.9005C289.893 70.926 290.537 71.7411 291.405 72.3459C292.273 72.9243 293.377 73.2136 294.718 73.2136C296.059 73.2136 297.15 72.9506 297.992 72.4247C298.833 71.8726 299.372 71.202 299.609 70.4132H304.657C304.342 71.8857 303.737 73.1741 302.843 74.2785C301.949 75.3829 300.805 76.2375 299.412 76.8422C298.044 77.447 296.48 77.7494 294.718 77.7494ZM319.098 77.7494C317.231 77.7494 315.614 77.4339 314.246 76.8028C312.905 76.1717 311.775 75.3303 310.854 74.2785C309.96 73.2267 309.29 72.0435 308.843 70.7287C308.396 69.414 308.172 68.073 308.172 66.7057V65.9563C308.172 64.5101 308.396 63.1296 308.843 61.8149C309.316 60.4739 310.013 59.2906 310.933 58.2651C311.854 57.2133 312.984 56.3851 314.325 55.7803C315.693 55.1492 317.27 54.8337 319.058 54.8337C320.925 54.8337 322.595 55.2018 324.067 55.938C325.54 56.648 326.71 57.6472 327.578 58.9356C328.472 60.2241 328.971 61.7229 329.077 63.432H323.752C323.62 62.3276 323.147 61.4073 322.332 60.6711C321.543 59.9348 320.452 59.5667 319.058 59.5667C317.849 59.5667 316.836 59.8559 316.021 60.4344C315.232 61.0129 314.641 61.8149 314.246 62.8404C313.852 63.8396 313.655 64.9965 313.655 66.3113C313.655 67.5734 313.839 68.7172 314.207 69.7427C314.601 70.7682 315.193 71.5702 315.982 72.1487C316.797 72.7271 317.836 73.0164 319.098 73.0164C320.044 73.0164 320.86 72.8455 321.543 72.5036C322.227 72.1618 322.766 71.6885 323.16 71.0837C323.581 70.4789 323.844 69.7953 323.949 69.0327H329.274C329.169 70.7682 328.656 72.2933 327.736 73.608C326.842 74.8964 325.645 75.9088 324.146 76.645C322.674 77.3813 320.991 77.7494 319.098 77.7494ZM333.666 77V48.2074H339.148V65.0097H338.201C338.201 62.8535 338.478 61.026 339.03 59.5273C339.582 58.0285 340.397 56.8847 341.475 56.0958C342.58 55.307 343.973 54.9126 345.656 54.9126H345.893C348.338 54.9126 350.192 55.754 351.454 57.4368C352.716 59.1197 353.347 61.5651 353.347 64.773V77H347.865V64.2603C347.865 62.893 347.47 61.8149 346.681 61.026C345.919 60.2372 344.907 59.8428 343.644 59.8428C342.303 59.8428 341.212 60.2898 340.371 61.1838C339.556 62.0515 339.148 63.1953 339.148 64.6153V77H333.666ZM368.03 77V48.2074H373.512V77H368.03ZM365.348 52.3094V48.2074H373.512V52.3094H365.348ZM389.355 77.7494C387.515 77.7494 385.898 77.4339 384.504 76.8028C383.137 76.1717 381.993 75.3303 381.073 74.2785C380.179 73.2004 379.495 72.004 379.022 70.6893C378.575 69.3746 378.351 68.0335 378.351 66.6662V65.9168C378.351 64.4969 378.575 63.1296 379.022 61.8149C379.495 60.4739 380.179 59.2906 381.073 58.2651C381.993 57.2133 383.124 56.3851 384.465 55.7803C385.806 55.1492 387.357 54.8337 389.119 54.8337C391.433 54.8337 393.365 55.3464 394.917 56.3719C396.494 57.3711 397.678 58.699 398.467 60.3555C399.255 61.9858 399.65 63.7475 399.65 65.6407V67.6128H380.678V64.2603H396.218L394.522 65.9168C394.522 64.5495 394.325 63.3794 393.931 62.4065C393.536 61.4336 392.932 60.6842 392.116 60.1583C391.328 59.6324 390.328 59.3695 389.119 59.3695C387.909 59.3695 386.884 59.6456 386.042 60.1978C385.201 60.75 384.557 61.5519 384.11 62.6037C383.689 63.6292 383.479 64.8651 383.479 66.3113C383.479 67.6523 383.689 68.8487 384.11 69.9005C384.53 70.926 385.175 71.7411 386.042 72.3459C386.91 72.9243 388.014 73.2136 389.355 73.2136C390.696 73.2136 391.788 72.9506 392.629 72.4247C393.471 71.8726 394.01 71.202 394.246 70.4132H399.295C398.979 71.8857 398.375 73.1741 397.48 74.2785C396.586 75.3829 395.443 76.2375 394.049 76.8422C392.682 77.447 391.117 77.7494 389.355 77.7494ZM417.206 77V70.6499H416.299V63.5898C416.299 62.3539 415.996 61.4336 415.392 60.8288C414.787 60.2241 413.853 59.9217 412.591 59.9217C411.934 59.9217 411.145 59.9348 410.225 59.9611C409.304 59.9874 408.371 60.0269 407.424 60.0794C406.504 60.1057 405.676 60.1452 404.94 60.1978V55.5436C405.544 55.491 406.228 55.4384 406.991 55.3859C407.753 55.3333 408.529 55.307 409.318 55.307C410.133 55.2807 410.895 55.2675 411.605 55.2675C413.814 55.2675 415.641 55.5568 417.088 56.1353C418.56 56.7137 419.665 57.6209 420.401 58.8567C421.163 60.0926 421.545 61.7097 421.545 63.7081V77H417.206ZM410.304 77.5522C408.752 77.5522 407.385 77.2761 406.202 76.7239C405.045 76.1717 404.138 75.3829 403.48 74.3574C402.849 73.3319 402.534 72.0961 402.534 70.6499C402.534 69.0722 402.915 67.7838 403.677 66.7846C404.466 65.7854 405.558 65.036 406.951 64.5364C408.371 64.0368 410.028 63.787 411.921 63.787H416.89V67.0607H411.842C410.58 67.0607 409.607 67.3762 408.923 68.0073C408.266 68.612 407.937 69.4009 407.937 70.3738C407.937 71.3467 408.266 72.1355 408.923 72.7403C409.607 73.3451 410.58 73.6474 411.842 73.6474C412.604 73.6474 413.301 73.516 413.932 73.253C414.59 72.9638 415.129 72.4905 415.549 71.8331C415.996 71.1495 416.246 70.2291 416.299 69.0722L417.64 70.6104C417.508 72.1092 417.14 73.3713 416.536 74.3968C415.957 75.4223 415.142 76.2112 414.09 76.7633C413.065 77.2892 411.802 77.5522 410.304 77.5522ZM436.292 77.71C434.793 77.71 433.412 77.4339 432.15 76.8817C430.888 76.3295 429.797 75.5538 428.876 74.5546C427.956 73.5554 427.246 72.3984 426.747 71.0837C426.247 69.7427 425.997 68.2965 425.997 66.7451V65.9168C425.997 64.3918 426.234 62.9587 426.707 61.6177C427.207 60.2767 427.89 59.1065 428.758 58.1073C429.652 57.1082 430.717 56.3325 431.953 55.7803C433.215 55.2018 434.609 54.9126 436.134 54.9126C437.817 54.9126 439.289 55.2807 440.551 56.0169C441.84 56.7269 442.865 57.805 443.628 59.2512C444.39 60.6974 444.811 62.5117 444.89 64.6941L443.273 62.8009V48.2074H448.755V77H444.417V67.8889H445.363C445.284 70.0714 444.837 71.8989 444.022 73.3713C443.207 74.8176 442.129 75.9088 440.788 76.645C439.473 77.355 437.974 77.71 436.292 77.71ZM437.514 73.0953C438.592 73.0953 439.578 72.8586 440.472 72.3853C441.366 71.8857 442.076 71.1758 442.602 70.2554C443.154 69.3088 443.431 68.2045 443.431 66.9423V65.3647C443.431 64.1025 443.154 63.0507 442.602 62.2093C442.05 61.3416 441.327 60.6842 440.433 60.2372C439.539 59.7639 438.566 59.5273 437.514 59.5273C436.331 59.5273 435.279 59.8165 434.359 60.395C433.465 60.9472 432.755 61.736 432.229 62.7615C431.729 63.787 431.48 64.9834 431.48 66.3507C431.48 67.718 431.743 68.9144 432.268 69.9399C432.794 70.9391 433.504 71.7148 434.398 72.267C435.319 72.8192 436.357 73.0953 437.514 73.0953ZM464.58 77.7494C462.739 77.7494 461.122 77.4339 459.729 76.8028C458.361 76.1717 457.218 75.3303 456.297 74.2785C455.403 73.2004 454.72 72.004 454.246 70.6893C453.799 69.3746 453.576 68.0335 453.576 66.6662V65.9168C453.576 64.4969 453.799 63.1296 454.246 61.8149C454.72 60.4739 455.403 59.2906 456.297 58.2651C457.218 57.2133 458.348 56.3851 459.689 55.7803C461.03 55.1492 462.582 54.8337 464.343 54.8337C466.657 54.8337 468.59 55.3464 470.141 56.3719C471.719 57.3711 472.902 58.699 473.691 60.3555C474.48 61.9858 474.874 63.7475 474.874 65.6407V67.6128H455.903V64.2603H471.443L469.747 65.9168C469.747 64.5495 469.55 63.3794 469.155 62.4065C468.761 61.4336 468.156 60.6842 467.341 60.1583C466.552 59.6324 465.553 59.3695 464.343 59.3695C463.134 59.3695 462.108 59.6456 461.267 60.1978C460.425 60.75 459.781 61.5519 459.334 62.6037C458.914 63.6292 458.703 64.8651 458.703 66.3113C458.703 67.6523 458.914 68.8487 459.334 69.9005C459.755 70.926 460.399 71.7411 461.267 72.3459C462.135 72.9243 463.239 73.2136 464.58 73.2136C465.921 73.2136 467.012 72.9506 467.854 72.4247C468.695 71.8726 469.234 71.202 469.471 70.4132H474.519C474.204 71.8857 473.599 73.1741 472.705 74.2785C471.811 75.3829 470.667 76.2375 469.274 76.8422C467.906 77.447 466.342 77.7494 464.58 77.7494ZM479.454 77V55.5831H483.793V64.6547H483.675C483.675 61.5782 484.332 59.2512 485.647 57.6735C486.961 56.0958 488.894 55.307 491.445 55.307H492.233V60.0794H490.735C488.894 60.0794 487.461 60.579 486.435 61.5782C485.436 62.5511 484.937 63.971 484.937 65.838V77H479.454ZM503.671 77.6705C500.726 77.6705 498.412 77.0526 496.729 75.8167C495.073 74.5546 494.205 72.8192 494.126 70.6104H499.057C499.135 71.3467 499.543 72.0172 500.279 72.622C501.015 73.2267 502.172 73.5291 503.75 73.5291C505.065 73.5291 506.103 73.2925 506.866 72.8192C507.655 72.3459 508.049 71.7016 508.049 70.8865C508.049 70.1766 507.747 69.6112 507.142 69.1905C506.564 68.7698 505.564 68.4937 504.145 68.3622L502.251 68.165C499.859 67.9021 498.018 67.2184 496.729 66.114C495.441 65.0097 494.797 63.5372 494.797 61.6966C494.797 60.2241 495.165 58.9882 495.901 57.989C496.637 56.9898 497.65 56.2404 498.938 55.7408C500.253 55.2149 501.752 54.952 503.435 54.952C506.064 54.952 508.194 55.5305 509.824 56.6874C511.454 57.8444 512.309 59.5404 512.388 61.7754H507.458C507.405 61.0392 507.037 60.4081 506.353 59.8822C505.67 59.3563 504.684 59.0934 503.395 59.0934C502.238 59.0934 501.344 59.3169 500.713 59.7639C500.082 60.2109 499.766 60.7894 499.766 61.4993C499.766 62.183 500.016 62.7089 500.516 63.077C501.042 63.4451 501.883 63.6949 503.04 63.8264L504.933 64.0236C507.458 64.2866 509.43 64.9834 510.85 66.114C512.296 67.2447 513.019 68.7698 513.019 70.6893C513.019 72.1092 512.625 73.3451 511.836 74.3968C511.073 75.4223 509.995 76.2243 508.601 76.8028C507.208 77.3813 505.564 77.6705 503.671 77.6705Z" fill="#CAD1E9"/>
</svg>
