<svg width="460" height="124" viewBox="0 0 460 124" fill="none" xmlns="http://www.w3.org/2000/svg">
<rect x="0.5" y="0.5" width="459" height="123" rx="9.5" stroke="url(#paint0_linear_2243_93)"/>
<path d="M13.488 68V56.832H20.304V58.016H14.832V61.76H19.984V62.944H14.832V66.816H20.304V68H13.488ZM22.8481 68V59.744H24.1281V61.088H24.1921C24.3948 60.6187 24.6775 60.2453 25.0401 59.968C25.4135 59.6907 25.9095 59.552 26.5281 59.552C27.3815 59.552 28.0535 59.8293 28.5441 60.384C29.0455 60.928 29.2961 61.7013 29.2961 62.704V68H28.0161V62.928C28.0161 61.4453 27.3921 60.704 26.1441 60.704C25.8881 60.704 25.6375 60.736 25.3921 60.8C25.1575 60.864 24.9441 60.96 24.7521 61.088C24.5601 61.216 24.4055 61.3813 24.2881 61.584C24.1815 61.776 24.1281 62.0053 24.1281 62.272V68H22.8481ZM33.9259 68C33.4779 68 33.1365 67.8773 32.9019 67.632C32.6779 67.376 32.5659 67.0453 32.5659 66.64V60.864H31.2059V59.744H31.9739C32.2512 59.744 32.4379 59.6907 32.5339 59.584C32.6405 59.4667 32.6939 59.2693 32.6939 58.992V57.456H33.8459V59.744H35.6539V60.864H33.8459V66.88H35.5259V68H33.9259ZM40.9127 68.192C40.3474 68.192 39.8354 68.0907 39.3767 67.888C38.9287 67.6853 38.5394 67.3973 38.2087 67.024C37.8887 66.64 37.6381 66.1867 37.4567 65.664C37.2861 65.1307 37.2007 64.5333 37.2007 63.872C37.2007 63.2213 37.2861 62.6293 37.4567 62.096C37.6381 61.5627 37.8887 61.1093 38.2087 60.736C38.5394 60.352 38.9287 60.0587 39.3767 59.856C39.8354 59.6533 40.3474 59.552 40.9127 59.552C41.4674 59.552 41.9634 59.6533 42.4007 59.856C42.8381 60.0587 43.2114 60.3413 43.5208 60.704C43.8301 61.056 44.0647 61.4773 44.2248 61.968C44.3954 62.4587 44.4808 62.9973 44.4808 63.584V64.192H38.5447V64.576C38.5447 64.928 38.5981 65.2587 38.7047 65.568C38.8221 65.8667 38.9821 66.128 39.1847 66.352C39.3981 66.576 39.6541 66.752 39.9527 66.88C40.2621 67.008 40.6087 67.072 40.9927 67.072C41.5154 67.072 41.9687 66.9493 42.3527 66.704C42.7474 66.4587 43.0514 66.1067 43.2648 65.648L44.1767 66.304C43.9101 66.8693 43.4941 67.328 42.9288 67.68C42.3634 68.0213 41.6914 68.192 40.9127 68.192ZM40.9127 60.624C40.5607 60.624 40.2407 60.688 39.9527 60.816C39.6647 60.9333 39.4141 61.104 39.2007 61.328C38.9981 61.552 38.8381 61.8187 38.7207 62.128C38.6034 62.4267 38.5447 62.7573 38.5447 63.12V63.232H43.1047V63.056C43.1047 62.32 42.9021 61.7333 42.4967 61.296C42.1021 60.848 41.5741 60.624 40.9127 60.624ZM46.75 68V59.744H48.03V61.264H48.11C48.2593 60.8693 48.526 60.5173 48.91 60.208C49.294 59.8987 49.822 59.744 50.494 59.744H50.99V61.024H50.238C49.5447 61.024 49.0007 61.1573 48.606 61.424C48.222 61.68 48.03 62.0053 48.03 62.4V68H46.75ZM59.4142 68V63.584L55.5742 56.832H57.1102L60.0862 62.208H60.1342L63.1102 56.832H64.6462L60.7582 63.536V68H59.4142ZM68.6937 68.192C68.1391 68.192 67.6324 68.0907 67.1737 67.888C66.7151 67.6853 66.3204 67.3973 65.9897 67.024C65.6697 66.64 65.4191 66.1867 65.2377 65.664C65.0564 65.1307 64.9657 64.5333 64.9657 63.872C64.9657 63.2213 65.0564 62.6293 65.2377 62.096C65.4191 61.5627 65.6697 61.1093 65.9897 60.736C66.3204 60.352 66.7151 60.0587 67.1737 59.856C67.6324 59.6533 68.1391 59.552 68.6937 59.552C69.2484 59.552 69.7497 59.6533 70.1977 59.856C70.6564 60.0587 71.0511 60.352 71.3817 60.736C71.7124 61.1093 71.9684 61.5627 72.1497 62.096C72.3311 62.6293 72.4217 63.2213 72.4217 63.872C72.4217 64.5333 72.3311 65.1307 72.1497 65.664C71.9684 66.1867 71.7124 66.64 71.3817 67.024C71.0511 67.3973 70.6564 67.6853 70.1977 67.888C69.7497 68.0907 69.2484 68.192 68.6937 68.192ZM68.6937 67.056C69.3871 67.056 69.9524 66.8427 70.3897 66.416C70.8271 65.9893 71.0457 65.3387 71.0457 64.464V63.28C71.0457 62.4053 70.8271 61.7547 70.3897 61.328C69.9524 60.9013 69.3871 60.688 68.6937 60.688C68.0004 60.688 67.4351 60.9013 66.9977 61.328C66.5604 61.7547 66.3417 62.4053 66.3417 63.28V64.464C66.3417 65.3387 66.5604 65.9893 66.9977 66.416C67.4351 66.8427 68.0004 67.056 68.6937 67.056ZM79.7749 66.656H79.7109C79.6255 66.848 79.5189 67.04 79.3909 67.232C79.2735 67.4133 79.1242 67.5787 78.9429 67.728C78.7615 67.8667 78.5429 67.9787 78.2869 68.064C78.0309 68.1493 77.7322 68.192 77.3909 68.192C76.5375 68.192 75.8602 67.92 75.3589 67.376C74.8575 66.8213 74.6069 66.0427 74.6069 65.04V59.744H75.8869V64.816C75.8869 66.2987 76.5162 67.04 77.7749 67.04C78.0309 67.04 78.2762 67.008 78.5109 66.944C78.7562 66.88 78.9695 66.784 79.1509 66.656C79.3429 66.528 79.4922 66.368 79.5989 66.176C79.7162 65.9733 79.7749 65.7333 79.7749 65.456V59.744H81.0549V68H79.7749V66.656ZM83.9406 68V59.744H85.2206V61.264H85.3006C85.45 60.8693 85.7166 60.5173 86.1006 60.208C86.4846 59.8987 87.0126 59.744 87.6846 59.744H88.1806V61.024H87.4286C86.7353 61.024 86.1913 61.1573 85.7966 61.424C85.4126 61.68 85.2206 62.0053 85.2206 62.4V68H83.9406ZM101.037 68L99.9169 64.704H95.4049L94.2849 68H92.9249L96.8289 56.832H98.5409L102.445 68H101.037ZM97.6929 58.08H97.6129L95.7249 63.52H99.5809L97.6929 58.08ZM104.327 68V59.744H105.607V61.088H105.671C105.874 60.6187 106.156 60.2453 106.519 59.968C106.892 59.6907 107.388 59.552 108.007 59.552C108.86 59.552 109.532 59.8293 110.023 60.384C110.524 60.928 110.775 61.7013 110.775 62.704V68H109.495V62.928C109.495 61.4453 108.871 60.704 107.623 60.704C107.367 60.704 107.116 60.736 106.871 60.8C106.636 60.864 106.423 60.96 106.231 61.088C106.039 61.216 105.884 61.3813 105.767 61.584C105.66 61.776 105.607 62.0053 105.607 62.272V68H104.327ZM116.061 68.192C115.293 68.192 114.647 68.048 114.125 67.76C113.613 67.4613 113.17 67.0667 112.797 66.576L113.709 65.84C114.029 66.2453 114.386 66.56 114.781 66.784C115.175 66.9973 115.634 67.104 116.157 67.104C116.701 67.104 117.122 66.9867 117.421 66.752C117.73 66.5173 117.885 66.1867 117.885 65.76C117.885 65.44 117.778 65.168 117.565 64.944C117.362 64.7093 116.989 64.5493 116.445 64.464L115.789 64.368C115.405 64.3147 115.053 64.2347 114.733 64.128C114.413 64.0107 114.13 63.8613 113.885 63.68C113.65 63.488 113.463 63.2533 113.325 62.976C113.197 62.6987 113.133 62.368 113.133 61.984C113.133 61.5787 113.207 61.2267 113.357 60.928C113.506 60.6187 113.709 60.3627 113.965 60.16C114.231 59.9573 114.546 59.808 114.909 59.712C115.271 59.6053 115.661 59.552 116.077 59.552C116.749 59.552 117.309 59.6693 117.757 59.904C118.215 60.1387 118.615 60.464 118.957 60.88L118.109 61.648C117.927 61.392 117.661 61.1627 117.309 60.96C116.957 60.7467 116.514 60.64 115.981 60.64C115.447 60.64 115.042 60.7573 114.765 60.992C114.498 61.216 114.365 61.5253 114.365 61.92C114.365 62.3253 114.498 62.6187 114.765 62.8C115.042 62.9813 115.437 63.1147 115.949 63.2L116.589 63.296C117.506 63.4347 118.157 63.7013 118.541 64.096C118.925 64.48 119.117 64.9867 119.117 65.616C119.117 66.416 118.845 67.0453 118.301 67.504C117.757 67.9627 117.01 68.192 116.061 68.192ZM120.533 59.744H121.781L122.661 63.312L123.541 66.928H123.573L124.581 63.312L125.621 59.744H126.757L127.829 63.312L128.853 66.928H128.885L129.733 63.312L130.629 59.744H131.829L129.637 68H128.053L126.901 64.032L126.181 61.52H126.149L125.445 64.032L124.293 68H122.741L120.533 59.744ZM136.864 68.192C136.299 68.192 135.787 68.0907 135.328 67.888C134.88 67.6853 134.491 67.3973 134.16 67.024C133.84 66.64 133.589 66.1867 133.408 65.664C133.237 65.1307 133.152 64.5333 133.152 63.872C133.152 63.2213 133.237 62.6293 133.408 62.096C133.589 61.5627 133.84 61.1093 134.16 60.736C134.491 60.352 134.88 60.0587 135.328 59.856C135.787 59.6533 136.299 59.552 136.864 59.552C137.419 59.552 137.915 59.6533 138.352 59.856C138.789 60.0587 139.163 60.3413 139.472 60.704C139.781 61.056 140.016 61.4773 140.176 61.968C140.347 62.4587 140.432 62.9973 140.432 63.584V64.192H134.496V64.576C134.496 64.928 134.549 65.2587 134.656 65.568C134.773 65.8667 134.933 66.128 135.136 66.352C135.349 66.576 135.605 66.752 135.904 66.88C136.213 67.008 136.56 67.072 136.944 67.072C137.467 67.072 137.92 66.9493 138.304 66.704C138.699 66.4587 139.003 66.1067 139.216 65.648L140.128 66.304C139.861 66.8693 139.445 67.328 138.88 67.68C138.315 68.0213 137.643 68.192 136.864 68.192ZM136.864 60.624C136.512 60.624 136.192 60.688 135.904 60.816C135.616 60.9333 135.365 61.104 135.152 61.328C134.949 61.552 134.789 61.8187 134.672 62.128C134.555 62.4267 134.496 62.7573 134.496 63.12V63.232H139.056V63.056C139.056 62.32 138.853 61.7333 138.448 61.296C138.053 60.848 137.525 60.624 136.864 60.624ZM142.701 68V59.744H143.981V61.264H144.061C144.211 60.8693 144.477 60.5173 144.861 60.208C145.245 59.8987 145.773 59.744 146.445 59.744H146.941V61.024H146.189C145.496 61.024 144.952 61.1573 144.557 61.424C144.173 61.68 143.981 62.0053 143.981 62.4V68H142.701Z" fill="#B8BCCA"/>
<defs>
<linearGradient id="paint0_linear_2243_93" x1="9.64695e-07" y1="229.917" x2="488.562" y2="178.525" gradientUnits="userSpaceOnUse">
<stop offset="0.0152174" stop-color="#090EDB"/>
<stop offset="1" stop-color="#E73DC4"/>
</linearGradient>
</defs>
</svg>
