<svg width="134" height="13" viewBox="0 0 134 13" fill="none" xmlns="http://www.w3.org/2000/svg">
<path d="M0.488 12V0.832H7.304V2.016H1.832V5.76H6.984V6.944H1.832V10.816H7.304V12H0.488ZM9.84812 12V3.744H11.1281V5.088H11.1921C11.3948 4.61867 11.6775 4.24533 12.0401 3.968C12.4135 3.69067 12.9095 3.552 13.5281 3.552C14.3815 3.552 15.0535 3.82933 15.5441 4.384C16.0455 4.928 16.2961 5.70133 16.2961 6.704V12H15.0161V6.928C15.0161 5.44533 14.3921 4.704 13.1441 4.704C12.8881 4.704 12.6375 4.736 12.3921 4.8C12.1575 4.864 11.9441 4.96 11.7521 5.088C11.5601 5.216 11.4055 5.38133 11.2881 5.584C11.1815 5.776 11.1281 6.00533 11.1281 6.272V12H9.84812ZM20.9259 12C20.4779 12 20.1365 11.8773 19.9019 11.632C19.6779 11.376 19.5659 11.0453 19.5659 10.64V4.864H18.2059V3.744H18.9739C19.2512 3.744 19.4379 3.69067 19.5339 3.584C19.6405 3.46667 19.6939 3.26933 19.6939 2.992V1.456H20.8459V3.744H22.6539V4.864H20.8459V10.88H22.5259V12H20.9259ZM27.9127 12.192C27.3474 12.192 26.8354 12.0907 26.3767 11.888C25.9287 11.6853 25.5394 11.3973 25.2087 11.024C24.8887 10.64 24.6381 10.1867 24.4567 9.664C24.2861 9.13067 24.2007 8.53333 24.2007 7.872C24.2007 7.22133 24.2861 6.62933 24.4567 6.096C24.6381 5.56267 24.8887 5.10933 25.2087 4.736C25.5394 4.352 25.9287 4.05867 26.3767 3.856C26.8354 3.65333 27.3474 3.552 27.9127 3.552C28.4674 3.552 28.9634 3.65333 29.4007 3.856C29.8381 4.05867 30.2114 4.34133 30.5208 4.704C30.8301 5.056 31.0647 5.47733 31.2248 5.968C31.3954 6.45867 31.4808 6.99733 31.4808 7.584V8.192H25.5447V8.576C25.5447 8.928 25.5981 9.25867 25.7047 9.568C25.8221 9.86667 25.9821 10.128 26.1847 10.352C26.3981 10.576 26.6541 10.752 26.9527 10.88C27.2621 11.008 27.6087 11.072 27.9927 11.072C28.5154 11.072 28.9687 10.9493 29.3527 10.704C29.7474 10.4587 30.0514 10.1067 30.2648 9.648L31.1767 10.304C30.9101 10.8693 30.4941 11.328 29.9288 11.68C29.3634 12.0213 28.6914 12.192 27.9127 12.192ZM27.9127 4.624C27.5607 4.624 27.2407 4.688 26.9527 4.816C26.6647 4.93333 26.4141 5.104 26.2007 5.328C25.9981 5.552 25.8381 5.81867 25.7207 6.128C25.6034 6.42667 25.5447 6.75733 25.5447 7.12V7.232H30.1047V7.056C30.1047 6.32 29.9021 5.73333 29.4967 5.296C29.1021 4.848 28.5741 4.624 27.9127 4.624ZM33.75 12V3.744H35.03V5.264H35.11C35.2593 4.86933 35.526 4.51733 35.91 4.208C36.294 3.89867 36.822 3.744 37.494 3.744H37.99V5.024H37.238C36.5447 5.024 36.0007 5.15733 35.606 5.424C35.222 5.68 35.03 6.00533 35.03 6.4V12H33.75ZM46.4142 12V7.584L42.5742 0.832H44.1102L47.0862 6.208H47.1342L50.1102 0.832H51.6462L47.7582 7.536V12H46.4142ZM55.6937 12.192C55.1391 12.192 54.6324 12.0907 54.1737 11.888C53.7151 11.6853 53.3204 11.3973 52.9897 11.024C52.6697 10.64 52.4191 10.1867 52.2377 9.664C52.0564 9.13067 51.9657 8.53333 51.9657 7.872C51.9657 7.22133 52.0564 6.62933 52.2377 6.096C52.4191 5.56267 52.6697 5.10933 52.9897 4.736C53.3204 4.352 53.7151 4.05867 54.1737 3.856C54.6324 3.65333 55.1391 3.552 55.6937 3.552C56.2484 3.552 56.7497 3.65333 57.1977 3.856C57.6564 4.05867 58.0511 4.352 58.3817 4.736C58.7124 5.10933 58.9684 5.56267 59.1497 6.096C59.3311 6.62933 59.4217 7.22133 59.4217 7.872C59.4217 8.53333 59.3311 9.13067 59.1497 9.664C58.9684 10.1867 58.7124 10.64 58.3817 11.024C58.0511 11.3973 57.6564 11.6853 57.1977 11.888C56.7497 12.0907 56.2484 12.192 55.6937 12.192ZM55.6937 11.056C56.3871 11.056 56.9524 10.8427 57.3897 10.416C57.8271 9.98933 58.0457 9.33867 58.0457 8.464V7.28C58.0457 6.40533 57.8271 5.75467 57.3897 5.328C56.9524 4.90133 56.3871 4.688 55.6937 4.688C55.0004 4.688 54.4351 4.90133 53.9977 5.328C53.5604 5.75467 53.3417 6.40533 53.3417 7.28V8.464C53.3417 9.33867 53.5604 9.98933 53.9977 10.416C54.4351 10.8427 55.0004 11.056 55.6937 11.056ZM66.7749 10.656H66.7109C66.6255 10.848 66.5189 11.04 66.3909 11.232C66.2735 11.4133 66.1242 11.5787 65.9429 11.728C65.7615 11.8667 65.5429 11.9787 65.2869 12.064C65.0309 12.1493 64.7322 12.192 64.3909 12.192C63.5375 12.192 62.8602 11.92 62.3589 11.376C61.8575 10.8213 61.6069 10.0427 61.6069 9.04V3.744H62.8869V8.816C62.8869 10.2987 63.5162 11.04 64.7749 11.04C65.0309 11.04 65.2762 11.008 65.5109 10.944C65.7562 10.88 65.9695 10.784 66.1509 10.656C66.3429 10.528 66.4922 10.368 66.5989 10.176C66.7162 9.97333 66.7749 9.73333 66.7749 9.456V3.744H68.0549V12H66.7749V10.656ZM70.9406 12V3.744H72.2206V5.264H72.3006C72.45 4.86933 72.7166 4.51733 73.1006 4.208C73.4846 3.89867 74.0126 3.744 74.6846 3.744H75.1806V5.024H74.4286C73.7353 5.024 73.1913 5.15733 72.7966 5.424C72.4126 5.68 72.2206 6.00533 72.2206 6.4V12H70.9406ZM88.0369 12L86.9169 8.704H82.4049L81.2849 12H79.9249L83.8289 0.832H85.5409L89.4449 12H88.0369ZM84.6929 2.08H84.6129L82.7249 7.52H86.5809L84.6929 2.08ZM91.3269 12V3.744H92.6069V5.088H92.6709C92.8735 4.61867 93.1562 4.24533 93.5189 3.968C93.8922 3.69067 94.3882 3.552 95.0069 3.552C95.8602 3.552 96.5322 3.82933 97.0229 4.384C97.5242 4.928 97.7749 5.70133 97.7749 6.704V12H96.4949V6.928C96.4949 5.44533 95.8709 4.704 94.6229 4.704C94.3669 4.704 94.1162 4.736 93.8709 4.8C93.6362 4.864 93.4229 4.96 93.2309 5.088C93.0389 5.216 92.8842 5.38133 92.7669 5.584C92.6602 5.776 92.6069 6.00533 92.6069 6.272V12H91.3269ZM103.061 12.192C102.293 12.192 101.647 12.048 101.125 11.76C100.613 11.4613 100.17 11.0667 99.7966 10.576L100.709 9.84C101.029 10.2453 101.386 10.56 101.781 10.784C102.175 10.9973 102.634 11.104 103.157 11.104C103.701 11.104 104.122 10.9867 104.421 10.752C104.73 10.5173 104.885 10.1867 104.885 9.76C104.885 9.44 104.778 9.168 104.565 8.944C104.362 8.70933 103.989 8.54933 103.445 8.464L102.789 8.368C102.405 8.31467 102.053 8.23467 101.733 8.128C101.413 8.01067 101.13 7.86133 100.885 7.68C100.65 7.488 100.463 7.25333 100.325 6.976C100.197 6.69867 100.133 6.368 100.133 5.984C100.133 5.57867 100.207 5.22667 100.357 4.928C100.506 4.61867 100.709 4.36267 100.965 4.16C101.231 3.95733 101.546 3.808 101.909 3.712C102.271 3.60533 102.661 3.552 103.077 3.552C103.749 3.552 104.309 3.66933 104.757 3.904C105.215 4.13867 105.615 4.464 105.957 4.88L105.109 5.648C104.927 5.392 104.661 5.16267 104.309 4.96C103.957 4.74667 103.514 4.64 102.981 4.64C102.447 4.64 102.042 4.75733 101.765 4.992C101.498 5.216 101.365 5.52533 101.365 5.92C101.365 6.32533 101.498 6.61867 101.765 6.8C102.042 6.98133 102.437 7.11467 102.949 7.2L103.589 7.296C104.506 7.43467 105.157 7.70133 105.541 8.096C105.925 8.48 106.117 8.98667 106.117 9.616C106.117 10.416 105.845 11.0453 105.301 11.504C104.757 11.9627 104.01 12.192 103.061 12.192ZM107.533 3.744H108.781L109.661 7.312L110.541 10.928H110.573L111.581 7.312L112.621 3.744H113.757L114.829 7.312L115.853 10.928H115.885L116.733 7.312L117.629 3.744H118.829L116.637 12H115.053L113.901 8.032L113.181 5.52H113.149L112.445 8.032L111.293 12H109.741L107.533 3.744ZM123.864 12.192C123.299 12.192 122.787 12.0907 122.328 11.888C121.88 11.6853 121.491 11.3973 121.16 11.024C120.84 10.64 120.589 10.1867 120.408 9.664C120.237 9.13067 120.152 8.53333 120.152 7.872C120.152 7.22133 120.237 6.62933 120.408 6.096C120.589 5.56267 120.84 5.10933 121.16 4.736C121.491 4.352 121.88 4.05867 122.328 3.856C122.787 3.65333 123.299 3.552 123.864 3.552C124.419 3.552 124.915 3.65333 125.352 3.856C125.789 4.05867 126.163 4.34133 126.472 4.704C126.781 5.056 127.016 5.47733 127.176 5.968C127.347 6.45867 127.432 6.99733 127.432 7.584V8.192H121.496V8.576C121.496 8.928 121.549 9.25867 121.656 9.568C121.773 9.86667 121.933 10.128 122.136 10.352C122.349 10.576 122.605 10.752 122.904 10.88C123.213 11.008 123.56 11.072 123.944 11.072C124.467 11.072 124.92 10.9493 125.304 10.704C125.699 10.4587 126.003 10.1067 126.216 9.648L127.128 10.304C126.861 10.8693 126.445 11.328 125.88 11.68C125.315 12.0213 124.643 12.192 123.864 12.192ZM123.864 4.624C123.512 4.624 123.192 4.688 122.904 4.816C122.616 4.93333 122.365 5.104 122.152 5.328C121.949 5.552 121.789 5.81867 121.672 6.128C121.555 6.42667 121.496 6.75733 121.496 7.12V7.232H126.056V7.056C126.056 6.32 125.853 5.73333 125.448 5.296C125.053 4.848 124.525 4.624 123.864 4.624ZM129.701 12V3.744H130.981V5.264H131.061C131.211 4.86933 131.477 4.51733 131.861 4.208C132.245 3.89867 132.773 3.744 133.445 3.744H133.941V5.024H133.189C132.496 5.024 131.952 5.15733 131.557 5.424C131.173 5.68 130.981 6.00533 130.981 6.4V12H129.701Z" fill="#B8BCCA"/>
</svg>
