<svg width="460" height="150" viewBox="0 0 460 150" fill="none" xmlns="http://www.w3.org/2000/svg">
<g clip-path="url(#clip0_2029_506)">
<path d="M3.04 16L0.32 4.832H1.744L2.944 10.208L3.872 14.384H3.904L4.944 10.208L6.352 4.832H7.888L9.248 10.208L10.288 14.368H10.336L11.296 10.208L12.56 4.832H13.936L11.072 16H9.584L8.128 10.432L7.104 6.336H7.072L6.016 10.432L4.528 16H3.04ZM15.77 4.16H17.05V9.088H17.114C17.3167 8.61867 17.5993 8.24533 17.962 7.968C18.3353 7.69067 18.8313 7.552 19.45 7.552C20.3033 7.552 20.9753 7.82933 21.466 8.384C21.9673 8.928 22.218 9.70133 22.218 10.704V16H20.938V10.928C20.938 9.44533 20.314 8.704 19.066 8.704C18.81 8.704 18.5593 8.736 18.314 8.8C18.0793 8.864 17.866 8.96 17.674 9.088C17.482 9.216 17.3273 9.38133 17.21 9.584C17.1033 9.776 17.05 10.0053 17.05 10.272V16H15.77V4.16ZM29.9868 7.744H31.2508L27.5547 17.92C27.4587 18.1653 27.3627 18.368 27.2667 18.528C27.1707 18.6987 27.0534 18.832 26.9147 18.928C26.7761 19.024 26.6001 19.0933 26.3867 19.136C26.1841 19.1787 25.9334 19.2 25.6347 19.2H24.9787V18.08H26.2747L26.8987 16.32L23.8107 7.744H25.0907L27.0747 13.36L27.4587 14.704H27.5387L27.9868 13.36L29.9868 7.744ZM37.1124 4.832H40.8564C41.5497 4.832 42.179 4.94933 42.7444 5.184C43.3097 5.41867 43.7897 5.77067 44.1844 6.24C44.5897 6.69867 44.899 7.28 45.1124 7.984C45.3257 8.67733 45.4324 9.488 45.4324 10.416C45.4324 11.344 45.3257 12.16 45.1124 12.864C44.899 13.5573 44.5897 14.1387 44.1844 14.608C43.7897 15.0667 43.3097 15.4133 42.7444 15.648C42.179 15.8827 41.5497 16 40.8564 16H37.1124V4.832ZM40.8564 14.816C41.315 14.816 41.7364 14.7413 42.1204 14.592C42.5044 14.432 42.835 14.2027 43.1124 13.904C43.3897 13.6053 43.603 13.2427 43.7524 12.816C43.9124 12.3787 43.9924 11.8827 43.9924 11.328V9.504C43.9924 8.94933 43.9124 8.45867 43.7524 8.032C43.603 7.59467 43.3897 7.22667 43.1124 6.928C42.835 6.62933 42.5044 6.40533 42.1204 6.256C41.7364 6.096 41.315 6.016 40.8564 6.016H38.4564V14.816H40.8564ZM50.9987 16.192C50.4441 16.192 49.9374 16.0907 49.4787 15.888C49.0201 15.6853 48.6254 15.3973 48.2947 15.024C47.9747 14.64 47.7241 14.1867 47.5427 13.664C47.3614 13.1307 47.2707 12.5333 47.2707 11.872C47.2707 11.2213 47.3614 10.6293 47.5427 10.096C47.7241 9.56267 47.9747 9.10933 48.2947 8.736C48.6254 8.352 49.0201 8.05867 49.4787 7.856C49.9374 7.65333 50.4441 7.552 50.9987 7.552C51.5534 7.552 52.0547 7.65333 52.5027 7.856C52.9614 8.05867 53.3561 8.352 53.6867 8.736C54.0174 9.10933 54.2734 9.56267 54.4547 10.096C54.6361 10.6293 54.7267 11.2213 54.7267 11.872C54.7267 12.5333 54.6361 13.1307 54.4547 13.664C54.2734 14.1867 54.0174 14.64 53.6867 15.024C53.3561 15.3973 52.9614 15.6853 52.5027 15.888C52.0547 16.0907 51.5534 16.192 50.9987 16.192ZM50.9987 15.056C51.6921 15.056 52.2574 14.8427 52.6947 14.416C53.1321 13.9893 53.3507 13.3387 53.3507 12.464V11.28C53.3507 10.4053 53.1321 9.75467 52.6947 9.328C52.2574 8.90133 51.6921 8.688 50.9987 8.688C50.3054 8.688 49.7401 8.90133 49.3027 9.328C48.8654 9.75467 48.6467 10.4053 48.6467 11.28V12.464C48.6467 13.3387 48.8654 13.9893 49.3027 14.416C49.7401 14.8427 50.3054 15.056 50.9987 15.056ZM63.6211 16V11.584L59.7811 4.832H61.3171L64.2931 10.208H64.3411L67.3171 4.832H68.8531L64.9651 11.536V16H63.6211ZM72.9006 16.192C72.346 16.192 71.8393 16.0907 71.3806 15.888C70.922 15.6853 70.5273 15.3973 70.1966 15.024C69.8766 14.64 69.626 14.1867 69.4446 13.664C69.2633 13.1307 69.1726 12.5333 69.1726 11.872C69.1726 11.2213 69.2633 10.6293 69.4446 10.096C69.626 9.56267 69.8766 9.10933 70.1966 8.736C70.5273 8.352 70.922 8.05867 71.3806 7.856C71.8393 7.65333 72.346 7.552 72.9006 7.552C73.4553 7.552 73.9566 7.65333 74.4046 7.856C74.8633 8.05867 75.258 8.352 75.5886 8.736C75.9193 9.10933 76.1753 9.56267 76.3566 10.096C76.538 10.6293 76.6286 11.2213 76.6286 11.872C76.6286 12.5333 76.538 13.1307 76.3566 13.664C76.1753 14.1867 75.9193 14.64 75.5886 15.024C75.258 15.3973 74.8633 15.6853 74.4046 15.888C73.9566 16.0907 73.4553 16.192 72.9006 16.192ZM72.9006 15.056C73.594 15.056 74.1593 14.8427 74.5966 14.416C75.034 13.9893 75.2526 13.3387 75.2526 12.464V11.28C75.2526 10.4053 75.034 9.75467 74.5966 9.328C74.1593 8.90133 73.594 8.688 72.9006 8.688C72.2073 8.688 71.642 8.90133 71.2046 9.328C70.7673 9.75467 70.5486 10.4053 70.5486 11.28V12.464C70.5486 13.3387 70.7673 13.9893 71.2046 14.416C71.642 14.8427 72.2073 15.056 72.9006 15.056ZM83.9818 14.656H83.9178C83.8324 14.848 83.7258 15.04 83.5978 15.232C83.4804 15.4133 83.3311 15.5787 83.1498 15.728C82.9684 15.8667 82.7498 15.9787 82.4938 16.064C82.2378 16.1493 81.9391 16.192 81.5978 16.192C80.7444 16.192 80.0671 15.92 79.5658 15.376C79.0644 14.8213 78.8138 14.0427 78.8138 13.04V7.744H80.0938V12.816C80.0938 14.2987 80.7231 15.04 81.9818 15.04C82.2378 15.04 82.4831 15.008 82.7178 14.944C82.9631 14.88 83.1764 14.784 83.3578 14.656C83.5498 14.528 83.6991 14.368 83.8058 14.176C83.9231 13.9733 83.9818 13.7333 83.9818 13.456V7.744H85.2618V16H83.9818V14.656ZM93.7688 16L91.0488 4.832H92.4728L93.6728 10.208L94.6008 14.384H94.6328L95.6728 10.208L97.0808 4.832H98.6168L99.9768 10.208L101.017 14.368H101.065L102.025 10.208L103.289 4.832H104.665L101.801 16H100.313L98.8568 10.432L97.8328 6.336H97.8008L96.7448 10.432L95.2568 16H93.7688ZM112.342 16C111.862 16 111.516 15.872 111.302 15.616C111.1 15.36 110.972 15.04 110.918 14.656H110.838C110.657 15.168 110.358 15.552 109.942 15.808C109.526 16.064 109.03 16.192 108.454 16.192C107.58 16.192 106.897 15.968 106.406 15.52C105.926 15.072 105.686 14.464 105.686 13.696C105.686 12.9173 105.969 12.32 106.534 11.904C107.11 11.488 108.001 11.28 109.206 11.28H110.838V10.464C110.838 9.87733 110.678 9.42933 110.358 9.12C110.038 8.81067 109.548 8.656 108.886 8.656C108.385 8.656 107.964 8.768 107.622 8.992C107.292 9.216 107.014 9.51467 106.79 9.888L106.022 9.168C106.246 8.72 106.604 8.34133 107.094 8.032C107.585 7.712 108.204 7.552 108.95 7.552C109.953 7.552 110.732 7.79733 111.286 8.288C111.841 8.77867 112.118 9.46133 112.118 10.336V14.88H113.062V16H112.342ZM108.662 15.104C108.982 15.104 109.276 15.0667 109.542 14.992C109.809 14.9173 110.038 14.8107 110.23 14.672C110.422 14.5333 110.572 14.3733 110.678 14.192C110.785 14.0107 110.838 13.8133 110.838 13.6V12.24H109.142C108.406 12.24 107.868 12.3467 107.526 12.56C107.196 12.7733 107.03 13.0827 107.03 13.488V13.824C107.03 14.2293 107.174 14.544 107.462 14.768C107.761 14.992 108.161 15.104 108.662 15.104ZM115.049 16V7.744H116.329V9.088H116.393C116.596 8.61867 116.879 8.24533 117.241 7.968C117.615 7.69067 118.111 7.552 118.729 7.552C119.583 7.552 120.255 7.82933 120.745 8.384C121.247 8.928 121.497 9.70133 121.497 10.704V16H120.217V10.928C120.217 9.44533 119.593 8.704 118.345 8.704C118.089 8.704 117.839 8.736 117.593 8.8C117.359 8.864 117.145 8.96 116.953 9.088C116.761 9.216 116.607 9.38133 116.489 9.584C116.383 9.776 116.329 10.0053 116.329 10.272V16H115.049ZM126.127 16C125.679 16 125.338 15.8773 125.103 15.632C124.879 15.376 124.767 15.0453 124.767 14.64V8.864H123.407V7.744H124.175C124.452 7.744 124.639 7.69067 124.735 7.584C124.842 7.46667 124.895 7.26933 124.895 6.992V5.456H126.047V7.744H127.855V8.864H126.047V14.88H127.727V16H126.127ZM139.406 4.832V13.104C139.406 13.5733 139.326 14 139.166 14.384C139.016 14.768 138.798 15.0933 138.51 15.36C138.232 15.6267 137.896 15.8347 137.502 15.984C137.107 16.1227 136.675 16.192 136.206 16.192C135.342 16.192 134.643 15.9627 134.11 15.504C133.587 15.0347 133.251 14.416 133.102 13.648L134.318 13.36C134.424 13.84 134.627 14.2347 134.926 14.544C135.224 14.8427 135.662 14.992 136.238 14.992C136.814 14.992 137.262 14.816 137.582 14.464C137.902 14.112 138.062 13.5787 138.062 12.864V6.016H134.222V4.832H139.406ZM145.45 16.192C144.895 16.192 144.389 16.0907 143.93 15.888C143.471 15.6853 143.077 15.3973 142.746 15.024C142.426 14.64 142.175 14.1867 141.994 13.664C141.813 13.1307 141.722 12.5333 141.722 11.872C141.722 11.2213 141.813 10.6293 141.994 10.096C142.175 9.56267 142.426 9.10933 142.746 8.736C143.077 8.352 143.471 8.05867 143.93 7.856C144.389 7.65333 144.895 7.552 145.45 7.552C146.005 7.552 146.506 7.65333 146.954 7.856C147.413 8.05867 147.807 8.352 148.138 8.736C148.469 9.10933 148.725 9.56267 148.906 10.096C149.087 10.6293 149.178 11.2213 149.178 11.872C149.178 12.5333 149.087 13.1307 148.906 13.664C148.725 14.1867 148.469 14.64 148.138 15.024C147.807 15.3973 147.413 15.6853 146.954 15.888C146.506 16.0907 146.005 16.192 145.45 16.192ZM145.45 15.056C146.143 15.056 146.709 14.8427 147.146 14.416C147.583 13.9893 147.802 13.3387 147.802 12.464V11.28C147.802 10.4053 147.583 9.75467 147.146 9.328C146.709 8.90133 146.143 8.688 145.45 8.688C144.757 8.688 144.191 8.90133 143.754 9.328C143.317 9.75467 143.098 10.4053 143.098 11.28V12.464C143.098 13.3387 143.317 13.9893 143.754 14.416C144.191 14.8427 144.757 15.056 145.45 15.056ZM152.083 5.808C151.806 5.808 151.603 5.744 151.475 5.616C151.358 5.47733 151.299 5.30133 151.299 5.088V4.88C151.299 4.66667 151.358 4.496 151.475 4.368C151.603 4.22933 151.806 4.16 152.083 4.16C152.36 4.16 152.558 4.22933 152.675 4.368C152.803 4.496 152.867 4.66667 152.867 4.88V5.088C152.867 5.30133 152.803 5.47733 152.675 5.616C152.558 5.744 152.36 5.808 152.083 5.808ZM151.443 7.744H152.723V16H151.443V7.744ZM155.603 16V7.744H156.883V9.088H156.947C157.15 8.61867 157.432 8.24533 157.795 7.968C158.168 7.69067 158.664 7.552 159.283 7.552C160.136 7.552 160.808 7.82933 161.299 8.384C161.8 8.928 162.051 9.70133 162.051 10.704V16H160.771V10.928C160.771 9.44533 160.147 8.704 158.899 8.704C158.643 8.704 158.392 8.736 158.147 8.8C157.912 8.864 157.699 8.96 157.507 9.088C157.315 9.216 157.16 9.38133 157.043 9.584C156.936 9.776 156.883 10.0053 156.883 10.272V16H155.603ZM170.19 4.832V11.744C170.19 12.8107 170.387 13.6213 170.782 14.176C171.177 14.72 171.87 14.992 172.862 14.992C173.854 14.992 174.547 14.72 174.942 14.176C175.337 13.6213 175.534 12.8107 175.534 11.744V4.832H176.878V11.424C176.878 12.2347 176.803 12.9387 176.654 13.536C176.515 14.1333 176.286 14.6293 175.966 15.024C175.646 15.4187 175.225 15.712 174.702 15.904C174.19 16.096 173.561 16.192 172.814 16.192C172.067 16.192 171.438 16.096 170.926 15.904C170.425 15.712 170.019 15.4187 169.71 15.024C169.401 14.6293 169.177 14.1333 169.038 13.536C168.91 12.9387 168.846 12.2347 168.846 11.424V4.832H170.19ZM182.282 16.192C181.514 16.192 180.869 16.048 180.346 15.76C179.834 15.4613 179.391 15.0667 179.018 14.576L179.93 13.84C180.25 14.2453 180.607 14.56 181.002 14.784C181.397 14.9973 181.855 15.104 182.378 15.104C182.922 15.104 183.343 14.9867 183.642 14.752C183.951 14.5173 184.106 14.1867 184.106 13.76C184.106 13.44 183.999 13.168 183.786 12.944C183.583 12.7093 183.21 12.5493 182.666 12.464L182.01 12.368C181.626 12.3147 181.274 12.2347 180.954 12.128C180.634 12.0107 180.351 11.8613 180.106 11.68C179.871 11.488 179.685 11.2533 179.546 10.976C179.418 10.6987 179.354 10.368 179.354 9.984C179.354 9.57867 179.429 9.22667 179.578 8.928C179.727 8.61867 179.93 8.36267 180.186 8.16C180.453 7.95733 180.767 7.808 181.13 7.712C181.493 7.60533 181.882 7.552 182.298 7.552C182.97 7.552 183.53 7.66933 183.978 7.904C184.437 8.13867 184.837 8.464 185.178 8.88L184.33 9.648C184.149 9.392 183.882 9.16267 183.53 8.96C183.178 8.74667 182.735 8.64 182.202 8.64C181.669 8.64 181.263 8.75733 180.986 8.992C180.719 9.216 180.586 9.52533 180.586 9.92C180.586 10.3253 180.719 10.6187 180.986 10.8C181.263 10.9813 181.658 11.1147 182.17 11.2L182.81 11.296C183.727 11.4347 184.378 11.7013 184.762 12.096C185.146 12.48 185.338 12.9867 185.338 13.616C185.338 14.416 185.066 15.0453 184.522 15.504C183.978 15.9627 183.231 16.192 182.282 16.192ZM189.263 12.672V10.048C190.137 10.0053 190.82 9.792 191.311 9.408C191.812 9.024 192.063 8.496 192.063 7.824V7.6C192.063 7.056 191.892 6.624 191.551 6.304C191.209 5.97333 190.751 5.808 190.175 5.808C189.556 5.808 189.06 5.984 188.687 6.336C188.324 6.688 188.079 7.136 187.951 7.68L186.767 7.232C186.863 6.89067 187.001 6.56533 187.183 6.256C187.375 5.936 187.609 5.65867 187.887 5.424C188.175 5.17867 188.511 4.98667 188.895 4.848C189.279 4.70933 189.721 4.64 190.223 4.64C191.215 4.64 191.999 4.912 192.575 5.456C193.151 6 193.439 6.736 193.439 7.664C193.439 8.176 193.348 8.624 193.167 9.008C192.996 9.38133 192.772 9.70133 192.495 9.968C192.217 10.2347 191.903 10.448 191.551 10.608C191.199 10.768 190.847 10.88 190.495 10.944V12.672H189.263ZM189.887 16.192C189.545 16.192 189.295 16.1067 189.135 15.936C188.985 15.7653 188.911 15.5413 188.911 15.264V15.056C188.911 14.7787 188.985 14.5547 189.135 14.384C189.295 14.2133 189.545 14.128 189.887 14.128C190.228 14.128 190.473 14.2133 190.623 14.384C190.783 14.5547 190.863 14.7787 190.863 15.056V15.264C190.863 15.5413 190.783 15.7653 190.623 15.936C190.473 16.1067 190.228 16.192 189.887 16.192Z" fill="white"/>
<rect x="0.5" y="26.5" width="459" height="123" rx="9.5" stroke="url(#paint0_linear_2029_506)"/>
<path d="M13.488 94V82.832H20.304V84.016H14.832V87.76H19.984V88.944H14.832V92.816H20.304V94H13.488ZM22.8481 94V85.744H24.1281V87.088H24.1921C24.3948 86.6187 24.6775 86.2453 25.0401 85.968C25.4135 85.6907 25.9095 85.552 26.5281 85.552C27.3815 85.552 28.0535 85.8293 28.5441 86.384C29.0455 86.928 29.2961 87.7013 29.2961 88.704V94H28.0161V88.928C28.0161 87.4453 27.3921 86.704 26.1441 86.704C25.8881 86.704 25.6375 86.736 25.3921 86.8C25.1575 86.864 24.9441 86.96 24.7521 87.088C24.5601 87.216 24.4055 87.3813 24.2881 87.584C24.1815 87.776 24.1281 88.0053 24.1281 88.272V94H22.8481ZM33.9259 94C33.4779 94 33.1365 93.8773 32.9019 93.632C32.6779 93.376 32.5659 93.0453 32.5659 92.64V86.864H31.2059V85.744H31.9739C32.2512 85.744 32.4379 85.6907 32.5339 85.584C32.6405 85.4667 32.6939 85.2693 32.6939 84.992V83.456H33.8459V85.744H35.6539V86.864H33.8459V92.88H35.5259V94H33.9259ZM40.9127 94.192C40.3474 94.192 39.8354 94.0907 39.3767 93.888C38.9287 93.6853 38.5394 93.3973 38.2087 93.024C37.8887 92.64 37.6381 92.1867 37.4567 91.664C37.2861 91.1307 37.2007 90.5333 37.2007 89.872C37.2007 89.2213 37.2861 88.6293 37.4567 88.096C37.6381 87.5627 37.8887 87.1093 38.2087 86.736C38.5394 86.352 38.9287 86.0587 39.3767 85.856C39.8354 85.6533 40.3474 85.552 40.9127 85.552C41.4674 85.552 41.9634 85.6533 42.4007 85.856C42.8381 86.0587 43.2114 86.3413 43.5208 86.704C43.8301 87.056 44.0647 87.4773 44.2248 87.968C44.3954 88.4587 44.4808 88.9973 44.4808 89.584V90.192H38.5447V90.576C38.5447 90.928 38.5981 91.2587 38.7047 91.568C38.8221 91.8667 38.9821 92.128 39.1847 92.352C39.3981 92.576 39.6541 92.752 39.9527 92.88C40.2621 93.008 40.6087 93.072 40.9927 93.072C41.5154 93.072 41.9687 92.9493 42.3527 92.704C42.7474 92.4587 43.0514 92.1067 43.2648 91.648L44.1767 92.304C43.9101 92.8693 43.4941 93.328 42.9288 93.68C42.3634 94.0213 41.6914 94.192 40.9127 94.192ZM40.9127 86.624C40.5607 86.624 40.2407 86.688 39.9527 86.816C39.6647 86.9333 39.4141 87.104 39.2007 87.328C38.9981 87.552 38.8381 87.8187 38.7207 88.128C38.6034 88.4267 38.5447 88.7573 38.5447 89.12V89.232H43.1047V89.056C43.1047 88.32 42.9021 87.7333 42.4967 87.296C42.1021 86.848 41.5741 86.624 40.9127 86.624ZM46.75 94V85.744H48.03V87.264H48.11C48.2593 86.8693 48.526 86.5173 48.91 86.208C49.294 85.8987 49.822 85.744 50.494 85.744H50.99V87.024H50.238C49.5447 87.024 49.0007 87.1573 48.606 87.424C48.222 87.68 48.03 88.0053 48.03 88.4V94H46.75ZM59.4142 94V89.584L55.5742 82.832H57.1102L60.0862 88.208H60.1342L63.1102 82.832H64.6462L60.7582 89.536V94H59.4142ZM68.6937 94.192C68.1391 94.192 67.6324 94.0907 67.1737 93.888C66.7151 93.6853 66.3204 93.3973 65.9897 93.024C65.6697 92.64 65.4191 92.1867 65.2377 91.664C65.0564 91.1307 64.9657 90.5333 64.9657 89.872C64.9657 89.2213 65.0564 88.6293 65.2377 88.096C65.4191 87.5627 65.6697 87.1093 65.9897 86.736C66.3204 86.352 66.7151 86.0587 67.1737 85.856C67.6324 85.6533 68.1391 85.552 68.6937 85.552C69.2484 85.552 69.7497 85.6533 70.1977 85.856C70.6564 86.0587 71.0511 86.352 71.3817 86.736C71.7124 87.1093 71.9684 87.5627 72.1497 88.096C72.3311 88.6293 72.4217 89.2213 72.4217 89.872C72.4217 90.5333 72.3311 91.1307 72.1497 91.664C71.9684 92.1867 71.7124 92.64 71.3817 93.024C71.0511 93.3973 70.6564 93.6853 70.1977 93.888C69.7497 94.0907 69.2484 94.192 68.6937 94.192ZM68.6937 93.056C69.3871 93.056 69.9524 92.8427 70.3897 92.416C70.8271 91.9893 71.0457 91.3387 71.0457 90.464V89.28C71.0457 88.4053 70.8271 87.7547 70.3897 87.328C69.9524 86.9013 69.3871 86.688 68.6937 86.688C68.0004 86.688 67.4351 86.9013 66.9977 87.328C66.5604 87.7547 66.3417 88.4053 66.3417 89.28V90.464C66.3417 91.3387 66.5604 91.9893 66.9977 92.416C67.4351 92.8427 68.0004 93.056 68.6937 93.056ZM79.7749 92.656H79.7109C79.6255 92.848 79.5189 93.04 79.3909 93.232C79.2735 93.4133 79.1242 93.5787 78.9429 93.728C78.7615 93.8667 78.5429 93.9787 78.2869 94.064C78.0309 94.1493 77.7322 94.192 77.3909 94.192C76.5375 94.192 75.8602 93.92 75.3589 93.376C74.8575 92.8213 74.6069 92.0427 74.6069 91.04V85.744H75.8869V90.816C75.8869 92.2987 76.5162 93.04 77.7749 93.04C78.0309 93.04 78.2762 93.008 78.5109 92.944C78.7562 92.88 78.9695 92.784 79.1509 92.656C79.3429 92.528 79.4922 92.368 79.5989 92.176C79.7162 91.9733 79.7749 91.7333 79.7749 91.456V85.744H81.0549V94H79.7749V92.656ZM83.9406 94V85.744H85.2206V87.264H85.3006C85.45 86.8693 85.7166 86.5173 86.1006 86.208C86.4846 85.8987 87.0126 85.744 87.6846 85.744H88.1806V87.024H87.4286C86.7353 87.024 86.1913 87.1573 85.7966 87.424C85.4126 87.68 85.2206 88.0053 85.2206 88.4V94H83.9406ZM101.037 94L99.9169 90.704H95.4049L94.2849 94H92.9249L96.8289 82.832H98.5409L102.445 94H101.037ZM97.6929 84.08H97.6129L95.7249 89.52H99.5809L97.6929 84.08ZM104.327 94V85.744H105.607V87.088H105.671C105.874 86.6187 106.156 86.2453 106.519 85.968C106.892 85.6907 107.388 85.552 108.007 85.552C108.86 85.552 109.532 85.8293 110.023 86.384C110.524 86.928 110.775 87.7013 110.775 88.704V94H109.495V88.928C109.495 87.4453 108.871 86.704 107.623 86.704C107.367 86.704 107.116 86.736 106.871 86.8C106.636 86.864 106.423 86.96 106.231 87.088C106.039 87.216 105.884 87.3813 105.767 87.584C105.66 87.776 105.607 88.0053 105.607 88.272V94H104.327ZM116.061 94.192C115.293 94.192 114.647 94.048 114.125 93.76C113.613 93.4613 113.17 93.0667 112.797 92.576L113.709 91.84C114.029 92.2453 114.386 92.56 114.781 92.784C115.175 92.9973 115.634 93.104 116.157 93.104C116.701 93.104 117.122 92.9867 117.421 92.752C117.73 92.5173 117.885 92.1867 117.885 91.76C117.885 91.44 117.778 91.168 117.565 90.944C117.362 90.7093 116.989 90.5493 116.445 90.464L115.789 90.368C115.405 90.3147 115.053 90.2347 114.733 90.128C114.413 90.0107 114.13 89.8613 113.885 89.68C113.65 89.488 113.463 89.2533 113.325 88.976C113.197 88.6987 113.133 88.368 113.133 87.984C113.133 87.5787 113.207 87.2267 113.357 86.928C113.506 86.6187 113.709 86.3627 113.965 86.16C114.231 85.9573 114.546 85.808 114.909 85.712C115.271 85.6053 115.661 85.552 116.077 85.552C116.749 85.552 117.309 85.6693 117.757 85.904C118.215 86.1387 118.615 86.464 118.957 86.88L118.109 87.648C117.927 87.392 117.661 87.1627 117.309 86.96C116.957 86.7467 116.514 86.64 115.981 86.64C115.447 86.64 115.042 86.7573 114.765 86.992C114.498 87.216 114.365 87.5253 114.365 87.92C114.365 88.3253 114.498 88.6187 114.765 88.8C115.042 88.9813 115.437 89.1147 115.949 89.2L116.589 89.296C117.506 89.4347 118.157 89.7013 118.541 90.096C118.925 90.48 119.117 90.9867 119.117 91.616C119.117 92.416 118.845 93.0453 118.301 93.504C117.757 93.9627 117.01 94.192 116.061 94.192ZM120.533 85.744H121.781L122.661 89.312L123.541 92.928H123.573L124.581 89.312L125.621 85.744H126.757L127.829 89.312L128.853 92.928H128.885L129.733 89.312L130.629 85.744H131.829L129.637 94H128.053L126.901 90.032L126.181 87.52H126.149L125.445 90.032L124.293 94H122.741L120.533 85.744ZM136.864 94.192C136.299 94.192 135.787 94.0907 135.328 93.888C134.88 93.6853 134.491 93.3973 134.16 93.024C133.84 92.64 133.589 92.1867 133.408 91.664C133.237 91.1307 133.152 90.5333 133.152 89.872C133.152 89.2213 133.237 88.6293 133.408 88.096C133.589 87.5627 133.84 87.1093 134.16 86.736C134.491 86.352 134.88 86.0587 135.328 85.856C135.787 85.6533 136.299 85.552 136.864 85.552C137.419 85.552 137.915 85.6533 138.352 85.856C138.789 86.0587 139.163 86.3413 139.472 86.704C139.781 87.056 140.016 87.4773 140.176 87.968C140.347 88.4587 140.432 88.9973 140.432 89.584V90.192H134.496V90.576C134.496 90.928 134.549 91.2587 134.656 91.568C134.773 91.8667 134.933 92.128 135.136 92.352C135.349 92.576 135.605 92.752 135.904 92.88C136.213 93.008 136.56 93.072 136.944 93.072C137.467 93.072 137.92 92.9493 138.304 92.704C138.699 92.4587 139.003 92.1067 139.216 91.648L140.128 92.304C139.861 92.8693 139.445 93.328 138.88 93.68C138.315 94.0213 137.643 94.192 136.864 94.192ZM136.864 86.624C136.512 86.624 136.192 86.688 135.904 86.816C135.616 86.9333 135.365 87.104 135.152 87.328C134.949 87.552 134.789 87.8187 134.672 88.128C134.555 88.4267 134.496 88.7573 134.496 89.12V89.232H139.056V89.056C139.056 88.32 138.853 87.7333 138.448 87.296C138.053 86.848 137.525 86.624 136.864 86.624ZM142.701 94V85.744H143.981V87.264H144.061C144.211 86.8693 144.477 86.5173 144.861 86.208C145.245 85.8987 145.773 85.744 146.445 85.744H146.941V87.024H146.189C145.496 87.024 144.952 87.1573 144.557 87.424C144.173 87.68 143.981 88.0053 143.981 88.4V94H142.701Z" fill="#B8BCCA"/>
</g>
<defs>
<linearGradient id="paint0_linear_2029_506" x1="9.64695e-07" y1="255.917" x2="488.562" y2="204.525" gradientUnits="userSpaceOnUse">
<stop offset="0.0152174" stop-color="#090EDB"/>
<stop offset="1" stop-color="#E73DC4"/>
</linearGradient>
<clipPath id="clip0_2029_506">
<rect width="460" height="150" fill="white"/>
</clipPath>
</defs>
</svg>
