<svg width="194" height="16" viewBox="0 0 194 16" fill="none" xmlns="http://www.w3.org/2000/svg">
<path d="M3.04 12L0.32 0.832H1.744L2.944 6.208L3.872 10.384H3.904L4.944 6.208L6.352 0.832H7.888L9.248 6.208L10.288 10.368H10.336L11.296 6.208L12.56 0.832H13.936L11.072 12H9.584L8.128 6.432L7.104 2.336H7.072L6.016 6.432L4.528 12H3.04ZM15.77 0.16H17.05V5.088H17.114C17.3167 4.61867 17.5993 4.24533 17.962 3.968C18.3353 3.69067 18.8313 3.552 19.45 3.552C20.3033 3.552 20.9753 3.82933 21.466 4.384C21.9673 4.928 22.218 5.70133 22.218 6.704V12H20.938V6.928C20.938 5.44533 20.314 4.704 19.066 4.704C18.81 4.704 18.5593 4.736 18.314 4.8C18.0793 4.864 17.866 4.96 17.674 5.088C17.482 5.216 17.3273 5.38133 17.21 5.584C17.1033 5.776 17.05 6.00533 17.05 6.272V12H15.77V0.16ZM29.9868 3.744H31.2508L27.5547 13.92C27.4587 14.1653 27.3627 14.368 27.2667 14.528C27.1707 14.6987 27.0534 14.832 26.9147 14.928C26.7761 15.024 26.6001 15.0933 26.3867 15.136C26.1841 15.1787 25.9334 15.2 25.6347 15.2H24.9787V14.08H26.2747L26.8987 12.32L23.8107 3.744H25.0907L27.0747 9.36L27.4587 10.704H27.5387L27.9868 9.36L29.9868 3.744ZM37.1124 0.832H40.8564C41.5497 0.832 42.179 0.949333 42.7444 1.184C43.3097 1.41867 43.7897 1.77067 44.1844 2.24C44.5897 2.69867 44.899 3.28 45.1124 3.984C45.3257 4.67733 45.4324 5.488 45.4324 6.416C45.4324 7.344 45.3257 8.16 45.1124 8.864C44.899 9.55733 44.5897 10.1387 44.1844 10.608C43.7897 11.0667 43.3097 11.4133 42.7444 11.648C42.179 11.8827 41.5497 12 40.8564 12H37.1124V0.832ZM40.8564 10.816C41.315 10.816 41.7364 10.7413 42.1204 10.592C42.5044 10.432 42.835 10.2027 43.1124 9.904C43.3897 9.60533 43.603 9.24267 43.7524 8.816C43.9124 8.37867 43.9924 7.88267 43.9924 7.328V5.504C43.9924 4.94933 43.9124 4.45867 43.7524 4.032C43.603 3.59467 43.3897 3.22667 43.1124 2.928C42.835 2.62933 42.5044 2.40533 42.1204 2.256C41.7364 2.096 41.315 2.016 40.8564 2.016H38.4564V10.816H40.8564ZM50.9987 12.192C50.4441 12.192 49.9374 12.0907 49.4787 11.888C49.0201 11.6853 48.6254 11.3973 48.2947 11.024C47.9747 10.64 47.7241 10.1867 47.5427 9.664C47.3614 9.13067 47.2707 8.53333 47.2707 7.872C47.2707 7.22133 47.3614 6.62933 47.5427 6.096C47.7241 5.56267 47.9747 5.10933 48.2947 4.736C48.6254 4.352 49.0201 4.05867 49.4787 3.856C49.9374 3.65333 50.4441 3.552 50.9987 3.552C51.5534 3.552 52.0547 3.65333 52.5027 3.856C52.9614 4.05867 53.3561 4.352 53.6867 4.736C54.0174 5.10933 54.2734 5.56267 54.4547 6.096C54.6361 6.62933 54.7267 7.22133 54.7267 7.872C54.7267 8.53333 54.6361 9.13067 54.4547 9.664C54.2734 10.1867 54.0174 10.64 53.6867 11.024C53.3561 11.3973 52.9614 11.6853 52.5027 11.888C52.0547 12.0907 51.5534 12.192 50.9987 12.192ZM50.9987 11.056C51.6921 11.056 52.2574 10.8427 52.6947 10.416C53.1321 9.98933 53.3507 9.33867 53.3507 8.464V7.28C53.3507 6.40533 53.1321 5.75467 52.6947 5.328C52.2574 4.90133 51.6921 4.688 50.9987 4.688C50.3054 4.688 49.7401 4.90133 49.3027 5.328C48.8654 5.75467 48.6467 6.40533 48.6467 7.28V8.464C48.6467 9.33867 48.8654 9.98933 49.3027 10.416C49.7401 10.8427 50.3054 11.056 50.9987 11.056ZM63.6211 12V7.584L59.7811 0.832H61.3171L64.2931 6.208H64.3411L67.3171 0.832H68.8531L64.9651 7.536V12H63.6211ZM72.9006 12.192C72.346 12.192 71.8393 12.0907 71.3806 11.888C70.922 11.6853 70.5273 11.3973 70.1966 11.024C69.8766 10.64 69.626 10.1867 69.4446 9.664C69.2633 9.13067 69.1726 8.53333 69.1726 7.872C69.1726 7.22133 69.2633 6.62933 69.4446 6.096C69.626 5.56267 69.8766 5.10933 70.1966 4.736C70.5273 4.352 70.922 4.05867 71.3806 3.856C71.8393 3.65333 72.346 3.552 72.9006 3.552C73.4553 3.552 73.9566 3.65333 74.4046 3.856C74.8633 4.05867 75.258 4.352 75.5886 4.736C75.9193 5.10933 76.1753 5.56267 76.3566 6.096C76.538 6.62933 76.6286 7.22133 76.6286 7.872C76.6286 8.53333 76.538 9.13067 76.3566 9.664C76.1753 10.1867 75.9193 10.64 75.5886 11.024C75.258 11.3973 74.8633 11.6853 74.4046 11.888C73.9566 12.0907 73.4553 12.192 72.9006 12.192ZM72.9006 11.056C73.594 11.056 74.1593 10.8427 74.5966 10.416C75.034 9.98933 75.2526 9.33867 75.2526 8.464V7.28C75.2526 6.40533 75.034 5.75467 74.5966 5.328C74.1593 4.90133 73.594 4.688 72.9006 4.688C72.2073 4.688 71.642 4.90133 71.2046 5.328C70.7673 5.75467 70.5486 6.40533 70.5486 7.28V8.464C70.5486 9.33867 70.7673 9.98933 71.2046 10.416C71.642 10.8427 72.2073 11.056 72.9006 11.056ZM83.9818 10.656H83.9178C83.8324 10.848 83.7258 11.04 83.5978 11.232C83.4804 11.4133 83.3311 11.5787 83.1498 11.728C82.9684 11.8667 82.7498 11.9787 82.4938 12.064C82.2378 12.1493 81.9391 12.192 81.5978 12.192C80.7444 12.192 80.0671 11.92 79.5658 11.376C79.0644 10.8213 78.8138 10.0427 78.8138 9.04V3.744H80.0938V8.816C80.0938 10.2987 80.7231 11.04 81.9818 11.04C82.2378 11.04 82.4831 11.008 82.7178 10.944C82.9631 10.88 83.1764 10.784 83.3578 10.656C83.5498 10.528 83.6991 10.368 83.8058 10.176C83.9231 9.97333 83.9818 9.73333 83.9818 9.456V3.744H85.2618V12H83.9818V10.656ZM93.7688 12L91.0488 0.832H92.4728L93.6728 6.208L94.6008 10.384H94.6328L95.6728 6.208L97.0808 0.832H98.6168L99.9768 6.208L101.017 10.368H101.065L102.025 6.208L103.289 0.832H104.665L101.801 12H100.313L98.8568 6.432L97.8328 2.336H97.8008L96.7448 6.432L95.2568 12H93.7688ZM112.342 12C111.862 12 111.516 11.872 111.302 11.616C111.1 11.36 110.972 11.04 110.918 10.656H110.838C110.657 11.168 110.358 11.552 109.942 11.808C109.526 12.064 109.03 12.192 108.454 12.192C107.58 12.192 106.897 11.968 106.406 11.52C105.926 11.072 105.686 10.464 105.686 9.696C105.686 8.91733 105.969 8.32 106.534 7.904C107.11 7.488 108.001 7.28 109.206 7.28H110.838V6.464C110.838 5.87733 110.678 5.42933 110.358 5.12C110.038 4.81067 109.548 4.656 108.886 4.656C108.385 4.656 107.964 4.768 107.622 4.992C107.292 5.216 107.014 5.51467 106.79 5.888L106.022 5.168C106.246 4.72 106.604 4.34133 107.094 4.032C107.585 3.712 108.204 3.552 108.95 3.552C109.953 3.552 110.732 3.79733 111.286 4.288C111.841 4.77867 112.118 5.46133 112.118 6.336V10.88H113.062V12H112.342ZM108.662 11.104C108.982 11.104 109.276 11.0667 109.542 10.992C109.809 10.9173 110.038 10.8107 110.23 10.672C110.422 10.5333 110.572 10.3733 110.678 10.192C110.785 10.0107 110.838 9.81333 110.838 9.6V8.24H109.142C108.406 8.24 107.868 8.34667 107.526 8.56C107.196 8.77333 107.03 9.08267 107.03 9.488V9.824C107.03 10.2293 107.174 10.544 107.462 10.768C107.761 10.992 108.161 11.104 108.662 11.104ZM115.049 12V3.744H116.329V5.088H116.393C116.596 4.61867 116.879 4.24533 117.241 3.968C117.615 3.69067 118.111 3.552 118.729 3.552C119.583 3.552 120.255 3.82933 120.745 4.384C121.247 4.928 121.497 5.70133 121.497 6.704V12H120.217V6.928C120.217 5.44533 119.593 4.704 118.345 4.704C118.089 4.704 117.839 4.736 117.593 4.8C117.359 4.864 117.145 4.96 116.953 5.088C116.761 5.216 116.607 5.38133 116.489 5.584C116.383 5.776 116.329 6.00533 116.329 6.272V12H115.049ZM126.127 12C125.679 12 125.338 11.8773 125.103 11.632C124.879 11.376 124.767 11.0453 124.767 10.64V4.864H123.407V3.744H124.175C124.452 3.744 124.639 3.69067 124.735 3.584C124.842 3.46667 124.895 3.26933 124.895 2.992V1.456H126.047V3.744H127.855V4.864H126.047V10.88H127.727V12H126.127ZM139.406 0.832V9.104C139.406 9.57333 139.326 10 139.166 10.384C139.016 10.768 138.798 11.0933 138.51 11.36C138.232 11.6267 137.896 11.8347 137.502 11.984C137.107 12.1227 136.675 12.192 136.206 12.192C135.342 12.192 134.643 11.9627 134.11 11.504C133.587 11.0347 133.251 10.416 133.102 9.648L134.318 9.36C134.424 9.84 134.627 10.2347 134.926 10.544C135.224 10.8427 135.662 10.992 136.238 10.992C136.814 10.992 137.262 10.816 137.582 10.464C137.902 10.112 138.062 9.57867 138.062 8.864V2.016H134.222V0.832H139.406ZM145.45 12.192C144.895 12.192 144.389 12.0907 143.93 11.888C143.471 11.6853 143.077 11.3973 142.746 11.024C142.426 10.64 142.175 10.1867 141.994 9.664C141.813 9.13067 141.722 8.53333 141.722 7.872C141.722 7.22133 141.813 6.62933 141.994 6.096C142.175 5.56267 142.426 5.10933 142.746 4.736C143.077 4.352 143.471 4.05867 143.93 3.856C144.389 3.65333 144.895 3.552 145.45 3.552C146.005 3.552 146.506 3.65333 146.954 3.856C147.413 4.05867 147.807 4.352 148.138 4.736C148.469 5.10933 148.725 5.56267 148.906 6.096C149.087 6.62933 149.178 7.22133 149.178 7.872C149.178 8.53333 149.087 9.13067 148.906 9.664C148.725 10.1867 148.469 10.64 148.138 11.024C147.807 11.3973 147.413 11.6853 146.954 11.888C146.506 12.0907 146.005 12.192 145.45 12.192ZM145.45 11.056C146.143 11.056 146.709 10.8427 147.146 10.416C147.583 9.98933 147.802 9.33867 147.802 8.464V7.28C147.802 6.40533 147.583 5.75467 147.146 5.328C146.709 4.90133 146.143 4.688 145.45 4.688C144.757 4.688 144.191 4.90133 143.754 5.328C143.317 5.75467 143.098 6.40533 143.098 7.28V8.464C143.098 9.33867 143.317 9.98933 143.754 10.416C144.191 10.8427 144.757 11.056 145.45 11.056ZM152.083 1.808C151.806 1.808 151.603 1.744 151.475 1.616C151.358 1.47733 151.299 1.30133 151.299 1.088V0.879999C151.299 0.666666 151.358 0.495999 151.475 0.367999C151.603 0.229333 151.806 0.16 152.083 0.16C152.36 0.16 152.558 0.229333 152.675 0.367999C152.803 0.495999 152.867 0.666666 152.867 0.879999V1.088C152.867 1.30133 152.803 1.47733 152.675 1.616C152.558 1.744 152.36 1.808 152.083 1.808ZM151.443 3.744H152.723V12H151.443V3.744ZM155.603 12V3.744H156.883V5.088H156.947C157.15 4.61867 157.432 4.24533 157.795 3.968C158.168 3.69067 158.664 3.552 159.283 3.552C160.136 3.552 160.808 3.82933 161.299 4.384C161.8 4.928 162.051 5.70133 162.051 6.704V12H160.771V6.928C160.771 5.44533 160.147 4.704 158.899 4.704C158.643 4.704 158.392 4.736 158.147 4.8C157.912 4.864 157.699 4.96 157.507 5.088C157.315 5.216 157.16 5.38133 157.043 5.584C156.936 5.776 156.883 6.00533 156.883 6.272V12H155.603ZM170.19 0.832V7.744C170.19 8.81067 170.387 9.62133 170.782 10.176C171.177 10.72 171.87 10.992 172.862 10.992C173.854 10.992 174.547 10.72 174.942 10.176C175.337 9.62133 175.534 8.81067 175.534 7.744V0.832H176.878V7.424C176.878 8.23467 176.803 8.93867 176.654 9.536C176.515 10.1333 176.286 10.6293 175.966 11.024C175.646 11.4187 175.225 11.712 174.702 11.904C174.19 12.096 173.561 12.192 172.814 12.192C172.067 12.192 171.438 12.096 170.926 11.904C170.425 11.712 170.019 11.4187 169.71 11.024C169.401 10.6293 169.177 10.1333 169.038 9.536C168.91 8.93867 168.846 8.23467 168.846 7.424V0.832H170.19ZM182.282 12.192C181.514 12.192 180.869 12.048 180.346 11.76C179.834 11.4613 179.391 11.0667 179.018 10.576L179.93 9.84C180.25 10.2453 180.607 10.56 181.002 10.784C181.397 10.9973 181.855 11.104 182.378 11.104C182.922 11.104 183.343 10.9867 183.642 10.752C183.951 10.5173 184.106 10.1867 184.106 9.76C184.106 9.44 183.999 9.168 183.786 8.944C183.583 8.70933 183.21 8.54933 182.666 8.464L182.01 8.368C181.626 8.31467 181.274 8.23467 180.954 8.128C180.634 8.01067 180.351 7.86133 180.106 7.68C179.871 7.488 179.685 7.25333 179.546 6.976C179.418 6.69867 179.354 6.368 179.354 5.984C179.354 5.57867 179.429 5.22667 179.578 4.928C179.727 4.61867 179.93 4.36267 180.186 4.16C180.453 3.95733 180.767 3.808 181.13 3.712C181.493 3.60533 181.882 3.552 182.298 3.552C182.97 3.552 183.53 3.66933 183.978 3.904C184.437 4.13867 184.837 4.464 185.178 4.88L184.33 5.648C184.149 5.392 183.882 5.16267 183.53 4.96C183.178 4.74667 182.735 4.64 182.202 4.64C181.669 4.64 181.263 4.75733 180.986 4.992C180.719 5.216 180.586 5.52533 180.586 5.92C180.586 6.32533 180.719 6.61867 180.986 6.8C181.263 6.98133 181.658 7.11467 182.17 7.2L182.81 7.296C183.727 7.43467 184.378 7.70133 184.762 8.096C185.146 8.48 185.338 8.98667 185.338 9.616C185.338 10.416 185.066 11.0453 184.522 11.504C183.978 11.9627 183.231 12.192 182.282 12.192ZM189.263 8.672V6.048C190.137 6.00533 190.82 5.792 191.311 5.408C191.812 5.024 192.063 4.496 192.063 3.824V3.6C192.063 3.056 191.892 2.624 191.551 2.304C191.209 1.97333 190.751 1.808 190.175 1.808C189.556 1.808 189.06 1.984 188.687 2.336C188.324 2.688 188.079 3.136 187.951 3.68L186.767 3.232C186.863 2.89067 187.001 2.56533 187.183 2.256C187.375 1.936 187.609 1.65867 187.887 1.424C188.175 1.17867 188.511 0.986666 188.895 0.848C189.279 0.709333 189.721 0.639999 190.223 0.639999C191.215 0.639999 191.999 0.911999 192.575 1.456C193.151 2 193.439 2.736 193.439 3.664C193.439 4.176 193.348 4.624 193.167 5.008C192.996 5.38133 192.772 5.70133 192.495 5.968C192.217 6.23467 191.903 6.448 191.551 6.608C191.199 6.768 190.847 6.88 190.495 6.944V8.672H189.263ZM189.887 12.192C189.545 12.192 189.295 12.1067 189.135 11.936C188.985 11.7653 188.911 11.5413 188.911 11.264V11.056C188.911 10.7787 188.985 10.5547 189.135 10.384C189.295 10.2133 189.545 10.128 189.887 10.128C190.228 10.128 190.473 10.2133 190.623 10.384C190.783 10.5547 190.863 10.7787 190.863 11.056V11.264C190.863 11.5413 190.783 11.7653 190.623 11.936C190.473 12.1067 190.228 12.192 189.887 12.192Z" fill="white"/>
</svg>
